<svg width="85" height="73" viewBox="0 0 85 73" fill="none" xmlns="http://www.w3.org/2000/svg">
<path d="M79.1667 0H5.83333C4.28624 0 2.80251 0.626016 1.70854 1.74033C0.614582 2.85465 0 4.36598 0 5.94186V67.0581C0 68.634 0.614582 70.1454 1.70854 71.2597C2.80251 72.374 4.28624 73 5.83333 73H79.1667C80.7138 73 82.1975 72.374 83.2915 71.2597C84.3854 70.1454 85 68.634 85 67.0581V5.94186C85 4.36598 84.3854 2.85465 83.2915 1.74033C82.1975 0.626016 80.7138 0 79.1667 0ZM5.83333 5.09302H79.1667C79.3877 5.09302 79.5996 5.18245 79.7559 5.34164C79.9122 5.50083 80 5.71673 80 5.94186V54.1134L66.625 40.4895C65.5257 39.3854 64.0439 38.7664 62.5 38.7664C60.9561 38.7664 59.4743 39.3854 58.375 40.4895L49.75 49.275C49.6758 49.3573 49.5857 49.4231 49.4853 49.468C49.3849 49.513 49.2764 49.5362 49.1667 49.5362C49.057 49.5362 48.9485 49.513 48.8481 49.468C48.7476 49.4231 48.6575 49.3573 48.5833 49.275L29.9583 30.3035C28.859 29.1993 27.3772 28.5803 25.8333 28.5803C24.2895 28.5803 22.8076 29.1993 21.7083 30.3035L5 47.3227V5.94186C5 5.71673 5.0878 5.50083 5.24408 5.34164C5.40036 5.18245 5.61232 5.09302 5.83333 5.09302ZM79.1667 67.907H5.83333C5.61232 67.907 5.40036 67.8175 5.24408 67.6584C5.0878 67.4992 5 67.2833 5 67.0581V54.5378L25.25 33.911C25.3242 33.8287 25.4143 33.763 25.5147 33.718C25.6151 33.673 25.7236 33.6498 25.8333 33.6498C25.943 33.6498 26.0515 33.673 26.1519 33.718C26.2524 33.763 26.3425 33.8287 26.4167 33.911L45.0417 52.8826C46.141 53.9867 47.6228 54.6057 49.1667 54.6057C50.7105 54.6057 52.1924 53.9867 53.2917 52.8826L61.9167 44.0971C61.9908 44.0148 62.081 43.949 62.1814 43.9041C62.2818 43.8591 62.3903 43.8359 62.5 43.8359C62.6097 43.8359 62.7182 43.8591 62.8186 43.9041C62.919 43.949 63.0092 44.0148 63.0833 44.0971L80 61.3285V67.0581C80 67.2833 79.9122 67.4992 79.7559 67.6584C79.5996 67.8175 79.3877 67.907 79.1667 67.907ZM51.2083 27.6297C50.8203 27.2345 50.5135 26.7644 50.3061 26.247C50.0986 25.7296 49.9945 25.1752 50 24.6163C50 23.4907 50.439 22.4111 51.2204 21.6152C52.0018 20.8192 53.0616 20.3721 54.1667 20.3721C55.2717 20.3721 56.3315 20.8192 57.113 21.6152C57.8944 22.4111 58.3333 23.4907 58.3333 24.6163C58.3333 25.7419 57.8944 26.8214 57.113 27.6174C56.3315 28.4133 55.2717 28.8605 54.1667 28.8605C53.618 28.866 53.0737 28.7601 52.5657 28.5487C52.0578 28.3374 51.5963 28.0249 51.2083 27.6297Z" fill="#1A2233" fill-opacity="0.1"/>
</svg>
