<svg width="7" height="11" viewBox="0 0 7 11" fill="none" xmlns="http://www.w3.org/2000/svg">
<path d="M1.66896 0.225156C1.53415 0.10377 1.37467 0.0361328 1.18903 0.0361328C0.804909 0.0361328 0.5 0.321361 0.5 0.688116C0.5 0.872509 0.581876 1.03793 0.711257 1.1618L5.15202 5.31484V4.76254L0.711257 8.9115C0.580819 9.03898 0.5 9.20544 0.5 9.38418C0.5 9.7499 0.804909 10.0361 1.18903 10.0361C1.37573 10.0361 1.53627 9.96955 1.66896 9.84612L6.26423 5.54731C6.42192 5.4046 6.49788 5.23092 6.5 5.03898C6.5 4.84339 6.42298 4.67797 6.26423 4.52598L1.66896 0.225156Z" fill="#1A2233"/>
</svg>
