<svg width="17" height="15" viewBox="0 0 17 15" fill="none" xmlns="http://www.w3.org/2000/svg">
<path d="M0.108887 7.72461C0.108887 7.34491 0.391041 7.03112 0.757116 6.98146L0.858887 6.97461L15.8589 6.97461C16.2731 6.97461 16.6089 7.3104 16.6089 7.72461C16.6089 8.10431 16.3267 8.4181 15.9607 8.46776L15.8589 8.47461L0.858887 8.47461C0.444673 8.47461 0.108887 8.13882 0.108887 7.72461Z" fill="#1A2233"/>
<path d="M9.2799 2.23247C8.98637 1.94021 8.98535 1.46534 9.27761 1.17181C9.5433 0.904974 9.95991 0.879871 10.254 1.09709L10.3383 1.16953L16.3883 7.19353C16.6559 7.46002 16.6803 7.87813 16.4613 8.1722L16.3883 8.25643L10.3383 14.2814C10.0448 14.5737 9.56994 14.5727 9.27766 14.2792C9.01194 14.0124 8.9886 13.5957 9.20706 13.3025L9.27985 13.2186L14.7959 7.7247L9.2799 2.23247Z" fill="#1A2233"/>
</svg>
