<svg width="17" height="14" viewBox="0 0 17 14" xmlns="http://www.w3.org/2000/svg">
<path d="M8.80992 11.3915C11.0769 11.3915 14.0507 11.2775 15.3086 11.1327C16.2686 11.0248 16.8105 10.4805 16.8105 9.57242V8.40435C16.8105 7.23736 16.6028 6.58483 15.9755 5.78603L15.3875 5.04829C15.1461 3.85368 14.7027 2.60053 14.4746 2.10822C14.1031 1.3284 13.3933 0.859846 12.4771 0.7368C12.0014 0.672292 10.5755 0.636719 8.80992 0.636719C7.05105 0.636719 5.6251 0.677734 5.14938 0.7368C4.23205 0.848961 3.51674 1.32721 3.15186 2.10822C2.91957 2.60053 2.48035 3.85368 2.2324 5.04829L1.64983 5.78603C1.01828 6.58483 0.810547 7.23736 0.810547 8.40435V9.57242C0.810547 10.4805 1.35794 11.0248 2.31244 11.1327C3.57581 11.2775 6.54418 11.3915 8.80992 11.3915ZM8.80992 10.337C6.53552 10.337 3.70522 10.2272 2.62595 10.0968C2.06064 10.0317 1.85198 9.74447 1.85198 9.23766V8.34823C1.85198 7.45092 2.0171 7.02498 2.49176 6.40298L3.20335 5.46707C3.3706 4.57403 3.79601 3.19995 4.07781 2.60251C4.29735 2.13502 4.71905 1.86278 5.30269 1.78978C5.75253 1.73191 7.05678 1.67457 8.80992 1.67457C10.5686 1.67457 11.8903 1.73429 12.3075 1.78978C12.9063 1.86584 13.3202 2.14046 13.5487 2.60729C13.8269 3.19279 14.2524 4.56447 14.4177 5.46707L15.1336 6.40298C15.604 7.02498 15.7691 7.45092 15.7691 8.34823V9.23766C15.7691 9.74447 15.5592 10.0317 14.9951 10.0968C13.9201 10.2272 11.0856 10.337 8.80992 10.337ZM2.04843 13.225H2.84285C3.34896 13.225 3.74226 12.8329 3.74226 12.331V10.7049L1.14902 10.2347V12.331C1.14902 12.8329 1.54231 13.225 2.04843 13.225ZM14.7783 13.225H15.5781C16.0842 13.225 16.472 12.8329 16.472 12.331V10.2347L13.8842 10.7049V12.331C13.8842 12.8329 14.2721 13.225 14.7783 13.225Z"/>
<path d="M6.75317 6.38767C6.75317 6.51549 6.85874 6.60893 6.99438 6.60893H8.59008L7.73492 8.88017C7.61066 9.20643 7.96587 9.38975 8.18351 9.12556L10.7898 5.86973C10.8495 5.8088 10.8827 5.73341 10.8827 5.6701C10.8827 5.54227 10.7705 5.44339 10.6373 5.44339H9.04576L9.89554 3.1776C10.0156 2.84589 9.66459 2.66803 9.45358 2.93217L6.83524 6.18803C6.78636 6.2544 6.75317 6.31891 6.75317 6.38767Z"/>
</svg>
