<svg width="10" height="14" viewBox="0 0 10 14" xmlns="http://www.w3.org/2000/svg">
<path d="M2.70563 6.31639H7.35393C7.56458 6.31639 7.74203 6.14764 7.74203 5.94327C7.74203 5.73791 7.56458 5.56581 7.35393 5.56581H2.70563C2.49495 5.56581 2.31655 5.73791 2.31655 5.94327C2.31655 6.14764 2.49495 6.31639 2.70563 6.31639ZM2.70563 8.19536H7.35393C7.57009 8.19536 7.74203 8.02855 7.74203 7.81884C7.74203 7.61348 7.56907 7.45102 7.35393 7.45102H2.70563C2.49046 7.45102 2.31655 7.61348 2.31655 7.81884C2.31655 8.02855 2.48849 8.19536 2.70563 8.19536ZM2.70563 10.1761H5.0861C5.29675 10.1761 5.47069 10.0084 5.47069 9.803C5.47069 9.59863 5.30226 9.43183 5.0861 9.43183H2.70563C2.49046 9.43183 2.31655 9.59863 2.31655 9.803C2.31655 10.0084 2.49495 10.1761 2.70563 10.1761ZM2.12546 13.5322H7.93214C9.0954 13.5322 9.71227 12.9284 9.71227 11.7829V3.75075C9.71227 2.628 9.11436 2.00154 7.98247 2.00154H7.85901C7.87927 2.0679 7.88712 2.1434 7.88712 2.21836V2.7105C7.88712 2.82029 7.87475 2.92722 7.84458 3.0197H7.96015C8.42427 3.0197 8.6628 3.31201 8.6628 3.76137V11.7723C8.6628 12.2478 8.3964 12.514 7.88637 12.514H2.1722C1.66119 12.514 1.39578 12.2478 1.39578 11.7723V3.76137C1.39578 3.31201 1.63427 3.0197 2.09843 3.0197H2.21302C2.18281 2.92722 2.17044 2.82029 2.17044 2.7105V2.21836C2.17044 2.1434 2.17833 2.0679 2.19956 2.00154H2.07512C0.944216 2.00154 0.346313 2.628 0.346313 3.75075V11.7829C0.346313 12.9284 0.962162 13.5322 2.12546 13.5322ZM3.34228 3.32051H6.71531C7.04452 3.32051 7.24294 3.11643 7.24294 2.7758V2.21836C7.24294 1.87678 7.04452 1.67365 6.71531 1.67365H6.25123C6.21 1.05654 5.68181 0.556641 5.02927 0.556641C4.37677 0.556641 3.84858 1.05654 3.80732 1.67365H3.34228C3.01405 1.67365 2.81563 1.87678 2.81563 2.21836V2.7758C2.81563 3.11643 3.01405 3.32051 3.34228 3.32051ZM5.02927 2.18566C4.76267 2.18566 4.5463 1.97043 4.5463 1.71804C4.5463 1.45598 4.76267 1.24607 5.02927 1.24607C5.29591 1.24607 5.51127 1.45598 5.51127 1.71804C5.51127 1.97043 5.29591 2.18566 5.02927 2.18566Z"`/>
</svg>
