<svg width="10" height="10" viewBox="0 0 10 10" xmlns="http://www.w3.org/2000/svg">
<path d="M3.98935 2.50903L3.98935 2.50935C3.98982 2.57899 3.97913 2.6834 3.9077 2.77928C3.83634 2.87505 3.73986 2.91457 3.67586 2.93358L3.67571 2.93363C3.5594 2.96812 3.44422 3.00802 3.3215 3.05053C3.30943 3.05471 3.29728 3.05891 3.28506 3.06314L3.28496 3.06318C3.19215 3.09525 3.08206 3.10701 2.96256 3.0655C2.95236 3.06197 2.94221 3.05844 2.93211 3.05493C2.79921 3.00881 2.67344 2.96515 2.54659 2.92706C2.47395 2.90533 2.37911 2.85963 2.31443 2.75863C2.25491 2.66569 2.25037 2.56979 2.25065 2.51861M3.98935 2.50903L2.25065 2.51861M3.98935 2.50903C3.98777 2.30383 3.98793 2.09167 3.98809 1.87801C3.98828 1.61205 3.98848 1.34378 3.98533 1.08373C3.98531 1.0819 3.98531 1.08015 3.98531 1.07846M3.98935 2.50903L3.98531 1.07846M2.25065 2.51861C2.25154 2.33171 2.25134 2.14205 2.25113 1.95136M2.25065 2.51861L2.25113 1.95136M1.08007 3.22089L1.08006 3.22089C1.18206 3.87821 1.50762 4.37174 2.07351 4.7159L2.07365 4.71599C2.14186 4.75752 2.21411 4.81752 2.26309 4.90974C2.31096 4.99987 2.31987 5.08969 2.31987 5.15862V5.15914C2.31778 6.3658 2.318 7.57245 2.31821 8.77944C2.31825 8.98021 2.31828 9.18099 2.31831 9.38178C2.66945 9.3819 3.02053 9.38186 3.3717 9.38182C3.54747 9.3818 3.72326 9.38178 3.89909 9.38178C3.90692 9.38178 3.91396 9.38162 3.92027 9.38133C3.92052 9.37551 3.92066 9.36906 3.92066 9.36194V9.3619C3.92068 9.17032 3.92071 8.97875 3.92075 8.78719C3.92096 7.57354 3.92117 6.36015 3.91892 5.14688L1.08007 3.22089ZM1.08007 3.22089L1.07982 3.21935M1.08007 3.22089L1.07982 3.21935M1.07982 3.21935C1.07766 3.20591 1.07498 3.1937 1.07246 3.18357V2.69461M1.07982 3.21935L1.07246 2.69461M3.98531 1.07846C4.4174 1.28626 4.74267 1.59614 4.95766 2.02282C5.44458 2.98943 5.09866 4.16648 4.16546 4.71719C4.16539 4.71724 4.16532 4.71728 4.16524 4.71732L4.31768 4.9757L3.98531 1.07846ZM2.25113 1.95136C2.25083 1.66257 2.25052 1.37144 2.25398 1.08401L2.25113 1.95136ZM1.07246 2.69461C1.11323 2.46277 1.16797 2.25359 1.26057 2.06354L1.07246 2.69461ZM2.254 1.07839C2.25401 1.08016 2.254 1.082 2.25398 1.08392L1.26059 2.06351C1.47829 1.61687 1.80868 1.29319 2.254 1.07839Z" stroke="white" stroke-width="0.6"/>
<path d="M4.72906 5.3996C4.72767 5.3388 4.74613 5.29838 4.79648 5.26127C5.38456 4.82732 5.75978 4.254 5.91342 3.53835C5.92822 3.46954 5.95749 3.4448 6.02995 3.44532L4.72906 5.3996ZM4.72906 5.3996C4.73237 5.55011 4.73481 5.70098 4.72837 5.85132L4.72906 5.3996ZM6.18808 5.71226C5.78656 5.71197 5.38424 5.71168 4.98203 5.71361C4.98308 5.6196 4.98175 5.52672 4.9799 5.43629C5.56767 4.9914 5.95688 4.40969 6.13358 3.69588C6.39574 3.69711 6.65925 3.69701 6.92201 3.69691C7.13784 3.69683 7.35316 3.69676 7.56681 3.69741L7.56687 3.69741C7.81276 3.69811 8.04179 3.89897 8.0707 4.13633C8.1112 4.47071 8.14722 4.8011 8.18342 5.1332C8.20438 5.32555 8.22541 5.51846 8.24741 5.71306C7.83916 5.71219 7.4309 5.71229 7.02304 5.7124C6.88927 5.71243 6.75554 5.71247 6.62187 5.71247H6.6217C6.47729 5.71247 6.33274 5.71236 6.18808 5.71226Z" stroke="white" stroke-width="0.5"/>
<mask id="path-3-inside-1_3429_108030">
<path d="M7.73597 7.59989C7.86906 7.59989 8.00231 7.6032 8.1354 7.59902C8.29723 7.59397 8.41254 7.48474 8.41202 7.34485C8.4115 7.20757 8.30036 7.09608 8.14289 7.09277C7.87672 7.08737 7.61037 7.08806 7.3442 7.09277C7.22976 7.09486 7.13639 7.14625 7.09423 7.2614C7.03187 7.43143 7.15398 7.59188 7.35413 7.59902C7.4813 7.60355 7.60863 7.59989 7.73597 7.59989Z"/>
</mask>
<path d="M7.73597 7.59989C7.86906 7.59989 8.00231 7.6032 8.1354 7.59902C8.29723 7.59397 8.41254 7.48474 8.41202 7.34485C8.4115 7.20757 8.30036 7.09608 8.14289 7.09277C7.87672 7.08737 7.61037 7.08806 7.3442 7.09277C7.22976 7.09486 7.13639 7.14625 7.09423 7.2614C7.03187 7.43143 7.15398 7.59188 7.35413 7.59902C7.4813 7.60355 7.60863 7.59989 7.73597 7.59989Z"/>
<path d="M9.24537 6.58355L9.74537 6.58329L9.74537 6.58278L9.24537 6.58355ZM9.24642 7.58317L9.7464 7.57943L9.7464 7.57925L9.24642 7.58317ZM9.15131 7.81643L9.50168 8.17314L9.50203 8.1728L9.15131 7.81643ZM8.83201 8.13628L9.19073 8.48458L9.19074 8.48457L8.83201 8.13628ZM8.70902 8.18663L8.70869 8.68663H8.70902V8.18663ZM4.82377 8.18715V8.68715L4.82445 8.68715L4.82377 8.18715ZM4.72953 8.09186L4.22954 8.08962L4.22953 8.09063L4.72953 8.09186ZM4.72901 6.57066L4.22902 6.57384L4.22902 6.57393L4.72901 6.57066ZM4.83457 6.46875L4.83615 5.96875L4.83571 5.96875L4.83457 6.46875ZM6.99007 6.97014C6.99146 6.97014 6.99285 6.97014 6.99424 6.97014C6.99563 6.97014 6.99703 6.97014 6.99842 6.97014C6.99981 6.97014 7.0012 6.97014 7.0026 6.97014C7.00399 6.97014 7.00538 6.97014 7.00677 6.97014C7.00816 6.97014 7.00956 6.97014 7.01095 6.97014C7.01234 6.97014 7.01373 6.97014 7.01512 6.97014C7.01652 6.97014 7.01791 6.97014 7.0193 6.97014C7.02069 6.97014 7.02209 6.97014 7.02348 6.97014C7.02487 6.97014 7.02626 6.97014 7.02765 6.97014C7.02905 6.97014 7.03044 6.97014 7.03183 6.97014C7.03322 6.97014 7.03462 6.97014 7.03601 6.97014C7.0374 6.97014 7.03879 6.97014 7.04018 6.97014C7.04158 6.97014 7.04297 6.97014 7.04436 6.97014C7.04575 6.97014 7.04715 6.97014 7.04854 6.97014C7.04993 6.97014 7.05132 6.97014 7.05271 6.97014C7.05411 6.97014 7.0555 6.97014 7.05689 6.97014C7.05828 6.97014 7.05967 6.97014 7.06107 6.97014C7.06246 6.97014 7.06385 6.97014 7.06524 6.97014C7.06664 6.97014 7.06803 6.97014 7.06942 6.97014C7.07081 6.97014 7.0722 6.97014 7.0736 6.97014C7.07499 6.97014 7.07638 6.97014 7.07777 6.97014C7.07917 6.97014 7.08056 6.97014 7.08195 6.97014C7.08334 6.97014 7.08473 6.97014 7.08613 6.97014C7.08752 6.97014 7.08891 6.97014 7.0903 6.97014C7.09169 6.97014 7.09309 6.97014 7.09448 6.97014C7.09587 6.97014 7.09726 6.97014 7.09866 6.97014C7.10005 6.97014 7.10144 6.97014 7.10283 6.97014C7.10422 6.97014 7.10562 6.97014 7.10701 6.97014C7.1084 6.97014 7.10979 6.97014 7.11119 6.97014C7.11258 6.97014 7.11397 6.97014 7.11536 6.97014C7.11675 6.97014 7.11815 6.97014 7.11954 6.97014C7.12093 6.97014 7.12232 6.97014 7.12371 6.97014C7.12511 6.97014 7.1265 6.97014 7.12789 6.97014C7.12928 6.97014 7.13068 6.97014 7.13207 6.97014C7.13346 6.97014 7.13485 6.97014 7.13624 6.97014C7.13764 6.97014 7.13903 6.97014 7.14042 6.97014C7.14181 6.97014 7.1432 6.97014 7.1446 6.97014C7.14599 6.97014 7.14738 6.97014 7.14877 6.97014C7.15017 6.97014 7.15156 6.97014 7.15295 6.97014C7.15434 6.97014 7.15573 6.97014 7.15713 6.97014C7.15852 6.97014 7.15991 6.97014 7.1613 6.97014C7.1627 6.97014 7.16409 6.97014 7.16548 6.97014C7.16687 6.97014 7.16826 6.97014 7.16966 6.97014C7.17105 6.97014 7.17244 6.97014 7.17383 6.97014C7.17522 6.97014 7.17662 6.97014 7.17801 6.97014C7.1794 6.97014 7.18079 6.97014 7.18219 6.97014C7.18358 6.97014 7.18497 6.97014 7.18636 6.97014C7.18775 6.97014 7.18915 6.97014 7.19054 6.97014C7.19193 6.97014 7.19332 6.97014 7.19471 6.97014C7.19611 6.97014 7.1975 6.97014 7.19889 6.97014C7.20028 6.97014 7.20168 6.97014 7.20307 6.97014C7.20446 6.97014 7.20585 6.97014 7.20724 6.97014C7.20864 6.97014 7.21003 6.97014 7.21142 6.97014C7.21281 6.97014 7.2142 6.97014 7.2156 6.97014C7.21699 6.97014 7.21838 6.97014 7.21977 6.97014C7.22117 6.97014 7.22256 6.97014 7.22395 6.97014C7.22534 6.97014 7.22673 6.97014 7.22813 6.97014C7.22952 6.97014 7.23091 6.97014 7.2323 6.97014C7.23369 6.97014 7.23509 6.97014 7.23648 6.97014C7.23787 6.97014 7.23926 6.97014 7.24065 6.97014C7.24205 6.97014 7.24344 6.97014 7.24483 6.97014C7.24622 6.97014 7.24762 6.97014 7.24901 6.97014C7.2504 6.97014 7.25179 6.97014 7.25318 6.97014C7.25458 6.97014 7.25597 6.97014 7.25736 6.97014C7.25875 6.97014 7.26014 6.97014 7.26154 6.97014C7.26293 6.97014 7.26432 6.97014 7.26571 6.97014C7.26711 6.97014 7.2685 6.97014 7.26989 6.97014C7.27128 6.97014 7.27267 6.97014 7.27407 6.97014C7.27546 6.97014 7.27685 6.97014 7.27824 6.97014C7.27963 6.97014 7.28103 6.97014 7.28242 6.97014C7.28381 6.97014 7.2852 6.97014 7.2866 6.97014C7.28799 6.97014 7.28938 6.97014 7.29077 6.97014C7.29216 6.97014 7.29356 6.97014 7.29495 6.97014C7.29634 6.97014 7.29773 6.97014 7.29912 6.97014C7.30052 6.97014 7.30191 6.97014 7.3033 6.97014C7.30469 6.97014 7.30608 6.97014 7.30748 6.97014C7.30887 6.97014 7.31026 6.97014 7.31165 6.97014C7.31305 6.97014 7.31444 6.97014 7.31583 6.97014C7.31722 6.97014 7.31861 6.97014 7.32001 6.97014C7.3214 6.97014 7.32279 6.97014 7.32418 6.97014C7.32557 6.97014 7.32697 6.97014 7.32836 6.97014C7.32975 6.97014 7.33114 6.97014 7.33253 6.97014C7.33393 6.97014 7.33532 6.97014 7.33671 6.97014C7.3381 6.97014 7.3395 6.97014 7.34089 6.97014C7.34228 6.97014 7.34367 6.97014 7.34506 6.97014C7.34646 6.97014 7.34785 6.97014 7.34924 6.97014C7.35063 6.97014 7.35202 6.97014 7.35342 6.97014C7.35481 6.97014 7.3562 6.97014 7.35759 6.97014C7.35898 6.97014 7.36038 6.97014 7.36177 6.97014C7.36316 6.97014 7.36455 6.97014 7.36595 6.97014C7.36734 6.97014 7.36873 6.97014 7.37012 6.97014C7.37151 6.97014 7.37291 6.97014 7.3743 6.97014C7.37569 6.97014 7.37708 6.97014 7.37847 6.97014C7.37987 6.97014 7.38126 6.97014 7.38265 6.97014C7.38404 6.97014 7.38543 6.97014 7.38683 6.97014C7.38822 6.97014 7.38961 6.97014 7.391 6.97014C7.3924 6.97014 7.39379 6.97014 7.39518 6.97014C7.39657 6.97014 7.39796 6.97014 7.39936 6.97014C7.40075 6.97014 7.40214 6.97014 7.40353 6.97014C7.40492 6.97014 7.40632 6.97014 7.40771 6.97014C7.4091 6.97014 7.41049 6.97014 7.41188 6.97014C7.41328 6.97014 7.41467 6.97014 7.41606 6.97014C7.41745 6.97014 7.41885 6.97014 7.42024 6.97014C7.42163 6.97014 7.42302 6.97014 7.42441 6.97014C7.42581 6.97014 7.4272 6.97014 7.42859 6.97014C7.42998 6.97014 7.43137 6.97014 7.43277 6.97014C7.43416 6.97014 7.43555 6.97014 7.43694 6.97014C7.43833 6.97014 7.43973 6.97014 7.44112 6.97014C7.44251 6.97014 7.4439 6.97014 7.44529 6.97014C7.44669 6.97014 7.44808 6.97014 7.44947 6.97014C7.45086 6.97014 7.45226 6.97014 7.45365 6.97014C7.45504 6.97014 7.45643 6.97014 7.45782 6.97014C7.45922 6.97014 7.46061 6.97014 7.462 6.97014C7.46339 6.97014 7.46478 6.97014 7.46618 6.97014C7.46757 6.97014 7.46896 6.97014 7.47035 6.97014C7.47174 6.97014 7.47314 6.97014 7.47453 6.97014C7.47592 6.97014 7.47731 6.97014 7.4787 6.97014C7.4801 6.97014 7.48149 6.97014 7.48288 6.97014C7.48427 6.97014 7.48567 6.97014 7.48706 6.97014C7.48845 6.97014 7.48984 6.97014 7.49123 6.97014C7.49263 6.97014 7.49402 6.97014 7.49541 6.97014C7.4968 6.97014 7.49819 6.97014 7.49959 6.97014C7.50098 6.97014 7.50237 6.97014 7.50376 6.97014C7.50515 6.97014 7.50655 6.97014 7.50794 6.97014C7.50933 6.97014 7.51072 6.97014 7.51211 6.97014C7.51351 6.97014 7.5149 6.97014 7.51629 6.97014C7.51768 6.97014 7.51908 6.97014 7.52047 6.97014C7.52186 6.97014 7.52325 6.97014 7.52464 6.97014C7.52604 6.97014 7.52743 6.97014 7.52882 6.97014C7.53021 6.97014 7.5316 6.97014 7.533 6.97014C7.53439 6.97014 7.53578 6.97014 7.53717 6.97014C7.53856 6.97014 7.53996 6.97014 7.54135 6.97014C7.54274 6.97014 7.54413 6.97014 7.54552 6.97014C7.54692 6.97014 7.54831 6.97014 7.5497 6.97014C7.55109 6.97014 7.55248 6.97014 7.55388 6.97014C7.55527 6.97014 7.55666 6.97014 7.55805 6.97014C7.55945 6.97014 7.56084 6.97014 7.56223 6.97014C7.56362 6.97014 7.56501 6.97014 7.56641 6.97014C7.5678 6.97014 7.56919 6.97014 7.57058 6.97014C7.57197 6.97014 7.57337 6.97014 7.57476 6.97014C7.57615 6.97014 7.57754 6.97014 7.57893 6.97014C7.58033 6.97014 7.58172 6.97014 7.58311 6.97014C7.5845 6.97014 7.58589 6.97014 7.58729 6.97014C7.58868 6.97014 7.59007 6.97014 7.59146 6.97014C7.59285 6.97014 7.59425 6.97014 7.59564 6.97014C7.59703 6.97014 7.59842 6.97014 7.59982 6.97014C7.60121 6.97014 7.6026 6.97014 7.60399 6.97014C7.60538 6.97014 7.60678 6.97014 7.60817 6.97014C7.60956 6.97014 7.61095 6.97014 7.61234 6.97014C7.61374 6.97014 7.61513 6.97014 7.61652 6.97014C7.61791 6.97014 7.6193 6.97014 7.6207 6.97014C7.62209 6.97014 7.62348 6.97014 7.62487 6.97014C7.62626 6.97014 7.62766 6.97014 7.62905 6.97014C7.63044 6.97014 7.63183 6.97014 7.63322 6.97014C7.63462 6.97014 7.63601 6.97014 7.6374 6.97014C7.63879 6.97014 7.64018 6.97014 7.64158 6.97014C7.64297 6.97014 7.64436 6.97014 7.64575 6.97014C7.64715 6.97014 7.64854 6.97014 7.64993 6.97014C7.65132 6.97014 7.65271 6.97014 7.65411 6.97014C7.6555 6.97014 7.65689 6.97014 7.65828 6.97014C7.65967 6.97014 7.66107 6.97014 7.66246 6.97014C7.66385 6.97014 7.66524 6.97014 7.66663 6.97014C7.66803 6.97014 7.66942 6.97014 7.67081 6.97014C7.6722 6.97014 7.67359 6.97014 7.67499 6.97014C7.67638 6.97014 7.67777 6.97014 7.67916 6.97014C7.68055 6.97014 7.68195 6.97014 7.68334 6.97014C7.68473 6.97014 7.68612 6.97014 7.68751 6.97014C7.68891 6.97014 7.6903 6.97014 7.69169 6.97014C7.69308 6.97014 7.69447 6.97014 7.69587 6.97014C7.69726 6.97014 7.69865 6.97014 7.70004 6.97014C7.70144 6.97014 7.70283 6.97014 7.70422 6.97014C7.70561 6.97014 7.707 6.97014 7.7084 6.97014C7.70979 6.97014 7.71118 6.97014 7.71257 6.97014C7.71396 6.97014 7.71536 6.97014 7.71675 6.97014C7.71814 6.97014 7.71953 6.97014 7.72092 6.97014C7.72232 6.97014 7.72371 6.97014 7.7251 6.97014C7.72649 6.97014 7.72788 6.97014 7.72928 6.97014C7.73067 6.97014 7.73206 6.97014 7.73345 6.97014C7.73484 6.97014 7.73624 6.97014 7.73763 6.97014C7.73902 6.97014 7.74041 6.97014 7.7418 6.97014C7.7432 6.97014 7.74459 6.97014 7.74598 6.97014C7.74737 6.97014 7.74876 6.97014 7.75016 6.97014C7.75155 6.97014 7.75294 6.97014 7.75433 6.97014C7.75573 6.97014 7.75712 6.97014 7.75851 6.97014C7.7599 6.97014 7.76129 6.97014 7.76269 6.97014C7.76408 6.97014 7.76547 6.97014 7.76686 6.97014C7.76825 6.97014 7.76965 6.97014 7.77104 6.97014C7.77243 6.97014 7.77382 6.97014 7.77521 6.97014C7.77661 6.97014 7.778 6.97014 7.77939 6.97014C7.78078 6.97014 7.78217 6.97014 7.78357 6.97014C7.78496 6.97014 7.78635 6.97014 7.78774 6.97014C7.78913 6.97014 7.79053 6.97014 7.79192 6.97014C7.79331 6.97014 7.7947 6.97014 7.79609 6.97014C7.79749 6.97014 7.79888 6.97014 7.80027 6.97014C7.80166 6.97014 7.80305 6.97014 7.80445 6.97014C7.80584 6.97014 7.80723 6.97014 7.80862 6.97014C7.81001 6.97014 7.81141 6.97014 7.8128 6.97014C7.81419 6.97014 7.81558 6.97014 7.81697 6.97014C7.81837 6.97014 7.81976 6.97014 7.82115 6.97014C7.82254 6.97014 7.82394 6.97014 7.82533 6.97014C7.82672 6.97014 7.82811 6.97014 7.8295 6.97014C7.8309 6.97014 7.83229 6.97014 7.83368 6.97014C7.83507 6.97014 7.83646 6.97014 7.83786 6.97014C7.83925 6.97014 7.84064 6.97014 7.84203 6.97014C7.84342 6.97014 7.84482 6.97014 7.84621 6.97014C7.8476 6.97014 7.84899 6.97014 7.85038 6.97014C7.85178 6.97014 7.85317 6.97014 7.85456 6.97014C7.85595 6.97014 7.85734 6.97014 7.85874 6.97014C7.86013 6.97014 7.86152 6.97014 7.86291 6.97014C7.8643 6.97014 7.8657 6.97014 7.86709 6.97014C7.86848 6.97014 7.86987 6.97014 7.87126 6.97014C7.87266 6.97014 7.87405 6.97014 7.87544 6.97014C7.87683 6.97014 7.87822 6.97014 7.87962 6.97014C7.88101 6.97014 7.8824 6.97014 7.88379 6.97014C7.88518 6.97014 7.88658 6.97014 7.88797 6.97014C7.88936 6.97014 7.89075 6.97014 7.89214 6.97014C7.89354 6.97014 7.89493 6.97014 7.89632 6.97014C7.89771 6.97014 7.89911 6.97014 7.9005 6.97014C7.90189 6.97014 7.90328 6.97014 7.90467 6.97014C7.90607 6.97014 7.90746 6.97014 7.90885 6.97014C7.91024 6.97014 7.91163 6.97014 7.91303 6.97014C7.91442 6.97014 7.91581 6.97014 7.9172 6.97014C7.91859 6.97014 7.91999 6.97014 7.92138 6.97014C7.92277 6.97014 7.92416 6.97014 7.92555 6.97014C7.92695 6.97014 7.92834 6.97014 7.92973 6.97014C7.93112 6.97014 7.93251 6.97014 7.93391 6.97014C7.9353 6.97014 7.93669 6.97014 7.93808 6.97014C7.93947 6.97014 7.94087 6.97014 7.94226 6.97014C7.94365 6.97014 7.94504 6.97014 7.94643 6.97014C7.94783 6.97014 7.94922 6.97014 7.95061 6.97014C7.952 6.97014 7.95339 6.97014 7.95479 6.97014C7.95618 6.97014 7.95757 6.97014 7.95896 6.97014C7.96035 6.97014 7.96175 6.97014 7.96314 6.97014C7.96453 6.97014 7.96592 6.97014 7.96731 6.97014C7.96871 6.97014 7.9701 6.97014 7.97149 6.97014C7.97288 6.97014 7.97428 6.97014 7.97567 6.97014C7.97706 6.97014 7.97845 6.97014 7.97984 6.97014C7.98124 6.97014 7.98263 6.97014 7.98402 6.97014C7.98541 6.97014 7.9868 6.97014 7.9882 6.97014C7.98959 6.97014 7.99098 6.97014 7.99237 6.97014C7.99376 6.97014 7.99516 6.97014 7.99655 6.97014C7.99794 6.97014 7.99933 6.97014 8.00072 6.97014C8.00212 6.97014 8.00351 6.97014 8.0049 6.97014C8.00629 6.97014 8.00768 6.97014 8.00908 6.97014C8.01047 6.97014 8.01186 6.97014 8.01325 6.97014C8.01464 6.97014 8.01604 6.97014 8.01743 6.97014C8.01882 6.97014 8.02021 6.97014 8.0216 6.97014C8.023 6.97014 8.02439 6.97014 8.02578 6.97014C8.02717 6.97014 8.02856 6.97014 8.02996 6.97014C8.03135 6.97014 8.03274 6.97014 8.03413 6.97014C8.03552 6.97014 8.03692 6.97014 8.03831 6.97014C8.0397 6.97014 8.04109 6.97014 8.04248 6.97014C8.04388 6.97014 8.04527 6.97014 8.04666 6.97014C8.04805 6.97014 8.04944 6.97014 8.05084 6.97014C8.05223 6.97014 8.05362 6.97014 8.05501 6.97014C8.0564 6.97014 8.0578 6.97014 8.05919 6.97014C8.06058 6.97014 8.06197 6.97014 8.06336 6.97014C8.06476 6.97014 8.06615 6.97014 8.06754 6.97014C8.06893 6.97014 8.07033 6.97014 8.07172 6.97014C8.07311 6.97014 8.0745 6.97014 8.07589 6.97014C8.07729 6.97014 8.07868 6.97014 8.08007 6.97014C8.08146 6.97014 8.08285 6.97014 8.08425 6.97014C8.08564 6.97014 8.08703 6.97014 8.08842 6.97014C8.08981 6.97014 8.09121 6.97014 8.0926 6.97014C8.09399 6.97014 8.09538 6.97014 8.09677 6.97014C8.09817 6.97014 8.09956 6.97014 8.10095 6.97014C8.10234 6.97014 8.10373 6.97014 8.10513 6.97014C8.10652 6.97014 8.10791 6.97014 8.1093 6.97014C8.11069 6.97014 8.11209 6.97014 8.11348 6.97014C8.11487 6.97014 8.11626 6.97014 8.11765 6.97014C8.11905 6.97014 8.12044 6.97014 8.12183 6.97014C8.12322 6.97014 8.12461 6.97014 8.12601 6.97014C8.1274 6.97014 8.12879 6.97014 8.13018 6.97014C8.13157 6.97014 8.13297 6.97014 8.13436 6.97014C8.13575 6.97014 8.13714 6.97014 8.13853 6.97014C8.13993 6.97014 8.14132 6.97014 8.14271 6.97014C8.1441 6.97014 8.14549 6.97014 8.14689 6.97014C8.14828 6.97014 8.14967 6.97014 8.15106 6.97014C8.15246 6.97014 8.15385 6.97014 8.15524 6.97014C8.15663 6.97014 8.15802 6.97014 8.15942 6.97014C8.16081 6.97014 8.1622 6.97014 8.16359 6.97014C8.16498 6.97014 8.16638 6.97014 8.16777 6.97014C8.16916 6.97014 8.17055 6.97014 8.17194 6.97014C8.17334 6.97014 8.17473 6.97014 8.17612 6.97014C8.17751 6.97014 8.1789 6.97014 8.1803 6.97014C8.18169 6.97014 8.18308 6.97014 8.18447 6.97014C8.18586 6.97014 8.18726 6.97014 8.18865 6.97014C8.19004 6.97014 8.19143 6.97014 8.19282 6.97014C8.19422 6.97014 8.19561 6.97014 8.197 6.97014C8.19839 6.97014 8.19978 6.97014 8.20118 6.97014C8.20257 6.97014 8.20396 6.97014 8.20535 6.97014C8.20674 6.97014 8.20814 6.97014 8.20953 6.97014C8.21092 6.97014 8.21231 6.97014 8.2137 6.97014C8.2151 6.97014 8.21649 6.97014 8.21788 6.97014C8.21927 6.97014 8.22066 6.97014 8.22206 6.97014C8.22345 6.97014 8.22484 6.97014 8.22623 6.97014C8.22762 6.97014 8.22902 6.97014 8.23041 6.97014C8.2318 6.97014 8.23319 6.97014 8.23459 6.97014C8.23598 6.97014 8.23737 6.97014 8.23876 6.97014C8.24015 6.97014 8.24155 6.97014 8.24294 6.97014C8.24433 6.97014 8.24572 6.97014 8.24711 6.97014C8.24851 6.97014 8.2499 6.97014 8.25129 6.97014C8.25268 6.97014 8.25407 6.97014 8.25547 6.97014C8.25686 6.97014 8.25825 6.97014 8.25964 6.97014C8.26103 6.97014 8.26243 6.97014 8.26382 6.97014C8.26521 6.97014 8.2666 6.97014 8.26799 6.97014C8.26939 6.97014 8.27078 6.97014 8.27217 6.97014C8.27356 6.97014 8.27495 6.97014 8.27635 6.97014C8.27774 6.97014 8.27913 6.97014 8.28052 6.97014C8.28191 6.97014 8.28331 6.97014 8.2847 6.97014C8.28609 6.97014 8.28748 6.97014 8.28887 6.97014C8.29027 6.97014 8.29166 6.97014 8.29305 6.97014C8.29444 6.97014 8.29583 6.97014 8.29723 6.97014C8.29862 6.97014 8.30001 6.97014 8.3014 6.97014C8.30279 6.97014 8.30419 6.97014 8.30558 6.97014C8.30697 6.97014 8.30836 6.97014 8.30976 6.97014C8.31115 6.97014 8.31254 6.97014 8.31393 6.97014C8.31532 6.97014 8.31672 6.97014 8.31811 6.97014C8.3195 6.97014 8.32089 6.97014 8.32228 6.97014C8.32368 6.97014 8.32507 6.97014 8.32646 6.97014C8.32785 6.97014 8.32924 6.97014 8.33064 6.97014C8.33203 6.97014 8.33342 6.97014 8.33481 6.97014C8.3362 6.97014 8.3376 6.97014 8.33899 6.97014C8.34038 6.97014 8.34177 6.97014 8.34316 6.97014C8.34456 6.97014 8.34595 6.97014 8.34734 6.97014C8.34873 6.97014 8.35012 6.97014 8.35152 6.97014C8.35291 6.97014 8.3543 6.97014 8.35569 6.97014C8.35708 6.97014 8.35848 6.97014 8.35987 6.97014C8.36126 6.97014 8.36265 6.97014 8.36404 6.97014C8.36544 6.97014 8.36683 6.97014 8.36822 6.97014C8.36961 6.97014 8.37101 6.97014 8.3724 6.97014C8.37379 6.97014 8.37518 6.97014 8.37657 6.97014C8.37797 6.97014 8.37936 6.97014 8.38075 6.97014C8.38214 6.97014 8.38353 6.97014 8.38493 6.97014C8.38632 6.97014 8.38771 6.97014 8.3891 6.97014C8.39049 6.97014 8.39189 6.97014 8.39328 6.97014C8.39467 6.97014 8.39606 6.97014 8.39745 6.97014C8.39885 6.97014 8.40024 6.97014 8.40163 6.97014C8.40302 6.97014 8.40441 6.97014 8.40581 6.97014C8.4072 6.97014 8.40859 6.97014 8.40998 6.97014C8.41137 6.97014 8.41277 6.97014 8.41416 6.97014C8.41555 6.97014 8.41694 6.97014 8.41833 6.97014C8.41973 6.97014 8.42112 6.97014 8.42251 6.97014C8.4239 6.97014 8.42529 6.97014 8.42669 6.97014C8.42808 6.97014 8.42947 6.97014 8.43086 6.97014C8.43226 6.97014 8.43365 6.97014 8.43504 6.97014C8.43643 6.97014 8.43782 6.97014 8.43922 6.97014C8.44061 6.97014 8.442 6.97014 8.44339 6.97014C8.44478 6.97014 8.44618 6.97014 8.44757 6.97014C8.44896 6.97014 8.45035 6.97014 8.45174 6.97014C8.45314 6.97014 8.45453 6.97014 8.45592 6.97014C8.45731 6.97014 8.4587 6.97014 8.4601 6.97014C8.46149 6.97014 8.46288 6.97014 8.46427 6.97014C8.46566 6.97014 8.46706 6.97014 8.46845 6.97014C8.46984 6.97014 8.47123 6.97014 8.47262 6.97014C8.47402 6.97014 8.47541 6.97014 8.4768 6.97014C8.47819 6.97014 8.47959 6.97014 8.48098 6.97014C8.48237 6.97014 8.48376 6.97014 8.48515 6.97014C8.48655 6.97014 8.48794 6.97014 8.48933 6.97014C8.49072 6.97014 8.49211 6.97014 8.49351 6.97014C8.4949 6.97014 8.49629 6.97014 8.49768 6.97014C8.49907 6.97014 8.50047 6.97014 8.50186 6.97014C8.50325 6.97014 8.50464 6.97014 8.50603 6.97014C8.50743 6.97014 8.50882 6.97014 8.51021 6.97014C8.5116 6.97014 8.51299 6.97014 8.51439 6.97014C8.51578 6.97014 8.51717 6.97014 8.51856 6.97014C8.51995 6.97014 8.52135 6.97014 8.52274 6.97014C8.52413 6.97014 8.52552 6.97014 8.52692 6.97014C8.52831 6.97014 8.5297 6.97014 8.53109 6.97014C8.53248 6.97014 8.53388 6.97014 8.53527 6.97014C8.53666 6.97014 8.53805 6.97014 8.53944 6.97014C8.54084 6.97014 8.54223 6.97014 8.54362 6.97014C8.54501 6.97014 8.5464 6.97014 8.5478 6.97014C8.54919 6.97014 8.55058 6.97014 8.55197 6.97014C8.55336 6.97014 8.55476 6.97014 8.55615 6.97014C8.55754 6.97014 8.55893 6.97014 8.56032 6.97014C8.56172 6.97014 8.56311 6.97014 8.5645 6.97014C8.56589 6.97014 8.56729 6.97014 8.56868 6.97014C8.57007 6.97014 8.57146 6.97014 8.57285 6.97014C8.57425 6.97014 8.57564 6.97014 8.57703 6.97014C8.57842 6.97014 8.57981 6.97014 8.58121 6.97014C8.5826 6.97014 8.58399 6.97014 8.58538 6.97014C8.58677 6.97014 8.58817 6.97014 8.58956 6.97014C8.59095 6.97014 8.59234 6.97014 8.59373 6.97014C8.59513 6.97014 8.59652 6.97014 8.59791 6.97014C8.5993 6.97014 8.60069 6.97014 8.60209 6.97014C8.60348 6.97014 8.60487 6.97014 8.60626 6.97014C8.60766 6.97014 8.60905 6.97014 8.61044 6.97014C8.61183 6.97014 8.61322 6.97014 8.61462 6.97014C8.61601 6.97014 8.6174 6.97014 8.61879 6.97014C8.62018 6.97014 8.62158 6.97014 8.62297 6.97014C8.62436 6.97014 8.62575 6.97014 8.62714 6.97014C8.62854 6.97014 8.62993 6.97014 8.63132 6.97014C8.63271 6.97014 8.6341 6.97014 8.6355 6.97014C8.63689 6.97014 8.63828 6.97014 8.63967 6.97014C8.64107 6.97014 8.64246 6.97014 8.64385 6.97014C8.64524 6.97014 8.64663 6.97014 8.64803 6.97014C8.64942 6.97014 8.65081 6.97014 8.6522 6.97014C8.65359 6.97014 8.65499 6.97014 8.65638 6.97014C8.65777 6.97014 8.65916 6.97014 8.66055 6.97014C8.66195 6.97014 8.66334 6.97014 8.66473 6.97014C8.66612 6.97014 8.66751 6.97014 8.66891 6.97014C8.6703 6.97014 8.67169 6.97014 8.67308 6.97014C8.67448 6.97014 8.67587 6.97014 8.67726 6.97014C8.67865 6.97014 8.68004 6.97014 8.68144 6.97014C8.68283 6.97014 8.68422 6.97014 8.68561 6.97014C8.687 6.97014 8.6884 6.97014 8.68979 6.97014C8.69118 6.97014 8.69257 6.97014 8.69396 6.97014C8.69536 6.97014 8.69675 6.97014 8.69814 6.97014C8.69953 6.97014 8.70092 6.97014 8.70232 6.97014C8.70371 6.97014 8.7051 6.97014 8.70649 6.97014C8.70789 6.97014 8.70928 6.97014 8.71067 6.97014C8.71206 6.97014 8.71345 6.97014 8.71485 6.97014C8.71624 6.97014 8.71763 6.97014 8.71902 6.97014C8.72041 6.97014 8.72181 6.97014 8.7232 6.97014C8.72459 6.97014 8.72598 6.97014 8.72737 6.97014C8.72877 6.97014 8.73016 6.97014 8.73155 6.97014C8.73294 6.97014 8.73433 6.97014 8.73573 6.97014C8.73712 6.97014 8.73851 6.97014 8.7399 6.97014C8.7413 6.97014 8.74269 6.97014 8.74408 6.97014C8.74547 6.97014 8.74686 6.97014 8.74826 6.97014C8.74965 6.97014 8.75104 6.97014 8.75243 6.97014C8.75382 6.97014 8.75522 6.97014 8.75661 6.97014C8.758 6.97014 8.75939 6.97014 8.76079 6.97014C8.76218 6.97014 8.76357 6.97014 8.76496 6.97014C8.76635 6.97014 8.76775 6.97014 8.76914 6.97014C8.77053 6.97014 8.77192 6.97014 8.77331 6.97014C8.77471 6.97014 8.7761 6.97014 8.77749 6.97014C8.77888 6.97014 8.78027 6.97014 8.78167 6.97014C8.78306 6.97014 8.78445 6.97014 8.78584 6.97014C8.78724 6.97014 8.78863 6.97014 8.79002 6.97014C8.79141 6.97014 8.7928 6.97014 8.7942 6.97014C8.79559 6.97014 8.79698 6.97014 8.79837 6.97014C8.79976 6.97014 8.80116 6.97014 8.80255 6.97014C8.80394 6.97014 8.80533 6.97014 8.80672 6.97014C8.80812 6.97014 8.80951 6.97014 8.8109 6.97014C8.81229 6.97014 8.81369 6.97014 8.81508 6.97014C8.81647 6.97014 8.81786 6.97014 8.81925 6.97014C8.82065 6.97014 8.82204 6.97014 8.82343 6.97014C8.82482 6.97014 8.82621 6.97014 8.82761 6.97014C8.829 6.97014 8.83039 6.97014 8.83178 6.97014C8.83317 6.97014 8.83457 6.97014 8.83596 6.97014C8.83735 6.97014 8.83874 6.97014 8.84014 6.97014C8.84153 6.97014 8.84292 6.97014 8.84431 6.97014C8.8457 6.97014 8.8471 6.97014 8.84849 6.97014C8.84988 6.97014 8.85127 6.97014 8.85266 6.97014C8.85406 6.97014 8.85545 6.97014 8.85684 6.97014C8.85823 6.97014 8.85963 6.97014 8.86102 6.97014C8.86241 6.97014 8.8638 6.97014 8.86519 6.97014C8.86659 6.97014 8.86798 6.97014 8.86937 6.97014C8.87076 6.97014 8.87215 6.97014 8.87355 6.97014C8.87494 6.97014 8.87633 6.97014 8.87772 6.97014C8.87912 6.97014 8.88051 6.97014 8.8819 6.97014C8.88329 6.97014 8.88468 6.97014 8.88608 6.97014C8.88747 6.97014 8.88886 6.97014 8.89025 6.97014C8.89164 6.97014 8.89304 6.97014 8.89443 6.97014C8.89582 6.97014 8.89721 6.97014 8.8986 6.97014C8.9 6.97014 8.90139 6.97014 8.90278 6.97014C8.90417 6.97014 8.90557 6.97014 8.90696 6.97014C8.90835 6.97014 8.90974 6.97014 8.91113 6.97014C8.91253 6.97014 8.91392 6.97014 8.91531 6.97014C8.9167 6.97014 8.9181 6.97014 8.91949 6.97014C8.92088 6.97014 8.92227 6.97014 8.92366 6.97014C8.92506 6.97014 8.92645 6.97014 8.92784 6.97014C8.92923 6.97014 8.93062 6.97014 8.93202 6.97014C8.93341 6.97014 8.9348 6.97014 8.93619 6.97014C8.93758 6.97014 8.93898 6.97014 8.94037 6.97014C8.94176 6.97014 8.94315 6.97014 8.94455 6.97014C8.94594 6.97014 8.94733 6.97014 8.94872 6.97014C8.95011 6.97014 8.95151 6.97014 8.9529 6.97014C8.95429 6.97014 8.95568 6.97014 8.95708 6.97014C8.95847 6.97014 8.95986 6.97014 8.96125 6.97014C8.96264 6.97014 8.96404 6.97014 8.96543 6.97014C8.96682 6.97014 8.96821 6.97014 8.9696 6.97014C8.971 6.97014 8.97239 6.97014 8.97378 6.97014C8.97517 6.97014 8.97657 6.97014 8.97796 6.97014C8.97935 6.97014 8.98074 6.97014 8.98213 6.97014C8.98353 6.97014 8.98492 6.97014 8.98631 6.97014C8.9877 6.97014 8.98909 6.97014 8.99049 6.97014C8.99188 6.97014 8.99327 6.97014 8.99466 6.97014C8.99606 6.97014 8.99745 6.97014 8.99884 6.97014C9.00023 6.97014 9.00162 6.97014 9.00302 6.97014C9.00441 6.97014 9.0058 6.97014 9.00719 6.97014C9.00858 6.97014 9.00998 6.97014 9.01137 6.97014C9.01276 6.97014 9.01415 6.97014 9.01555 6.97014C9.01694 6.97014 9.01833 6.97014 9.01972 6.97014C9.02111 6.97014 9.02251 6.97014 9.0239 6.97014C9.02529 6.97014 9.02668 6.97014 9.02808 6.97014C9.02947 6.97014 9.03086 6.97014 9.03225 6.97014C9.03364 6.97014 9.03504 6.97014 9.03643 6.97014C9.03782 6.97014 9.03921 6.97014 9.0406 6.97014C9.042 6.97014 9.04339 6.97014 9.04478 6.97014C9.04617 6.97014 9.04757 6.97014 9.04896 6.97014C9.05035 6.97014 9.05174 6.97014 9.05313 6.97014C9.05453 6.97014 9.05592 6.97014 9.05731 6.97014C9.0587 6.97014 9.0601 6.97014 9.06149 6.97014C9.06288 6.97014 9.06427 6.97014 9.06566 6.97014C9.06706 6.97014 9.06845 6.97014 9.06984 6.97014C9.07123 6.97014 9.07262 6.97014 9.07402 6.97014C9.07541 6.97014 9.0768 6.97014 9.07819 6.97014C9.07959 6.97014 9.08098 6.97014 9.08237 6.97014C9.08376 6.97014 9.08515 6.97014 9.08655 6.97014C9.08794 6.97014 9.08933 6.97014 9.09072 6.97014C9.09212 6.97014 9.09351 6.97014 9.0949 6.97014C9.09629 6.97014 9.09768 6.97014 9.09908 6.97014C9.10047 6.97014 9.10186 6.97014 9.10325 6.97014C9.10465 6.97014 9.10604 6.97014 9.10743 6.97014C9.10882 6.97014 9.11021 6.97014 9.11161 6.97014C9.113 6.97014 9.11439 6.97014 9.11578 6.97014C9.11718 6.97014 9.11857 6.97014 9.11996 6.97014C9.12135 6.97014 9.12274 6.97014 9.12414 6.97014C9.12553 6.97014 9.12692 6.97014 9.12831 6.97014V5.97014C9.12692 5.97014 9.12553 5.97014 9.12414 5.97014C9.12274 5.97014 9.12135 5.97014 9.11996 5.97014C9.11857 5.97014 9.11718 5.97014 9.11578 5.97014C9.11439 5.97014 9.113 5.97014 9.11161 5.97014C9.11021 5.97014 9.10882 5.97014 9.10743 5.97014C9.10604 5.97014 9.10465 5.97014 9.10325 5.97014C9.10186 5.97014 9.10047 5.97014 9.09908 5.97014C9.09768 5.97014 9.09629 5.97014 9.0949 5.97014C9.09351 5.97014 9.09212 5.97014 9.09072 5.97014C9.08933 5.97014 9.08794 5.97014 9.08655 5.97014C9.08515 5.97014 9.08376 5.97014 9.08237 5.97014C9.08098 5.97014 9.07959 5.97014 9.07819 5.97014C9.0768 5.97014 9.07541 5.97014 9.07402 5.97014C9.07262 5.97014 9.07123 5.97014 9.06984 5.97014C9.06845 5.97014 9.06706 5.97014 9.06566 5.97014C9.06427 5.97014 9.06288 5.97014 9.06149 5.97014C9.0601 5.97014 9.0587 5.97014 9.05731 5.97014C9.05592 5.97014 9.05453 5.97014 9.05313 5.97014C9.05174 5.97014 9.05035 5.97014 9.04896 5.97014C9.04757 5.97014 9.04617 5.97014 9.04478 5.97014C9.04339 5.97014 9.042 5.97014 9.0406 5.97014C9.03921 5.97014 9.03782 5.97014 9.03643 5.97014C9.03504 5.97014 9.03364 5.97014 9.03225 5.97014C9.03086 5.97014 9.02947 5.97014 9.02808 5.97014C9.02668 5.97014 9.02529 5.97014 9.0239 5.97014C9.02251 5.97014 9.02111 5.97014 9.01972 5.97014C9.01833 5.97014 9.01694 5.97014 9.01555 5.97014C9.01415 5.97014 9.01276 5.97014 9.01137 5.97014C9.00998 5.97014 9.00858 5.97014 9.00719 5.97014C9.0058 5.97014 9.00441 5.97014 9.00302 5.97014C9.00162 5.97014 9.00023 5.97014 8.99884 5.97014C8.99745 5.97014 8.99606 5.97014 8.99466 5.97014C8.99327 5.97014 8.99188 5.97014 8.99049 5.97014C8.98909 5.97014 8.9877 5.97014 8.98631 5.97014C8.98492 5.97014 8.98353 5.97014 8.98213 5.97014C8.98074 5.97014 8.97935 5.97014 8.97796 5.97014C8.97657 5.97014 8.97517 5.97014 8.97378 5.97014C8.97239 5.97014 8.971 5.97014 8.9696 5.97014C8.96821 5.97014 8.96682 5.97014 8.96543 5.97014C8.96404 5.97014 8.96264 5.97014 8.96125 5.97014C8.95986 5.97014 8.95847 5.97014 8.95708 5.97014C8.95568 5.97014 8.95429 5.97014 8.9529 5.97014C8.95151 5.97014 8.95011 5.97014 8.94872 5.97014C8.94733 5.97014 8.94594 5.97014 8.94455 5.97014C8.94315 5.97014 8.94176 5.97014 8.94037 5.97014C8.93898 5.97014 8.93758 5.97014 8.93619 5.97014C8.9348 5.97014 8.93341 5.97014 8.93202 5.97014C8.93062 5.97014 8.92923 5.97014 8.92784 5.97014C8.92645 5.97014 8.92506 5.97014 8.92366 5.97014C8.92227 5.97014 8.92088 5.97014 8.91949 5.97014C8.9181 5.97014 8.9167 5.97014 8.91531 5.97014C8.91392 5.97014 8.91253 5.97014 8.91113 5.97014C8.90974 5.97014 8.90835 5.97014 8.90696 5.97014C8.90557 5.97014 8.90417 5.97014 8.90278 5.97014C8.90139 5.97014 8.9 5.97014 8.8986 5.97014C8.89721 5.97014 8.89582 5.97014 8.89443 5.97014C8.89304 5.97014 8.89164 5.97014 8.89025 5.97014C8.88886 5.97014 8.88747 5.97014 8.88608 5.97014C8.88468 5.97014 8.88329 5.97014 8.8819 5.97014C8.88051 5.97014 8.87912 5.97014 8.87772 5.97014C8.87633 5.97014 8.87494 5.97014 8.87355 5.97014C8.87215 5.97014 8.87076 5.97014 8.86937 5.97014C8.86798 5.97014 8.86659 5.97014 8.86519 5.97014C8.8638 5.97014 8.86241 5.97014 8.86102 5.97014C8.85963 5.97014 8.85823 5.97014 8.85684 5.97014C8.85545 5.97014 8.85406 5.97014 8.85266 5.97014C8.85127 5.97014 8.84988 5.97014 8.84849 5.97014C8.8471 5.97014 8.8457 5.97014 8.84431 5.97014C8.84292 5.97014 8.84153 5.97014 8.84014 5.97014C8.83874 5.97014 8.83735 5.97014 8.83596 5.97014C8.83457 5.97014 8.83317 5.97014 8.83178 5.97014C8.83039 5.97014 8.829 5.97014 8.82761 5.97014C8.82621 5.97014 8.82482 5.97014 8.82343 5.97014C8.82204 5.97014 8.82065 5.97014 8.81925 5.97014C8.81786 5.97014 8.81647 5.97014 8.81508 5.97014C8.81369 5.97014 8.81229 5.97014 8.8109 5.97014C8.80951 5.97014 8.80812 5.97014 8.80672 5.97014C8.80533 5.97014 8.80394 5.97014 8.80255 5.97014C8.80116 5.97014 8.79976 5.97014 8.79837 5.97014C8.79698 5.97014 8.79559 5.97014 8.7942 5.97014C8.7928 5.97014 8.79141 5.97014 8.79002 5.97014C8.78863 5.97014 8.78724 5.97014 8.78584 5.97014C8.78445 5.97014 8.78306 5.97014 8.78167 5.97014C8.78027 5.97014 8.77888 5.97014 8.77749 5.97014C8.7761 5.97014 8.77471 5.97014 8.77331 5.97014C8.77192 5.97014 8.77053 5.97014 8.76914 5.97014C8.76775 5.97014 8.76635 5.97014 8.76496 5.97014C8.76357 5.97014 8.76218 5.97014 8.76079 5.97014C8.75939 5.97014 8.758 5.97014 8.75661 5.97014C8.75522 5.97014 8.75382 5.97014 8.75243 5.97014C8.75104 5.97014 8.74965 5.97014 8.74826 5.97014C8.74686 5.97014 8.74547 5.97014 8.74408 5.97014C8.74269 5.97014 8.7413 5.97014 8.7399 5.97014C8.73851 5.97014 8.73712 5.97014 8.73573 5.97014C8.73433 5.97014 8.73294 5.97014 8.73155 5.97014C8.73016 5.97014 8.72877 5.97014 8.72737 5.97014C8.72598 5.97014 8.72459 5.97014 8.7232 5.97014C8.72181 5.97014 8.72041 5.97014 8.71902 5.97014C8.71763 5.97014 8.71624 5.97014 8.71485 5.97014C8.71345 5.97014 8.71206 5.97014 8.71067 5.97014C8.70928 5.97014 8.70789 5.97014 8.70649 5.97014C8.7051 5.97014 8.70371 5.97014 8.70232 5.97014C8.70092 5.97014 8.69953 5.97014 8.69814 5.97014C8.69675 5.97014 8.69536 5.97014 8.69396 5.97014C8.69257 5.97014 8.69118 5.97014 8.68979 5.97014C8.6884 5.97014 8.687 5.97014 8.68561 5.97014C8.68422 5.97014 8.68283 5.97014 8.68144 5.97014C8.68004 5.97014 8.67865 5.97014 8.67726 5.97014C8.67587 5.97014 8.67448 5.97014 8.67308 5.97014C8.67169 5.97014 8.6703 5.97014 8.66891 5.97014C8.66751 5.97014 8.66612 5.97014 8.66473 5.97014C8.66334 5.97014 8.66195 5.97014 8.66055 5.97014C8.65916 5.97014 8.65777 5.97014 8.65638 5.97014C8.65499 5.97014 8.65359 5.97014 8.6522 5.97014C8.65081 5.97014 8.64942 5.97014 8.64803 5.97014C8.64663 5.97014 8.64524 5.97014 8.64385 5.97014C8.64246 5.97014 8.64107 5.97014 8.63967 5.97014C8.63828 5.97014 8.63689 5.97014 8.6355 5.97014C8.6341 5.97014 8.63271 5.97014 8.63132 5.97014C8.62993 5.97014 8.62854 5.97014 8.62714 5.97014C8.62575 5.97014 8.62436 5.97014 8.62297 5.97014C8.62158 5.97014 8.62018 5.97014 8.61879 5.97014C8.6174 5.97014 8.61601 5.97014 8.61462 5.97014C8.61322 5.97014 8.61183 5.97014 8.61044 5.97014C8.60905 5.97014 8.60766 5.97014 8.60626 5.97014C8.60487 5.97014 8.60348 5.97014 8.60209 5.97014C8.60069 5.97014 8.5993 5.97014 8.59791 5.97014C8.59652 5.97014 8.59513 5.97014 8.59373 5.97014C8.59234 5.97014 8.59095 5.97014 8.58956 5.97014C8.58817 5.97014 8.58677 5.97014 8.58538 5.97014C8.58399 5.97014 8.5826 5.97014 8.58121 5.97014C8.57981 5.97014 8.57842 5.97014 8.57703 5.97014C8.57564 5.97014 8.57425 5.97014 8.57285 5.97014C8.57146 5.97014 8.57007 5.97014 8.56868 5.97014C8.56729 5.97014 8.56589 5.97014 8.5645 5.97014C8.56311 5.97014 8.56172 5.97014 8.56032 5.97014C8.55893 5.97014 8.55754 5.97014 8.55615 5.97014C8.55476 5.97014 8.55336 5.97014 8.55197 5.97014C8.55058 5.97014 8.54919 5.97014 8.5478 5.97014C8.5464 5.97014 8.54501 5.97014 8.54362 5.97014C8.54223 5.97014 8.54084 5.97014 8.53944 5.97014C8.53805 5.97014 8.53666 5.97014 8.53527 5.97014C8.53388 5.97014 8.53248 5.97014 8.53109 5.97014C8.5297 5.97014 8.52831 5.97014 8.52692 5.97014C8.52552 5.97014 8.52413 5.97014 8.52274 5.97014C8.52135 5.97014 8.51995 5.97014 8.51856 5.97014C8.51717 5.97014 8.51578 5.97014 8.51439 5.97014C8.51299 5.97014 8.5116 5.97014 8.51021 5.97014C8.50882 5.97014 8.50743 5.97014 8.50603 5.97014C8.50464 5.97014 8.50325 5.97014 8.50186 5.97014C8.50047 5.97014 8.49907 5.97014 8.49768 5.97014C8.49629 5.97014 8.4949 5.97014 8.49351 5.97014C8.49211 5.97014 8.49072 5.97014 8.48933 5.97014C8.48794 5.97014 8.48655 5.97014 8.48515 5.97014C8.48376 5.97014 8.48237 5.97014 8.48098 5.97014C8.47959 5.97014 8.47819 5.97014 8.4768 5.97014C8.47541 5.97014 8.47402 5.97014 8.47262 5.97014C8.47123 5.97014 8.46984 5.97014 8.46845 5.97014C8.46706 5.97014 8.46566 5.97014 8.46427 5.97014C8.46288 5.97014 8.46149 5.97014 8.4601 5.97014C8.4587 5.97014 8.45731 5.97014 8.45592 5.97014C8.45453 5.97014 8.45314 5.97014 8.45174 5.97014C8.45035 5.97014 8.44896 5.97014 8.44757 5.97014C8.44618 5.97014 8.44478 5.97014 8.44339 5.97014C8.442 5.97014 8.44061 5.97014 8.43922 5.97014C8.43782 5.97014 8.43643 5.97014 8.43504 5.97014C8.43365 5.97014 8.43226 5.97014 8.43086 5.97014C8.42947 5.97014 8.42808 5.97014 8.42669 5.97014C8.42529 5.97014 8.4239 5.97014 8.42251 5.97014C8.42112 5.97014 8.41973 5.97014 8.41833 5.97014C8.41694 5.97014 8.41555 5.97014 8.41416 5.97014C8.41277 5.97014 8.41137 5.97014 8.40998 5.97014C8.40859 5.97014 8.4072 5.97014 8.40581 5.97014C8.40441 5.97014 8.40302 5.97014 8.40163 5.97014C8.40024 5.97014 8.39885 5.97014 8.39745 5.97014C8.39606 5.97014 8.39467 5.97014 8.39328 5.97014C8.39189 5.97014 8.39049 5.97014 8.3891 5.97014C8.38771 5.97014 8.38632 5.97014 8.38493 5.97014C8.38353 5.97014 8.38214 5.97014 8.38075 5.97014C8.37936 5.97014 8.37797 5.97014 8.37657 5.97014C8.37518 5.97014 8.37379 5.97014 8.3724 5.97014C8.37101 5.97014 8.36961 5.97014 8.36822 5.97014C8.36683 5.97014 8.36544 5.97014 8.36404 5.97014C8.36265 5.97014 8.36126 5.97014 8.35987 5.97014C8.35848 5.97014 8.35708 5.97014 8.35569 5.97014C8.3543 5.97014 8.35291 5.97014 8.35152 5.97014C8.35012 5.97014 8.34873 5.97014 8.34734 5.97014C8.34595 5.97014 8.34456 5.97014 8.34316 5.97014C8.34177 5.97014 8.34038 5.97014 8.33899 5.97014C8.3376 5.97014 8.3362 5.97014 8.33481 5.97014C8.33342 5.97014 8.33203 5.97014 8.33064 5.97014C8.32924 5.97014 8.32785 5.97014 8.32646 5.97014C8.32507 5.97014 8.32368 5.97014 8.32228 5.97014C8.32089 5.97014 8.3195 5.97014 8.31811 5.97014C8.31672 5.97014 8.31532 5.97014 8.31393 5.97014C8.31254 5.97014 8.31115 5.97014 8.30976 5.97014C8.30836 5.97014 8.30697 5.97014 8.30558 5.97014C8.30419 5.97014 8.30279 5.97014 8.3014 5.97014C8.30001 5.97014 8.29862 5.97014 8.29723 5.97014C8.29583 5.97014 8.29444 5.97014 8.29305 5.97014C8.29166 5.97014 8.29027 5.97014 8.28887 5.97014C8.28748 5.97014 8.28609 5.97014 8.2847 5.97014C8.28331 5.97014 8.28191 5.97014 8.28052 5.97014C8.27913 5.97014 8.27774 5.97014 8.27635 5.97014C8.27495 5.97014 8.27356 5.97014 8.27217 5.97014C8.27078 5.97014 8.26939 5.97014 8.26799 5.97014C8.2666 5.97014 8.26521 5.97014 8.26382 5.97014C8.26243 5.97014 8.26103 5.97014 8.25964 5.97014C8.25825 5.97014 8.25686 5.97014 8.25547 5.97014C8.25407 5.97014 8.25268 5.97014 8.25129 5.97014C8.2499 5.97014 8.24851 5.97014 8.24711 5.97014C8.24572 5.97014 8.24433 5.97014 8.24294 5.97014C8.24155 5.97014 8.24015 5.97014 8.23876 5.97014C8.23737 5.97014 8.23598 5.97014 8.23459 5.97014C8.23319 5.97014 8.2318 5.97014 8.23041 5.97014C8.22902 5.97014 8.22762 5.97014 8.22623 5.97014C8.22484 5.97014 8.22345 5.97014 8.22206 5.97014C8.22066 5.97014 8.21927 5.97014 8.21788 5.97014C8.21649 5.97014 8.2151 5.97014 8.2137 5.97014C8.21231 5.97014 8.21092 5.97014 8.20953 5.97014C8.20814 5.97014 8.20674 5.97014 8.20535 5.97014C8.20396 5.97014 8.20257 5.97014 8.20118 5.97014C8.19978 5.97014 8.19839 5.97014 8.197 5.97014C8.19561 5.97014 8.19422 5.97014 8.19282 5.97014C8.19143 5.97014 8.19004 5.97014 8.18865 5.97014C8.18726 5.97014 8.18586 5.97014 8.18447 5.97014C8.18308 5.97014 8.18169 5.97014 8.1803 5.97014C8.1789 5.97014 8.17751 5.97014 8.17612 5.97014C8.17473 5.97014 8.17334 5.97014 8.17194 5.97014C8.17055 5.97014 8.16916 5.97014 8.16777 5.97014C8.16638 5.97014 8.16498 5.97014 8.16359 5.97014C8.1622 5.97014 8.16081 5.97014 8.15942 5.97014C8.15802 5.97014 8.15663 5.97014 8.15524 5.97014C8.15385 5.97014 8.15246 5.97014 8.15106 5.97014C8.14967 5.97014 8.14828 5.97014 8.14689 5.97014C8.14549 5.97014 8.1441 5.97014 8.14271 5.97014C8.14132 5.97014 8.13993 5.97014 8.13853 5.97014C8.13714 5.97014 8.13575 5.97014 8.13436 5.97014C8.13297 5.97014 8.13157 5.97014 8.13018 5.97014C8.12879 5.97014 8.1274 5.97014 8.12601 5.97014C8.12461 5.97014 8.12322 5.97014 8.12183 5.97014C8.12044 5.97014 8.11905 5.97014 8.11765 5.97014C8.11626 5.97014 8.11487 5.97014 8.11348 5.97014C8.11209 5.97014 8.11069 5.97014 8.1093 5.97014C8.10791 5.97014 8.10652 5.97014 8.10513 5.97014C8.10373 5.97014 8.10234 5.97014 8.10095 5.97014C8.09956 5.97014 8.09817 5.97014 8.09677 5.97014C8.09538 5.97014 8.09399 5.97014 8.0926 5.97014C8.09121 5.97014 8.08981 5.97014 8.08842 5.97014C8.08703 5.97014 8.08564 5.97014 8.08425 5.97014C8.08285 5.97014 8.08146 5.97014 8.08007 5.97014C8.07868 5.97014 8.07729 5.97014 8.07589 5.97014C8.0745 5.97014 8.07311 5.97014 8.07172 5.97014C8.07033 5.97014 8.06893 5.97014 8.06754 5.97014C8.06615 5.97014 8.06476 5.97014 8.06336 5.97014C8.06197 5.97014 8.06058 5.97014 8.05919 5.97014C8.0578 5.97014 8.0564 5.97014 8.05501 5.97014C8.05362 5.97014 8.05223 5.97014 8.05084 5.97014C8.04944 5.97014 8.04805 5.97014 8.04666 5.97014C8.04527 5.97014 8.04388 5.97014 8.04248 5.97014C8.04109 5.97014 8.0397 5.97014 8.03831 5.97014C8.03692 5.97014 8.03552 5.97014 8.03413 5.97014C8.03274 5.97014 8.03135 5.97014 8.02996 5.97014C8.02856 5.97014 8.02717 5.97014 8.02578 5.97014C8.02439 5.97014 8.023 5.97014 8.0216 5.97014C8.02021 5.97014 8.01882 5.97014 8.01743 5.97014C8.01604 5.97014 8.01464 5.97014 8.01325 5.97014C8.01186 5.97014 8.01047 5.97014 8.00908 5.97014C8.00768 5.97014 8.00629 5.97014 8.0049 5.97014C8.00351 5.97014 8.00212 5.97014 8.00072 5.97014C7.99933 5.97014 7.99794 5.97014 7.99655 5.97014C7.99516 5.97014 7.99376 5.97014 7.99237 5.97014C7.99098 5.97014 7.98959 5.97014 7.9882 5.97014C7.9868 5.97014 7.98541 5.97014 7.98402 5.97014C7.98263 5.97014 7.98124 5.97014 7.97984 5.97014C7.97845 5.97014 7.97706 5.97014 7.97567 5.97014C7.97428 5.97014 7.97288 5.97014 7.97149 5.97014C7.9701 5.97014 7.96871 5.97014 7.96731 5.97014C7.96592 5.97014 7.96453 5.97014 7.96314 5.97014C7.96175 5.97014 7.96035 5.97014 7.95896 5.97014C7.95757 5.97014 7.95618 5.97014 7.95479 5.97014C7.95339 5.97014 7.952 5.97014 7.95061 5.97014C7.94922 5.97014 7.94783 5.97014 7.94643 5.97014C7.94504 5.97014 7.94365 5.97014 7.94226 5.97014C7.94087 5.97014 7.93947 5.97014 7.93808 5.97014C7.93669 5.97014 7.9353 5.97014 7.93391 5.97014C7.93251 5.97014 7.93112 5.97014 7.92973 5.97014C7.92834 5.97014 7.92695 5.97014 7.92555 5.97014C7.92416 5.97014 7.92277 5.97014 7.92138 5.97014C7.91999 5.97014 7.91859 5.97014 7.9172 5.97014C7.91581 5.97014 7.91442 5.97014 7.91303 5.97014C7.91163 5.97014 7.91024 5.97014 7.90885 5.97014C7.90746 5.97014 7.90607 5.97014 7.90467 5.97014C7.90328 5.97014 7.90189 5.97014 7.9005 5.97014C7.89911 5.97014 7.89771 5.97014 7.89632 5.97014C7.89493 5.97014 7.89354 5.97014 7.89214 5.97014C7.89075 5.97014 7.88936 5.97014 7.88797 5.97014C7.88658 5.97014 7.88518 5.97014 7.88379 5.97014C7.8824 5.97014 7.88101 5.97014 7.87962 5.97014C7.87822 5.97014 7.87683 5.97014 7.87544 5.97014C7.87405 5.97014 7.87266 5.97014 7.87126 5.97014C7.86987 5.97014 7.86848 5.97014 7.86709 5.97014C7.8657 5.97014 7.8643 5.97014 7.86291 5.97014C7.86152 5.97014 7.86013 5.97014 7.85874 5.97014C7.85734 5.97014 7.85595 5.97014 7.85456 5.97014C7.85317 5.97014 7.85178 5.97014 7.85038 5.97014C7.84899 5.97014 7.8476 5.97014 7.84621 5.97014C7.84482 5.97014 7.84342 5.97014 7.84203 5.97014C7.84064 5.97014 7.83925 5.97014 7.83786 5.97014C7.83646 5.97014 7.83507 5.97014 7.83368 5.97014C7.83229 5.97014 7.8309 5.97014 7.8295 5.97014C7.82811 5.97014 7.82672 5.97014 7.82533 5.97014C7.82394 5.97014 7.82254 5.97014 7.82115 5.97014C7.81976 5.97014 7.81837 5.97014 7.81697 5.97014C7.81558 5.97014 7.81419 5.97014 7.8128 5.97014C7.81141 5.97014 7.81001 5.97014 7.80862 5.97014C7.80723 5.97014 7.80584 5.97014 7.80445 5.97014C7.80305 5.97014 7.80166 5.97014 7.80027 5.97014C7.79888 5.97014 7.79749 5.97014 7.79609 5.97014C7.7947 5.97014 7.79331 5.97014 7.79192 5.97014C7.79053 5.97014 7.78913 5.97014 7.78774 5.97014C7.78635 5.97014 7.78496 5.97014 7.78357 5.97014C7.78217 5.97014 7.78078 5.97014 7.77939 5.97014C7.778 5.97014 7.77661 5.97014 7.77521 5.97014C7.77382 5.97014 7.77243 5.97014 7.77104 5.97014C7.76965 5.97014 7.76825 5.97014 7.76686 5.97014C7.76547 5.97014 7.76408 5.97014 7.76269 5.97014C7.76129 5.97014 7.7599 5.97014 7.75851 5.97014C7.75712 5.97014 7.75573 5.97014 7.75433 5.97014C7.75294 5.97014 7.75155 5.97014 7.75016 5.97014C7.74876 5.97014 7.74737 5.97014 7.74598 5.97014C7.74459 5.97014 7.7432 5.97014 7.7418 5.97014C7.74041 5.97014 7.73902 5.97014 7.73763 5.97014C7.73624 5.97014 7.73484 5.97014 7.73345 5.97014C7.73206 5.97014 7.73067 5.97014 7.72928 5.97014C7.72788 5.97014 7.72649 5.97014 7.7251 5.97014C7.72371 5.97014 7.72232 5.97014 7.72092 5.97014C7.71953 5.97014 7.71814 5.97014 7.71675 5.97014C7.71536 5.97014 7.71396 5.97014 7.71257 5.97014C7.71118 5.97014 7.70979 5.97014 7.7084 5.97014C7.707 5.97014 7.70561 5.97014 7.70422 5.97014C7.70283 5.97014 7.70144 5.97014 7.70004 5.97014C7.69865 5.97014 7.69726 5.97014 7.69587 5.97014C7.69447 5.97014 7.69308 5.97014 7.69169 5.97014C7.6903 5.97014 7.68891 5.97014 7.68751 5.97014C7.68612 5.97014 7.68473 5.97014 7.68334 5.97014C7.68195 5.97014 7.68055 5.97014 7.67916 5.97014C7.67777 5.97014 7.67638 5.97014 7.67499 5.97014C7.67359 5.97014 7.6722 5.97014 7.67081 5.97014C7.66942 5.97014 7.66803 5.97014 7.66663 5.97014C7.66524 5.97014 7.66385 5.97014 7.66246 5.97014C7.66107 5.97014 7.65967 5.97014 7.65828 5.97014C7.65689 5.97014 7.6555 5.97014 7.65411 5.97014C7.65271 5.97014 7.65132 5.97014 7.64993 5.97014C7.64854 5.97014 7.64715 5.97014 7.64575 5.97014C7.64436 5.97014 7.64297 5.97014 7.64158 5.97014C7.64018 5.97014 7.63879 5.97014 7.6374 5.97014C7.63601 5.97014 7.63462 5.97014 7.63322 5.97014C7.63183 5.97014 7.63044 5.97014 7.62905 5.97014C7.62766 5.97014 7.62626 5.97014 7.62487 5.97014C7.62348 5.97014 7.62209 5.97014 7.6207 5.97014C7.6193 5.97014 7.61791 5.97014 7.61652 5.97014C7.61513 5.97014 7.61374 5.97014 7.61234 5.97014C7.61095 5.97014 7.60956 5.97014 7.60817 5.97014C7.60678 5.97014 7.60538 5.97014 7.60399 5.97014C7.6026 5.97014 7.60121 5.97014 7.59982 5.97014C7.59842 5.97014 7.59703 5.97014 7.59564 5.97014C7.59425 5.97014 7.59285 5.97014 7.59146 5.97014C7.59007 5.97014 7.58868 5.97014 7.58729 5.97014C7.58589 5.97014 7.5845 5.97014 7.58311 5.97014C7.58172 5.97014 7.58033 5.97014 7.57893 5.97014C7.57754 5.97014 7.57615 5.97014 7.57476 5.97014C7.57337 5.97014 7.57197 5.97014 7.57058 5.97014C7.56919 5.97014 7.5678 5.97014 7.56641 5.97014C7.56501 5.97014 7.56362 5.97014 7.56223 5.97014C7.56084 5.97014 7.55945 5.97014 7.55805 5.97014C7.55666 5.97014 7.55527 5.97014 7.55388 5.97014C7.55248 5.97014 7.55109 5.97014 7.5497 5.97014C7.54831 5.97014 7.54692 5.97014 7.54552 5.97014C7.54413 5.97014 7.54274 5.97014 7.54135 5.97014C7.53996 5.97014 7.53856 5.97014 7.53717 5.97014C7.53578 5.97014 7.53439 5.97014 7.533 5.97014C7.5316 5.97014 7.53021 5.97014 7.52882 5.97014C7.52743 5.97014 7.52604 5.97014 7.52464 5.97014C7.52325 5.97014 7.52186 5.97014 7.52047 5.97014C7.51908 5.97014 7.51768 5.97014 7.51629 5.97014C7.5149 5.97014 7.51351 5.97014 7.51211 5.97014C7.51072 5.97014 7.50933 5.97014 7.50794 5.97014C7.50655 5.97014 7.50515 5.97014 7.50376 5.97014C7.50237 5.97014 7.50098 5.97014 7.49959 5.97014C7.49819 5.97014 7.4968 5.97014 7.49541 5.97014C7.49402 5.97014 7.49263 5.97014 7.49123 5.97014C7.48984 5.97014 7.48845 5.97014 7.48706 5.97014C7.48567 5.97014 7.48427 5.97014 7.48288 5.97014C7.48149 5.97014 7.4801 5.97014 7.4787 5.97014C7.47731 5.97014 7.47592 5.97014 7.47453 5.97014C7.47314 5.97014 7.47174 5.97014 7.47035 5.97014C7.46896 5.97014 7.46757 5.97014 7.46618 5.97014C7.46478 5.97014 7.46339 5.97014 7.462 5.97014C7.46061 5.97014 7.45922 5.97014 7.45782 5.97014C7.45643 5.97014 7.45504 5.97014 7.45365 5.97014C7.45226 5.97014 7.45086 5.97014 7.44947 5.97014C7.44808 5.97014 7.44669 5.97014 7.44529 5.97014C7.4439 5.97014 7.44251 5.97014 7.44112 5.97014C7.43973 5.97014 7.43833 5.97014 7.43694 5.97014C7.43555 5.97014 7.43416 5.97014 7.43277 5.97014C7.43137 5.97014 7.42998 5.97014 7.42859 5.97014C7.4272 5.97014 7.42581 5.97014 7.42441 5.97014C7.42302 5.97014 7.42163 5.97014 7.42024 5.97014C7.41885 5.97014 7.41745 5.97014 7.41606 5.97014C7.41467 5.97014 7.41328 5.97014 7.41188 5.97014C7.41049 5.97014 7.4091 5.97014 7.40771 5.97014C7.40632 5.97014 7.40492 5.97014 7.40353 5.97014C7.40214 5.97014 7.40075 5.97014 7.39936 5.97014C7.39796 5.97014 7.39657 5.97014 7.39518 5.97014C7.39379 5.97014 7.3924 5.97014 7.391 5.97014C7.38961 5.97014 7.38822 5.97014 7.38683 5.97014C7.38543 5.97014 7.38404 5.97014 7.38265 5.97014C7.38126 5.97014 7.37987 5.97014 7.37847 5.97014C7.37708 5.97014 7.37569 5.97014 7.3743 5.97014C7.37291 5.97014 7.37151 5.97014 7.37012 5.97014C7.36873 5.97014 7.36734 5.97014 7.36595 5.97014C7.36455 5.97014 7.36316 5.97014 7.36177 5.97014C7.36038 5.97014 7.35898 5.97014 7.35759 5.97014C7.3562 5.97014 7.35481 5.97014 7.35342 5.97014C7.35202 5.97014 7.35063 5.97014 7.34924 5.97014C7.34785 5.97014 7.34646 5.97014 7.34506 5.97014C7.34367 5.97014 7.34228 5.97014 7.34089 5.97014C7.3395 5.97014 7.3381 5.97014 7.33671 5.97014C7.33532 5.97014 7.33393 5.97014 7.33253 5.97014C7.33114 5.97014 7.32975 5.97014 7.32836 5.97014C7.32697 5.97014 7.32557 5.97014 7.32418 5.97014C7.32279 5.97014 7.3214 5.97014 7.32001 5.97014C7.31861 5.97014 7.31722 5.97014 7.31583 5.97014C7.31444 5.97014 7.31305 5.97014 7.31165 5.97014C7.31026 5.97014 7.30887 5.97014 7.30748 5.97014C7.30608 5.97014 7.30469 5.97014 7.3033 5.97014C7.30191 5.97014 7.30052 5.97014 7.29912 5.97014C7.29773 5.97014 7.29634 5.97014 7.29495 5.97014C7.29356 5.97014 7.29216 5.97014 7.29077 5.97014C7.28938 5.97014 7.28799 5.97014 7.2866 5.97014C7.2852 5.97014 7.28381 5.97014 7.28242 5.97014C7.28103 5.97014 7.27963 5.97014 7.27824 5.97014C7.27685 5.97014 7.27546 5.97014 7.27407 5.97014C7.27267 5.97014 7.27128 5.97014 7.26989 5.97014C7.2685 5.97014 7.26711 5.97014 7.26571 5.97014C7.26432 5.97014 7.26293 5.97014 7.26154 5.97014C7.26014 5.97014 7.25875 5.97014 7.25736 5.97014C7.25597 5.97014 7.25458 5.97014 7.25318 5.97014C7.25179 5.97014 7.2504 5.97014 7.24901 5.97014C7.24762 5.97014 7.24622 5.97014 7.24483 5.97014C7.24344 5.97014 7.24205 5.97014 7.24065 5.97014C7.23926 5.97014 7.23787 5.97014 7.23648 5.97014C7.23509 5.97014 7.23369 5.97014 7.2323 5.97014C7.23091 5.97014 7.22952 5.97014 7.22813 5.97014C7.22673 5.97014 7.22534 5.97014 7.22395 5.97014C7.22256 5.97014 7.22117 5.97014 7.21977 5.97014C7.21838 5.97014 7.21699 5.97014 7.2156 5.97014C7.2142 5.97014 7.21281 5.97014 7.21142 5.97014C7.21003 5.97014 7.20864 5.97014 7.20724 5.97014C7.20585 5.97014 7.20446 5.97014 7.20307 5.97014C7.20168 5.97014 7.20028 5.97014 7.19889 5.97014C7.1975 5.97014 7.19611 5.97014 7.19471 5.97014C7.19332 5.97014 7.19193 5.97014 7.19054 5.97014C7.18915 5.97014 7.18775 5.97014 7.18636 5.97014C7.18497 5.97014 7.18358 5.97014 7.18219 5.97014C7.18079 5.97014 7.1794 5.97014 7.17801 5.97014C7.17662 5.97014 7.17522 5.97014 7.17383 5.97014C7.17244 5.97014 7.17105 5.97014 7.16966 5.97014C7.16826 5.97014 7.16687 5.97014 7.16548 5.97014C7.16409 5.97014 7.1627 5.97014 7.1613 5.97014C7.15991 5.97014 7.15852 5.97014 7.15713 5.97014C7.15573 5.97014 7.15434 5.97014 7.15295 5.97014C7.15156 5.97014 7.15017 5.97014 7.14877 5.97014C7.14738 5.97014 7.14599 5.97014 7.1446 5.97014C7.1432 5.97014 7.14181 5.97014 7.14042 5.97014C7.13903 5.97014 7.13764 5.97014 7.13624 5.97014C7.13485 5.97014 7.13346 5.97014 7.13207 5.97014C7.13068 5.97014 7.12928 5.97014 7.12789 5.97014C7.1265 5.97014 7.12511 5.97014 7.12371 5.97014C7.12232 5.97014 7.12093 5.97014 7.11954 5.97014C7.11815 5.97014 7.11675 5.97014 7.11536 5.97014C7.11397 5.97014 7.11258 5.97014 7.11119 5.97014C7.10979 5.97014 7.1084 5.97014 7.10701 5.97014C7.10562 5.97014 7.10422 5.97014 7.10283 5.97014C7.10144 5.97014 7.10005 5.97014 7.09866 5.97014C7.09726 5.97014 7.09587 5.97014 7.09448 5.97014C7.09309 5.97014 7.09169 5.97014 7.0903 5.97014C7.08891 5.97014 7.08752 5.97014 7.08613 5.97014C7.08473 5.97014 7.08334 5.97014 7.08195 5.97014C7.08056 5.97014 7.07917 5.97014 7.07777 5.97014C7.07638 5.97014 7.07499 5.97014 7.0736 5.97014C7.0722 5.97014 7.07081 5.97014 7.06942 5.97014C7.06803 5.97014 7.06664 5.97014 7.06524 5.97014C7.06385 5.97014 7.06246 5.97014 7.06107 5.97014C7.05967 5.97014 7.05828 5.97014 7.05689 5.97014C7.0555 5.97014 7.05411 5.97014 7.05271 5.97014C7.05132 5.97014 7.04993 5.97014 7.04854 5.97014C7.04715 5.97014 7.04575 5.97014 7.04436 5.97014C7.04297 5.97014 7.04158 5.97014 7.04018 5.97014C7.03879 5.97014 7.0374 5.97014 7.03601 5.97014C7.03462 5.97014 7.03322 5.97014 7.03183 5.97014C7.03044 5.97014 7.02905 5.97014 7.02765 5.97014C7.02626 5.97014 7.02487 5.97014 7.02348 5.97014C7.02209 5.97014 7.02069 5.97014 7.0193 5.97014C7.01791 5.97014 7.01652 5.97014 7.01512 5.97014C7.01373 5.97014 7.01234 5.97014 7.01095 5.97014C7.00956 5.97014 7.00816 5.97014 7.00677 5.97014C7.00538 5.97014 7.00399 5.97014 7.0026 5.97014C7.0012 5.97014 6.99981 5.97014 6.99842 5.97014C6.99703 5.97014 6.99563 5.97014 6.99424 5.97014C6.99285 5.97014 6.99146 5.97014 6.99007 5.97014V6.97014ZM9.12831 6.97014C9.16871 6.97014 9.15817 6.97089 9.14078 6.96897C9.12785 6.96754 8.99825 6.95578 8.88247 6.8436C8.76371 6.72851 8.74903 6.59541 8.74686 6.57719C8.7445 6.55728 8.74531 6.54409 8.74537 6.58433L9.74537 6.58278C9.74535 6.56658 9.74603 6.51099 9.73988 6.45923C9.73393 6.40916 9.71182 6.25476 9.57835 6.12544C9.44788 5.99901 9.29632 5.98007 9.25056 5.97501C9.20034 5.96947 9.14609 5.97014 9.12831 5.97014V6.97014ZM8.74537 6.58382C8.74554 6.91315 8.7438 7.25148 8.74643 7.58709L9.7464 7.57925C9.74381 7.24832 9.74555 6.92049 9.74537 6.58329L8.74537 6.58382ZM8.74643 7.5869C8.74636 7.57758 8.74799 7.55324 8.76047 7.52251C8.77314 7.49128 8.79017 7.47032 8.80059 7.46007L9.50203 8.1728C9.66787 8.00958 9.74807 7.80274 9.7464 7.57943L8.74643 7.5869ZM8.80093 7.45973C8.69228 7.56645 8.58213 7.67586 8.47327 7.78799L9.19074 8.48457C9.29161 8.38068 9.39537 8.27756 9.50168 8.17314L8.80093 7.45973ZM8.47328 7.78798C8.49751 7.76302 8.53629 7.73248 8.58982 7.71098C8.64185 7.69009 8.68576 7.68663 8.70902 7.68663V8.68663C8.8807 8.68663 9.05257 8.62688 9.19073 8.48458L8.47328 7.78798ZM8.70936 7.68663C7.41411 7.68575 6.11875 7.68541 4.8231 7.68715L4.82445 8.68715C6.11908 8.68541 7.41365 8.68575 8.70869 8.68663L8.70936 7.68663ZM4.82377 7.68715C4.82934 7.68715 4.8639 7.68711 4.91167 7.70031C4.96474 7.71497 5.03995 7.74775 5.10771 7.81735C5.175 7.88645 5.20503 7.96114 5.21803 8.01128C5.2298 8.0567 5.22954 8.08912 5.22953 8.09308L4.22953 8.09063C4.2294 8.14753 4.23038 8.34975 4.39124 8.51496C4.5552 8.68335 4.76081 8.68715 4.82377 8.68715V7.68715ZM5.22953 8.09409C5.2318 7.58589 5.23233 7.07698 5.229 6.5674L4.22902 6.57393C4.23232 7.07859 4.2318 7.58358 4.22954 8.08962L5.22953 8.09409ZM5.229 6.56749C5.22903 6.57209 5.22942 6.60823 5.21491 6.65856C5.19849 6.7155 5.16209 6.79288 5.08792 6.85987C5.01613 6.92471 4.94163 6.95018 4.89796 6.96025C4.87643 6.96521 4.85959 6.96713 4.84995 6.96794C4.84019 6.96876 4.83414 6.96875 4.83344 6.96875L4.83571 5.96875C4.79043 5.96865 4.58709 5.96472 4.41766 6.11775C4.23336 6.2842 4.22857 6.50258 4.22902 6.57384L5.229 6.56749ZM4.833 6.96875C5.5526 6.97102 6.2725 6.97014 6.99007 6.97014V5.97014C6.27087 5.97014 5.55366 5.97102 4.83615 5.96875L4.833 6.96875ZM6.99007 6.97014H9.12831V5.97014H6.99007V6.97014ZM8.1354 7.59902L8.1042 6.59951L8.104 6.59951L8.1354 7.59902ZM8.41202 7.34485L9.41201 7.34111V7.34104L8.41202 7.34485ZM8.14289 7.09277L8.1639 6.09299L8.16317 6.09297L8.14289 7.09277ZM7.3442 7.09277L7.32654 6.09292L7.32594 6.09293L7.3442 7.09277ZM7.09423 7.2614L8.03308 7.60575L8.03329 7.60517L7.09423 7.2614ZM7.35413 7.59902L7.31847 8.59838L7.31854 8.59838L7.35413 7.59902ZM7.73597 8.59989C7.83501 8.59989 8.01368 8.60334 8.1668 8.59853L8.104 6.59951C7.99095 6.60306 7.9031 6.59989 7.73597 6.59989V8.59989ZM8.1666 8.59853C8.76418 8.57988 9.41493 8.12237 9.41201 7.34111L7.41203 7.34858C7.41121 7.12916 7.50589 6.92716 7.65469 6.7892C7.79938 6.65504 7.96756 6.60377 8.1042 6.59951L8.1666 8.59853ZM9.41201 7.34104C9.40921 6.60426 8.80515 6.10647 8.1639 6.09299L8.12187 8.09255C7.79558 8.08569 7.41379 7.81089 7.41203 7.34865L9.41201 7.34104ZM8.16317 6.09297C7.88187 6.08727 7.6026 6.08805 7.32654 6.09292L7.36187 8.09261C7.61815 8.08808 7.87157 8.08747 8.1226 8.09256L8.16317 6.09297ZM7.32594 6.09293C7.12665 6.09657 6.88388 6.1445 6.65255 6.29274C6.41182 6.44701 6.24557 6.67072 6.15518 6.91763L8.03329 7.60517C7.98505 7.73693 7.88657 7.87737 7.73167 7.97664C7.58618 8.06987 7.44731 8.09105 7.36247 8.0926L7.32594 6.09293ZM6.15539 6.91706C6.00828 7.31815 6.07251 7.76123 6.33226 8.09989C6.58355 8.42752 6.95807 8.58552 7.31847 8.59838L7.3898 6.59965C7.55004 6.60537 7.76343 6.67958 7.91922 6.8827C8.08347 7.09684 8.11783 7.37468 8.03308 7.60575L6.15539 6.91706ZM7.31854 8.59838C7.4683 8.60372 7.64809 8.59989 7.73597 8.59989V6.59989C7.56917 6.59989 7.49429 6.60338 7.38973 6.59965L7.31854 8.59838Z"  mask="url(#path-3-inside-1_3429_108030)"/>
<path d="M7.73607 8.69692C8.02001 8.69692 8.30395 8.69953 8.58772 8.69535C8.66819 8.69413 8.69258 8.72113 8.69084 8.79988C8.68631 9.00266 8.69032 9.20544 8.68892 9.40821C8.68788 9.57302 8.58127 9.68172 8.41787 9.68207C7.9573 9.68312 7.49656 9.68312 7.03598 9.68207C6.87625 9.68172 6.76685 9.57406 6.76546 9.41675C6.76372 9.20822 6.7672 8.99952 6.76372 8.79099C6.7625 8.71974 6.78601 8.695 6.85813 8.69587C7.15078 8.69901 7.44325 8.69709 7.7359 8.69709L7.73607 8.69692Z" />
<path d="M9.67973 5.48825C9.67973 5.6156 9.67729 5.74294 9.68077 5.87012C9.68251 5.93544 9.66318 5.96401 9.59263 5.96227C9.43359 5.95827 9.27455 5.95931 9.11551 5.96192C9.05541 5.96297 9.02911 5.9452 9.02249 5.88039C8.98939 5.55584 8.95246 5.23181 8.91379 4.90796C8.907 4.85047 8.92929 4.83619 8.97964 4.83636C9.12997 4.83741 9.28047 4.8341 9.4308 4.83758C9.56807 4.84072 9.67572 4.95082 9.67886 5.08914C9.68182 5.22206 9.67955 5.35515 9.67973 5.48825Z" />
<path d="M4.83545 8.25586V6.39844H9.24644V7.45426L8.69366 8.25586H4.83545Z" stroke="white" stroke-width="0.5" stroke-linejoin="round"/>
</svg>
