<svg width="21" height="20" viewBox="0 0 21 20" fill="none" xmlns="http://www.w3.org/2000/svg">
<path d="M20.714 0.632812H0.785645V19.096H20.714V0.632812Z" fill="white"/>
<path d="M3.45462 17.59H11.9346C11.6386 17.0962 11.4289 16.5484 11.3267 15.9699H3.43216C2.74905 15.9699 2.37967 15.6139 2.37967 14.8865V7.24614C2.37967 6.52553 2.74905 6.16432 3.43216 6.16432H14.6583C15.3414 6.16432 15.7174 6.52553 15.7174 7.24614V9.48154C15.9958 9.43744 16.2557 9.41196 16.5267 9.41196C16.7895 9.41196 17.056 9.43744 17.3114 9.47858V4.84004C17.3114 3.074 16.4053 2.15443 14.6491 2.15443H3.45462C1.69852 2.15443 0.785645 3.06722 0.785645 4.84004V14.9044C0.785645 16.6757 1.69852 17.59 3.45462 17.59ZM7.47843 9.03041H7.95844C8.24761 9.03041 8.34821 8.94319 8.34821 8.64935V8.16138C8.34821 7.86754 8.24761 7.77355 7.95844 7.77355H7.47843C7.18928 7.77355 7.08872 7.86754 7.08872 8.16138V8.64935C7.08872 8.94319 7.18928 9.03041 7.47843 9.03041ZM10.1453 9.03041H10.6187C10.9078 9.03041 11.0084 8.94319 11.0084 8.64935V8.16138C11.0084 7.86754 10.9078 7.77355 10.6187 7.77355H10.1453C9.84947 7.77355 9.75414 7.86754 9.75414 8.16138V8.64935C9.75414 8.94319 9.84947 9.03041 10.1453 9.03041ZM12.8041 9.03041H13.2841C13.5733 9.03041 13.6671 8.94319 13.6671 8.64935V8.16138C13.6671 7.86754 13.5733 7.77355 13.2841 7.77355H12.8041C12.5149 7.77355 12.4143 7.86754 12.4143 8.16138V8.64935C12.4143 8.94319 12.5149 9.03041 12.8041 9.03041ZM4.8197 11.6913H5.29973C5.5889 11.6913 5.68278 11.6042 5.68278 11.3103V10.8224C5.68278 10.5285 5.5889 10.4413 5.29973 10.4413H4.8197C4.53054 10.4413 4.42998 10.5285 4.42998 10.8224V11.3103C4.42998 11.6042 4.53054 11.6913 4.8197 11.6913ZM7.47843 11.6913H7.95844C8.24761 11.6913 8.34821 11.6042 8.34821 11.3103V10.8224C8.34821 10.5285 8.24761 10.4413 7.95844 10.4413H7.47843C7.18928 10.4413 7.08872 10.5285 7.08872 10.8224V11.3103C7.08872 11.6042 7.18928 11.6913 7.47843 11.6913ZM10.1453 11.6913H10.6187C10.9078 11.6913 11.0084 11.6042 11.0084 11.3103V10.8224C11.0084 10.5285 10.9078 10.4413 10.6187 10.4413H10.1453C9.84947 10.4413 9.75414 10.5285 9.75414 10.8224V11.3103C9.75414 11.6042 9.84947 11.6913 10.1453 11.6913ZM4.8197 14.3591H5.29973C5.5889 14.3591 5.68278 14.2667 5.68278 13.9713V13.4849C5.68278 13.1895 5.5889 13.1038 5.29973 13.1038H4.8197C4.53054 13.1038 4.42998 13.1895 4.42998 13.4849V13.9713C4.42998 14.2667 4.53054 14.3591 4.8197 14.3591ZM7.47843 14.3591H7.95844C8.24761 14.3591 8.34821 14.2667 8.34821 13.9713V13.4849C8.34821 13.1895 8.24761 13.1038 7.95844 13.1038H7.47843C7.18928 13.1038 7.08872 13.1895 7.08872 13.4849V13.9713C7.08872 14.2667 7.18928 14.3591 7.47843 14.3591ZM10.1453 14.3591H10.6187C10.9078 14.3591 11.0084 14.2667 11.0084 13.9713V13.4849C11.0084 13.1895 10.9078 13.1038 10.6187 13.1038H10.1453C9.84947 13.1038 9.75414 13.1895 9.75414 13.4849V13.9713C9.75414 14.2667 9.84947 14.3591 10.1453 14.3591Z" fill="black"/>
<path d="M16.5263 19.0938C18.7974 19.0938 20.7136 17.165 20.7136 14.8363C20.7136 12.5023 18.8189 10.5819 16.5263 10.5819C14.2285 10.5819 12.339 12.5091 12.339 14.8363C12.339 17.1787 14.2285 19.0938 16.5263 19.0938Z" fill="black"/>
<path d="M16.527 17.5358C16.1938 17.5358 15.9751 17.3135 15.9751 16.9762V15.4015H14.4287C14.1036 15.4015 13.8782 15.1793 13.8767 14.839C13.8753 14.5003 14.0992 14.278 14.4287 14.278H15.9751V12.7093C15.9751 12.3774 16.1938 12.1498 16.527 12.1469C16.8617 12.1454 17.079 12.3744 17.079 12.7093V14.278H18.6215C18.9533 14.278 19.1787 14.5003 19.1787 14.839C19.1787 15.1793 18.9533 15.4015 18.6215 15.4015H17.079V16.9762C17.079 17.3135 16.8617 17.5358 16.527 17.5358Z" fill="white"/>
</svg>
