<svg width="27" height="27" viewBox="0 0 27 27" xmlns="http://www.w3.org/2000/svg">

<path d="M20.4629 16.3369C20.4629 17.3171 19.9518 17.8784 18.9852 17.8784H18.6668C18.6811 17.7931 18.6882 17.7034 18.6882 17.6129C18.6882 16.3689 17.6728 15.3544 16.4288 15.3544C15.1858 15.3544 14.1756 16.3689 14.1756 17.6129C14.1756 17.7044 14.1837 17.7959 14.198 17.8831L10.9498 17.884C10.9641 17.7935 10.9712 17.7011 10.9712 17.6086C10.9712 16.985 10.7274 16.4228 10.3062 16.0401V9.39614C10.3062 8.38943 10.8466 7.84375 11.8577 7.84375H15.9891C15.7667 8.29385 15.6446 8.80025 15.6446 9.32955C15.6446 11.2123 17.2099 12.7795 19.0926 12.7795C19.5777 12.7795 20.0408 12.6763 20.4629 12.4925V16.3369ZM9.5659 10.7448V15.5495C9.32044 15.4247 9.03428 15.3501 8.73427 15.3501C7.49127 15.3501 6.45953 16.3646 6.45953 17.6086C6.45953 17.7011 6.4667 17.7935 6.48095 17.885H6.18991C5.22015 17.885 4.70296 17.3223 4.70296 16.3369V14.448C4.70296 13.8983 4.79264 13.6397 5.10044 13.2932L6.91164 11.2472C7.24136 10.8778 7.61164 10.7448 8.16128 10.7448H9.5659ZM8.08747 14.2081C8.39671 14.2081 8.59377 14.0162 8.59377 13.7027V11.879H8.16276C7.91833 11.879 7.7655 11.9248 7.56633 12.1449L6.00324 13.9014C5.92109 13.995 5.8652 14.0872 5.84705 14.2081H8.08747ZM16.4288 19.2248C15.5365 19.2248 14.8179 18.5 14.8179 17.6129C14.8179 16.723 15.5399 16.0011 16.4288 16.0011C17.3187 16.0011 18.0416 16.723 18.0416 17.6129C18.0416 18.4976 17.3187 19.2248 16.4288 19.2248ZM8.71706 19.2248C7.82287 19.2248 7.10615 18.5066 7.10615 17.6086C7.10615 16.7187 7.82717 15.9968 8.71706 15.9968C9.60695 15.9968 10.3289 16.7187 10.3289 17.6086C10.3289 18.4976 9.60695 19.2248 8.71706 19.2248Z"/>
<path fill-rule="evenodd" clip-rule="evenodd" d="M16.385 9.33048C16.385 10.8085 17.621 12.0344 19.088 12.0344C20.567 12.0344 21.791 10.8171 21.791 9.33048C21.791 7.85151 20.567 6.62842 19.088 6.62842C17.6038 6.62842 16.385 7.8472 16.385 9.33048ZM20.2658 8.34726C20.3734 8.42989 20.3954 8.58126 20.311 8.69118L19.2248 10.0809C19.1405 10.1908 18.9912 10.21 18.8813 10.1256L18.0365 9.47701C17.9288 9.39439 17.9137 9.24462 17.9959 9.13749C18.0782 9.03036 18.2268 9.00627 18.3344 9.0889L18.9875 9.59025L19.9247 8.3946C20.0073 8.28697 20.161 8.26677 20.2658 8.34726Z"/>
</svg>
