<svg width="13" height="13" viewBox="0 0 13 13" xmlns="http://www.w3.org/2000/svg">
<path d="M6.43515 12.7267C9.73843 12.7267 12.4656 9.99586 12.4656 6.69735C12.4656 3.39408 9.73365 0.667969 6.43036 0.667969C3.13292 0.667969 0.405762 3.39408 0.405762 6.69735C0.405762 9.99586 3.13771 12.7267 6.43515 12.7267ZM6.43515 11.539C3.74837 11.539 1.59825 9.3841 1.59825 6.69735C1.59825 4.01058 3.74359 1.85568 6.43036 1.85568C9.11711 1.85568 11.2779 4.01058 11.2779 6.69735C11.2779 9.3841 9.1219 11.539 6.43515 11.539Z"/>
<path d="M4.10628 9.23354H8.76574C9.37232 9.23354 9.68482 8.92955 9.68482 8.32776V5.51386C9.68482 4.90728 9.37232 4.60329 8.76574 4.60329H4.10628C3.49865 4.60329 3.19092 4.90728 3.19092 5.51386V8.32776C3.19092 8.92955 3.49865 9.23354 4.10628 9.23354ZM5.98426 7.35893C5.77157 7.35893 5.64481 7.24113 5.64481 7.02097V6.79429C4.84373 6.73591 4.05538 6.59042 3.19092 6.27418V5.72106C4.24415 6.16062 5.30438 6.32285 6.43548 6.32285C7.56659 6.32285 8.62787 6.16062 9.68482 5.72106V6.27418C8.8166 6.59042 8.02827 6.73591 7.22719 6.79429V7.02097C7.22719 7.24113 7.09938 7.35893 6.88774 7.35893H5.98426ZM4.68566 4.84389H5.28068V4.32954C5.28068 4.19459 5.37151 4.11485 5.5171 4.11485H7.36452C7.50528 4.11485 7.59503 4.19459 7.59503 4.32954V4.84389H8.18637V4.30245C8.18637 3.84238 7.88597 3.56641 7.39789 3.56641H5.47411C4.98603 3.56641 4.68566 3.84238 4.68566 4.30245V4.84389Z"/>
</svg>
