<svg width="15" height="17" viewBox="0 0 15 17" fill="none" xmlns="http://www.w3.org/2000/svg">
<path d="M2.66406 17H13.1641C13.6282 17 14.0733 16.8209 14.4015 16.5021C14.7297 16.1833 14.9141 15.7509 14.9141 15.3V1.7C14.9141 1.24913 14.7297 0.81673 14.4015 0.497918C14.0733 0.179107 13.6282 0 13.1641 0H2.66406C2.19993 0 1.75481 0.179107 1.42663 0.497918C1.09844 0.81673 0.914063 1.24913 0.914062 1.7V15.3C0.914063 15.7509 1.09844 16.1833 1.42663 16.5021C1.75481 16.8209 2.19993 17 2.66406 17ZM5.28906 14.45H3.53906V12.75H5.28906V14.45ZM5.28906 11.05H3.53906V9.35H5.28906V11.05ZM5.28906 7.65H3.53906V5.95H5.28906V7.65ZM8.78906 14.45H7.03906V12.75H8.78906V14.45ZM8.78906 11.05H7.03906V9.35H8.78906V11.05ZM8.78906 7.65H7.03906V5.95H8.78906V7.65ZM12.2891 14.45H10.5391V9.35H12.2891V14.45ZM12.2891 7.65H10.5391V5.95H12.2891V7.65ZM2.66406 1.7H13.1641V4.25H2.66406V1.7Z" fill="#1A2233"/>
</svg>
