<svg width="18" height="17" viewBox="0 0 18 17" fill="none" xmlns="http://www.w3.org/2000/svg">
<path d="M2.35681 16.499C1.92958 16.499 1.50204 16.4971 1.07481 16.5008C1.00078 16.5015 0.975061 16.4899 0.97663 16.4073C0.982903 16.1114 0.979139 15.8148 0.979139 15.5185V5.63431C1.07073 5.41658 1.21346 5.24859 1.42174 5.12721C3.79032 3.74574 6.15765 2.36209 8.52372 0.976243C8.84273 0.789482 9.15013 0.788231 9.46695 0.97812C9.87379 1.22182 10.2853 1.45769 10.695 1.69732C12.648 2.83916 14.6006 3.98193 16.5548 5.12158C16.8716 5.30615 17.0244 5.56142 17.0238 5.93713C17.0175 9.26191 17.02 12.587 17.02 15.9121C17.02 16.2571 16.9234 16.392 16.6012 16.4996H15.6307C15.3123 16.3829 15.2132 16.2437 15.2132 15.9052C15.2129 13.1276 15.2132 10.3499 15.2132 7.57199C15.2132 7.27042 15.1837 7.24008 14.8854 7.24008C10.9579 7.24008 7.0303 7.24008 3.10274 7.24008C2.80443 7.24008 2.77494 7.27042 2.77494 7.57199C2.77494 10.3496 2.77494 13.1273 2.77494 15.9052C2.77494 16.2437 2.67582 16.3829 2.35744 16.4996L2.35681 16.499Z" fill="#0B0E15"/>
<path d="M8.97846 14.731C8.06566 14.731 7.15285 14.731 6.24005 14.731C6.03491 14.731 6.03208 14.7347 6.03145 14.9428C6.03145 15 6.02989 15.0573 6.03145 15.1145C6.03679 15.3119 5.96558 15.4815 5.8376 15.6275C5.54808 15.9585 5.16539 15.952 4.78239 15.8906C4.45554 15.8384 4.24475 15.6291 4.1519 15.3113C4.11237 15.1758 4.11206 15.0335 4.113 14.8933C4.11708 14.1913 4.09042 13.4887 4.13308 12.7873C4.15974 12.3506 4.24349 11.9214 4.37994 11.5054C4.42511 11.368 4.42417 11.2901 4.26764 11.2157C3.99663 11.0871 3.85422 10.8478 3.86645 10.5459C3.88308 10.1392 4.21369 9.90022 4.62869 9.97498C4.84492 10.014 4.99412 9.93348 5.07631 9.73348C5.15347 9.54578 5.22436 9.35526 5.31 9.17163C5.62273 8.50123 6.14877 8.1299 6.89375 8.12365C8.28648 8.11176 9.67921 8.11332 11.0716 8.12302C11.816 8.12803 12.3489 8.48716 12.6623 9.15943C12.7787 9.40907 12.8784 9.66685 12.9775 9.92368C13.0155 10.0222 13.0698 10.0519 13.1676 10.021C13.2269 10.0022 13.2884 9.98844 13.3496 9.97686C13.6363 9.92212 13.8853 10.0157 14.0246 10.2281C14.1639 10.4405 14.1507 10.7542 13.9935 10.9789C13.911 11.0971 13.8047 11.19 13.6717 11.2432C13.5748 11.282 13.5472 11.3339 13.5798 11.4334C13.8069 12.1282 13.8797 12.8424 13.8596 13.571C13.8458 14.07 13.8583 14.5695 13.8565 15.0691C13.8546 15.5578 13.5142 15.9022 13.0224 15.9141C12.9026 15.9169 12.7812 15.9213 12.6632 15.905C12.2194 15.8437 11.9496 15.5268 11.9364 15.0325C11.9273 14.6934 11.9248 14.7316 11.6224 14.7313C10.741 14.7303 9.85926 14.731 8.97783 14.731H8.97846ZM8.98661 11.338C9.9725 11.338 10.9581 11.338 11.944 11.338C12.0014 11.338 12.0588 11.3383 12.1162 11.3374C12.4653 11.3317 12.6325 11.1106 12.5073 10.7912C12.2987 10.2587 12.087 9.72628 11.8508 9.20573C11.6846 8.83972 11.3724 8.64545 10.9653 8.64357C9.75544 8.63825 8.54496 8.6614 7.33541 8.63481C6.48441 8.61604 6.20931 8.9173 5.98001 9.54077C5.82568 9.96028 5.63716 10.367 5.47468 10.7837C5.36332 11.0699 5.48973 11.2983 5.76389 11.3327C5.82568 11.3405 5.88873 11.3377 5.95147 11.3377C6.96339 11.3377 7.975 11.3377 8.98693 11.3377L8.98661 11.338ZM11.7818 12.5127C11.5732 12.5127 11.3646 12.5099 11.156 12.5136C10.9534 12.5171 10.8326 12.6297 10.8232 12.8296C10.8157 12.9854 10.8163 13.1418 10.8232 13.2976C10.8323 13.505 10.9433 13.6151 11.1491 13.6173C11.5663 13.6214 11.9835 13.621 12.4007 13.6176C12.6074 13.616 12.7222 13.51 12.7354 13.3045C12.7454 13.149 12.7448 12.9922 12.7354 12.8368C12.7225 12.625 12.6036 12.5167 12.3922 12.5136C12.1889 12.5108 11.9854 12.513 11.7821 12.513L11.7818 12.5127ZM6.18578 13.6179C6.3994 13.6179 6.61333 13.6214 6.82694 13.617C7.02738 13.6126 7.13184 13.5056 7.13654 13.3041C7.14031 13.143 7.14062 12.9816 7.13623 12.8208C7.1309 12.6334 7.02142 12.5174 6.83322 12.5152C6.40065 12.5102 5.96778 12.5102 5.53522 12.5158C5.35956 12.518 5.25385 12.6237 5.24444 12.7986C5.23534 12.9697 5.23534 13.1418 5.24224 13.3129C5.2504 13.5159 5.35485 13.6135 5.56 13.6173C5.76859 13.621 5.97687 13.6182 6.18547 13.6179H6.18578Z" fill="#0B0E15"/>
</svg>
