<svg width="17" height="15" viewBox="0 0 17 15" xmlns="http://www.w3.org/2000/svg">
<path d="M3.29063 5.06809C3.23037 5.33144 3.34426 5.45541 3.6311 5.44333C4.61414 5.38108 5.84528 5.32254 7.9994 5.32254C10.1602 5.32254 11.3914 5.38108 12.3732 5.44333C12.6558 5.45541 12.7697 5.33144 12.7082 5.06809C12.5632 4.42671 12.2819 3.58131 12.0886 3.24497C11.9077 2.91644 11.6937 2.77774 11.3104 2.72531C10.8612 2.66252 9.77753 2.62084 7.9994 2.62084C6.22676 2.62084 5.14428 2.66252 4.68966 2.72531C4.30633 2.77774 4.09355 2.91644 3.91024 3.24497C3.71817 3.58131 3.44341 4.42671 3.29063 5.06809ZM3.19998 9.72152C3.82901 9.72152 4.31031 9.239 4.31031 8.61116C4.31031 7.97788 3.82901 7.50205 3.19998 7.50205C2.57214 7.50205 2.09084 7.97788 2.09084 8.61116C2.09084 9.239 2.57214 9.72152 3.19998 9.72152ZM6.21147 9.4417H9.79282C10.2632 9.4417 10.5907 9.11305 10.5907 8.6384C10.5907 8.16919 10.2632 7.84055 9.79282 7.84055H6.21147C5.73683 7.84055 5.40936 8.16919 5.40936 8.6384C5.40936 9.11305 5.73683 9.4417 6.21147 9.4417ZM12.7989 9.72152C13.4322 9.72152 13.9092 9.239 13.9092 8.61116C13.9092 7.97788 13.4322 7.50205 12.7989 7.50205C12.171 7.50205 11.6951 7.97788 11.6951 8.61116C11.6951 9.239 12.171 9.72152 12.7989 9.72152ZM7.9994 11.6377C10.2664 11.6377 13.2402 11.5237 14.4981 11.3789C15.4581 11.2709 16 10.7266 16 9.81854V8.65047C16 7.48347 15.7923 6.83094 15.165 6.03214L14.577 5.2944C14.3356 4.09978 13.8922 2.84663 13.6641 2.35432C13.2926 1.5745 12.5828 1.10594 11.6666 0.982894C11.1909 0.918385 9.76496 0.882812 7.9994 0.882812C6.24053 0.882812 4.81457 0.923828 4.33885 0.982894C3.42152 1.09506 2.7062 1.5733 2.34132 2.35432C2.10903 2.84663 1.66981 4.09978 1.42186 5.2944L0.839283 6.03214C0.207731 6.83094 0 7.48347 0 8.65047V9.81854C0 10.7266 0.547398 11.2709 1.5019 11.3789C2.76527 11.5237 5.73365 11.6377 7.9994 11.6377ZM7.9994 10.5831C5.72499 10.5831 2.89469 10.4733 1.81541 10.343C1.25009 10.2778 1.04143 9.99059 1.04143 9.48378V8.59434C1.04143 7.69704 1.20656 7.2711 1.68122 6.64909L2.39281 5.71318C2.56006 4.82013 2.98548 3.44605 3.26727 2.84861C3.48681 2.38112 3.90851 2.10888 4.49215 2.03587C4.94199 1.97801 6.24625 1.92066 7.9994 1.92066C9.75805 1.92066 11.0798 1.98039 11.497 2.03587C12.0958 2.11193 12.5097 2.38656 12.7382 2.85339C13.0164 3.43889 13.4418 4.81058 13.6072 5.71318L14.3231 6.64909C14.7935 7.2711 14.9586 7.69704 14.9586 8.59434V9.48378C14.9586 9.99059 14.7487 10.2778 14.1846 10.343C13.1096 10.4733 10.2751 10.5831 7.9994 10.5831ZM1.23789 13.4711H2.03231C2.53843 13.4711 2.93172 13.0791 2.93172 12.5772V10.951L0.338475 10.4809V12.5772C0.338475 13.0791 0.73177 13.4711 1.23789 13.4711ZM13.9677 13.4711H14.7676C15.2737 13.4711 15.6615 13.0791 15.6615 12.5772V10.4809L13.0737 10.951V12.5772C13.0737 13.0791 13.4616 13.4711 13.9677 13.4711Z"/>
</svg>
