<svg width="18" height="18" viewBox="0 0 18 18" xmlns="http://www.w3.org/2000/svg">
<path d="M16.2857 4.49089C16.2857 4.43192 16.2732 4.37588 16.2511 4.32501L16.2494 4.32184C16.2385 4.2974 16.2257 4.27438 16.2105 4.25264C16.2062 4.24653 16.2008 4.24136 16.1962 4.23549C16.1836 4.21928 16.171 4.20354 16.1561 4.18932L16.153 4.18556L12.8744 1.11548C12.8646 1.10644 12.8532 1.09927 12.8428 1.09105C12.8334 1.08376 12.8247 1.07589 12.8149 1.06943C12.8024 1.06133 12.7889 1.05533 12.7758 1.04852C12.7648 1.04276 12.7539 1.03642 12.7424 1.03149C12.7279 1.02561 12.7128 1.02209 12.6975 1.01762C12.6862 1.01445 12.6755 1.01022 12.664 1.00787C12.6367 1.00282 12.609 1 12.5808 1H4.3454C3.05205 1 2 2.03877 2 3.31579V14.6842C2 15.9612 3.05205 17 4.3454 17H13.9402C15.2336 17 16.2856 15.9612 16.2856 14.6842L16.2857 4.49089ZM13.007 2.40067L14.7895 4.06984H13.4744C13.2167 4.06984 13.007 3.86284 13.007 3.60849V2.40067ZM13.9402 16.158H4.34538C3.52236 16.158 2.85285 15.4969 2.85285 14.6843V3.31586C2.85285 2.50322 3.52236 1.84217 4.34538 1.84217H12.1541V3.6084C12.1541 4.32725 12.7465 4.91186 13.4743 4.91186H15.4325V14.6842C15.4327 15.4968 14.7632 16.158 13.9402 16.158Z" />
<path fill-rule="evenodd" clip-rule="evenodd" d="M5 10.3C5 9.85817 5.35817 9.5 5.8 9.5H12.8C13.2418 9.5 13.6 9.85817 13.6 10.3V14.3C13.6 14.7418 13.2418 15.1 12.8 15.1H5.8C5.35817 15.1 5 14.7418 5 14.3V10.3ZM5.8 10.1C5.68954 10.1 5.6 10.1895 5.6 10.3V14.3C5.6 14.3654 5.63142 14.4235 5.67999 14.46L6.98 12.7267C7.14 12.5133 7.46 12.5133 7.62 12.7267L8.78559 14.2808L10.4672 11.7584C10.6255 11.5209 10.9745 11.5209 11.1328 11.7584L12.9291 14.4528C12.9725 14.4161 13 14.3613 13 14.3V10.3C13 10.1895 12.9105 10.1 12.8 10.1H5.8ZM12.2394 14.5L10.8 12.3408L9.36056 14.5H12.2394ZM8.2 14.5L7.3 13.3L6.4 14.5H8.2ZM8.3 11.55C8.3 11.9642 7.96421 12.3 7.55 12.3C7.13579 12.3 6.8 11.9642 6.8 11.55C6.8 11.1358 7.13579 10.8 7.55 10.8C7.96421 10.8 8.3 11.1358 8.3 11.55Z"/>
<path d="M5.39883 6.6191H12.6012C12.8223 6.6191 13 6.48026 13 6.30781C13 6.13631 12.8231 5.99931 12.6012 5.99931H5.39883C5.17409 5.99931 5 6.13754 5 6.30781C5 6.47841 5.17488 6.6191 5.39883 6.6191ZM5.39883 8.2084H12.6012C12.8223 8.2084 13 8.06614 13 7.89649C13 7.72499 12.8231 7.58799 12.6012 7.58799H5.39883C5.17409 7.58799 5 7.72622 5 7.89649C5 8.0643 5.17488 8.2084 5.39883 8.2084ZM5.39883 4.99931H9.7716C9.99271 4.99931 10.1704 4.85986 10.1704 4.69082C10.1704 4.51871 9.9935 4.37891 9.7716 4.37891H5.39883C5.17409 4.37891 5 4.52058 5 4.69082C5 4.85863 5.17488 4.99931 5.39883 4.99931Z"/>
</svg>
