<svg width="21" height="20" viewBox="0 0 21 20" fill="none" xmlns="http://www.w3.org/2000/svg">
<path d="M10.0997 11.5H10.2056L10.3024 11.543L13.95 13.161C13.9504 13.1605 13.9509 13.16 13.9513 13.1595C13.9704 13.1377 13.9947 13.0936 13.9992 13.0237C13.998 13.0217 13.9965 13.0194 13.9947 13.0168C13.9747 12.9879 13.9382 12.949 13.8846 12.9054C13.833 12.8635 13.7788 12.8279 13.7362 12.8022C13.7154 12.7898 13.6987 12.7804 13.6881 12.7747L13.6782 12.7695L13.6781 12.7696L13.6672 12.7638L10.461 11.078L10.1936 10.9375V10.6355V5.67874C10.1936 5.59942 10.1672 5.54926 10.146 5.52513C10.1267 5.5031 10.1117 5.5 10.0997 5.5C10.0856 5.5 10.0683 5.50426 10.0477 5.52751C10.0256 5.55237 9.99953 5.60193 9.99953 5.67874V11.3142C9.99953 11.3956 10.0268 11.4473 10.0491 11.4727C10.0699 11.4963 10.0867 11.5 10.0997 11.5Z" fill="#EAB308" stroke="#EAB308"/>
<rect x="1.5" y="1" width="18" height="18" rx="9" stroke="#EAB308" stroke-width="2"/>
</svg>
