<svg width="18" height="18" viewBox="0 0 18 18" fill="none" xmlns="http://www.w3.org/2000/svg">
<path d="M4.81717 10.4621H8.97681C9.3442 10.4621 9.63381 10.1778 9.63381 9.80507V4.40611C9.63381 4.03871 9.3442 3.75586 8.97681 3.75586C8.6109 3.75586 8.32657 4.03871 8.32657 4.40611V9.15483H4.81717C4.44449 9.15483 4.16016 9.43916 4.16016 9.80507C4.16016 10.1778 4.44449 10.4621 4.81717 10.4621Z"/>
<path d="M8.98437 17.956C13.649 17.956 17.5 14.0997 17.5 9.44189C17.5 4.7773 13.6422 0.927734 8.97762 0.927734C4.32126 0.927734 0.470215 4.7773 0.470215 9.44189C0.470215 14.0997 4.32802 17.956 8.98437 17.956ZM8.98437 16.2789C5.19035 16.2789 2.15414 13.2359 2.15414 9.44189C2.15414 5.64787 5.18359 2.60491 8.97762 2.60491C12.7716 2.60491 15.8228 5.64787 15.8228 9.44189C15.8228 13.2359 12.7784 16.2789 8.98437 16.2789Z" />
</svg>
