<svg width="18" height="19" viewBox="0 0 18 19" fill="none" xmlns="http://www.w3.org/2000/svg">
<g id="Credit card">
<g id="creditcard">
<g id="Group">
<path id="Vector" d="M4.87927 12.5734H6.30654C6.65024 12.5734 6.87744 12.3414 6.87744 12.0152V10.9375C6.87744 10.6054 6.65024 10.3782 6.30654 10.3782H4.87927C4.53556 10.3782 4.30837 10.6054 4.30837 10.9375V12.0152C4.30837 12.3414 4.53556 12.5734 4.87927 12.5734ZM2.76272 8.46892H15.2433V7.10667H2.76272V8.46892ZM4.01942 14.7686H13.9808C15.244 14.7686 15.8918 14.1245 15.8918 12.8814V6.58039C15.8918 5.33733 15.244 4.68848 13.9808 4.68848H4.01942C2.76203 4.68848 2.1084 5.33733 2.1084 6.58039V12.8814C2.1084 14.1245 2.76203 14.7686 4.01942 14.7686ZM4.08559 13.6273C3.54393 13.6273 3.24974 13.3478 3.24974 12.7818V6.68105C3.24974 6.11399 3.54393 5.82982 4.08559 5.82982H13.9147C14.4468 5.82982 14.7505 6.11399 14.7505 6.68105V12.7818C14.7505 13.3478 14.4468 13.6273 13.9147 13.6273H4.08559Z" fill="#0B0E15"/>
</g>
</g>
</g>
</svg>
