<svg width="18" height="19" viewBox="0 0 18 19" xmlns="http://www.w3.org/2000/svg">
<path d="M4.19881 14.5567C4.46865 14.8201 4.92378 14.8167 5.18071 14.56L9.00035 10.7435L12.8177 14.5589C13.0792 14.8201 13.5338 14.8241 13.7985 14.5555C14.0633 14.2859 14.0644 13.8418 13.803 13.5795L9.98559 9.75899L13.803 5.94467C14.0644 5.68348 14.0684 5.2343 13.7985 4.96976C13.5287 4.70013 13.0792 4.69901 12.8177 4.96529L9.00035 8.77961L5.18071 4.96418C4.92378 4.70348 4.46356 4.69393 4.19881 4.96864C3.93517 5.23827 3.93852 5.68683 4.19545 5.94355L8.01509 9.75899L4.19545 13.5817C3.93852 13.8373 3.93007 14.2921 4.19881 14.5567Z" />
</svg>
