<svg width="16" height="16" viewBox="0 0 16 16" xmlns="http://www.w3.org/2000/svg">
<path d="M8.17833 0.4375C12.3983 0.4375 15.8191 3.81878 15.8191 7.99005C15.8191 12.1613 12.3983 15.5426 8.17833 15.5426C3.95835 15.5426 0.537598 12.1613 0.537598 7.99005C0.537598 3.81878 3.95835 0.4375 8.17833 0.4375ZM11.69 4.5189C11.6144 4.44396 11.5145 4.3978 11.4078 4.38854C11.3012 4.37929 11.1947 4.40753 11.107 4.4683C8.89885 5.99995 7.65341 6.90777 7.36764 7.18873C7.15292 7.4014 7.03233 7.68959 7.03233 7.99005C7.03233 8.29051 7.15292 8.5787 7.36764 8.79138C7.5828 9.00362 7.87436 9.12282 8.17833 9.12282C8.4823 9.12282 8.77385 9.00362 8.98901 8.79138C9.15634 8.62522 10.0725 7.3934 11.7381 5.09289C11.8001 5.00706 11.8293 4.90228 11.8205 4.79717C11.8117 4.69207 11.7654 4.59347 11.69 4.5189ZM12.3807 7.2348C12.1781 7.2348 11.9837 7.31437 11.8404 7.45601C11.6972 7.59764 11.6167 7.78974 11.6167 7.99005C11.6167 8.19036 11.6972 8.38246 11.8404 8.5241C11.9837 8.66573 12.1781 8.74531 12.3807 8.74531C12.5834 8.74531 12.7777 8.66573 12.921 8.5241C13.0643 8.38246 13.1448 8.19036 13.1448 7.99005C13.1448 7.78974 13.0643 7.59764 12.921 7.45601C12.7777 7.31437 12.5834 7.2348 12.3807 7.2348ZM3.97593 7.2348C3.77328 7.2348 3.57894 7.31437 3.43564 7.45601C3.29235 7.59764 3.21185 7.78974 3.21185 7.99005C3.21185 8.19036 3.29235 8.38246 3.43564 8.5241C3.57894 8.66573 3.77328 8.74531 3.97593 8.74531C4.17857 8.74531 4.37291 8.66573 4.51621 8.5241C4.6595 8.38246 4.74 8.19036 4.74 7.99005C4.74 7.78974 4.6595 7.59764 4.51621 7.45601C4.37291 7.31437 4.17857 7.2348 3.97593 7.2348ZM5.74705 4.5189C5.67601 4.44878 5.59169 4.39317 5.49891 4.35526C5.40613 4.31735 5.3067 4.29787 5.20631 4.29794C5.10591 4.29801 5.00651 4.31763 4.91379 4.35567C4.82106 4.39371 4.73682 4.44943 4.66588 4.51965C4.52261 4.66147 4.44221 4.85374 4.44235 5.05415C4.44242 5.15339 4.46226 5.25164 4.50075 5.3433C4.53923 5.43495 4.59561 5.51822 4.66665 5.58834C4.81012 5.72996 5.00463 5.80944 5.20739 5.80929C5.41014 5.80915 5.60454 5.7294 5.74781 5.58758C5.89108 5.44577 5.97149 5.2535 5.97134 5.05309C5.9712 4.85267 5.89052 4.66051 5.74705 4.5189ZM8.17833 3.08089C7.97568 3.08089 7.78134 3.16046 7.63805 3.3021C7.49475 3.44374 7.41425 3.63584 7.41425 3.83615C7.41425 4.03645 7.49475 4.22856 7.63805 4.37019C7.78134 4.51183 7.97568 4.5914 8.17833 4.5914C8.38097 4.5914 8.57532 4.51183 8.71861 4.37019C8.8619 4.22856 8.9424 4.03645 8.9424 3.83615C8.9424 3.63584 8.8619 3.44374 8.71861 3.3021C8.57532 3.16046 8.38097 3.08089 8.17833 3.08089Z"/>
</svg>
