<svg width="11" height="11" viewBox="0 0 11 11" fill="none" xmlns="http://www.w3.org/2000/svg">
<path d="M1.81535 10.6028H9.03625C10.169 10.6028 10.7535 9.97082 10.7535 8.7601V1.85445C10.7535 0.642682 10.169 0.0117188 9.03625 0.0117188H1.81535C0.68259 0.0117188 0.09375 0.638028 0.09375 1.85445V8.7601C0.09375 9.97552 0.68259 10.6028 1.81535 10.6028ZM1.80086 9.49118C1.36022 9.49118 1.12196 9.24696 1.12196 8.74785V3.5054C1.12196 3.01095 1.36022 2.7631 1.80086 2.7631H9.04216C9.48279 2.7631 9.72534 3.01095 9.72534 3.5054V8.74785C9.72534 9.24696 9.48279 9.49118 9.04216 9.49118H1.80086ZM4.41611 4.72965H4.72577C4.91226 4.72965 4.97285 4.66984 4.97285 4.46818V4.13341C4.97285 3.93175 4.91226 3.86729 4.72577 3.86729H4.41611C4.2296 3.86729 4.16473 3.93175 4.16473 4.13341V4.46818C4.16473 4.66984 4.2296 4.72965 4.41611 4.72965ZM6.1311 4.72965H6.44074C6.62726 4.72965 6.6931 4.66984 6.6931 4.46818V4.13341C6.6931 3.93175 6.62726 3.86729 6.44074 3.86729H6.1311C5.94457 3.86729 5.87973 3.93175 5.87973 4.13341V4.46818C5.87973 4.66984 5.94457 4.72965 6.1311 4.72965ZM7.84705 4.72965H8.15669C8.34321 4.72965 8.40806 4.66984 8.40806 4.46818V4.13341C8.40806 3.93175 8.34321 3.86729 8.15669 3.86729H7.84705C7.66052 3.86729 7.59998 3.93175 7.59998 4.13341V4.46818C7.59998 4.66984 7.66052 4.72965 7.84705 4.72965ZM2.70113 6.55547H3.00552C3.19729 6.55547 3.25785 6.49567 3.25785 6.29401V5.95924C3.25785 5.75757 3.19729 5.69777 3.00552 5.69777H2.70113C2.50936 5.69777 2.4488 5.75757 2.4488 5.95924V6.29401C2.4488 6.49567 2.50936 6.55547 2.70113 6.55547ZM4.41611 6.55547H4.72577C4.91226 6.55547 4.97285 6.49567 4.97285 6.29401V5.95924C4.97285 5.75757 4.91226 5.69777 4.72577 5.69777H4.41611C4.2296 5.69777 4.16473 5.75757 4.16473 5.95924V6.29401C4.16473 6.49567 4.2296 6.55547 4.41611 6.55547ZM6.1311 6.55547H6.44074C6.62726 6.55547 6.6931 6.49567 6.6931 6.29401V5.95924C6.6931 5.75757 6.62726 5.69777 6.44074 5.69777H6.1311C5.94457 5.69777 5.87973 5.75757 5.87973 5.95924V6.29401C5.87973 6.49567 5.94457 6.55547 6.1311 6.55547ZM7.84705 6.55547H8.15669C8.34321 6.55547 8.40806 6.49567 8.40806 6.29401V5.95924C8.40806 5.75757 8.34321 5.69777 8.15669 5.69777H7.84705C7.66052 5.69777 7.59998 5.75757 7.59998 5.95924V6.29401C7.59998 6.49567 7.66052 6.55547 7.84705 6.55547ZM2.70113 8.38596H3.00552C3.19729 8.38596 3.25785 8.32253 3.25785 8.11985V7.7861C3.25785 7.58341 3.19729 7.52463 3.00552 7.52463H2.70113C2.50936 7.52463 2.4488 7.58341 2.4488 7.7861V8.11985C2.4488 8.32253 2.50936 8.38596 2.70113 8.38596ZM4.41611 8.38596H4.72577C4.91226 8.38596 4.97285 8.32253 4.97285 8.11985V7.7861C4.97285 7.58341 4.91226 7.52463 4.72577 7.52463H4.41611C4.2296 7.52463 4.16473 7.58341 4.16473 7.7861V8.11985C4.16473 8.32253 4.2296 8.38596 4.41611 8.38596ZM6.1311 8.38596H6.44074C6.62726 8.38596 6.6931 8.32253 6.6931 8.11985V7.7861C6.6931 7.58341 6.62726 7.52463 6.44074 7.52463H6.1311C5.94457 7.52463 5.87973 7.58341 5.87973 7.7861V8.11985C5.87973 8.32253 5.94457 8.38596 6.1311 8.38596Z" fill="#1A2233"/>
</svg>
