<svg width="15" height="18" viewBox="0 0 15 18" xmlns="http://www.w3.org/2000/svg">
<path d="M3.14276 16.3548H7.1194C6.70761 15.9746 6.37554 15.4986 6.17231 14.974H3.26444C2.58605 14.974 2.23553 14.6312 2.23553 13.9752V3.50444C2.23553 2.85999 2.57901 2.49285 3.26444 2.49285H10.5291C11.1901 2.49285 11.5509 2.85422 11.5509 3.50444V9.58706C12.0755 9.78901 12.5515 10.1153 12.9305 10.5329V3.42445C12.9305 1.89757 12.1533 1.11328 10.645 1.11328H3.14276C1.64024 1.11328 0.855957 1.90334 0.855957 3.42445V14.0437C0.855957 15.5705 1.64024 16.3548 3.14276 16.3548ZM4.32405 5.36073H9.47652C9.73057 5.36073 9.92574 5.1585 9.92574 4.90444C9.92574 4.65869 9.73057 4.46927 9.47652 4.46927H4.32405C4.05717 4.46927 3.86776 4.65869 3.86776 4.90444C3.86776 5.1585 4.05717 5.36073 4.32405 5.36073ZM4.32405 7.76303H9.47652C9.73057 7.76303 9.92574 7.56654 9.92574 7.31249C9.92574 7.06673 9.73057 6.87157 9.47652 6.87157H4.32405C4.05717 6.87157 3.86776 7.06673 3.86776 7.31249C3.86776 7.56654 4.05717 7.76303 4.32405 7.76303Z"/>
<path d="M9.82845 16.355C11.5419 16.355 12.9331 14.9638 12.9331 13.2504C12.9331 11.5293 11.5431 10.1367 9.82845 10.1367C8.11895 10.1367 6.71484 11.5409 6.71484 13.2504C6.71484 14.9638 8.11895 16.355 9.82845 16.355ZM9.82845 15.2847C8.69988 15.2847 7.7839 14.37 7.7839 13.2504C7.7839 12.1346 8.69988 11.2128 9.82845 11.2128C10.941 11.2128 11.857 12.1346 11.857 13.2504C11.857 14.37 10.9468 15.2847 9.82845 15.2847ZM13.5126 17.6336C13.8707 17.6336 14.1438 17.3548 14.1438 16.9652C14.1438 16.7951 14.0676 16.6275 13.9353 16.4938L12.0283 14.5824L11.0554 15.4764L12.9694 17.3949C13.1422 17.5664 13.3123 17.6336 13.5126 17.6336Z"/>
</svg>
