<svg width="11" height="10" viewBox="0 0 11 10" fill="none" xmlns="http://www.w3.org/2000/svg">
<path d="M1.08458 0.706254C0.959486 0.597007 0.811502 0.536133 0.639242 0.536133C0.282812 0.536133 -0.000118256 0.792838 -0.000118256 1.12292C-0.000118256 1.28887 0.0758557 1.43775 0.195911 1.54923L4.31657 5.28697V4.7899L0.195911 8.52397C0.0748754 8.6387 -0.000118256 8.78851 -0.000118256 8.94938C-0.000118256 9.27853 0.282812 9.53613 0.639242 9.53613C0.812483 9.53613 0.961457 9.47621 1.08458 9.36512L5.34861 5.49619C5.49493 5.36775 5.56541 5.21144 5.56738 5.03869C5.56738 4.86266 5.49592 4.71379 5.34861 4.577L1.08458 0.706254Z" fill="#1A2233"/>
<path d="M6.5172 0.706254C6.3921 0.597007 6.24412 0.536133 6.07186 0.536133C5.71543 0.536133 5.4325 0.792838 5.4325 1.12292C5.4325 1.28887 5.50847 1.43775 5.62853 1.54923L9.74919 5.28697V4.7899L5.62853 8.52397C5.50749 8.6387 5.4325 8.78851 5.4325 8.94938C5.4325 9.27853 5.71543 9.53613 6.07186 9.53613C6.2451 9.53613 6.39407 9.47621 6.5172 9.36512L10.7812 5.49619C10.9275 5.36775 10.998 5.21144 11 5.03869C11 4.86266 10.9285 4.71379 10.7812 4.577L6.5172 0.706254Z" fill="#1A2233"/>
</svg>
