<svg width="11" height="10" viewBox="0 0 11 10" fill="none" xmlns="http://www.w3.org/2000/svg">
<path d="M9.91542 0.706254C10.0405 0.597007 10.1885 0.536133 10.3608 0.536133C10.7172 0.536133 11.0001 0.792838 11.0001 1.12292C11.0001 1.28887 10.9241 1.43775 10.8041 1.54923L6.68343 5.28697V4.7899L10.8041 8.52397C10.9251 8.6387 11.0001 8.78851 11.0001 8.94938C11.0001 9.27853 10.7172 9.53613 10.3608 9.53613C10.1875 9.53613 10.0385 9.47621 9.91542 9.36512L5.65139 5.49619C5.50507 5.36775 5.43459 5.21144 5.43262 5.03869C5.43262 4.86266 5.50408 4.71379 5.65139 4.577L9.91542 0.706254Z" fill="#1A2233"/>
<path d="M4.4828 0.706254C4.6079 0.597007 4.75588 0.536133 4.92814 0.536133C5.28457 0.536133 5.5675 0.792838 5.5675 1.12292C5.5675 1.28887 5.49153 1.43775 5.37147 1.54923L1.25081 5.28697V4.7899L5.37147 8.52397C5.49251 8.6387 5.5675 8.78851 5.5675 8.94938C5.5675 9.27853 5.28457 9.53613 4.92814 9.53613C4.7549 9.53613 4.60593 9.47621 4.4828 9.36512L0.218775 5.49619C0.072451 5.36775 0.0019699 5.21144 0 5.03869C0 4.86266 0.0714657 4.71379 0.218775 4.577L4.4828 0.706254Z" fill="#1A2233"/>
</svg>
