<svg width="28" height="29" viewBox="0 0 28 29" fill="None" xmlns="http://www.w3.org/2000/svg">
<path d="M17.1834 15.9312C21.0072 15.9312 24.107 14.5535 24.107 12.854C24.107 11.1546 21.0072 9.77686 17.1834 9.77686C13.3596 9.77686 10.2598 11.1546 10.2598 12.854C10.2598 14.5535 13.3596 15.9312 17.1834 15.9312Z" stroke="#5B606E" stroke-width="2" stroke-linecap="round" stroke-linejoin="round"/>
<path d="M10.2598 12.8535V22.085C10.2598 23.7775 13.3369 25.1622 17.1834 25.1622C21.0299 25.1622 24.107 23.7775 24.107 22.085V12.8535" stroke="#5B606E" stroke-width="2" stroke-linecap="round" stroke-linejoin="round"/>
<path d="M24.1071 17.4697C24.1071 19.1621 21.0299 20.5468 17.1835 20.5468C13.337 20.5468 10.2598 19.1621 10.2598 17.4697M17.0296 6.69955C15.2317 5.59004 13.139 5.05344 11.0291 5.16096C7.19803 5.16096 4.10547 6.54569 4.10547 8.23814C4.10547 9.1459 4.99785 9.96135 6.41335 10.546" stroke="#5B606E" stroke-width="2" stroke-linecap="round" stroke-linejoin="round"/>
<path d="M6.41335 19.7772C4.99785 19.1925 4.10547 18.3771 4.10547 17.4693V8.23779" stroke="#5B606E" stroke-width="2" stroke-linecap="round" stroke-linejoin="round"/>
<path d="M6.41335 15.1614C4.99785 14.5767 4.10547 13.7613 4.10547 12.8535" stroke="#5B606E" stroke-width="2" stroke-linecap="round" stroke-linejoin="round"/>
</svg>
