<svg width="18" height="19" viewBox="0 0 18 19" xmlns="http://www.w3.org/2000/svg">
<path d="M2.25034 6.982C2.08958 6.81107 2 6.60886 2 6.37348C2 5.88644 2.37775 5.49984 2.86347 5.49984C3.10768 5.49984 3.32677 5.60365 3.49081 5.7677L8.99102 11.3983H8.25955L13.7544 5.7677C13.9232 5.60231 14.1436 5.49984 14.3804 5.49984C14.8647 5.49984 15.2438 5.88644 15.2438 6.37348C15.2438 6.6102 15.1556 6.81376 14.9921 6.982L9.29889 12.8085C9.10989 13.0084 8.87987 13.1047 8.62566 13.1074C8.36663 13.1074 8.14756 13.0098 7.94626 12.8085L2.25034 6.982Z"/>
</svg>
