<svg width="17" height="14" viewBox="0 0 17 14" xmlns="http://www.w3.org/2000/svg">
<path d="M8.44762 11.2626C10.7146 11.2626 13.6884 11.1486 14.9463 11.0038C15.9063 10.8959 16.4482 10.3516 16.4482 9.44351V8.27544C16.4482 7.10845 16.2405 6.45592 15.6132 5.65713L15.0252 4.91939C14.7838 3.72477 14.3404 2.47162 14.1123 1.97931C13.7408 1.1995 13.031 0.73094 12.1148 0.607894C11.6391 0.543385 10.2132 0.507812 8.44762 0.507812C6.68875 0.507812 5.2628 0.548828 4.78708 0.607894C3.86975 0.720055 3.15444 1.1983 2.78955 1.97931C2.55726 2.47162 2.11805 3.72477 1.8701 4.91939L1.28752 5.65713C0.655973 6.45592 0.448242 7.10845 0.448242 8.27544V9.44351C0.448242 10.3516 0.995639 10.8959 1.95014 11.0038C3.21351 11.1486 6.18188 11.2626 8.44762 11.2626ZM8.44762 10.2081C6.17321 10.2081 3.34292 10.0983 2.26365 9.96794C1.69833 9.90281 1.48967 9.61556 1.48967 9.10875V8.21932C1.48967 7.32202 1.6548 6.89608 2.12945 6.27407L2.84104 5.33816C3.00829 4.44512 3.43371 3.07105 3.71551 2.47361C3.93505 2.00612 4.35674 1.73388 4.94038 1.66087C5.39022 1.603 6.69447 1.54566 8.44762 1.54566C10.2063 1.54566 11.528 1.60539 11.9452 1.66087C12.544 1.73693 12.9579 2.01156 13.1864 2.47839C13.4646 3.06388 13.89 4.43556 14.0554 5.33816L14.7713 6.27407C15.2417 6.89608 15.4068 7.32202 15.4068 8.21932V9.10875C15.4068 9.61556 15.1969 9.90281 14.6328 9.96794C13.5578 10.0983 10.7233 10.2081 8.44762 10.2081ZM1.68613 13.0961H2.48054C2.98666 13.0961 3.37996 12.704 3.37996 12.2021V10.576L0.786716 10.1058V12.2021C0.786716 12.704 1.18001 13.0961 1.68613 13.0961ZM14.4159 13.0961H15.2158C15.7219 13.0961 16.1097 12.704 16.1097 12.2021V10.1058L13.5219 10.576V12.2021C13.5219 12.704 13.9098 13.0961 14.4159 13.0961Z"/>
<path d="M6.39081 6.25914C6.39081 6.38696 6.49637 6.48041 6.63201 6.48041H8.22772L7.37255 8.75164C7.2483 9.07791 7.6035 9.26123 7.82115 8.99703L10.4274 5.74121C10.4872 5.68028 10.5204 5.60489 10.5204 5.54157C10.5204 5.41375 10.4082 5.31486 10.2749 5.31486H8.68339L9.53318 3.04907C9.65318 2.71737 9.30223 2.53951 9.09121 2.80365L6.47287 6.0595C6.424 6.12587 6.39081 6.19039 6.39081 6.25914Z" />
</svg>
