<svg width="20" height="16" viewBox="0 0 20 16" fill="none" xmlns="http://www.w3.org/2000/svg">
<path d="M3.63267 15.2144H16.882C18.4573 15.2144 19.3726 14.2991 19.3726 12.5457V3.4647C19.3726 1.718 18.4506 0.802734 16.6755 0.802734H3.42608C1.85227 0.802734 0.937012 1.71126 0.937012 3.4647V12.5457C0.937012 14.3059 1.85901 15.2144 3.63267 15.2144ZM3.62922 13.6909C2.86368 13.6909 2.44721 13.2967 2.44721 12.4939V3.51647C2.44721 2.72184 2.86368 2.32625 3.62922 2.32625H16.6789C17.4324 2.32625 17.8624 2.72184 17.8624 3.52321V12.5006C17.8624 13.2967 17.4324 13.6909 16.6789 13.6909H3.62922ZM10.1675 10.2437C10.7753 10.2437 11.3563 9.99053 11.9463 9.40872L18.5583 2.90739L17.575 1.9144L11.1086 8.30155C10.7656 8.64305 10.4702 8.79178 10.1675 8.79178C9.85808 8.79178 9.56419 8.63632 9.22648 8.30155L2.73318 1.88744L1.74314 2.87896L8.38733 9.40872C8.97881 9.99053 9.55304 10.2437 10.1675 10.2437ZM17.4721 13.9826L18.4569 12.9896L13.2067 7.79335L12.2204 8.77811L17.4721 13.9826ZM1.8715 12.9963L2.85775 13.9893L8.11462 8.77811L7.12313 7.79335L1.8715 12.9963Z" fill="#1A2233"/>
</svg>
