<svg width="115" height="114" viewBox="0 0 115 114" fill="none" xmlns="http://www.w3.org/2000/svg">
<path fill-rule="evenodd" clip-rule="evenodd" d="M54.1326 96.6358C51.4018 97.1228 48.5836 97.3776 45.7021 97.3776C20.8698 97.3776 0.739258 78.4515 0.739258 55.1049C0.739258 31.7583 20.8698 12.8322 45.7021 12.8322C64.8844 12.8322 81.2611 24.1258 87.7203 40.0265C103.118 43.7491 114.491 56.8315 114.491 72.3989C114.491 90.8639 98.4899 105.833 78.7514 105.833C69.2102 105.833 60.5422 102.335 54.1326 96.6358Z" fill="#65BAB5" fill-opacity="0.15"/>
<path d="M58.074 18.3027C58.3136 17.8587 64.5297 16.6347 65.5016 17.4507C66.462 18.2787 66.2219 19.7427 65.9339 20.2227C65.6459 20.7027 57.786 20.8947 57.786 20.8947L58.074 18.3027" fill="#BEB5B4"/>
<path d="M58.8656 13.3881L58.2656 20.1201C58.2656 20.1201 59.586 28.3281 61.6495 29.0721C63.7016 29.8281 65.7298 24.464 65.6818 23.048C65.6339 21.62 65.1896 13.7961 65.1896 13.7961L58.8656 13.3881Z" fill="#DCA296"/>
<path d="M65.7057 23.6613C65.6579 22.2333 65.2016 14.4093 65.2016 14.4093L62.4536 14.2293L61.3136 29.8533C63.3656 30.5253 65.7417 25.0653 65.7057 23.6613" fill="#E9C3B5"/>
<path d="M59.481 25.3322C59.1007 24.6869 58.8299 23.2575 58.6153 21.9548C58.821 22.9282 59.1138 24.1629 59.481 25.3322ZM58.6533 15.7749C58.6679 14.4909 58.5357 13.1362 58.1581 12.1895C58.0778 11.9815 58.1857 11.8922 58.4267 11.8922C59.1877 11.8922 61.2799 12.7815 63.0122 13.6575L58.8658 13.3895L58.6533 15.7749" fill="url(#paint0_linear_1_6)"/>
<path d="M58.2806 19.9494C58.217 19.6307 58.1571 19.4081 58.0977 19.3374C58.2217 19.1414 58.3383 18.7494 58.4331 18.2374L58.2806 19.9494Z" fill="url(#paint1_linear_1_6)"/>
<path d="M59.8141 25.6603C59.6942 25.619 59.5838 25.5003 59.4812 25.327C59.114 24.1576 58.8213 22.923 58.6155 21.9496C58.4879 21.1736 58.3802 20.443 58.2812 19.9483L58.4338 18.2363C58.5578 17.5643 58.6431 16.6843 58.6535 15.7697L58.866 13.3843L63.0125 13.6523C63.4849 13.891 63.9302 14.1283 64.3146 14.3456L62.4541 14.2243L61.9259 21.4643L59.8141 25.6603Z" fill="url(#paint2_linear_1_6)"/>
<path d="M61.9258 21.465L62.4539 14.225L64.3144 14.3463C64.6852 14.557 64.9992 14.7503 65.2258 14.909L61.9258 21.465" fill="url(#paint3_linear_1_6)"/>
<path d="M65.7352 8.5894C65.2981 5.68807 64.3866 3.32408 60.233 3.90275C55.0409 4.62541 55.9242 7.74541 56.3434 11.2974C56.7622 14.8494 59.4601 18.3827 62.1128 18.0707C64.13 17.8307 65.5366 15.4281 65.907 12.7281C66.4153 12.3614 66.7341 11.5681 66.6658 10.6761C66.5789 9.51739 66.5038 8.57473 65.7352 8.5894Z" fill="#E9C3B5"/>
<path d="M56.1293 9.83518L55.8933 9.84849C55.0881 10.0058 55.2725 10.9565 55.5022 12.1258C55.6996 13.1405 56.361 13.8912 57.06 13.9672C58.1313 16.4018 59.7865 18.2792 61.749 18.0472L62.0085 17.9938L59.0085 4.60581C54.584 5.23915 55.7673 6.92184 56.1293 9.83518" fill="#DCA296"/>
<path d="M59.8034 2.59765C59.0692 2.32298 56.39 3.76568 55.6306 4.70168C54.964 5.52435 54.8477 6.51767 54.9952 8.06034C55.1389 9.60301 55.5217 9.94833 55.5217 9.94833L56.1624 10.0177L56.6842 10.2697L56.4462 9.17235C56.4462 9.17235 56.1124 7.89367 57.2264 6.62701C58.3405 5.36167 60.2988 5.67235 60.2988 5.67235L59.8034 2.59765" fill="#2A1412"/>
<path d="M59.5277 5.63371C60.1001 6.14971 59.735 6.18837 61.0938 5.92037C62.4563 5.6537 63.8709 6.32038 64.2918 6.86705C64.7142 7.41105 64.9907 8.82437 64.9907 8.82437L65.8605 8.58837L66.4121 8.79371C66.4121 8.79371 66.6146 6.18702 65.4605 4.54169C64.5881 3.29902 64.085 2.87368 62.3637 2.63635C61.5839 2.52702 59.9959 1.65639 59.5277 2.87372C59.3047 3.45105 59.5277 5.63371 59.5277 5.63371" fill="#61201B"/>
<path d="M57.7539 5.62685C57.7539 5.62685 57.5581 4.19486 59.1883 3.67086C60.8185 3.14686 62.0435 4.79084 62.0435 4.79084L57.7539 5.62685ZM63.0773 0.954841C61.3232 0.640174 56.8581 0.792202 55.3232 3.0842C53.7904 5.3802 55.1997 8.7775 55.1997 8.7775C56.4284 7.7015 63.0935 5.75351 66.5195 7.56285C66.2748 3.79751 64.8325 1.27351 63.0773 0.954841Z" fill="#3A597E"/>
<path d="M63.0813 0.973005C62.351 0.837005 61.1422 0.790374 59.8739 0.943708C59.6035 1.77571 59.4442 2.67703 59.4141 3.63036C60.9322 3.31569 62.0483 4.80634 62.0483 4.80634L59.4974 5.30367C59.5349 5.60767 59.5879 5.92103 59.6551 6.23303C59.7207 6.53703 59.7983 6.8397 59.8922 7.13436C62.177 6.7117 64.7713 6.64904 66.5213 7.57437C66.2775 3.8117 64.8359 1.289 63.0813 0.973005" fill="#65BAB5"/>
<path d="M50.6568 21.5128C48.6651 22.2195 46.2246 26.7795 42.3698 34.8742C41.7312 36.2129 36.1058 47.4715 39.9282 49.1369C40.824 47.6382 44.4746 39.8889 46.6094 40.7849C47.6719 38.3675 51.9751 30.8035 52.6479 30.6355C53.3214 30.4649 57.238 37.0249 57.0683 35.3969C56.897 33.7689 50.6568 21.5128 50.6568 21.5128" fill="#BEB5B4"/>
<path d="M68.0979 56.7106C67.5918 64.0546 65.6251 70.0826 59.0725 73.2946C56.2334 74.6866 48.2813 74.752 45.0689 73.9373C35.9459 71.6253 30.049 64.8293 30.8042 53.892C31.2761 47.056 35.7339 41.1853 40.8277 37.9613C43.8839 36.028 49.0303 35.3133 55.7318 36.164C65.7402 37.4306 68.8537 45.7733 68.0979 56.7106Z" fill="#211E1E"/>
<path d="M69.4351 57.8646C68.7737 67.4406 62.7565 74.3713 52.9513 73.6926C42.7538 72.9886 38.0742 65.3206 38.7351 55.7446C39.3966 46.1686 46.8059 38.8833 55.2825 39.4673C63.7595 40.0526 70.0971 48.2886 69.4351 57.8646Z" fill="#100F0D"/>
<path d="M63.7589 57.5499C62.9356 63.7272 57.9371 68.1566 52.5975 67.4446C47.2584 66.7312 43.5975 61.1459 44.4215 54.9686C45.2471 48.7913 50.2439 44.3606 55.584 45.0739C60.9236 45.7873 64.5845 51.3726 63.7589 57.5499Z" fill="#211E1E"/>
<path d="M61.5175 57.185C60.9711 61.2744 57.6633 64.2064 54.1289 63.7357C50.5929 63.2624 48.17 59.5664 48.7153 55.4757C49.2617 51.3864 52.5696 48.4544 56.1055 48.925C59.6399 49.397 62.0639 53.0944 61.5175 57.185Z" fill="#100F0D"/>
<path d="M47.755 53.827C47.6602 55.207 46.2493 56.235 44.603 56.1203C42.9566 56.007 41.6998 54.795 41.7951 53.415C41.8899 52.035 43.3014 51.0083 44.9482 51.1203C46.5941 51.235 47.8509 52.4457 47.755 53.827Z" fill="#100F0D"/>
<path d="M51.4542 48.6805C50.7438 49.8659 49.0198 50.1405 47.6052 49.2939C46.1891 48.4445 45.6194 46.7939 46.3303 45.6086C47.0418 44.4219 48.7667 44.1472 50.1812 44.9965C51.597 45.8432 52.1662 47.4939 51.4542 48.6805Z" fill="#100F0D"/>
<path d="M47.9446 60.2191C48.3591 61.5391 47.4191 63.0098 45.8462 63.5045C44.2722 64.0005 42.6602 63.3311 42.2446 62.0098C41.8295 60.6911 42.77 59.2204 44.343 58.7244C45.9175 58.2298 47.53 58.8991 47.9446 60.2191Z" fill="#100F0D"/>
<path d="M51.8368 64.4603C52.8228 65.431 52.6812 67.171 51.5244 68.347C50.3649 69.5216 48.6275 69.6856 47.6431 68.715C46.6577 67.743 46.7968 66.003 47.9551 64.8283C49.114 63.6537 50.8515 63.4883 51.8368 64.4603" fill="#100F0D"/>
<path d="M56.6784 64.6017C58.0623 64.5657 59.2159 65.875 59.2587 67.523C59.3008 69.1723 58.2123 70.5377 56.8295 70.5737C55.4467 70.6084 54.2909 69.299 54.2492 67.6497C54.2076 66.0003 55.2956 64.6364 56.6784 64.6017Z" fill="#100F0D"/>
<path d="M60.3607 62.306C61.4863 61.4994 63.1769 61.934 64.1373 63.274C65.1004 64.6154 64.9676 66.3554 63.8436 67.1607C62.7186 67.9674 61.0274 67.534 60.0665 66.194C59.104 64.8527 59.2363 63.1127 60.3607 62.306" fill="#100F0D"/>
<path d="M62.0454 58.2876C62.3787 56.9436 63.9475 56.1769 65.5484 56.5743C67.15 56.9729 68.1771 58.3836 67.8432 59.7276C67.5099 61.0689 65.9418 61.8356 64.3418 61.4383C62.7386 61.0409 61.7115 59.6289 62.0454 58.2876" fill="#100F0D"/>
<path d="M62.2616 53.2552C61.8908 51.9219 62.8782 50.4819 64.4668 50.0392C66.0564 49.5952 67.6465 50.3192 68.0168 51.6512C68.3886 52.9846 67.4012 54.4232 65.8116 54.8659C64.222 55.3086 62.6318 54.5872 62.2616 53.2552" fill="#100F0D"/>
<path d="M59.8671 49.6363C58.7952 48.7603 58.7755 47.0136 59.8207 45.7376C60.8666 44.4603 62.5822 44.1389 63.6531 45.0136C64.7228 45.8896 64.7436 47.6363 63.6979 48.9123C62.6526 50.1896 60.9364 50.5123 59.8671 49.6363" fill="#100F0D"/>
<path d="M56.0073 47.7228C54.624 47.7201 53.5047 46.3815 53.5088 44.7308C53.5115 43.0801 54.6369 41.7468 56.0193 41.7495C57.4036 41.7521 58.5224 43.0922 58.5193 44.7428C58.5167 46.3922 57.3917 47.7255 56.0073 47.7228" fill="#100F0D"/>
<path d="M74.9408 113.037L77.7023 112.973C77.7023 112.973 80.9137 112.202 78.7949 109.246C77.2111 107.039 77.4621 106.214 76.6105 104.493C76.0965 103.453 72.2564 104.093 72.2564 104.093C72.2564 104.093 72.7543 107.425 72.4351 108.539C71.0433 113.41 74.9408 113.037 74.9408 113.037" fill="#211E1E"/>
<path d="M70.6374 45.2699C71.986 47.9673 72.827 53.2473 73.8552 61.7273C74.3088 65.4753 75.1792 74.8499 75.9494 77.8539C78.6344 88.3193 77.8636 106.669 77.8636 106.669L72.2098 106.926C72.2098 106.926 67.0125 80.6593 66.5406 78.7739C66.0693 76.8846 62.7666 63.4353 62.7666 63.4353C62.7666 63.4353 61.2234 79.3219 62.1672 81.2113C63.1125 83.0979 63.8098 104.915 63.8098 104.915L57.788 104.875C57.788 104.875 55.7104 83.0019 55.2401 78.2819C54.7672 73.5633 54.415 46.7273 54.415 46.7273L70.6374 45.2699" fill="#65BAB5"/>
<path d="M59.6691 104.005C59.205 105.861 57.2784 107.436 55.8878 107.9C54.4956 108.364 52.78 109.28 53.2446 111.136C53.7087 112.992 57.3566 112.164 57.3566 112.164C57.3566 112.164 61.9186 110.684 63.3096 110.684C64.7019 110.684 64.7019 106.818 64.2372 104.962C63.7743 103.106 59.6691 104.005 59.6691 104.005" fill="#100F0D"/>
<path d="M53.4514 80.1014C54.2039 91.9081 57.8919 106.032 57.8919 106.032L65.0691 105.784C65.0691 105.784 64.9462 86.4801 64.0795 81.9028C63.2691 77.6174 63.2129 68.4147 63.2129 68.4147C63.2129 68.4147 65.3405 79.1494 65.8118 81.0361C66.2826 82.9241 71.6957 107.059 71.6957 107.059L76.4123 106.609C76.0525 103.029 73.855 85.8214 72.2045 78.4788C71.2419 74.1908 68.7405 54.3907 66.8425 47.6254L52.4473 47.7494C52.4473 47.7494 53.1493 75.3681 53.4514 80.1014" fill="#3A597E"/>
<path d="M59.6508 23.3126C58.457 21.4833 57.7237 19.0353 57.7237 19.0353C57.7237 19.0353 57.1456 19.1567 52.8732 20.4207C50.6893 21.0687 49.483 22.1233 49.3081 23.698C49.1325 25.2727 53.3257 30.2993 53.6762 32.05C54.0257 33.7993 52.457 45.9113 54.03 47.982C55.0888 49.374 56.3586 47.2047 62.306 47.2927C62.306 40.822 62.1221 28.61 61.7705 25.1113C61.7445 24.8513 60.159 24.0926 59.6508 23.3126" fill="#BEB5B4"/>
<path d="M66.0114 18.6471C66.0114 18.6471 67.9546 18.5777 71.9526 19.9377C73.5593 20.4831 73.3202 20.9057 73.4958 22.4791C73.6688 24.0537 72.0474 33.5417 71.6974 35.2897C71.3489 37.0404 68.5478 42.7324 68.7729 45.8591C68.8994 47.6031 64.0693 46.9857 60.7745 47.0151C60.7745 40.5431 60.2546 25.8284 61.5776 24.9164C65.3036 22.3457 66.0114 18.6471 66.0114 18.6471" fill="#DAD9D8"/>
<path d="M65.5611 17.4644L67.4236 18.879L65.8966 23.8244C65.8966 23.8244 63.648 22.2324 63.7715 22.0737C65.7622 19.5057 65.5611 17.4644 65.5611 17.4644" fill="#BEB5B4"/>
<path d="M58.1472 18.1629L56.5352 19.4616L57.4737 23.5509C57.4737 23.5509 59.2434 21.8283 59.1472 21.5376C58.5038 19.6096 58.1472 18.1629 58.1472 18.1629" fill="#DAD9D8"/>
<path d="M53.9972 20.0326C53.6128 21.7672 54.4148 27.5499 54.9929 27.9352C56.4456 28.9032 65.5924 28.3206 65.5924 28.3206L66.9866 48.3619C66.9866 48.3619 53.6194 49.9446 53.2309 49.5166C52.2674 48.4566 51.7461 45.8619 51.7461 44.3192C51.7461 42.7779 52.006 33.3312 52.006 33.3312C52.006 33.3312 52.6361 23.8486 51.8966 20.8232C53.3221 19.8952 53.9972 20.0326 53.9972 20.0326" fill="#3A597E"/>
<path d="M69.175 19.1079C69.175 19.1079 67.5208 27.2666 67.1344 27.8439C66.7494 28.4226 64.7254 28.3266 64.7254 28.3266C64.7254 28.3266 64.0484 42.5439 66.8432 48.6159C67.3838 49.7892 70.7974 48.0812 70.7974 48.0812C70.7974 48.0812 72.6182 44.0372 72.2417 31.1212C72.2202 30.3505 69.351 28.6146 69.351 27.8439C69.351 27.0732 71.1978 19.5892 71.1978 19.5892L69.175 19.1079" fill="#65BAB5"/>
<path d="M66.7495 37.673C60.0531 38.477 55.1339 38.0689 55.1339 38.0689C55.1339 38.0689 54.1531 37.7689 52.9479 37.1543C50.6918 36.0036 50.4131 36.7289 50.4131 36.7289L51.9203 37.8196L47.7855 37.9796C47.7855 37.9796 46.5126 38.3476 46.2771 38.5863C45.5719 39.2996 45.2506 40.4729 47.5818 41.3889C50.6891 42.6089 52.3881 41.5236 55.2255 41.7623C58.5031 42.0369 63.3553 42.7409 64.9282 42.7143C66.5037 42.6876 66.7495 37.673 66.7495 37.673" fill="#E9C3B5"/>
<path d="M72.6919 20.1406C75.1977 21.1046 76.0643 27.8126 75.9358 31.926C75.8077 36.0246 75.1987 39.9953 74.0733 42.1073C73.0451 44.0353 63.9545 44.0353 63.9545 44.0353L63.6973 38.0913C63.6973 38.0913 69.0946 37.1926 69.3509 36.8086C70.6358 34.8793 71.1806 30.8726 71.0862 30.158C70.991 29.4433 72.6919 20.1406 72.6919 20.1406Z" fill="#BEB5B4"/>
<defs>
<linearGradient id="paint0_linear_1_6" x1="58.0858" y1="18.8122" x2="65.3465" y2="18.5834" gradientUnits="userSpaceOnUse">
<stop stop-color="white"/>
<stop offset="0.642857" stop-color="#C4BDB4"/>
<stop offset="1" stop-color="#C4BDB4"/>
</linearGradient>
<linearGradient id="paint1_linear_1_6" x1="58.0854" y1="18.8081" x2="65.3461" y2="18.5792" gradientUnits="userSpaceOnUse">
<stop stop-color="#BEB5B5"/>
<stop offset="0.642857" stop-color="#8F8680"/>
<stop offset="1" stop-color="#8F8680"/>
</linearGradient>
<linearGradient id="paint2_linear_1_6" x1="58.0861" y1="18.807" x2="65.3467" y2="18.5781" gradientUnits="userSpaceOnUse">
<stop stop-color="#DCA296"/>
<stop offset="0.642857" stop-color="#A8786B"/>
<stop offset="1" stop-color="#A8786B"/>
</linearGradient>
<linearGradient id="paint3_linear_1_6" x1="58.0859" y1="18.8077" x2="65.3466" y2="18.5788" gradientUnits="userSpaceOnUse">
<stop stop-color="#E9C3B5"/>
<stop offset="0.642857" stop-color="#B0917F"/>
<stop offset="1" stop-color="#B0917F"/>
</linearGradient>
</defs>
</svg>
