<svg width="18" height="18" viewBox="0 0 18 18" fill="none" xmlns="http://www.w3.org/2000/svg">
<path d="M9.00163 13.8261C13.179 13.8261 16 10.4587 16 9.41651C16 8.37204 13.1748 5.00879 9.00163 5.00879C4.88493 5.00879 2 8.37204 2 9.41651C2 10.4587 4.88075 13.8261 9.00163 13.8261ZM9.00163 12.8486C5.74211 12.8486 3.15392 10.1267 3.15392 9.41651C3.15392 8.82122 5.74211 5.98622 9.00163 5.98622C12.2486 5.98622 14.8461 8.82122 14.8461 9.41651C14.8461 10.1267 12.2486 12.8486 9.00163 12.8486ZM9.00254 12.1634C10.5294 12.1634 11.7526 10.9118 11.7526 9.41651C11.7526 7.88413 10.5294 6.67242 9.00254 6.67242C7.46925 6.67242 6.2399 7.88322 6.24408 9.41651C6.25243 10.9118 7.46925 12.1634 9.00254 12.1634ZM9.00072 10.3064C8.50568 10.3064 8.10612 9.9032 8.10612 9.41651C8.10612 8.92567 8.50568 8.52845 9.00072 8.52845C9.49432 8.52845 9.8948 8.92567 9.8948 9.41651C9.8948 9.9032 9.49432 10.3064 9.00072 10.3064Z" fill="#FAFBFC"/>
</svg>
