<svg xmlns="http://www.w3.org/2000/svg">
<path d="M3.5 11.3553C3.5 12.3662 4.29352 13.1937 5.26296 13.1937C6.23365 13.1937 7.0328 12.3688 7.0328 11.3553C7.0328 10.343 6.23365 9.51684 5.26296 9.51684C4.29352 9.51684 3.5 10.343 3.5 11.3553ZM4.42248 11.3553C4.42248 10.8634 4.79685 10.4788 5.26859 10.4788C5.74405 10.4788 6.11032 10.8634 6.11032 11.3553C6.11032 11.8511 5.74405 12.2318 5.26859 12.2318C4.79685 12.2318 4.42248 11.8511 4.42248 11.3553ZM5.26859 2.78125C4.9151 2.78125 4.61475 3.08157 4.61475 3.45665V10.1072H5.91682V3.45665C5.91682 3.08028 5.62828 2.78125 5.26859 2.78125ZM5.26859 15.7812C5.63075 15.7812 5.91682 15.4835 5.91682 15.1306V12.6838H4.61475V15.1306C4.61475 15.4822 4.91139 15.7812 5.26859 15.7812ZM8.23078 7.13C8.23078 8.13966 9.02993 8.96976 9.99938 8.96976C10.97 8.96976 11.7636 8.14224 11.7636 7.13C11.7636 6.11904 10.97 5.29153 9.99938 5.29153C9.02993 5.29153 8.23078 6.11904 8.23078 7.13ZM9.15889 7.13C9.15889 6.64392 9.53325 6.25351 9.99938 6.25351C10.4748 6.25351 10.8411 6.64392 10.8411 7.13C10.8411 7.62581 10.4748 8.00776 9.99938 8.00776C9.53325 8.00776 9.15889 7.62581 9.15889 7.13ZM9.99938 2.78125C9.64587 2.78125 9.35116 3.08157 9.35116 3.43188V5.82745H10.6532V3.43188C10.6532 3.08028 10.3578 2.78125 9.99938 2.78125ZM9.99938 15.7812C10.3615 15.7812 10.6532 15.4835 10.6532 15.1071V8.36136H9.35116V15.1071C9.35116 15.4822 9.64218 15.7812 9.99938 15.7812ZM12.9728 11.3553C12.9728 12.3662 13.7664 13.1937 14.7358 13.1937C15.7065 13.1937 16.5 12.3662 16.5 11.3553C16.5 10.343 15.7065 9.51684 14.7358 9.51684C13.7664 9.51684 12.9728 10.343 12.9728 11.3553ZM13.8953 11.3553C13.8953 10.8634 14.2696 10.4788 14.7358 10.4788C15.2169 10.4788 15.5775 10.8634 15.5775 11.3553C15.5775 11.8511 15.2169 12.2318 14.7358 12.2318C14.2696 12.2318 13.8953 11.8511 13.8953 11.3553ZM14.7358 2.78125C14.3823 2.78125 14.0819 3.08157 14.0819 3.45665V10.1378H15.384V3.45665C15.384 3.08028 15.0942 2.78125 14.7358 2.78125ZM14.7358 15.7812C15.0979 15.7812 15.384 15.4835 15.384 15.1306V12.6003H14.0819V15.1306C14.0819 15.4822 14.3786 15.7812 14.7358 15.7812Z"/>
</svg>
