<svg width="19" height="19" viewBox="0 0 19 19" xmlns="http://www.w3.org/2000/svg">
<path d="M9.31367 18.3344C14.244 18.3344 18.3145 14.2584 18.3145 9.33516C18.3145 4.40482 14.2369 0.335938 9.30654 0.335938C4.3849 0.335938 0.314453 4.40482 0.314453 9.33516C0.314453 14.2584 4.39205 18.3344 9.31367 18.3344ZM9.31367 16.5617C5.3035 16.5617 2.09431 13.3453 2.09431 9.33516C2.09431 5.32498 5.29636 2.10866 9.30654 2.10866C13.3167 2.10866 16.5417 5.32498 16.5417 9.33516C16.5417 13.3453 13.3238 16.5617 9.31367 16.5617Z" />
<path d="M6.06686 13.969C6.32717 13.969 6.50595 13.7657 6.50595 13.5196V11.0327C6.67305 10.9661 6.994 10.8757 7.47926 10.8757C8.99235 10.8757 9.95405 11.6282 11.4471 11.6282C12.0983 11.6282 12.3746 11.5616 12.7135 11.4033C13.095 11.2315 13.2668 10.96 13.2668 10.5476V6.32151C13.2668 6.03593 13.1095 5.83887 12.7319 5.83887C12.4715 5.83887 12.0975 6.01869 11.4051 6.01869C9.96639 6.01869 8.99443 5.25586 7.43727 5.25586C6.77184 5.25586 6.49549 5.33113 6.17402 5.47523C5.80115 5.63989 5.61035 5.93278 5.61035 6.32936V13.5196C5.61035 13.7569 5.82397 13.969 6.06686 13.969Z" />
</svg>
