<svg width="19" height="18" viewBox="0 0 19 18" fill="none" xmlns="http://www.w3.org/2000/svg">
<path d="M2.5 9.72308C2.5 13.2828 5.44493 16.2225 8.99944 16.2225C12.5602 16.2225 15.5 13.2828 15.5 9.72308C15.5 6.60474 13.2457 3.96397 10.2908 3.35792V2.47577C10.2908 1.99733 9.93948 1.86872 9.55327 2.14016L7.44077 3.59652C7.11736 3.81824 7.11447 4.17349 7.44077 4.39925L9.54812 5.86189C9.93835 6.13849 10.2908 6.01329 10.2908 5.52628V4.67585C12.5571 5.23961 14.2134 7.27559 14.2134 9.72308C14.2134 12.6193 11.8956 14.9422 8.99944 14.9422C6.1032 14.9422 3.77514 12.6193 3.7803 9.72308C3.78545 8.0358 4.58015 6.55503 5.82295 5.60883C6.11604 5.35489 6.21256 4.99121 5.9941 4.68277C5.78697 4.39195 5.38428 4.33746 5.04967 4.61141C3.51755 5.75972 2.5 7.68595 2.5 9.72308Z" fill="#1A2233"/>
</svg>
