<svg width="13" height="10" viewBox="0 0 13 10" fill="none" xmlns="http://www.w3.org/2000/svg">
<path d="M4.6894 1.8188H5.33406C5.72228 1.8188 5.84843 1.69266 5.84843 1.26735V0.561269C5.84843 0.135954 5.72228 0 5.33406 0H4.6894C4.3011 0 4.16605 0.135954 4.16605 0.561269V1.26735C4.16605 1.69266 4.3011 1.8188 4.6894 1.8188ZM8.25973 1.8188H8.90434C9.29266 1.8188 9.42971 1.69266 9.42971 1.26735V0.561269C9.42971 0.135954 9.29266 0 8.90434 0H8.25973C7.87141 0 7.73641 0.135954 7.73641 0.561269V1.26735C7.73641 1.69266 7.87141 1.8188 8.25973 1.8188ZM11.8321 1.8188H12.4767C12.865 1.8188 13 1.69266 13 1.26735V0.561269C13 0.135954 12.865 0 12.4767 0H11.8321C11.4437 0 11.3177 0.135954 11.3177 0.561269V1.26735C11.3177 1.69266 11.4437 1.8188 11.8321 1.8188ZM1.11907 5.66965H1.75275C2.15199 5.66965 2.27807 5.54353 2.27807 5.1182V4.41213C2.27807 3.9868 2.15199 3.86068 1.75275 3.86068H1.11907C0.71983 3.86068 0.59375 3.9868 0.59375 4.41213V5.1182C0.59375 5.54353 0.71983 5.66965 1.11907 5.66965ZM4.6894 5.66965H5.33406C5.72228 5.66965 5.84843 5.54353 5.84843 5.1182V4.41213C5.84843 3.9868 5.72228 3.86068 5.33406 3.86068H4.6894C4.3011 3.86068 4.16605 3.9868 4.16605 4.41213V5.1182C4.16605 5.54353 4.3011 5.66965 4.6894 5.66965ZM8.25973 5.66965H8.90434C9.29266 5.66965 9.42971 5.54353 9.42971 5.1182V4.41213C9.42971 3.9868 9.29266 3.86068 8.90434 3.86068H8.25973C7.87141 3.86068 7.73641 3.9868 7.73641 4.41213V5.1182C7.73641 5.54353 7.87141 5.66965 8.25973 5.66965ZM11.8321 5.66965H12.4767C12.865 5.66965 13 5.54353 13 5.1182V4.41213C13 3.9868 12.865 3.86068 12.4767 3.86068H11.8321C11.4437 3.86068 11.3177 3.9868 11.3177 4.41213V5.1182C11.3177 5.54353 11.4437 5.66965 11.8321 5.66965ZM1.11907 9.53035H1.75275C2.15199 9.53035 2.27807 9.39657 2.27807 8.96909V8.26517C2.27807 7.83769 2.15199 7.71371 1.75275 7.71371H1.11907C0.71983 7.71371 0.59375 7.83769 0.59375 8.26517V8.96909C0.59375 9.39657 0.71983 9.53035 1.11907 9.53035ZM4.6894 9.53035H5.33406C5.72228 9.53035 5.84843 9.39657 5.84843 8.96909V8.26517C5.84843 7.83769 5.72228 7.71371 5.33406 7.71371H4.6894C4.3011 7.71371 4.16605 7.83769 4.16605 8.26517V8.96909C4.16605 9.39657 4.3011 9.53035 4.6894 9.53035ZM8.25973 9.53035H8.90434C9.29266 9.53035 9.42971 9.39657 9.42971 8.96909V8.26517C9.42971 7.83769 9.29266 7.71371 8.90434 7.71371H8.25973C7.87141 7.71371 7.73641 7.83769 7.73641 8.26517V8.96909C7.73641 9.39657 7.87141 9.53035 8.25973 9.53035Z" fill="black"/>
<path d="M1.86119 1.8188H1.21653C0.82823 1.8188 0.693181 1.69266 0.693181 1.26735V0.561269C0.693181 0.135954 0.82823 0 1.21653 0H1.86119C2.24942 0 2.37556 0.135954 2.37556 0.561269V1.26735C2.37556 1.69266 2.24942 1.8188 1.86119 1.8188Z" fill="black"/>
<path d="M4.6894 1.8188H5.33406C5.72228 1.8188 5.84843 1.69266 5.84843 1.26735V0.561269C5.84843 0.135954 5.72228 0 5.33406 0H4.6894C4.3011 0 4.16605 0.135954 4.16605 0.561269V1.26735C4.16605 1.69266 4.3011 1.8188 4.6894 1.8188ZM8.25973 1.8188H8.90434C9.29266 1.8188 9.42971 1.69266 9.42971 1.26735V0.561269C9.42971 0.135954 9.29266 0 8.90434 0H8.25973C7.87141 0 7.73641 0.135954 7.73641 0.561269V1.26735C7.73641 1.69266 7.87141 1.8188 8.25973 1.8188ZM11.8321 1.8188H12.4767C12.865 1.8188 13 1.69266 13 1.26735V0.561269C13 0.135954 12.865 0 12.4767 0H11.8321C11.4437 0 11.3177 0.135954 11.3177 0.561269V1.26735C11.3177 1.69266 11.4437 1.8188 11.8321 1.8188ZM1.11907 5.66965H1.75275C2.15199 5.66965 2.27807 5.54353 2.27807 5.1182V4.41213C2.27807 3.9868 2.15199 3.86068 1.75275 3.86068H1.11907C0.71983 3.86068 0.59375 3.9868 0.59375 4.41213V5.1182C0.59375 5.54353 0.71983 5.66965 1.11907 5.66965ZM4.6894 5.66965H5.33406C5.72228 5.66965 5.84843 5.54353 5.84843 5.1182V4.41213C5.84843 3.9868 5.72228 3.86068 5.33406 3.86068H4.6894C4.3011 3.86068 4.16605 3.9868 4.16605 4.41213V5.1182C4.16605 5.54353 4.3011 5.66965 4.6894 5.66965ZM8.25973 5.66965H8.90434C9.29266 5.66965 9.42971 5.54353 9.42971 5.1182V4.41213C9.42971 3.9868 9.29266 3.86068 8.90434 3.86068H8.25973C7.87141 3.86068 7.73641 3.9868 7.73641 4.41213V5.1182C7.73641 5.54353 7.87141 5.66965 8.25973 5.66965ZM11.8321 5.66965H12.4767C12.865 5.66965 13 5.54353 13 5.1182V4.41213C13 3.9868 12.865 3.86068 12.4767 3.86068H11.8321C11.4437 3.86068 11.3177 3.9868 11.3177 4.41213V5.1182C11.3177 5.54353 11.4437 5.66965 11.8321 5.66965ZM1.11907 9.53035H1.75275C2.15199 9.53035 2.27807 9.39657 2.27807 8.96909V8.26517C2.27807 7.83769 2.15199 7.71371 1.75275 7.71371H1.11907C0.71983 7.71371 0.59375 7.83769 0.59375 8.26517V8.96909C0.59375 9.39657 0.71983 9.53035 1.11907 9.53035ZM4.6894 9.53035H5.33406C5.72228 9.53035 5.84843 9.39657 5.84843 8.96909V8.26517C5.84843 7.83769 5.72228 7.71371 5.33406 7.71371H4.6894C4.3011 7.71371 4.16605 7.83769 4.16605 8.26517V8.96909C4.16605 9.39657 4.3011 9.53035 4.6894 9.53035ZM8.25973 9.53035H8.90434C9.29266 9.53035 9.42971 9.39657 9.42971 8.96909V8.26517C9.42971 7.83769 9.29266 7.71371 8.90434 7.71371H8.25973C7.87141 7.71371 7.73641 7.83769 7.73641 8.26517V8.96909C7.73641 9.39657 7.87141 9.53035 8.25973 9.53035Z" fill="black"/>
<path d="M12.4724 9.53059H11.8278C11.4395 9.53059 11.3045 9.39681 11.3045 8.96933V8.2654C11.3045 7.83792 11.4395 7.71395 11.8278 7.71395H12.4724C12.8607 7.71395 12.9978 7.83792 12.9978 8.2654V8.96933C12.9978 9.39681 12.8607 9.53059 12.4724 9.53059Z" fill="black"/>
</svg>
