<svg width="12" height="9" viewBox="0 0 12 9" fill="none" xmlns="http://www.w3.org/2000/svg">
<path d="M11.668 3.55756C11.6542 3.56626 11.6568 3.5819 11.654 3.59485C11.6452 3.6366 11.6353 3.67791 11.6129 3.71475C11.5903 3.75204 11.5601 3.77192 11.5156 3.77147C11.3671 3.77013 11.2183 3.77102 11.0698 3.77102C11.0244 3.77102 11.0235 3.77169 11.047 3.81367C11.1675 4.0296 11.281 4.24976 11.395 4.46948C11.4968 4.66531 11.5597 4.87543 11.5898 5.09649C11.6032 5.19429 11.6058 5.29209 11.6055 5.39034C11.6051 5.9182 11.6036 6.44629 11.606 6.97415C11.6075 7.29815 11.3983 7.62348 11.0315 7.69293C10.9893 7.70096 10.9467 7.70588 10.9034 7.70588C8.60116 7.70588 6.29912 7.70565 3.99687 7.70565C3.99062 7.70565 3.98438 7.70521 3.97814 7.70565C3.95597 7.70744 3.94908 7.69672 3.94844 7.67417C3.94628 7.5853 3.94198 7.49621 3.9394 7.40734C3.93638 7.3035 3.93488 7.19967 3.93208 7.09584C3.92691 6.89667 3.92218 6.69727 3.9155 6.49809C3.90969 6.32258 3.83759 6.17722 3.72114 6.05262C3.58424 5.90592 3.45854 5.7485 3.32423 5.59934C3.24179 5.50779 3.16387 5.412 3.08036 5.32156C3.05237 5.2912 3.04333 5.25949 3.04656 5.21907C3.06658 4.96474 3.129 4.72292 3.242 4.49538C3.35608 4.26606 3.47791 4.04143 3.59974 3.81658C3.61624 3.78606 3.60778 3.7708 3.57434 3.7708C3.43207 3.7708 3.28979 3.7708 3.1473 3.7708C3.11436 3.7708 3.11286 3.76834 3.12104 3.73619C3.14514 3.64308 3.16904 3.54996 3.19271 3.45663C3.20348 3.41487 3.20283 3.41577 3.23942 3.43341C3.41894 3.5196 3.59049 3.62209 3.76892 3.71051C3.81412 3.73284 3.81412 3.73351 3.7898 3.77996C3.7418 3.87106 3.69316 3.96194 3.64516 4.05304C3.63483 4.07247 3.62277 4.09122 3.61868 4.11355C3.60641 4.18054 3.64666 4.23413 3.71425 4.24016C3.73384 4.24195 3.75364 4.24128 3.77323 4.24128C4.52787 4.24128 5.28231 4.24128 6.03695 4.24128C6.05977 4.24128 6.08345 4.24641 6.10454 4.23056C6.10906 4.22721 6.11832 4.22967 6.12542 4.23056C6.1872 4.24016 6.24854 4.2386 6.30902 4.22297C6.35573 4.21091 6.39405 4.18501 6.4259 4.14794C6.43989 4.13186 6.44614 4.11266 6.44506 4.09167C6.44355 4.06689 6.45604 4.05862 6.47756 4.05862C6.52405 4.05862 6.57055 4.0584 6.61725 4.0584C7.91776 4.0584 9.21849 4.0584 10.519 4.0584C10.545 4.0584 10.5709 4.0584 10.5969 4.05728C10.6873 4.05349 10.7413 3.96328 10.7013 3.87865C10.6699 3.81211 10.6331 3.74825 10.5986 3.68327C10.451 3.40438 10.3033 3.12549 10.1557 2.84659C9.99294 2.53912 9.83107 2.23142 9.66727 1.92462C9.59237 1.78462 9.47463 1.71428 9.32051 1.71115C9.16661 1.7078 9.01271 1.70825 8.85903 1.70289C8.76066 1.69954 8.66229 1.70178 8.56371 1.69977C8.35083 1.6953 8.13774 1.69463 7.92508 1.68704C7.62718 1.67654 7.32928 1.67587 7.03138 1.679C6.83465 1.68101 6.63792 1.68927 6.44097 1.68949C6.39232 1.68949 6.39232 1.69039 6.39211 1.63948C6.39189 1.55842 6.36047 1.51332 6.28449 1.48987C6.22465 1.47156 6.16416 1.4729 6.10476 1.49188C6.07182 1.50238 6.04148 1.51957 6.02296 1.55128C6.00854 1.57584 5.98896 1.58276 5.96227 1.58276C5.66867 1.58209 5.37508 1.58522 5.08148 1.58075C4.99323 1.57941 4.94007 1.60598 4.89659 1.69061C4.70653 2.06061 4.50915 2.42658 4.31414 2.7939C4.30531 2.81064 4.30079 2.82739 4.30036 2.84659C4.2995 2.88522 4.28766 2.92117 4.27152 2.95578C4.25688 2.98682 4.25451 2.98749 4.22524 2.97208C4.08641 2.89907 3.94758 2.82627 3.80853 2.75348C3.739 2.71709 3.66926 2.68136 3.59974 2.64474C3.59242 2.64094 3.57886 2.63983 3.58123 2.62866C3.58338 2.61817 3.5963 2.62219 3.60469 2.6204C3.71662 2.59561 3.82876 2.5715 3.94047 2.54604C4.04142 2.52304 4.13269 2.53979 4.20953 2.61526C4.22653 2.63201 4.23234 2.62174 4.24031 2.60656C4.32447 2.44512 4.40884 2.28345 4.49365 2.12223C4.56382 1.98871 4.63291 1.85428 4.70997 1.72478C4.83438 1.516 5.01971 1.4039 5.2511 1.36952C5.28984 1.36371 5.32966 1.36394 5.36884 1.36327C5.54598 1.36081 5.72313 1.36036 5.90027 1.35634C6.10433 1.35188 6.30816 1.3492 6.51222 1.34473C6.69646 1.34071 6.88071 1.3387 7.06496 1.33334C7.201 1.32932 7.33703 1.32754 7.47285 1.33044C7.70984 1.33558 7.94704 1.33781 8.18402 1.34228C8.37365 1.34563 8.56328 1.34942 8.75291 1.35299C8.94254 1.35657 9.13239 1.35746 9.3218 1.3646C9.60958 1.37532 9.82677 1.51175 9.96689 1.77412C10.0982 2.01997 10.228 2.26671 10.3586 2.513C10.4587 2.70145 10.5597 2.88947 10.6593 3.07815C10.6703 3.09891 10.6834 3.10606 10.706 3.10606C10.9665 3.10539 11.2269 3.10561 11.4874 3.10561C11.5713 3.10561 11.6 3.12549 11.6322 3.20609C11.6458 3.24026 11.652 3.27643 11.6589 3.31372C11.6624 3.30859 11.6647 3.30501 11.6673 3.30144V3.55756H11.668ZM7.3295 6.63698C7.28645 6.63698 7.24362 6.63698 7.20057 6.63698C6.8579 6.63698 6.51523 6.63698 6.17234 6.63698C6.11272 6.63698 6.08539 6.65886 6.08495 6.71357C6.08366 6.86384 6.08366 7.01412 6.08495 7.16439C6.08539 7.21374 6.11423 7.23987 6.16244 7.24143C6.17041 7.24165 6.17859 7.24143 6.18655 7.24143C6.61876 7.24143 7.05097 7.24098 7.48318 7.24098C7.81595 7.24098 8.14894 7.24121 8.4817 7.24098C8.54068 7.24098 8.56328 7.21776 8.56393 7.15725C8.56436 7.10634 8.56393 7.0552 8.56393 7.00429C8.56393 6.90604 8.56414 6.80757 8.56328 6.70932C8.56285 6.65864 8.54133 6.63809 8.49182 6.6372C8.47761 6.63698 8.46319 6.6372 8.44877 6.6372C8.07554 6.6372 7.70273 6.63698 7.3295 6.63698ZM5.03865 5.43187C5.13831 5.43343 5.21795 5.37582 5.24141 5.2874C5.26746 5.18937 5.23043 5.09671 5.14434 5.04535C5.13034 5.03709 5.11614 5.02927 5.1015 5.02235C4.96848 4.95849 4.8346 4.89619 4.70244 4.83032C4.52917 4.74413 4.35697 4.65481 4.18026 4.57644C3.9818 4.48824 3.75622 4.56594 3.65786 4.79504C3.59285 4.94621 3.61588 5.09336 3.71963 5.22153C3.78377 5.30057 3.86385 5.3564 3.96587 5.36466C4.11009 5.37627 4.25473 5.38386 4.39916 5.39279C4.47579 5.39748 4.55263 5.40106 4.62947 5.40597C4.7668 5.41445 4.90434 5.42339 5.03865 5.43187ZM9.61583 5.43209C9.74347 5.42428 9.87111 5.41669 9.99875 5.4082C10.0728 5.40329 10.1471 5.40173 10.2211 5.39659C10.3584 5.38699 10.4957 5.37828 10.6333 5.37024C10.7809 5.36176 10.8974 5.29321 10.9714 5.16169C11.033 5.05272 11.0412 4.93125 10.9992 4.81223C10.9198 4.58626 10.6718 4.47975 10.4583 4.57867C10.3259 4.63985 10.1959 4.70617 10.0653 4.77115C9.94902 4.82898 9.83322 4.88704 9.7157 4.94174C9.64058 4.97658 9.56374 5.00851 9.494 5.05384C9.41586 5.10475 9.38508 5.19875 9.41242 5.28941C9.43976 5.37984 9.51488 5.43299 9.61583 5.43209Z" fill="#0B0E15"/>
<path d="M2.78501 0.896484C2.77231 0.912561 2.78544 0.912561 2.79512 0.913678C2.83322 0.91792 2.87154 0.920823 2.90963 0.927745C3.2353 0.987141 3.505 1.28077 3.54396 1.62174C3.58098 1.94596 3.46496 2.20319 3.2198 2.40237C3.19548 2.42202 3.1746 2.42737 3.14533 2.40817C3.04136 2.34029 2.92427 2.31171 2.80546 2.28558C2.58504 2.23691 2.36571 2.18376 2.14595 2.13241C2.14422 2.13196 2.1425 2.13107 2.14078 2.13107C2.07212 2.13107 2.04521 2.0873 2.02196 2.02612C1.88593 1.6664 2.02369 1.26112 2.31793 1.05525C2.42985 0.97687 2.55233 0.929085 2.68729 0.917027C2.7002 0.915911 2.71204 0.915464 2.70451 0.896484H2.78501Z" fill="#0B0E15"/>
<path d="M2.05118 5.7271C2.091 5.82223 2.13104 5.91735 2.17086 6.01225C2.22467 6.14064 2.27848 6.26903 2.33251 6.39743C2.3846 6.52113 2.3874 6.64506 2.33681 6.7701C2.27741 6.91725 2.20982 7.0606 2.14546 7.20552C2.01868 7.49111 1.89169 7.7767 1.76383 8.06162C1.67666 8.25589 1.59487 8.45261 1.50037 8.6433C1.43494 8.77526 1.33055 8.85565 1.19085 8.88691C0.984648 8.93313 0.736255 8.81144 0.678139 8.53411C0.656615 8.43117 0.66996 8.3327 0.711502 8.23847C0.841295 7.94506 0.972163 7.65233 1.10282 7.35937C1.21474 7.10861 1.3271 6.85808 1.43967 6.60754C1.44699 6.59102 1.44699 6.57651 1.43989 6.55976C1.29051 6.20651 1.1407 5.85326 0.993042 5.49935C0.920289 5.32495 0.842371 5.15257 0.776721 4.97506C0.737331 4.86855 0.742067 4.76293 0.773062 4.65374C0.823645 4.476 0.867985 4.29647 0.912325 4.11694C0.970441 3.88182 1.03308 3.64758 1.09313 3.4129C1.18418 3.0572 1.2748 2.7015 1.36498 2.34557C1.38715 2.25781 1.4302 2.18792 1.512 2.14795C1.52836 2.13992 1.54385 2.1388 1.56107 2.14304C1.88028 2.21785 2.19927 2.29376 2.51891 2.36589C2.64913 2.39514 2.77785 2.43109 2.90915 2.45543C2.94273 2.46168 2.97372 2.47731 3.00407 2.49316C3.28863 2.64165 3.57382 2.7888 3.8573 2.9393C3.97827 3.00361 4.1001 3.06613 4.2202 3.13245C4.25572 3.1521 4.2893 3.15612 4.32804 3.14853C4.62594 3.09047 4.92384 3.03353 5.22174 2.97614C5.38683 2.94421 5.55192 2.91072 5.71723 2.88035C5.87522 2.85132 6.02869 2.98128 6.04117 3.14741C6.05108 3.27826 5.96993 3.41893 5.82593 3.45243C5.70475 3.48079 5.58206 3.502 5.46001 3.52544C5.07322 3.59958 4.68621 3.67259 4.29963 3.7474C4.22042 3.76258 4.14896 3.74918 4.07728 3.71078C3.85773 3.59332 3.63646 3.47989 3.41584 3.36467C3.32393 3.31667 3.2318 3.26933 3.14054 3.21998C3.11729 3.20748 3.10954 3.2144 3.10373 3.23784C3.00515 3.62704 2.90635 4.01602 2.80734 4.40499C2.75611 4.60662 2.70467 4.80826 2.65258 5.00967C2.6472 5.03043 2.65129 5.04472 2.66463 5.05968C2.79894 5.21152 2.93304 5.36314 3.06649 5.51565C3.22814 5.70031 3.38893 5.88609 3.55058 6.07075C3.59255 6.11876 3.63495 6.16677 3.67434 6.21723C3.74064 6.3023 3.77486 6.39921 3.78003 6.50863C3.78649 6.64573 3.78519 6.78305 3.79015 6.92015C3.79768 7.12759 3.80371 7.33525 3.80758 7.54291C3.81081 7.71619 3.81684 7.88946 3.82394 8.06252C3.82803 8.15987 3.82545 8.25723 3.83126 8.35436C3.83901 8.48744 3.80371 8.60735 3.71718 8.70895C3.64184 8.79759 3.5452 8.84471 3.43413 8.85788C3.14269 8.89249 2.95048 8.63347 2.94832 8.40549C2.94639 8.19962 2.93885 7.99396 2.93218 7.78831C2.92788 7.653 2.92443 7.51768 2.9212 7.38237C2.9169 7.19971 2.90936 7.01728 2.90528 6.83463C2.90441 6.79198 2.90097 6.74956 2.90076 6.70691C2.90076 6.69507 2.8971 6.6857 2.88913 6.67699C2.75891 6.5314 2.63321 6.3818 2.5032 6.23599C2.37448 6.09152 2.25007 5.94325 2.12329 5.79677C2.10134 5.77154 2.07831 5.7472 2.0557 5.72264L2.05032 5.7271H2.05118Z" fill="#0B0E15"/>
<path d="M10.8963 8.7192C10.7594 8.7192 10.6225 8.7192 10.4856 8.7192C10.3976 8.7192 10.3617 8.68214 10.3615 8.59103C10.3615 8.37131 10.3615 8.1516 10.3604 7.93165C10.3604 7.90776 10.3701 7.90329 10.389 7.90329C10.4669 7.90352 10.5446 7.90329 10.6225 7.90329C10.7175 7.90329 10.8122 7.90285 10.9071 7.90329C11.0931 7.90419 11.264 7.85484 11.4168 7.74275C11.4217 7.73917 11.4267 7.73292 11.4334 7.73582C11.4416 7.7394 11.4398 7.74788 11.4398 7.75525C11.4456 8.03057 11.4422 8.30589 11.4426 8.58121C11.4426 8.67745 11.4024 8.71831 11.3098 8.71853C11.1721 8.71853 11.0343 8.71853 10.8966 8.71853L10.8963 8.7192Z" fill="#0B0E15"/>
<path d="M6.32565 1.83643C6.32565 1.96058 6.32307 2.08495 6.3263 2.2091C6.3306 2.3788 6.33254 2.5485 6.33771 2.71798C6.34115 2.83208 6.33943 2.94619 6.34244 3.06007C6.34653 3.2195 6.34933 3.37893 6.35385 3.53836C6.35729 3.65983 6.35471 3.7813 6.36268 3.90255C6.36504 3.93939 6.36268 3.93939 6.32931 3.92733C6.24085 3.89562 6.15195 3.89719 6.06349 3.92733C6.03228 3.93783 6.03249 3.9385 6.03271 3.90478C6.03292 3.77862 6.04088 3.65268 6.03787 3.52652C6.03744 3.50553 6.04519 3.4899 6.05961 3.47517C6.15195 3.38049 6.1894 3.26505 6.17972 3.13174C6.17261 3.03483 6.13753 2.95065 6.07403 2.87898C6.06004 2.86312 6.05401 2.84504 6.05445 2.82315C6.05875 2.58959 6.06241 2.3558 6.06693 2.12224C6.06973 1.9666 6.0736 1.81075 6.07683 1.65511C6.07812 1.59549 6.09039 1.57852 6.14635 1.56423C6.19113 1.55284 6.23504 1.55485 6.27787 1.57339C6.30241 1.58411 6.31446 1.60175 6.3164 1.63077C6.3207 1.69932 6.32092 1.76787 6.3263 1.83665L6.32565 1.83643Z" fill="#0B0E15"/>
<path d="M5.14361 1.75897C5.12639 1.76343 5.11283 1.77326 5.09906 1.78286C5.02997 1.83154 4.98821 1.90232 4.95033 1.97668C4.78373 2.3029 4.61045 2.62534 4.43804 2.94844C4.4247 2.97345 4.40769 2.98819 4.38036 2.99176C4.35647 2.99489 4.33279 3.00047 4.30911 3.00494C4.30136 3.0065 4.29275 3.01029 4.28673 3.00203C4.28091 2.99377 4.28673 2.98596 4.2906 2.97881C4.32805 2.90691 4.36551 2.83523 4.40339 2.76356C4.56805 2.45296 4.73271 2.14258 4.89738 1.83221C4.92062 1.78822 4.94645 1.74579 4.9669 1.70046C4.98563 1.65871 5.01554 1.64598 5.05709 1.64643C5.18688 1.64754 5.31667 1.6471 5.44646 1.6471C5.61823 1.6471 5.79021 1.6471 5.96197 1.64754C5.99964 1.64754 5.99814 1.65312 6.00093 1.69131C6.00653 1.76834 5.97037 1.82819 5.93744 1.89071C5.79258 2.16692 5.64858 2.44358 5.50393 2.72001C5.49619 2.73475 5.48822 2.74927 5.48004 2.76356C5.47401 2.77405 5.46605 2.78276 5.45421 2.78656C5.44646 2.78901 5.43828 2.79325 5.43183 2.78544C5.42623 2.77852 5.43118 2.77159 5.43463 2.76512C5.48779 2.66307 5.54096 2.56103 5.59412 2.45921C5.69938 2.2578 5.80442 2.05639 5.90989 1.85498C5.93206 1.81256 5.95552 1.77102 5.97769 1.7286C5.99103 1.70292 5.9891 1.70337 5.96241 1.69957C5.91742 1.69309 5.89417 1.71073 5.872 1.75361C5.69464 2.09815 5.51405 2.44068 5.33432 2.78388C5.327 2.79794 5.32033 2.81223 5.3029 2.81558C5.29601 2.81692 5.28826 2.82072 5.28266 2.81424C5.27642 2.8071 5.28309 2.80018 5.28611 2.79415C5.32485 2.71778 5.36338 2.64142 5.40298 2.5655C5.54117 2.30023 5.67979 2.0354 5.81841 1.77035C5.82659 1.75495 5.83476 1.73932 5.84316 1.72413C5.85242 1.70716 5.84682 1.69957 5.82917 1.70046C5.81044 1.70136 5.79172 1.70337 5.77299 1.70515C5.76115 1.70627 5.75749 1.71654 5.75297 1.72547C5.65805 1.90745 5.56334 2.08944 5.4682 2.2712C5.3735 2.45229 5.27857 2.63293 5.18365 2.8138C5.17891 2.82273 5.17526 2.83255 5.16643 2.83814C5.15567 2.84506 5.14189 2.8531 5.13178 2.84439C5.12058 2.83501 5.13436 2.82407 5.13888 2.81558C5.27212 2.55924 5.406 2.30313 5.53945 2.04701C5.59434 1.94184 5.64836 1.836 5.7039 1.73105C5.71573 1.7085 5.70928 1.70337 5.68797 1.70538C5.68711 1.70538 5.68625 1.70538 5.68539 1.70538C5.6432 1.69756 5.62081 1.71632 5.60036 1.75606C5.41375 2.11646 5.22476 2.47551 5.03642 2.83479C5.02824 2.85042 5.01963 2.86605 5.00241 2.87252C4.99531 2.8752 4.98649 2.88101 4.98024 2.87252C4.97508 2.8656 4.98089 2.85868 4.98433 2.8522C5.03384 2.75663 5.0827 2.66062 5.13264 2.56527C5.24801 2.34421 5.3636 2.12338 5.47918 1.90232C5.50781 1.84761 5.53665 1.79313 5.56506 1.73842C5.57862 1.7123 5.57733 1.71274 5.55043 1.70939C5.50888 1.70448 5.48456 1.71699 5.46304 1.75919C5.32829 2.02424 5.18968 2.28705 5.05214 2.55054C4.99725 2.65571 4.94193 2.76065 4.8864 2.8656C4.87843 2.88078 4.87176 2.89842 4.85196 2.90177C4.84507 2.90289 4.83668 2.90579 4.83151 2.89976C4.82548 2.89284 4.83237 2.8857 4.83538 2.87967C4.85842 2.83345 4.88123 2.78723 4.90512 2.74167C5.07883 2.40897 5.25274 2.07626 5.42688 1.74356C5.44216 1.71431 5.44022 1.71386 5.40858 1.71006C5.3679 1.70515 5.34724 1.72235 5.32808 1.75941C5.13005 2.14191 4.93009 2.52329 4.73056 2.9049C4.72712 2.91138 4.72367 2.91874 4.71829 2.92276C4.70731 2.9308 4.69268 2.93929 4.6817 2.92991C4.6718 2.92142 4.68428 2.90981 4.68902 2.90088C4.82936 2.6307 4.97013 2.36051 5.1109 2.09033C5.17052 1.97601 5.23036 1.86213 5.28977 1.7478C5.29472 1.73842 5.30505 1.72793 5.29967 1.71766C5.29321 1.70515 5.2803 1.71587 5.27018 1.71565C5.22713 1.71431 5.20281 1.73552 5.18214 1.77638C5.03341 2.06733 4.88188 2.35672 4.73099 2.64633C4.68299 2.73855 4.63392 2.8301 4.58527 2.92209C4.57709 2.93772 4.56848 2.95313 4.55105 2.95961C4.54437 2.96206 4.53706 2.96541 4.53103 2.95894C4.52436 2.95179 4.52995 2.94554 4.5334 2.93906C4.61799 2.77673 4.70193 2.61395 4.78674 2.45162C4.90276 2.22989 5.0192 2.00838 5.13522 1.78665C5.13931 1.77884 5.14577 1.77192 5.14361 1.75897Z" fill="#0B0E15"/>
<path d="M5.95979 3.58579C5.96517 3.62353 5.96259 3.65457 5.94773 3.68359C5.91674 3.74433 5.8851 3.80439 5.85367 3.86491C5.8244 3.92118 5.79534 3.97767 5.76542 4.03372C5.75574 4.05203 5.75961 4.05939 5.77941 4.05828C5.78114 4.05828 5.78307 4.05828 5.78479 4.05828C5.82591 4.06475 5.8526 4.05069 5.86982 4.00781C5.88897 3.96025 5.91631 3.91604 5.9402 3.87049C5.94278 3.8658 5.94644 3.86178 5.95333 3.85263C5.95764 3.8917 5.9585 3.92453 5.94149 3.95556C5.9275 3.98147 5.91459 4.00804 5.89973 4.03327C5.88897 4.05136 5.89242 4.06006 5.91243 4.05783C5.93977 4.0547 5.94989 4.06699 5.94967 4.09378C5.94967 4.11678 5.95613 4.13755 5.97486 4.15251C5.97873 4.15563 5.98325 4.16077 5.98131 4.1668C5.97916 4.1735 5.97249 4.17171 5.96732 4.17171C5.95656 4.17171 5.9458 4.17171 5.93504 4.17171C5.21009 4.17171 4.48515 4.17171 3.7602 4.17171C3.74944 4.17171 3.73868 4.17193 3.72792 4.17171C3.69111 4.17015 3.67561 4.14558 3.69283 4.11164C3.74126 4.01652 3.78754 3.92006 3.84049 3.82762C3.84372 3.82203 3.84738 3.81668 3.85039 3.81109C3.87428 3.76599 3.86826 3.76108 3.92314 3.79077C3.92939 3.79412 3.93584 3.79792 3.94209 3.80127C3.97566 3.81935 3.97631 3.8198 3.95758 3.85597C3.93412 3.90108 3.92659 3.94663 3.95048 3.99397C3.95414 4.00134 3.95737 4.01027 3.96641 4.01116C3.97695 4.0125 3.97846 4.00178 3.98212 3.99486C4.00171 3.95735 4.02065 3.91939 4.04067 3.8821C4.04691 3.87049 4.05401 3.8533 4.07037 3.86133C4.08781 3.87004 4.0807 3.88701 4.07403 3.90019C4.05444 3.93882 4.03378 3.97678 4.01419 4.01541C3.99913 4.04488 4.003 4.05203 4.03464 4.05738C4.08092 4.06498 4.08049 4.06475 4.10223 4.02166C4.12009 3.98638 4.13925 3.95177 4.15819 3.91716C4.16163 3.9109 4.16616 3.90443 4.17154 3.89996C4.17929 3.89371 4.18876 3.88835 4.19823 3.89706C4.20705 3.9051 4.20253 3.91425 4.19823 3.92252C4.1795 3.95958 4.16056 3.9962 4.14183 4.03305C4.1386 4.0393 4.13064 4.0451 4.13408 4.0527C4.13817 4.0623 4.14829 4.05716 4.15582 4.0585C4.20016 4.06609 4.2303 4.05158 4.24666 4.00469C4.2572 3.97454 4.27571 3.9473 4.29121 3.91917C4.29788 3.90711 4.30477 3.8946 4.31747 3.88835C4.3263 3.88411 4.33706 3.8792 4.34502 3.88768C4.3517 3.89483 4.34438 3.90331 4.34072 3.91046C4.32049 3.94976 4.30004 3.98883 4.28002 4.02836C4.26581 4.05604 4.26797 4.05582 4.29875 4.05939C4.34007 4.06408 4.36418 4.04979 4.38054 4.00871C4.39776 3.96516 4.42316 3.9252 4.4449 3.88366C4.4492 3.8754 4.45351 3.86692 4.46147 3.86223C4.47288 3.85553 4.4873 3.85151 4.49656 3.85999C4.5056 3.86826 4.49311 3.87808 4.48902 3.88634C4.46384 3.93547 4.43865 3.98459 4.41261 4.03327C4.40185 4.05336 4.40766 4.05694 4.42768 4.05939C4.47094 4.06453 4.49849 4.05203 4.51657 4.0067C4.53659 3.95646 4.56608 3.91023 4.59148 3.86223C4.59664 3.8524 4.60116 3.84213 4.61128 3.83655C4.62226 3.83052 4.63646 3.82203 4.64594 3.83119C4.65476 3.83967 4.64185 3.85084 4.63733 3.85999C4.60676 3.91984 4.57598 3.97946 4.54477 4.03885C4.5381 4.05158 4.53939 4.05783 4.55403 4.05872C4.55768 4.05872 4.56134 4.05828 4.56479 4.05872C4.60977 4.06788 4.63474 4.04734 4.65325 4.00491C4.67758 3.94931 4.70814 3.89661 4.73677 3.84302C4.74538 3.82695 4.75356 3.80953 4.77142 3.80194C4.77917 3.79881 4.78843 3.791 4.79618 3.79993C4.80263 3.80752 4.79575 3.81578 4.79209 3.82293C4.76109 3.88366 4.72988 3.94395 4.6991 4.00491C4.69092 4.02099 4.67176 4.0384 4.67994 4.05359C4.68748 4.06766 4.71137 4.05604 4.72773 4.05872C4.75291 4.06252 4.76583 4.05024 4.77702 4.02724C4.81318 3.95378 4.85192 3.88165 4.89024 3.80908C4.89756 3.79546 4.90423 3.78073 4.91843 3.77269C4.92661 3.768 4.9363 3.76554 4.94383 3.77157C4.95352 3.77894 4.94706 3.78854 4.94297 3.79636C4.91499 3.85039 4.88701 3.90421 4.85881 3.95802C4.84525 3.98414 4.83148 4.01027 4.81727 4.03595C4.80888 4.05136 4.80931 4.06051 4.82932 4.05895C4.83018 4.05895 4.83105 4.05895 4.83191 4.05895C4.87603 4.06632 4.90337 4.05113 4.9236 4.00603C4.95912 3.9272 5.00238 3.85218 5.04242 3.77537C5.04758 3.76554 5.05124 3.75415 5.06179 3.74946C5.07298 3.74455 5.08719 3.73517 5.09666 3.74455C5.10548 3.75304 5.09321 3.76443 5.08848 3.77358C5.04435 3.85955 4.9998 3.94529 4.95546 4.03104C4.94276 4.0556 4.94448 4.05537 4.97203 4.05917C5.01551 4.06498 5.03919 4.04778 5.05856 4.00625C5.09881 3.92051 5.14573 3.83789 5.19007 3.75415C5.19911 3.73696 5.20901 3.71999 5.22903 3.71418C5.23506 3.7124 5.24152 3.70883 5.24668 3.71463C5.25185 3.72066 5.24733 3.72714 5.24475 3.73249C5.21978 3.78184 5.19502 3.83119 5.16963 3.88009C5.14293 3.93167 5.11624 3.98303 5.08891 4.03416C5.07944 4.05203 5.08245 4.05671 5.10247 4.05917C5.14659 4.06453 5.1735 4.05069 5.19438 4.00625C5.23936 3.91046 5.29081 3.81802 5.3401 3.72423C5.34763 3.70972 5.35452 3.69364 5.37045 3.6865C5.37841 3.68292 5.38831 3.67823 5.39585 3.68493C5.4051 3.69319 5.39692 3.7019 5.39305 3.70972C5.35796 3.7776 5.32288 3.84548 5.28758 3.91314C5.26627 3.954 5.24496 3.99464 5.22301 4.03505C5.21418 4.05136 5.21698 4.05694 5.23571 4.05872C5.27918 4.06297 5.30803 4.05292 5.32998 4.00558C5.38078 3.89617 5.43976 3.791 5.49572 3.68426C5.49916 3.67779 5.50261 3.67109 5.50756 3.66595C5.51875 3.65434 5.53489 3.64988 5.54652 3.65858C5.55663 3.66595 5.5448 3.67846 5.54006 3.68761C5.48151 3.80037 5.42275 3.91291 5.36421 4.02545C5.3472 4.05805 5.34785 4.0556 5.38229 4.05895C5.42254 4.06297 5.44385 4.04801 5.46257 4.00982C5.51983 3.89326 5.58203 3.77961 5.6423 3.66461C5.65048 3.64898 5.65909 3.63358 5.6776 3.62911C5.68428 3.62755 5.69224 3.62263 5.69784 3.62956C5.70322 3.63648 5.69784 3.64362 5.69439 3.64988C5.6535 3.72937 5.61281 3.80864 5.5717 3.88791C5.54544 3.93859 5.51897 3.98906 5.49185 4.0393C5.48496 4.05203 5.48517 4.05805 5.50067 4.05828C5.50153 4.05828 5.50239 4.05828 5.50325 4.05828C5.54738 4.06408 5.57751 4.05403 5.60055 4.00558C5.6578 3.885 5.72259 3.76844 5.78479 3.65032C5.79491 3.63112 5.80288 3.60924 5.8244 3.59964C5.83236 3.59606 5.84183 3.58981 5.84915 3.59807C5.85561 3.60566 5.84872 3.6137 5.84506 3.62085C5.80244 3.70347 5.76004 3.78608 5.71721 3.86848C5.6888 3.92319 5.66017 3.97789 5.63132 4.03215C5.62078 4.0518 5.62637 4.05604 5.64661 4.05872C5.69181 4.06453 5.7157 4.04667 5.73701 4.00379C5.80438 3.86759 5.87735 3.73473 5.94838 3.60053C5.95032 3.59673 5.95376 3.59383 5.96043 3.58579H5.95979Z" fill="#0B0E15"/>
<path d="M7.32408 2.10088C7.16308 2.10088 7.00207 2.10044 6.84129 2.10133C6.81503 2.10133 6.80469 2.09441 6.80534 2.0656C6.80685 1.99437 6.80642 1.92292 6.80534 1.85147C6.80491 1.83003 6.8133 1.82422 6.83225 1.82445C7.15963 1.82489 7.4868 1.82534 7.81419 1.82512C7.83787 1.82512 7.84734 1.83316 7.84669 1.85906C7.84519 1.9285 7.84497 1.99817 7.84669 2.06761C7.84734 2.09552 7.83722 2.10155 7.81247 2.10133C7.64974 2.10044 7.4868 2.10088 7.32408 2.10088Z" fill="#0B0E15"/>
<path d="M4.28971 8.27234C4.28971 8.37796 4.28992 8.4838 4.28971 8.58941C4.28949 8.67605 4.24945 8.71825 4.16637 8.71848C4.08415 8.7187 4.00171 8.71803 3.91949 8.71736C3.88978 8.71714 3.88763 8.71312 3.90162 8.68565C3.95586 8.57937 3.97459 8.46638 3.96684 8.34714C3.96189 8.27145 3.9621 8.1953 3.95995 8.11938C3.95823 8.05731 3.95672 7.99523 3.95392 7.93316C3.95306 7.9115 3.9606 7.90324 3.98148 7.90324C4.07446 7.90391 4.16745 7.90413 4.26065 7.90324C4.28605 7.90324 4.28992 7.91708 4.28992 7.93852C4.28949 8.04972 4.28971 8.16114 4.28971 8.27234Z" fill="#0B0E15"/>
<path d="M6.17847 4.1603C6.15609 4.16097 6.11885 4.15226 6.08269 4.13819C6.06568 4.13149 6.05062 4.12167 6.03813 4.10805C6.01661 4.0846 6.01639 4.0578 6.03706 4.03347C6.05234 4.01538 6.07214 4.00466 6.09345 3.99752C6.16922 3.97228 6.24434 3.97273 6.31838 4.00578C6.32161 4.00734 6.32484 4.0089 6.32807 4.01069C6.35196 4.02431 6.37219 4.04284 6.37219 4.07232C6.37219 4.09978 6.35131 4.11631 6.32957 4.12859C6.28782 4.15203 6.24197 4.15985 6.17847 4.1603ZM6.20086 4.12345C6.22497 4.12435 6.25058 4.11921 6.27318 4.10537C6.29944 4.08929 6.29966 4.06696 6.27275 4.05289C6.22367 4.02699 6.17309 4.02766 6.12359 4.05222C6.11239 4.0578 6.10055 4.06562 6.10185 4.08103C6.10314 4.09532 6.1139 4.10313 6.12552 4.10894C6.14855 4.12033 6.17331 4.12368 6.20086 4.12345Z" fill="#0B0E15"/>
<path d="M5.9971 1.98158C5.99344 2.02088 5.98935 2.05281 5.97321 2.08341C5.86322 2.2904 5.75495 2.49806 5.64561 2.70527C5.63506 2.72515 5.62753 2.74859 5.60385 2.7573C5.59718 2.75976 5.59007 2.76422 5.58362 2.75819C5.57651 2.7515 5.58168 2.7448 5.58512 2.73832C5.66864 2.57755 5.75172 2.41678 5.83545 2.25623C5.88087 2.16915 5.92736 2.08251 5.97343 1.99565C5.97601 1.99074 5.97816 1.9856 5.98117 1.98114C5.98419 1.97667 5.98742 1.97042 5.99344 1.9731C5.99925 1.97556 5.9971 1.9827 5.9971 1.98158Z" fill="#0B0E15"/>
<path d="M5.98971 2.27512C5.99251 2.29745 5.98476 2.3171 5.97486 2.33608C5.90964 2.4618 5.84421 2.58729 5.77856 2.71278C5.77533 2.71903 5.77059 2.7255 5.765 2.72952C5.75553 2.73622 5.74326 2.74314 5.73314 2.73421C5.72324 2.7255 5.73314 2.71523 5.73745 2.70697C5.80891 2.56384 5.8836 2.42227 5.95936 2.28138C5.96151 2.27736 5.96367 2.27311 5.96625 2.26932C5.97249 2.26039 5.97206 2.24074 5.98627 2.24476C5.99811 2.24811 5.98799 2.26463 5.98971 2.27512Z" fill="#0B0E15"/>
<path d="M5.98351 2.5118C5.98308 2.53926 5.98781 2.56784 5.97533 2.59352C5.95208 2.64131 5.92625 2.68775 5.90128 2.73464C5.89913 2.73866 5.89633 2.74246 5.89289 2.74536C5.88363 2.7534 5.87309 2.75407 5.8634 2.74692C5.85285 2.73911 5.85996 2.73018 5.86405 2.72258C5.89246 2.6681 5.92109 2.61406 5.94971 2.5598C5.95854 2.54328 5.96758 2.52676 5.97662 2.51023C5.97899 2.5109 5.98114 2.51113 5.98351 2.5118Z" fill="#0B0E15"/>
</svg>
