<svg width="33" height="32" viewBox="0 0 33 32" fill="none" xmlns="http://www.w3.org/2000/svg">
<rect x="0.4375" y="0.212891" width="31.9194" height="31.6048" rx="8" fill="#7061E6"/>
<path d="M23.5544 8.21289L18.6259 10.0636L20.3947 11.1787C17.2349 15.1577 12.6641 17.6086 8.80221 18.5414C7.86771 19.2035 8.90919 20.9988 9.89625 20.5343C14.2357 19.1199 18.8298 16.5687 21.789 12.0614L23.1365 12.9107L23.5544 8.21289ZM23.8119 12.1149L23.6514 13.9473L21.9361 12.8639C21.8759 12.9542 21.8124 13.0411 21.7488 13.1314V23.8177H24.3569V12.1149H23.8119ZM18.7763 16.3948C18.3517 16.7626 17.9137 17.1104 17.469 17.438V23.8177H20.077C20.077 23.8177 20.077 16.9655 20.077 16.3948C20.077 15.8242 19.3265 15.9298 18.7763 16.3948ZM14.6402 19.2035C14.1587 19.4576 13.6773 19.6917 13.1891 19.9123V23.8177H15.7971V19.2035C15.7971 18.7838 15.2813 18.6384 14.6402 19.2035ZM8.90921 20.6747V23.8177H11.5173V20.6747H11.3273C10.8318 20.8586 10.3366 21.0291 9.84443 21.1863L9.60837 21.2598L9.28737 20.6747H8.90921Z" fill="white"/>
</svg>
