<svg width="25" height="25" viewBox="0 0 25 25" fill="none" xmlns="http://www.w3.org/2000/svg">
<ellipse cx="12.4034" cy="12.7871" rx="11.7433" ry="12.0918" fill="white"/>
<ellipse cx="12.418" cy="12.7866" rx="9" ry="9.26711" fill="#3B82F6" fill-opacity="0.35"/>
<path d="M11.5973 17.5977V9.96129H12.7706V17.5977H11.5973ZM12.1939 8.68857C11.9652 8.68857 11.768 8.61068 11.6023 8.4549C11.4399 8.29912 11.3587 8.11186 11.3587 7.89311C11.3587 7.67436 11.4399 7.4871 11.6023 7.33132C11.768 7.17554 11.9652 7.09766 12.1939 7.09766C12.4226 7.09766 12.6181 7.17554 12.7805 7.33132C12.9463 7.4871 13.0291 7.67436 13.0291 7.89311C13.0291 8.11186 12.9463 8.29912 12.7805 8.4549C12.6181 8.61068 12.4226 8.68857 12.1939 8.68857Z" fill="#3B82F6"/>
</svg>
