<svg width="19" height="19" viewBox="0 0 19 19" fill="none" xmlns="http://www.w3.org/2000/svg">
<g id="Iconly/Light-Outline/Arrow - Left">
<g id="Arrow - Left">
<path id="Stroke 1" d="M15.1914 9.48291C15.1914 9.76768 14.9798 10.003 14.7052 10.0403L14.6289 10.0454L3.37891 10.0454C3.06825 10.0454 2.81641 9.79357 2.81641 9.48291C2.81641 9.19814 3.02802 8.96279 3.30258 8.92555L3.37891 8.92041L14.6289 8.92041C14.9396 8.92041 15.1914 9.17225 15.1914 9.48291Z" fill="#1A2233"/>
<path id="Stroke 3" d="M8.31291 13.6026C8.53305 13.8218 8.53382 14.178 8.31462 14.3981C8.11535 14.5982 7.80289 14.6171 7.58233 14.4542L7.51913 14.3998L2.98163 9.88183C2.7809 9.68197 2.76264 9.36838 2.92685 9.14783L2.98159 9.08466L7.51909 4.56591C7.73922 4.34669 8.09537 4.34743 8.31459 4.56755C8.51387 4.76767 8.53138 5.0802 8.36753 5.30007L8.31294 5.36305L4.17592 9.48345L8.31291 13.6026Z" fill="#1A2233"/>
</g>
</g>
</svg>
