<svg width="24" height="17" viewBox="0 0 24 17" xmlns="http://www.w3.org/2000/svg">
<path d="M2.22288 2.69665H22.4556C23.2437 2.69665 23.8737 2.23458 23.8737 1.6405C23.8737 1.04128 23.2464 0.575195 22.4556 0.575195H2.22288C1.42249 0.575195 0.804688 1.03725 0.804688 1.6405C0.804688 2.23257 1.41981 2.69665 2.22288 2.69665ZM2.22288 9.57008H22.4556C23.2437 9.57008 23.8737 9.09884 23.8737 8.50477C23.8737 7.9127 23.2464 7.44863 22.4556 7.44863H2.22288C1.42249 7.44863 0.804688 7.91069 0.804688 8.50477C0.804688 9.09683 1.41981 9.57008 2.22288 9.57008ZM2.22288 16.4343H22.4556C23.2437 16.4343 23.8737 15.9722 23.8737 15.3782C23.8737 14.7769 23.2464 14.3129 22.4556 14.3129H2.22288C1.42249 14.3129 0.804688 14.7749 0.804688 15.3782C0.804688 15.9702 1.41981 16.4343 2.22288 16.4343Z"/>
</svg>
