<svg width="11" height="14" viewBox="0 0 11 14" xmlns="http://www.w3.org/2000/svg">
<path d="M8.38562 2.22998H9.09128C9.3265 2.22998 9.44358 2.35567 9.44358 2.62159V11.5121C9.44358 11.8609 9.38517 12.0056 9.04666 12.1521C7.9042 12.6496 6.21253 12.9737 4.6737 12.9737C3.75535 12.9737 2.89895 12.9274 1.961 12.7761V12.9197C4.41476 12.9721 6.85092 12.3304 7.98245 11.4675C8.42797 11.1287 8.56147 10.8811 8.56147 10.3353V0.957779C8.56147 0.333185 8.23772 0 7.6717 0C7.48401 0 7.25987 0.0455578 6.99549 0.131363C5.21968 0.708155 3.58563 1.09056 1.51569 1.09056H1.06483C0.381813 1.09056 0 1.47827 0 2.10334V12.2268C0 12.7242 0.119441 13.0218 0.574194 13.247C1.59288 13.7007 3.10573 13.9941 4.6737 13.9941C6.38239 13.9941 8.28908 13.7324 9.61958 13.0875C10.3596 12.7373 10.5498 12.4023 10.5498 11.6291V2.60884C10.5498 1.5976 10.0889 1.12372 9.11409 1.12372H8.38562V2.22998ZM1.10625 11.696V2.44313C1.10625 2.28108 1.19265 2.18501 1.34502 2.18501H1.6271C3.62563 2.18501 5.52666 1.7751 7.14445 1.26854C7.33767 1.20681 7.45521 1.26417 7.45521 1.4418V10.1234C7.45521 10.4134 7.4118 10.5369 7.13634 10.7199C5.95027 11.5487 3.91268 12.0382 1.31598 11.9106C1.16845 11.9036 1.10625 11.8376 1.10625 11.696ZM2.25169 3.70365V5.64988C2.25169 5.74325 2.31661 5.78565 2.39333 5.78565C3.7557 5.78348 5.15064 5.54731 6.21288 5.12138C6.26601 5.09776 6.29552 5.04463 6.29552 4.99155V2.97012C6.29552 2.83545 6.17265 2.80488 6.10668 2.83545C4.88615 3.28336 3.70471 3.49498 2.39333 3.55128C2.31071 3.55718 2.25169 3.62103 2.25169 3.70365Z"/>
</svg>
