<svg width="17" height="16" viewBox="0 0 17 16" xmlns="http://www.w3.org/2000/svg">
<path d="M5.53936 9.49354L6.29234 8.77399L2.06286 4.52348C1.59495 4.05557 1.60156 3.5928 2.05573 3.13202L3.04533 2.13581C3.49528 1.68044 3.97126 1.68586 4.43798 2.14717L8.95919 6.66413L9.69103 5.92643L5.24211 1.44926C4.2644 0.476972 3.21773 0.472216 2.26763 1.42232L1.33682 2.3555C0.38672 3.3056 0.390287 4.3487 1.36377 5.32219L5.53936 9.49354ZM5.26339 6.60298C5.38149 6.72106 5.57093 6.7187 5.68242 6.60416C5.79629 6.49267 5.80171 6.30864 5.68361 6.1905L3.27269 3.77722C3.1678 3.67656 2.97532 3.6681 2.85721 3.77603C2.74335 3.89836 2.73674 4.09017 2.85484 4.20405L5.26339 6.60298ZM6.09723 5.77453C6.20992 5.89261 6.41138 5.87942 6.51628 5.77571C6.63555 5.64799 6.63673 5.46276 6.52406 5.34888L4.11195 2.94337C3.99622 2.82765 3.81036 2.83307 3.70309 2.94218C3.58261 3.05791 3.58802 3.24549 3.69952 3.35818L6.09723 5.77453ZM14.5376 15.8725L15.7936 14.6165C15.9549 14.4498 15.9375 14.2051 15.7899 13.9778L14.3987 11.8967C14.2493 11.6753 14.0189 11.5204 13.7633 11.4827L13.1831 11.3914L10.1496 8.35903L9.43299 9.16093L12.7334 12.4481L13.4732 12.5724L14.6908 14.1954L14.1087 14.7775L12.4935 13.5575L12.3626 12.8189L9.09046 9.54258L8.36973 10.3378L11.3059 13.2686L11.3972 13.8476C11.4338 14.1044 11.5964 14.336 11.81 14.4776L13.9 15.8875C14.1328 16.0393 14.3697 16.0416 14.5376 15.8725Z" />
<path d="M1.76492 15.0704C2.93802 16.2303 4.51984 16.2233 5.65529 15.0813C7.08706 13.6375 7.05228 11.7673 11.4862 7.40678L10.7962 6.71254C5.89321 11.6318 6.46152 12.7518 4.89119 14.3233C4.19724 15.0215 3.25639 15.0447 2.51634 14.3179C1.78288 13.5712 1.81274 12.6369 2.50009 11.9442C4.08245 10.3684 5.20124 10.9398 10.115 6.03684L9.42744 5.34684C5.03954 9.80804 3.19549 9.74593 1.75171 11.1723C0.604246 12.3077 0.597245 13.895 1.76492 15.0704ZM3.68547 13.9489C4.11917 13.9489 4.47361 13.5932 4.47361 13.1607C4.47361 12.7283 4.11917 12.3768 3.68547 12.3768C3.25295 12.3768 2.90155 12.7283 2.90155 13.1607C2.90155 13.5932 3.25295 13.9489 3.68547 13.9489ZM9.92836 6.90159C11.4612 8.43561 13.909 8.49079 15.3932 7.01082C16.6214 5.78387 16.8142 3.83305 15.8554 2.28531L15.1113 3.03487C15.6792 4.14244 15.5085 5.44685 14.6688 6.29194C13.5894 7.37139 11.7982 7.31852 10.6527 6.18265C9.51024 5.04142 9.46521 3.24056 10.5501 2.16654C11.3897 1.32569 12.7092 1.15501 13.7885 1.72834L14.538 0.978784C13.0011 0.026571 11.057 0.214029 9.82994 1.44644C8.34997 2.92099 8.39861 5.36758 9.92836 6.90159ZM11.9559 3.92512L12.9192 4.87946C13.4128 5.37181 14.0474 5.38502 14.5145 4.91248L15.9349 3.48786L15.2966 2.85495L14.041 4.09859C13.8721 4.26623 13.6725 4.27587 13.494 4.09977L12.7476 3.35034C12.5668 3.16407 12.5517 2.95785 12.7194 2.78783L13.9847 1.53217L13.3313 0.895031L11.9217 2.31001C11.4317 2.79576 11.4449 3.42616 11.9559 3.92512Z" />
</svg>
