<svg width="12" height="12" viewBox="0 0 12 12" xmlns="http://www.w3.org/2000/svg">
<path d="M6.43532 11.6402C9.43239 11.6402 11.9067 9.16243 11.9067 6.16969C11.9067 3.17262 9.42806 0.699219 6.43098 0.699219C3.4392 0.699219 0.964844 3.17262 0.964844 6.16969C0.964844 9.16243 3.44354 11.6402 6.43532 11.6402ZM6.43532 10.5626C3.9976 10.5626 2.04679 8.60738 2.04679 6.16969C2.04679 3.73198 3.99326 1.77683 6.43098 1.77683C8.86867 1.77683 10.8291 3.73198 10.8291 6.16969C10.8291 8.60738 8.87301 10.5626 6.43532 10.5626Z"/>
<path d="M6.43952 3.94013C6.66236 3.94013 6.83513 3.76494 6.83513 3.54643C6.83513 3.32697 6.66236 3.14648 6.43952 3.14648C6.22007 3.14648 6.04486 3.32697 6.04486 3.54643C6.04486 3.76494 6.22007 3.94013 6.43952 3.94013ZM7.55251 4.23776C7.74792 4.35184 7.9929 4.28638 8.093 4.09435C8.20806 3.90761 8.14163 3.66263 7.95056 3.55724C7.76382 3.44316 7.52318 3.50523 7.4144 3.69535C7.29939 3.88739 7.36483 4.12803 7.55251 4.23776ZM8.37559 5.06181C8.48441 5.24854 8.726 5.31497 8.91368 5.19993C9.10476 5.09549 9.17019 4.84955 9.05518 4.66186C8.95074 4.46644 8.7101 4.40098 8.51903 4.51601C8.327 4.61949 8.26057 4.86109 8.37559 5.06181ZM8.67322 6.16951C8.67322 6.38896 8.84748 6.56417 9.06693 6.56417C9.28638 6.56417 9.46254 6.3933 9.46254 6.16951C9.46254 5.95006 9.28638 5.77485 9.06693 5.77485C8.84843 5.77485 8.67322 5.95006 8.67322 6.16951ZM8.37559 7.28154C8.26152 7.4779 8.32606 7.72289 8.51808 7.82394C8.70671 7.93805 8.95074 7.8769 9.05708 7.67959C9.17019 7.49286 9.10476 7.25221 8.91802 7.14344C8.726 7.02838 8.48536 7.09481 8.37559 7.28154ZM7.55156 8.10557C7.36577 8.21534 7.29939 8.45599 7.41345 8.64173C7.51884 8.83474 7.76382 8.89923 7.95056 8.78517C8.14258 8.67978 8.20273 8.44008 8.09395 8.24901C7.9939 8.05699 7.74792 7.99151 7.55156 8.10557ZM6.43952 8.40321C6.22007 8.40321 6.04486 8.57841 6.04486 8.79692C6.04486 9.01637 6.22007 9.19253 6.43952 9.19253C6.66236 9.19253 6.83513 9.01637 6.83513 8.79692C6.83513 8.57841 6.66236 8.40321 6.43952 8.40321ZM5.33183 8.10557C5.13111 7.99151 4.89047 8.05699 4.78603 8.24901C4.67196 8.43574 4.73742 8.68073 4.93188 8.78517C5.11957 8.90018 5.36117 8.83379 5.46994 8.64801C5.58499 8.45599 5.51856 8.21534 5.33183 8.10557ZM4.50874 7.28154C4.39805 7.09481 4.15836 7.02838 3.97162 7.14344C3.7743 7.24788 3.70884 7.49381 3.82726 7.68054C3.93264 7.8769 4.16895 7.93805 4.36532 7.82394C4.55735 7.72384 4.62281 7.4779 4.50874 7.28154ZM4.2111 6.17385C4.2111 5.95006 4.03592 5.77485 3.81741 5.77485C3.59604 5.77485 3.4165 5.95006 3.4165 6.16951C3.4165 6.3933 3.59794 6.56417 3.81645 6.56417C4.03592 6.56417 4.2111 6.3933 4.2111 6.17385ZM4.50874 5.06181C4.62281 4.86109 4.55735 4.62045 4.36532 4.51696C4.17329 4.40098 3.93264 4.46644 3.82821 4.66186C3.70884 4.84955 3.77525 5.09115 3.96537 5.19993C4.15836 5.31497 4.39805 5.24854 4.50874 5.06181ZM5.33278 4.23776C5.51856 4.12803 5.58404 3.88739 5.46994 3.7016C5.36551 3.50523 5.11957 3.44316 4.93379 3.55724C4.73742 3.66263 4.6763 3.90327 4.78603 4.09435C4.89142 4.28638 5.13207 4.35184 5.33278 4.23776ZM6.43518 7.92128C7.39944 7.92128 8.18696 7.13282 8.18696 6.16951C8.18696 5.20427 7.39944 4.41676 6.43518 4.41676C5.4709 4.41676 4.68244 5.20427 4.68244 6.16951C4.68244 7.13282 5.4709 7.92128 6.43518 7.92128Z"/>
</svg>
