<svg width="27" height="27" viewBox="0 0 27 27" xmlns="http://www.w3.org/2000/svg">

<path d="M9.44765 19.0568H17.1959C18.2154 19.0568 18.5701 18.7481 18.5701 18.1765C18.5701 16.5774 16.5424 14.3782 13.3218 14.3782C10.0971 14.3782 8.06836 16.5774 8.06836 18.1765C8.06836 18.7481 8.42313 19.0568 9.44765 19.0568ZM13.3218 13.2746C14.6815 13.2746 15.8291 12.0701 15.8291 10.5129C15.8291 8.98442 14.6731 7.82129 13.3218 7.82129C11.9755 7.82129 10.8133 9.00593 10.8206 10.5242C10.8217 12.0701 11.9682 13.2746 13.3218 13.2746Z" />
<path d="M2.702 19.0587H7.36126C6.69807 18.1079 7.42702 16.2263 8.82657 15.133C8.14053 14.6909 7.25062 14.3614 6.12924 14.3614C3.35075 14.3614 1.55664 16.411 1.55664 18.1002C1.55664 18.711 1.86567 19.0587 2.702 19.0587ZM6.12924 13.4172C7.31167 13.4172 8.31121 12.363 8.31121 11.012C8.31121 9.6813 7.30318 8.66846 6.12924 8.66846C4.95928 8.66846 3.9422 9.70169 3.94842 11.0222C3.94954 12.363 4.95194 13.4172 6.12924 13.4172ZM23.9269 19.0587C24.7632 19.0587 25.0723 18.711 25.0723 18.1002C25.0723 16.411 23.2782 14.3614 20.4997 14.3614C19.3732 14.3614 18.4833 14.6909 17.8023 15.133C19.1968 16.2263 19.9257 18.1079 19.2626 19.0587H23.9269ZM20.4946 13.4172C21.677 13.4172 22.6794 12.363 22.6805 11.0222C22.6816 9.70169 21.6696 8.66846 20.4946 8.66846C19.3257 8.66846 18.3126 9.6813 18.3126 11.012C18.3126 12.363 19.3172 13.4172 20.4946 13.4172Z" />
</svg>
