<svg width="15" height="16" viewBox="0 0 15 16" xmlns="http://www.w3.org/2000/svg">
<path d="M1.22989 15.1301C2.37622 16.2776 3.71707 16.2908 4.84595 15.1643C5.63241 14.3779 6.45852 12.5517 7.07251 11.7926L8.44672 13.1734C8.99897 13.7322 9.676 13.7347 10.2139 13.1944L11.0805 12.3211C11.6208 11.7742 11.6172 11.1182 11.0596 10.5605L5.80607 5.29923C5.24718 4.73916 4.58455 4.73374 4.03769 5.2806L3.1722 6.15149C2.63076 6.69297 2.62653 7.35862 3.18779 7.9187L4.56619 9.29285C3.81369 9.90684 1.98755 10.7287 1.20228 11.514C0.0757738 12.6429 0.0823813 13.9892 1.22989 15.1301ZM4.2346 6.86805L4.74842 6.3639C4.89763 6.21588 5.06005 6.20923 5.20925 6.35848L10.0046 11.1483C10.1484 11.2976 10.1484 11.4611 9.99369 11.6158L9.49613 12.1188C9.34575 12.28 9.17365 12.2854 9.02209 12.1242L7.4357 10.5323C7.16623 10.2617 6.80862 10.2881 6.50256 10.5864C5.98713 11.094 5.09018 13.2537 4.03597 14.3002C3.43135 14.9102 2.70172 14.909 2.07305 14.2869C1.45641 13.6637 1.44861 12.9262 2.05864 12.3216C3.11285 11.2764 5.27136 10.3782 5.78017 9.86168C6.07182 9.55138 6.10368 9.19372 5.83303 8.92854L4.2346 7.33431C4.0842 7.18511 4.0842 7.01843 4.2346 6.86805ZM3.03885 14.1216C3.47272 14.1216 3.82306 13.7658 3.82306 13.3331C3.82306 12.9005 3.47272 12.5501 3.03885 12.5501C2.60617 12.5501 2.2504 12.9005 2.2504 13.3331C2.2504 13.7658 2.60617 14.1216 3.03885 14.1216ZM10.8798 11.3479L14.0733 8.15564C14.8388 7.38889 14.8232 6.46601 14.0379 5.67942L8.84357 0.477372C8.09266 -0.273539 6.82701 0.0318729 6.56825 1.1708C5.9299 3.93075 5.9237 4.15634 4.88891 5.60253L5.7618 6.47306C6.98951 4.89443 7.06 4.14603 7.69192 1.81796C7.76714 1.52378 8.00899 1.44739 8.20747 1.64048L13.1139 6.54151C13.3882 6.81572 13.387 7.12985 13.1349 7.38309L10.0255 10.4937L10.8798 11.3479ZM9.81675 7.49107C10.1658 7.84123 12.0965 6.77078 12.7627 5.93158L11.3101 4.48448C11.1846 5.65404 10.5767 6.49985 9.83659 7.23992C9.75066 7.32585 9.75726 7.43276 9.81675 7.49107Z"/>
</svg>
