<svg width="16" height="17" viewBox="0 0 16 17" xmlns="http://www.w3.org/2000/svg">
<path d="M15.8324 16.4862C15.7715 16.4895 15.7108 16.4963 15.6499 16.4963C12.1506 16.4969 8.65111 16.4892 5.15188 16.5012C4.05786 16.5048 3.07869 15.723 2.85081 14.6749C2.8162 14.5154 2.78956 14.3543 2.8012 14.1907C2.80947 14.075 2.75801 14.0401 2.64867 14.0413C2.30227 14.0453 1.95587 14.0428 1.60947 14.0425C1.34944 14.0425 1.34852 14.0419 1.43642 13.7908C1.86154 12.5752 2.28726 11.36 2.71238 10.1447C2.77976 9.95239 2.77823 9.95148 2.57945 9.95117C2.4012 9.95086 2.22264 9.94566 2.04469 9.9527C1.91667 9.9576 1.87072 9.90462 1.87961 9.78119C1.88634 9.68503 1.87532 9.58733 1.88206 9.49117C1.89033 9.37663 1.84316 9.3411 1.73106 9.34232C1.27777 9.34692 0.824171 9.33926 0.371185 9.34692C0.224171 9.34937 0.165978 9.31507 0.16751 9.15336C0.175473 8.36382 0.173942 7.57428 0.168429 6.78505C0.16751 6.64601 0.209776 6.59915 0.350664 6.60129C0.808857 6.60864 1.26766 6.60038 1.72585 6.60619C1.84775 6.60773 1.89094 6.56546 1.88206 6.44663C1.87471 6.34526 1.88542 6.24266 1.87961 6.14129C1.87287 6.02736 1.92248 5.9903 2.03244 5.99122C2.445 5.9949 2.85755 5.99245 3.27011 5.99245C3.84071 5.99245 4.411 5.98877 4.98159 5.9952C5.11421 5.99674 5.17455 5.95845 5.15403 5.82278C5.15341 5.81788 5.15403 5.81267 5.15403 5.80747C5.15586 5.49539 5.1528 5.50213 4.8747 5.37533C4.16965 5.05407 3.78282 4.50678 3.71544 3.73102C3.67991 3.32339 3.71758 3.39689 4.03519 3.39597C5.14576 3.39322 6.25602 3.3972 7.36658 3.3923C7.51482 3.39169 7.56168 3.44069 7.55709 3.58616C7.52983 4.45962 7.04223 5.15421 6.24591 5.42556C6.14698 5.45925 6.10931 5.51009 6.11115 5.61299C6.11911 6.06687 6.06275 5.98908 6.47592 5.99153C7.20946 5.99582 7.943 5.99674 8.67623 5.98969C8.83151 5.98816 8.87561 6.03655 8.875 6.18999C8.86949 7.37675 8.86979 8.5635 8.875 9.75026C8.87561 9.90064 8.8358 9.95638 8.67806 9.95484C8.21926 9.95056 8.21987 9.95699 8.07133 10.3922C7.90655 10.8736 7.73657 11.3535 7.5773 11.8368C7.53657 11.9605 7.47102 12.001 7.34453 12.0001C6.7384 11.9948 6.13228 12.001 5.52616 11.9951C5.40364 11.9939 5.34514 12.0344 5.30594 12.1507C5.10992 12.7293 4.90257 13.3038 4.70655 13.882C4.6649 14.0045 4.59905 14.0508 4.47256 14.045C4.29982 14.0367 4.12616 14.0428 3.95311 14.0431C3.73381 14.0434 3.743 14.0431 3.75924 14.2621C3.79048 14.6853 3.98129 15.0167 4.31237 15.2727C4.60487 15.4991 4.9479 15.5582 5.30502 15.5582C8.2796 15.5594 11.2545 15.5582 14.2291 15.5594C14.7635 15.5594 15.2983 15.5658 15.8327 15.5695L15.8324 16.4862ZM6.27286 11.0356C6.42049 11.0356 6.56781 11.0332 6.71543 11.0366C6.7969 11.0384 6.84744 11.0133 6.875 10.93C6.96934 10.6455 7.06827 10.3625 7.16811 10.0798C7.19935 9.99068 7.18557 9.94841 7.07929 9.94994C6.78435 9.95393 6.4894 9.95239 6.19445 9.95086C6.11911 9.95056 6.07133 9.97567 6.0456 10.051C5.94514 10.3441 5.84193 10.6366 5.73657 10.9281C5.70655 11.0108 5.72983 11.0387 5.81559 11.0369C5.96811 11.0332 6.12034 11.0359 6.27286 11.0356Z" />
<path d="M7.54854 0.835938C7.55069 1.35015 7.55038 1.86436 7.55651 2.37857C7.55834 2.52711 7.46524 2.52282 7.36325 2.52282C6.31914 2.52221 5.27504 2.52282 4.23094 2.52282C4.14426 2.52282 4.05789 2.52282 3.97121 2.52282C3.78969 2.52282 3.69883 2.43421 3.69863 2.25699C3.69863 1.84966 3.69863 1.44203 3.69863 1.0347C3.69863 0.968548 3.69771 0.902396 3.69709 0.836244L7.54854 0.835938Z" />
<path d="M15.8324 8.44693C15.4306 8.44846 15.0285 8.44877 14.6266 8.45214C14.5289 8.45275 14.4741 8.42366 14.4765 8.31279C14.4811 8.08401 14.4793 7.85493 14.4775 7.62585C14.4768 7.54193 14.5001 7.48956 14.5966 7.49048C15.0085 7.49477 15.4205 7.49661 15.8324 7.49936V8.44693Z" />
<path d="M9.74499 7.96561C9.74499 7.37514 9.74867 6.78467 9.74254 6.1942C9.74101 6.04689 9.77899 5.98625 9.93917 5.98931C10.4531 5.99819 10.9677 5.99636 11.4816 5.99023C11.6142 5.9887 11.6601 6.02943 11.6574 6.16449C11.6497 6.53599 11.6546 6.90779 11.6549 7.27928C11.6549 7.42159 11.7286 7.49285 11.8758 7.49305C12.1508 7.49305 12.4258 7.49764 12.7006 7.49121C12.8289 7.48815 12.8865 7.5249 12.8804 7.66364C12.8709 7.8771 12.8739 8.09118 12.8794 8.30495C12.8825 8.41704 12.8396 8.45869 12.7281 8.45716C12.4228 8.45287 12.1171 8.46022 11.8118 8.45379C11.6929 8.45134 11.6513 8.48993 11.6531 8.61121C11.6592 8.99801 11.6497 9.38513 11.6583 9.77193C11.6617 9.91679 11.6066 9.95508 11.4718 9.95355C10.9575 9.94834 10.4433 9.94773 9.92937 9.95385C9.7891 9.95538 9.74223 9.90699 9.74346 9.76826C9.74867 9.16768 9.74499 8.56619 9.74499 7.96561Z" />
<path d="M15.7066 9.62612C15.6309 9.85735 15.5476 10.1189 15.4591 10.3786C15.4395 10.4362 15.3819 10.4206 15.3393 10.4068C14.9709 10.2898 14.6037 10.1697 14.2352 10.0531C14.1589 10.0289 14.1445 9.98782 14.1687 9.91493C14.2438 9.68799 14.317 9.46044 14.3859 9.23166C14.4125 9.14377 14.4591 9.11988 14.5442 9.14775C14.902 9.26443 15.2606 9.37897 15.6184 9.49504C15.6664 9.51066 15.7206 9.52444 15.7066 9.62612Z" />
<path d="M14.483 6.79728C14.4165 6.80157 14.4015 6.75012 14.3859 6.70173C14.3127 6.47448 14.2425 6.24632 14.1669 6.01999C14.1418 5.94496 14.1641 5.90331 14.2349 5.88065C14.6024 5.76304 14.9706 5.64666 15.3375 5.52722C15.4122 5.50303 15.4527 5.52477 15.4753 5.59736C15.5497 5.83471 15.6254 6.07175 15.7023 6.30849C15.7219 6.36852 15.7044 6.40986 15.6462 6.42855C15.2692 6.54982 14.8916 6.66988 14.5142 6.79024C14.5047 6.7933 14.4943 6.79483 14.483 6.79728Z" />
<path d="M14.1066 9.09859C14.027 9.34543 13.9477 9.59228 13.868 9.83912C13.8484 9.89976 13.8083 9.91508 13.7492 9.89578C13.5314 9.82503 13.314 9.75429 13.0956 9.68569C13.0294 9.66486 13.0248 9.62137 13.0423 9.56624C13.1176 9.32859 13.1945 9.09154 13.269 8.85358C13.2922 8.77854 13.336 8.7617 13.408 8.78559C13.6108 8.85296 13.8144 8.91758 14.0178 8.98251C14.0751 9.00089 14.1271 9.02049 14.1066 9.09859Z" />
<path d="M13.7452 6.035C13.8312 6.02428 13.8539 6.05858 13.8668 6.0987C13.9455 6.34034 14.0224 6.58259 14.1005 6.82423C14.1198 6.88334 14.1032 6.92346 14.0432 6.94275C13.8254 7.01227 13.607 7.08057 13.3896 7.15162C13.3262 7.17245 13.2919 7.14733 13.2735 7.09037C13.1954 6.84842 13.1179 6.60648 13.041 6.36422C13.0285 6.32472 13.0184 6.27633 13.0689 6.25887C13.3041 6.17832 13.5412 6.10207 13.7452 6.035Z" />
<path d="M14.1615 7.97482C14.1615 8.08171 14.1572 8.18859 14.1627 8.29517C14.1682 8.40298 14.1314 8.45596 14.0163 8.4532C13.823 8.44861 13.6298 8.44983 13.4368 8.4532C13.3351 8.45473 13.2877 8.41523 13.2892 8.30957C13.2926 8.086 13.2922 7.86212 13.2892 7.63855C13.288 7.53871 13.3223 7.48787 13.4304 7.49032C13.6285 7.49491 13.827 7.49399 14.0252 7.49063C14.121 7.48909 14.1654 7.52493 14.1621 7.62446C14.1578 7.74115 14.1612 7.85814 14.1615 7.97482Z" />
</svg>
