<svg width="18" height="18" viewBox="0 0 18 18" xmlns="http://www.w3.org/2000/svg">
<path d="M10.7373 17.9998C11.3908 17.9998 11.8474 17.4941 12.162 16.7187L17.7711 2.81663C17.9196 2.45737 18 2.13407 18 1.8643C18 1.29091 17.6216 0.933594 17.0169 0.933594C16.7309 0.933594 16.39 1.00986 16.0126 1.14918L1.28834 6.49564C0.55421 6.76089 0 7.19237 0 7.81864C0 8.58795 0.604376 8.87711 1.44054 9.11378L7.57342 10.8201L9.35593 16.5715C9.61256 17.3989 9.91897 17.9998 10.7373 17.9998ZM8.05701 9.35808L2.7166 7.80928C2.59434 7.77482 2.55488 7.7411 2.55488 7.68613C2.55488 7.63261 2.58737 7.59229 2.6996 7.54971L12.922 3.85278C13.6497 3.58915 14.3534 3.25794 15.1111 2.93013C14.5025 3.40033 13.7578 3.96275 13.2427 4.44826L8.05701 9.35808ZM10.8856 15.5905C10.8206 15.5905 10.7866 15.5384 10.7487 15.4239L9.11373 10.3615L14.2934 5.44445C14.7892 4.96989 15.417 4.23751 15.9014 3.65155C15.5541 4.38328 15.1979 5.05052 14.9198 5.7471L11.021 15.4386C10.9776 15.545 10.942 15.5905 10.8856 15.5905Z"/>
</svg>
