<svg width="19" height="14" viewBox="0 0 19 14" fill="#3B82F6" xmlns="http://www.w3.org/2000/svg">
<path d="M16.7158 9.87399C16.7158 10.8542 16.2047 11.4155 15.2381 11.4155H14.9197C14.934 11.3302 14.9412 11.2406 14.9412 11.15C14.9412 9.90603 13.9257 8.89155 12.6817 8.89155C11.4387 8.89155 10.4285 9.90603 10.4285 11.15C10.4285 11.2415 10.4366 11.333 10.4509 11.4202L7.20274 11.4211C7.217 11.3306 7.22417 11.2382 7.22417 11.1457C7.22417 10.5221 6.98036 9.95995 6.55917 9.57725V2.93325C6.55917 1.92654 7.09957 1.38086 8.11061 1.38086H12.242C12.0197 1.83096 11.8975 2.33736 11.8975 2.86666C11.8975 4.7494 13.4628 6.31662 15.3456 6.31662C15.8306 6.31662 16.2938 6.21345 16.7158 6.02965V9.87399ZM5.81883 4.28187V9.08664C5.57337 8.96182 5.28721 8.88725 4.9872 8.88725C3.74419 8.88725 2.71246 9.90173 2.71246 11.1457C2.71246 11.2382 2.71963 11.3306 2.73388 11.4221H2.44284C1.47308 11.4221 0.955887 10.8594 0.955887 9.87399V7.98507C0.955887 7.43539 1.04557 7.1768 1.35337 6.83036L3.16457 4.78427C3.49429 4.41495 3.86457 4.28187 4.41421 4.28187H5.81883ZM4.3404 7.74517C4.64964 7.74517 4.8467 7.55335 4.8467 7.23981V5.4161H4.41569C4.17126 5.4161 4.01843 5.46191 3.81926 5.68205L2.25617 7.43853C2.17402 7.53215 2.11813 7.62434 2.09998 7.74517H4.3404ZM12.6817 12.7619C11.7894 12.7619 11.0708 12.0371 11.0708 11.15C11.0708 10.2601 11.7928 9.53817 12.6817 9.53817C13.5716 9.53817 14.2945 10.2601 14.2945 11.15C14.2945 12.0347 13.5716 12.7619 12.6817 12.7619ZM4.96999 12.7619C4.0758 12.7619 3.35908 12.0437 3.35908 11.1457C3.35908 10.2558 4.0801 9.53387 4.96999 9.53387C5.85988 9.53387 6.58185 10.2558 6.58185 11.1457C6.58185 12.0347 5.85988 12.7619 4.96999 12.7619Z" fill="#3B82F6"/>
<path fill-rule="evenodd" clip-rule="evenodd" d="M12.6384 2.86808C12.6384 4.3461 13.8744 5.57201 15.3414 5.57201C16.8204 5.57201 18.0444 4.35471 18.0444 2.86808C18.0444 1.38911 16.8204 0.166016 15.3414 0.166016C13.8572 0.166016 12.6384 1.3848 12.6384 2.86808ZM16.957 2.94837C16.957 3.15152 16.7973 3.31559 16.5898 3.31559H15.3103C15.1029 3.31559 14.944 3.15583 14.944 2.94837V1.35375C14.944 1.15061 15.1081 0.996094 15.3103 0.996094C15.5125 0.996094 15.6766 1.15061 15.6766 1.35375V2.58641H16.5898C16.793 2.58641 16.957 2.75048 16.957 2.94837Z" fill="#3B82F6"/>
</svg>
