<svg width="17" height="12" viewBox="0 0 17 12" fill="none" xmlns="http://www.w3.org/2000/svg">
<path id="Vector" d="M16.2598 8.78878C16.2598 9.76903 15.7486 10.3303 14.7821 10.3303H14.4637C14.478 10.245 14.4851 10.1554 14.4851 10.0648C14.4851 8.82083 13.4697 7.80634 12.2257 7.80634C10.9826 7.80634 9.97246 8.82083 9.97246 10.0648C9.97246 10.1563 9.98057 10.2478 9.99487 10.335L6.74669 10.3359C6.76094 10.2454 6.76811 10.153 6.76811 10.0605C6.76811 9.43689 6.52431 8.87474 6.10311 8.49205V1.84804C6.10311 0.841336 6.64352 0.295654 7.65455 0.295654H11.786C11.5636 0.745754 11.4415 1.25215 11.4415 1.78145C11.4415 3.6642 13.0068 5.23141 14.8895 5.23141C15.3746 5.23141 15.8377 5.12824 16.2598 4.94445V8.78878ZM5.36278 3.19666V8.00143C5.11731 7.87662 4.83115 7.80204 4.53115 7.80204C3.28814 7.80204 2.2564 8.81653 2.2564 10.0605C2.2564 10.153 2.26357 10.2454 2.27782 10.3369H1.98678C1.01702 10.3369 0.499832 9.77418 0.499832 8.78878V6.89987C0.499832 6.35019 0.589512 6.09159 0.897317 5.74515L2.70852 3.69906C3.03824 3.32975 3.40852 3.19666 3.95816 3.19666H5.36278ZM3.88435 6.65996C4.19358 6.65996 4.39065 6.46814 4.39065 6.1546V4.3309H3.95964C3.7152 4.3309 3.56238 4.3767 3.36321 4.59684L1.80012 6.35332C1.71797 6.44695 1.66208 6.53914 1.64393 6.65996H3.88435ZM12.2257 11.6767C11.3334 11.6767 10.6148 10.9519 10.6148 10.0648C10.6148 9.17493 11.3367 8.45297 12.2257 8.45297C13.1156 8.45297 13.8385 9.17493 13.8385 10.0648C13.8385 10.9495 13.1156 11.6767 12.2257 11.6767ZM4.51394 11.6767C3.61974 11.6767 2.90303 10.9585 2.90303 10.0605C2.90303 9.17063 3.62405 8.44866 4.51394 8.44866C5.40383 8.44866 6.12579 9.17063 6.12579 10.0605C6.12579 10.9495 5.40383 11.6767 4.51394 11.6767Z" fill="#03A31B"/>
</svg>
