<svg width="18" height="15" viewBox="0 0 18 15" fill="none" xmlns="http://www.w3.org/2000/svg">
<g id="Group 1171275246">
<g id="box.truck.badge.clock.fill">
<g id="Group">
<path id="Vector" d="M15.7599 10.6452C15.7599 11.6255 15.2488 12.1867 14.2822 12.1867H13.9638C13.9781 12.1014 13.9852 12.0118 13.9852 11.9213C13.9852 10.6773 12.9698 9.66279 11.7258 9.66279C10.4828 9.66279 9.47258 10.6773 9.47258 11.9213C9.47258 12.0128 9.48069 12.1043 9.49499 12.1914L6.24681 12.1924C6.26106 12.1018 6.26823 12.0094 6.26823 11.917C6.26823 11.2933 6.02443 10.7312 5.60324 10.3485V3.70449C5.60324 2.69778 6.14364 2.1521 7.15467 2.1521H11.2861C11.0637 2.6022 10.9416 3.1086 10.9416 3.6379C10.9416 5.52064 12.5069 7.08786 14.3896 7.08786C14.8747 7.08786 15.3378 6.98469 15.7599 6.80089V10.6452ZM4.8629 5.05311V9.85788C4.61743 9.73306 4.33128 9.65849 4.03127 9.65849C2.78826 9.65849 1.75653 10.673 1.75653 11.917C1.75653 12.0094 1.76369 12.1018 1.77795 12.1933H1.4869C0.517147 12.1933 -4.57764e-05 11.6306 -4.57764e-05 10.6452V8.75631C-4.57764e-05 8.20663 0.0896339 7.94804 0.397439 7.6016L2.20864 5.55551C2.53836 5.18619 2.90864 5.05311 3.45828 5.05311H4.8629ZM3.38447 8.51641C3.69371 8.51641 3.89077 8.32459 3.89077 8.01105V6.18734H3.45976C3.21533 6.18734 3.0625 6.23315 2.86333 6.45329L1.30024 8.20977C1.21809 8.30339 1.1622 8.39558 1.14405 8.51641H3.38447ZM11.7258 13.5331C10.8335 13.5331 10.1149 12.8083 10.1149 11.9213C10.1149 11.0314 10.8369 10.3094 11.7258 10.3094C12.6157 10.3094 13.3386 11.0314 13.3386 11.9213C13.3386 12.8059 12.6157 13.5331 11.7258 13.5331ZM4.01406 13.5331C3.11987 13.5331 2.40315 12.815 2.40315 11.917C2.40315 11.0271 3.12417 10.3051 4.01406 10.3051C4.90395 10.3051 5.62591 11.0271 5.62591 11.917C5.62591 12.8059 4.90395 13.5331 4.01406 13.5331Z" fill="#3B82F6"/>
<path id="Exclude" fill-rule="evenodd" clip-rule="evenodd" d="M11.6824 3.63858C11.6824 5.11661 12.9184 6.34252 14.3854 6.34252C15.8643 6.34252 17.0884 5.12522 17.0884 3.63858C17.0884 2.15961 15.8643 0.936523 14.3854 0.936523C12.9012 0.936523 11.6824 2.15531 11.6824 3.63858ZM16.001 3.71888C16.001 3.92203 15.8412 4.0861 15.6338 4.0861H14.3543C14.1468 4.0861 13.988 3.92634 13.988 3.71888V2.12426C13.988 1.92111 14.1521 1.7666 14.3543 1.7666C14.5565 1.7666 14.7205 1.92111 14.7205 2.12426V3.35692H15.6338C15.8369 3.35692 16.001 3.52099 16.001 3.71888Z" fill="#3B82F6"/>
</g>
</g>
</g>
</svg>
