<svg width="26" height="27" viewBox="0 0 26 27" fill="none" xmlns="http://www.w3.org/2000/svg">
<path d="M20.1601 16.9249C20.1601 17.9052 19.649 18.4664 18.6824 18.4664H18.364C18.3783 18.3811 18.3854 18.2915 18.3854 18.201C18.3854 16.957 17.37 15.9425 16.126 15.9425C14.883 15.9425 13.8728 16.957 13.8728 18.201C13.8728 18.2925 13.8809 18.384 13.8952 18.4711L10.647 18.4721C10.6613 18.3815 10.6684 18.2891 10.6684 18.1967C10.6684 17.573 10.4246 17.0109 10.0034 16.6282V9.98419C10.0034 8.97749 10.5438 8.4318 11.5549 8.4318H15.6863C15.4639 8.8819 15.3418 9.3883 15.3418 9.9176C15.3418 11.8003 16.9071 13.3676 18.7898 13.3676C19.2749 13.3676 19.738 13.2644 20.1601 13.0806V16.9249Z" fill="#1A2233" fill-opacity="0.1"/>
<path fill-rule="evenodd" clip-rule="evenodd" d="M9.26309 11.3328V16.1376C9.01763 16.0128 8.73147 15.9382 8.43146 15.9382C7.18845 15.9382 6.15672 16.9527 6.15672 18.1967C6.15672 18.2891 6.16389 18.3815 6.17814 18.473H5.8871C4.91734 18.473 4.40015 17.9103 4.40015 16.9249V15.036C4.40015 14.4863 4.48983 14.2277 4.79763 13.8813L6.60883 11.8352C6.93855 11.4659 7.30883 11.3328 7.85847 11.3328H9.26309ZM8.29096 14.2908C8.29096 14.6043 8.0939 14.7961 7.78466 14.7961H5.54424C5.56239 14.6753 5.61828 14.5831 5.70043 14.4895L7.26352 12.733C7.46269 12.5129 7.61552 12.467 7.85995 12.467H8.29096V14.2908Z" fill="#1A2233" fill-opacity="0.1"/>
<path d="M8.41425 19.8128C7.52006 19.8128 6.80334 19.0947 6.80334 18.1967C6.80334 17.3068 7.52436 16.5848 8.41425 16.5848C9.30414 16.5848 10.0261 17.3068 10.0261 18.1967C10.0261 19.0856 9.30414 19.8128 8.41425 19.8128Z" fill="#1A2233" fill-opacity="0.1"/>
<path d="M16.126 19.8128C15.2337 19.8128 14.5151 19.088 14.5151 18.201C14.5151 17.3111 15.2371 16.5891 16.126 16.5891C17.0159 16.5891 17.7388 17.3111 17.7388 18.201C17.7388 19.0856 17.0159 19.8128 16.126 19.8128Z" fill="#1A2233" fill-opacity="0.1"/>
<path d="M18.6077 6.93896C16.956 6.93896 15.6155 8.30921 15.6155 9.99756C15.6155 11.6859 16.956 13.0562 18.6077 13.0562C20.2594 13.0562 21.5999 11.6859 21.5999 9.99756C21.5999 8.30921 20.2594 6.93896 18.6077 6.93896ZM19.8046 10.3034H18.9069V11.221C18.9069 11.3892 18.7723 11.5269 18.6077 11.5269C18.4432 11.5269 18.3085 11.3892 18.3085 11.221V10.3034H17.4108C17.2463 10.3034 17.1116 10.1658 17.1116 9.99756C17.1116 9.82934 17.2463 9.6917 17.4108 9.6917H18.3085V8.77412C18.3085 8.6059 18.4432 8.46826 18.6077 8.46826C18.7723 8.46826 18.9069 8.6059 18.9069 8.77412V9.6917H19.8046C19.9692 9.6917 20.1038 9.82934 20.1038 9.99756C20.1038 10.1658 19.9692 10.3034 19.8046 10.3034Z" fill="#D2A120"/>
</svg>
