<svg width="14" height="14" viewBox="0 0 14 14" xmlns="http://www.w3.org/2000/svg">
    <path d="M6.89686 13.7937C10.6754 13.7937 13.7949 10.6699 13.7949 6.89686C13.7949 3.11833 10.6699 0 6.89139 0C3.11953 0 0 3.11833 0 6.89686C0 10.6699 3.125 13.7937 6.89686 13.7937ZM6.89686 12.4351C3.82353 12.4351 1.36406 9.97017 1.36406 6.89686C1.36406 3.82353 3.81805 1.35859 6.89139 1.35859C9.9647 1.35859 12.4363 3.82353 12.4363 6.89686C12.4363 9.97017 9.97017 12.4351 6.89686 12.4351ZM11.3484 11.3017L11.3248 11.191C10.9051 10.2107 9.22772 9.19821 6.89686 9.19821C4.57266 9.19821 2.89411 10.2107 2.47014 11.1855L2.4465 11.3017C3.7024 12.4577 5.62252 13.0944 6.89686 13.0944C8.1779 13.0944 10.0816 12.4632 11.3484 11.3017ZM6.89686 8.09802C8.19271 8.10896 9.19661 7.00677 9.19661 5.57485C9.19661 4.22734 8.18479 3.1039 6.89686 3.1039C5.61011 3.1039 4.59163 4.22734 4.59831 5.57485C4.60378 7.00677 5.6077 8.08708 6.89686 8.09802Z"/>
</svg>
