<svg width="17" height="17" viewBox="0 0 17 17" fill="none" xmlns="http://www.w3.org/2000/svg">
<path d="M8.14355 0.717881C9.17124 0.717882 9.83822 1.38488 9.83822 2.40808L9.83822 7.16489L14.586 7.16489C15.5887 7.16489 16.2762 7.83637 16.2807 8.85957C16.2897 9.88725 15.5977 10.5542 14.586 10.5542L9.83822 10.5542L9.83822 15.2974C9.83822 16.3002 9.17124 16.9876 8.14354 16.9921C7.12034 17.0013 6.44887 16.3091 6.44887 15.2974L6.44887 10.5542L1.69659 10.5542C0.698373 10.5542 0.00641313 9.88725 0.00641322 8.85957C0.00641331 7.83637 0.698374 7.16489 1.69659 7.16489L6.44887 7.16489L6.44887 2.40808C6.44887 1.38488 7.12034 0.717881 8.14355 0.717881Z" fill="#0B0E15"/>
</svg>
