<svg width="18" height="18" viewBox="0 0 18 18" fill="none" xmlns="http://www.w3.org/2000/svg">
<mask id="mask0_3685_32400" style="mask-type:alpha" maskUnits="userSpaceOnUse" x="2" y="2" width="13" height="13">
<path fill-rule="evenodd" clip-rule="evenodd" d="M2 2H14.9994V15H2V2Z" fill="white"/>
</mask>
<g mask="url(#mask0_3685_32400)">
<path fill-rule="evenodd" clip-rule="evenodd" d="M5.68164 2.97725C4.0392 2.97725 2.97725 4.1037 2.97725 5.84647V11.1536C2.97725 12.897 4.0392 14.0228 5.68164 14.0228H11.3145C12.9596 14.0228 14.0222 12.897 14.0222 11.1536V5.84647C14.0235 4.95847 13.7524 4.21706 13.2391 3.70303C12.7648 3.22808 12.1009 2.97725 11.3178 2.97725H5.68164ZM11.3145 15.0001H5.68164C3.47956 15.0001 2 13.4541 2 11.1536V5.84647C2 3.54601 3.47956 2 5.68164 2H11.3178C12.3654 2 13.269 2.34986 13.9303 3.01243C14.6215 3.70433 15.0007 4.7109 14.9994 5.84712V11.1536C14.9994 13.4541 13.5185 15.0001 11.3145 15.0001Z" fill="white"/>
</g>
<path fill-rule="evenodd" clip-rule="evenodd" d="M6.46587 5.70669C6.07236 5.70669 5.75247 6.02658 5.75247 6.42073C5.75247 6.81424 6.07236 7.13413 6.46652 7.13413C6.86003 7.13413 7.18057 6.81424 7.18057 6.42139C7.17992 6.02723 6.85938 5.70734 6.46587 5.70669ZM6.46669 8.11144C5.53374 8.11144 4.77539 7.35309 4.77539 6.42079C4.77539 5.48784 5.53374 4.72949 6.46669 4.72949C7.39899 4.73014 8.15734 5.48849 8.15799 6.42014V6.42079C8.15799 7.35309 7.39964 8.11144 6.46669 8.11144Z" fill="white"/>
<path fill-rule="evenodd" clip-rule="evenodd" d="M3.13832 13.7994C3.05754 13.7994 2.97545 13.7792 2.89987 13.7368C2.66403 13.6046 2.58129 13.3068 2.71289 13.0716C2.75198 13.0013 3.68689 11.3484 4.71561 10.5015C5.53129 9.83042 6.40951 10.1992 7.11704 10.4969C7.53335 10.6722 7.92686 10.8376 8.30473 10.8376C8.65133 10.8376 9.08588 10.2252 9.47027 9.68513C10.0038 8.932 10.6097 8.07983 11.4971 8.07983C12.9108 8.07983 14.1311 9.34114 14.7872 10.0187L14.8627 10.0969C15.0504 10.2904 15.0458 10.5998 14.8523 10.7881C14.6601 10.9764 14.3507 10.9718 14.1617 10.7777L14.0849 10.6982C13.5298 10.1242 12.4965 9.05709 11.4971 9.05709C11.114 9.05709 10.6645 9.691 10.2664 10.2506C9.72044 11.0194 9.15559 11.8149 8.30473 11.8149C7.72945 11.8149 7.20239 11.5934 6.73787 11.3973C5.99907 11.0859 5.66419 10.9862 5.33649 11.2559C4.44784 11.9882 3.57353 13.5349 3.56506 13.5498C3.4758 13.7095 3.30967 13.7994 3.13832 13.7994Z" fill="white"/>
</svg>
