<svg width="33" height="33" viewBox="0 0 33 33" fill="none" xmlns="http://www.w3.org/2000/svg">
<rect x="0.5" y="0.666016" width="32" height="32" rx="16" fill="white"/>
<path d="M11.168 16.4844C11.168 16.2312 11.3561 16.022 11.6001 15.9889L11.668 15.9844H21.668C21.9441 15.9844 22.168 16.2082 22.168 16.4844C22.168 16.7375 21.9799 16.9467 21.7358 16.9798L21.668 16.9844H11.668C11.3918 16.9844 11.168 16.7605 11.168 16.4844Z" fill="#1A2233"/>
<path d="M17.2839 12.8216C17.0882 12.6268 17.0876 12.3102 17.2824 12.1145C17.4595 11.9366 17.7373 11.9199 17.9333 12.0647L17.9895 12.113L22.0228 16.129C22.2013 16.3067 22.2175 16.5854 22.0715 16.7815L22.0229 16.8376L17.9895 20.8543C17.7939 21.0491 17.4773 21.0485 17.2824 20.8528C17.1053 20.6749 17.0897 20.3971 17.2354 20.2017L17.2839 20.1457L20.9613 16.4831L17.2839 12.8216Z" fill="#1A2233"/>
<rect x="1" y="1.16602" width="31" height="31" rx="15.5" stroke="#1A2233" stroke-opacity="0.1"/>
</svg>
