<svg width="33" height="33" viewBox="0 0 33 33" fill="none" xmlns="http://www.w3.org/2000/svg">
<rect x="0.5" y="0.666016" width="32" height="32" rx="16" fill="white"/>
<path d="M21.832 16.8477C21.832 17.1008 21.6439 17.31 21.3999 17.3431L21.332 17.3477L11.332 17.3477C11.0559 17.3477 10.832 17.1238 10.832 16.8477C10.832 16.5945 11.0201 16.3853 11.2642 16.3522L11.332 16.3477L21.332 16.3477C21.6082 16.3477 21.832 16.5715 21.832 16.8477Z" fill="#1A2233"/>
<path d="M15.7161 20.5104C15.9118 20.7052 15.9124 21.0218 15.7176 21.2175C15.5405 21.3954 15.2627 21.4121 15.0667 21.2673L15.0105 21.219L10.9772 17.203C10.7987 17.0254 10.7825 16.7466 10.9285 16.5506L10.9771 16.4944L15.0105 12.4777C15.2061 12.2829 15.5227 12.2835 15.7176 12.4792C15.8947 12.6571 15.9103 12.9349 15.7646 13.1303L15.7161 13.1863L12.0387 16.8489L15.7161 20.5104Z" fill="#1A2233"/>
<rect x="1" y="1.16602" width="31" height="31" rx="15.5" stroke="#1A2233" stroke-opacity="0.1"/>
</svg>
