<svg width="12" height="12" viewBox="0 0 12 12" xmlns="http://www.w3.org/2000/svg">
<path d="M11.1412 2.56969L8.89125 0.319694C8.85621 0.284938 8.81465 0.257441 8.76896 0.23878C8.72328 0.220118 8.67435 0.210658 8.625 0.210944H1.125C0.826631 0.210944 0.540483 0.32947 0.329505 0.540449C0.118526 0.751427 0 1.03758 0 1.33594V10.3359C0 10.6343 0.118526 10.9205 0.329505 11.1314C0.540483 11.3424 0.826631 11.4609 1.125 11.4609H10.125C10.4234 11.4609 10.7095 11.3424 10.9205 11.1314C11.1315 10.9205 11.25 10.6343 11.25 10.3359V2.83594C11.2503 2.78659 11.2408 2.73767 11.2222 2.69198C11.2035 2.64629 11.176 2.60473 11.1412 2.56969ZM7.125 0.960944V3.21094H4.125V0.960944L7.125 0.960944ZM2.625 10.7109V8.08594C2.625 7.98649 2.66451 7.89111 2.73484 7.82078C2.80516 7.75045 2.90054 7.71094 3 7.71094H8.25C8.34946 7.71094 8.44484 7.75045 8.51517 7.82078C8.58549 7.89111 8.625 7.98649 8.625 8.08594V10.7109H2.625ZM10.5 10.3359C10.5 10.4354 10.4605 10.5308 10.3902 10.6011C10.3198 10.6714 10.2245 10.7109 10.125 10.7109H9.375V8.08594C9.375 7.78758 9.25647 7.50143 9.0455 7.29045C8.83452 7.07947 8.54837 6.96094 8.25 6.96094H3C2.70163 6.96094 2.41548 7.07947 2.2045 7.29045C1.99353 7.50143 1.875 7.78758 1.875 8.08594V10.7109H1.125C1.02554 10.7109 0.930161 10.6714 0.859835 10.6011C0.789509 10.5308 0.75 10.4354 0.75 10.3359V1.33594C0.75 1.23649 0.789509 1.1411 0.859835 1.07078C0.930161 1.00045 1.02554 0.960944 1.125 0.960944H3.375V3.21094C3.375 3.40986 3.45402 3.60062 3.59467 3.74127C3.73532 3.88193 3.92609 3.96094 4.125 3.96094H7.125C7.32391 3.96094 7.51468 3.88193 7.65533 3.74127C7.79598 3.60062 7.875 3.40986 7.875 3.21094V0.960944H8.47125L10.5 2.98969V10.3359Z" />
</svg>
