<svg width="14" height="14" viewBox="0 0 14 14" xmlns="http://www.w3.org/2000/svg">
<path d="M8.18383 13.0951C8.63137 13.0951 8.94405 12.7299 9.1595 12.1699L13.0007 2.1295C13.1024 1.87004 13.1574 1.63654 13.1574 1.44171C13.1574 1.0276 12.8983 0.769531 12.4842 0.769531C12.2883 0.769531 12.0549 0.824615 11.7964 0.925233L1.71308 4.78657C1.21034 4.97813 0.830811 5.28976 0.830811 5.74206C0.830811 6.29768 1.2447 6.50651 1.81731 6.67744L6.01719 7.9098L7.23787 12.0636C7.41362 12.6611 7.62345 13.0951 8.18383 13.0951ZM6.34836 6.85388L2.69118 5.73531C2.60745 5.71041 2.58043 5.68607 2.58043 5.64637C2.58043 5.60771 2.60267 5.57859 2.67953 5.54783L9.67998 2.87783C10.1783 2.68743 10.6602 2.44823 11.1791 2.21147C10.7623 2.55106 10.2523 2.95726 9.8996 3.3079L6.34836 6.85388ZM8.28539 11.3551C8.24092 11.3551 8.21762 11.3174 8.19163 11.2348L7.07201 7.57858L10.6191 4.02737C10.9587 3.68464 11.3886 3.15569 11.7203 2.7325C11.4825 3.26097 11.2385 3.74287 11.0481 4.24595L8.37811 11.2454C8.34839 11.3222 8.32405 11.3551 8.28539 11.3551Z"/>
</svg>
