<svg width="20" height="14" viewBox="0 0 20 14" fill="none" xmlns="http://www.w3.org/2000/svg">
<path d="M19.7996 4.77197C19.7754 4.7867 19.78 4.81314 19.7751 4.83504C19.7596 4.90566 19.7422 4.97552 19.7029 5.03783C19.6633 5.1009 19.6104 5.13451 19.5322 5.13376C19.2717 5.13149 19.0107 5.133 18.7501 5.133C18.6705 5.133 18.6689 5.13413 18.7101 5.20513C18.9216 5.57031 19.1206 5.94267 19.3208 6.31427C19.4994 6.64546 19.6097 7.00083 19.6625 7.37469C19.6859 7.5401 19.6905 7.70551 19.6901 7.87167C19.6893 8.76443 19.6867 9.65755 19.6908 10.5503C19.6935 11.0983 19.3264 11.6485 18.6829 11.7659C18.6089 11.7795 18.5341 11.7878 18.4582 11.7878C14.4189 11.7878 10.38 11.7875 6.34075 11.7875C6.3298 11.7875 6.31885 11.7867 6.3079 11.7875C6.269 11.7905 6.25692 11.7724 6.25578 11.7342C6.25201 11.5839 6.24445 11.4332 6.23992 11.2829C6.23464 11.1073 6.23199 10.9317 6.22708 10.7561C6.21802 10.4193 6.20971 10.082 6.198 9.74517C6.18781 9.44834 6.0613 9.20249 5.85699 8.99177C5.61681 8.74366 5.39627 8.47742 5.16062 8.22515C5.01598 8.07032 4.87927 7.90831 4.73275 7.75536C4.68365 7.704 4.66779 7.65038 4.67346 7.58202C4.70858 7.15189 4.81809 6.7429 5.01636 6.35808C5.21651 5.97024 5.43025 5.59033 5.644 5.21004C5.67295 5.15843 5.6581 5.13262 5.59944 5.13262C5.34982 5.13262 5.10019 5.13262 4.85019 5.13262C4.79241 5.13262 4.78977 5.12847 4.80412 5.07409C4.84642 4.91661 4.88834 4.75913 4.92988 4.60128C4.94876 4.53066 4.94763 4.53217 5.01182 4.562C5.32678 4.70777 5.62776 4.88111 5.94083 5.03066C6.02013 5.06842 6.02013 5.06956 5.97746 5.14811C5.89325 5.30218 5.8079 5.45589 5.72368 5.60996C5.70556 5.64282 5.68441 5.67454 5.67723 5.71231C5.65571 5.8256 5.72633 5.91623 5.84491 5.92643C5.87927 5.92945 5.91402 5.92832 5.94838 5.92832C7.2724 5.92832 8.59604 5.92832 9.92006 5.92832C9.96009 5.92832 10.0016 5.937 10.0386 5.91019C10.0466 5.90453 10.0628 5.90868 10.0753 5.91019C10.1837 5.92643 10.2913 5.92379 10.3974 5.89735C10.4794 5.87696 10.5466 5.83315 10.6025 5.77046C10.627 5.74327 10.638 5.7108 10.6361 5.6753C10.6334 5.63338 10.6553 5.61941 10.6931 5.61941C10.7747 5.61941 10.8562 5.61903 10.9382 5.61903C13.2199 5.61903 15.502 5.61903 17.7837 5.61903C17.8294 5.61903 17.8748 5.61903 17.9205 5.61714C18.0791 5.61072 18.1739 5.45815 18.1036 5.31502C18.0485 5.20249 17.9839 5.09448 17.9235 4.98459C17.6644 4.51291 17.4053 4.04123 17.1463 3.56955C16.8608 3.04954 16.5768 2.52914 16.2894 2.01026C16.158 1.77348 15.9514 1.65452 15.681 1.64923C15.411 1.64357 15.141 1.64432 14.8714 1.63526C14.6988 1.6296 14.5262 1.63337 14.3532 1.62997C13.9797 1.62242 13.6059 1.62129 13.2328 1.60845C12.7101 1.5907 12.1874 1.58957 11.6648 1.59485C11.3196 1.59825 10.9744 1.61222 10.6289 1.6126C10.5436 1.6126 10.5436 1.61411 10.5432 1.52801C10.5428 1.39092 10.4877 1.31464 10.3544 1.27499C10.2494 1.24402 10.1433 1.24629 10.039 1.27839C9.98124 1.29614 9.92799 1.32521 9.89552 1.37884C9.87022 1.42038 9.83585 1.43209 9.78902 1.43209C9.27392 1.43096 8.75881 1.43624 8.2437 1.42869C8.08887 1.42642 7.99559 1.47136 7.91931 1.61449C7.58585 2.24025 7.23955 2.85921 6.8974 3.48043C6.88192 3.50875 6.87399 3.53708 6.87323 3.56955C6.87172 3.63489 6.85095 3.69569 6.82263 3.75422C6.79695 3.80671 6.79279 3.80785 6.74143 3.78179C6.49785 3.6583 6.25427 3.53519 6.01032 3.41208C5.88834 3.35052 5.76598 3.2901 5.644 3.22816C5.63116 3.22174 5.60737 3.21986 5.61152 3.20097C5.6153 3.18322 5.63796 3.19002 5.65269 3.187C5.84906 3.14508 6.04581 3.1043 6.24181 3.06124C6.41893 3.02235 6.57905 3.05067 6.71387 3.17831C6.7437 3.20664 6.7539 3.18927 6.76787 3.16359C6.91553 2.89055 7.06357 2.61714 7.21236 2.34448C7.33547 2.11864 7.45669 1.8913 7.59189 1.67227C7.81017 1.31917 8.13532 1.1296 8.54129 1.07144C8.60926 1.06162 8.67913 1.062 8.74786 1.06086C9.05866 1.05671 9.36946 1.05595 9.68026 1.04916C10.0383 1.0416 10.3959 1.03707 10.7539 1.02952C11.0772 1.02272 11.4004 1.01932 11.7237 1.01026C11.9624 1.00346 12.201 1.00044 12.4393 1.00535C12.8551 1.01404 13.2713 1.01781 13.6871 1.02537C14.0198 1.03103 14.3525 1.03745 14.6852 1.04349C15.0179 1.04953 15.351 1.05105 15.6833 1.06313C16.1882 1.08126 16.5692 1.312 16.8151 1.75573C17.0455 2.17152 17.2732 2.58881 17.5024 3.00535C17.678 3.32408 17.8551 3.64206 18.03 3.96117C18.0492 3.99629 18.0723 4.00838 18.1119 4.00838C18.5689 4.00724 19.0258 4.00762 19.4828 4.00762C19.63 4.00762 19.6803 4.04123 19.7369 4.17756C19.7607 4.23534 19.7717 4.29652 19.7837 4.35958C19.7898 4.3509 19.7939 4.34486 19.7985 4.33881V4.77197H19.7996ZM12.1878 9.98006C12.1123 9.98006 12.0371 9.98006 11.9616 9.98006C11.3604 9.98006 10.7592 9.98006 10.1576 9.98006C10.053 9.98006 10.005 10.0171 10.0043 10.1096C10.002 10.3637 10.002 10.6179 10.0043 10.8721C10.005 10.9555 10.0556 10.9997 10.1402 11.0023C10.1542 11.0027 10.1686 11.0023 10.1825 11.0023C10.9408 11.0023 11.6991 11.0016 12.4575 11.0016C13.0413 11.0016 13.6255 11.002 14.2093 11.0016C14.3128 11.0016 14.3525 10.9623 14.3536 10.86C14.3544 10.7739 14.3536 10.6874 14.3536 10.6013C14.3536 10.4351 14.354 10.2686 14.3525 10.1024C14.3517 10.0167 14.314 9.98195 14.2271 9.98044C14.2022 9.98006 14.1769 9.98044 14.1516 9.98044C13.4967 9.98044 12.8423 9.98044 12.1874 9.98044L12.1878 9.98006ZM8.16855 7.94192C8.3434 7.94456 8.48313 7.84713 8.52429 7.69758C8.56999 7.5318 8.50503 7.37507 8.35398 7.28821C8.32943 7.27424 8.3045 7.26102 8.27882 7.24932C8.04544 7.14131 7.81054 7.03595 7.57867 6.92454C7.27467 6.77877 6.97255 6.62772 6.66251 6.49516C6.31432 6.34599 5.91855 6.47741 5.74596 6.86488C5.63192 7.12054 5.67232 7.36941 5.85435 7.58618C5.96689 7.71986 6.10737 7.81427 6.28637 7.82825C6.5394 7.84788 6.79317 7.86072 7.04657 7.87583C7.18101 7.88376 7.31583 7.8898 7.45065 7.89811C7.69159 7.91246 7.93252 7.92757 8.16817 7.94192H8.16855ZM16.1992 7.94229C16.4231 7.92908 16.647 7.91624 16.871 7.90189C17.0009 7.89358 17.1312 7.89093 17.2611 7.88225C17.502 7.86601 17.743 7.85128 17.9843 7.83769C18.2433 7.82334 18.4476 7.7074 18.5776 7.48497C18.6856 7.30068 18.6999 7.09524 18.6263 6.89395C18.4869 6.51178 18.0519 6.33164 17.6773 6.49894C17.445 6.60241 17.2169 6.71457 16.9877 6.82447C16.7837 6.92228 16.5806 7.02047 16.3744 7.11299C16.2426 7.1719 16.1078 7.2259 15.9854 7.30257C15.8483 7.38867 15.7943 7.54766 15.8423 7.70098C15.8902 7.85393 16.0228 7.94343 16.1999 7.94192L16.1992 7.94229Z" fill="#4C6BD2"/>
<path d="M4.21433 0.271484C4.19205 0.298675 4.21508 0.298675 4.23208 0.300563C4.29892 0.307738 4.36614 0.312648 4.43298 0.324355C5.00436 0.424808 5.47755 0.92141 5.5459 1.49807C5.61086 2.04641 5.40731 2.48146 4.97717 2.81832C4.9345 2.85155 4.89786 2.86061 4.8465 2.82813C4.6641 2.71333 4.45866 2.66499 4.2502 2.62081C3.8635 2.53848 3.47868 2.4486 3.0931 2.36174C3.09008 2.36099 3.08706 2.35948 3.08404 2.35948C2.96357 2.35948 2.91637 2.28546 2.87558 2.18199C2.63691 1.5736 2.8786 0.888177 3.39484 0.539989C3.59122 0.407436 3.8061 0.32662 4.04288 0.306228C4.06554 0.304339 4.08631 0.303584 4.07309 0.271484L4.21433 0.271484Z" fill="#4C6BD2"/>
<path d="M2.92684 8.44165C2.9967 8.60253 3.06694 8.7634 3.13681 8.9239C3.23122 9.14105 3.32563 9.35819 3.42042 9.57534C3.51181 9.78455 3.51672 9.99414 3.42797 10.2056C3.32374 10.4545 3.20516 10.6969 3.09224 10.942C2.86981 11.425 2.647 11.908 2.42268 12.3899C2.26973 12.7185 2.12623 13.0512 1.96044 13.3737C1.84564 13.5969 1.66248 13.7328 1.41739 13.7857C1.05561 13.8639 0.619808 13.658 0.517844 13.189C0.48008 13.0149 0.503493 12.8484 0.576379 12.689C0.804098 12.1928 1.03371 11.6977 1.26294 11.2022C1.45931 10.7781 1.65644 10.3544 1.85395 9.9307C1.86679 9.90276 1.86679 9.87821 1.85433 9.84989C1.59224 9.25245 1.3294 8.65502 1.07034 8.05645C0.942694 7.76151 0.805986 7.46997 0.690805 7.16975C0.621696 6.98961 0.630004 6.81098 0.684385 6.62632C0.773131 6.32571 0.850926 6.02208 0.928721 5.71846C1.03068 5.3208 1.14058 4.92465 1.24594 4.52775C1.40569 3.92616 1.56467 3.32457 1.72291 2.72261C1.7618 2.57419 1.83733 2.45599 1.98084 2.38839C2.00954 2.3748 2.03673 2.37291 2.06694 2.38009C2.62699 2.5066 3.18665 2.635 3.74746 2.75697C3.97593 2.80645 4.20176 2.86725 4.43213 2.90841C4.49104 2.91898 4.54542 2.94542 4.59867 2.97223C5.09791 3.22336 5.59829 3.47223 6.09565 3.72676C6.30788 3.83553 6.52163 3.94127 6.73235 4.05343C6.79467 4.08666 6.85358 4.09346 6.92155 4.08062C7.44421 3.98243 7.96687 3.88613 8.48953 3.78908C8.77919 3.73507 9.06884 3.67843 9.35887 3.62707C9.63606 3.57797 9.90532 3.79776 9.92722 4.07873C9.9446 4.30003 9.80222 4.53794 9.54958 4.59459C9.33697 4.64255 9.12171 4.67843 8.90759 4.71808C8.22896 4.84346 7.54995 4.96695 6.87171 5.09346C6.73273 5.11914 6.60735 5.09648 6.4816 5.03152C6.0964 4.83288 5.70818 4.64104 5.3211 4.44618C5.15985 4.36498 4.99821 4.28492 4.83809 4.20146C4.79731 4.18031 4.78371 4.19202 4.77352 4.23167C4.60055 4.88991 4.42722 5.54776 4.2535 6.20562C4.16362 6.54663 4.07336 6.88765 3.98197 7.22828C3.97253 7.2634 3.97971 7.28757 4.00312 7.31287C4.23877 7.56967 4.47404 7.82609 4.70818 8.08402C4.99179 8.39633 5.27389 8.71053 5.5575 9.02284C5.63114 9.10404 5.70554 9.18523 5.77465 9.27058C5.89096 9.41446 5.95101 9.57836 5.96007 9.7634C5.9714 9.99528 5.96914 10.2275 5.97782 10.4594C5.99104 10.8102 6.00161 11.1614 6.00841 11.5127C6.01408 11.8057 6.02465 12.0988 6.03711 12.3914C6.04429 12.5561 6.03976 12.7207 6.04995 12.885C6.06355 13.1101 6.00161 13.3129 5.8498 13.4847C5.71763 13.6346 5.54806 13.7143 5.3532 13.7366C4.84187 13.7951 4.50463 13.3571 4.50086 12.9715C4.49746 12.6233 4.48424 12.2755 4.47253 11.9277C4.46498 11.6988 4.45894 11.47 4.45327 11.2411C4.44572 10.9322 4.4325 10.6237 4.42533 10.3148C4.42382 10.2426 4.41777 10.1709 4.4174 10.0988C4.4174 10.0787 4.41098 10.0629 4.397 10.0481C4.16853 9.80192 3.94799 9.5489 3.71989 9.3023C3.49406 9.05797 3.27578 8.80721 3.05335 8.55948C3.01483 8.5168 2.97442 8.47564 2.93477 8.4341L2.92533 8.44165H2.92684Z" fill="#4C6BD2"/>
<path d="M18.4457 13.5013C18.2055 13.5013 17.9653 13.5013 17.7252 13.5013C17.5707 13.5013 17.5076 13.4386 17.5073 13.2846C17.5073 12.913 17.5073 12.5414 17.5054 12.1694C17.5054 12.129 17.5224 12.1214 17.5556 12.1214C17.6923 12.1218 17.8286 12.1214 17.9653 12.1214C18.1319 12.1214 18.298 12.1207 18.4646 12.1214C18.7909 12.1229 19.0907 12.0395 19.3588 11.8499C19.3675 11.8438 19.3762 11.8333 19.3879 11.8382C19.4023 11.8442 19.3993 11.8586 19.3993 11.871C19.4095 12.3367 19.4034 12.8023 19.4042 13.2679C19.4042 13.4307 19.3335 13.4998 19.1712 13.5002C18.9295 13.5002 18.6878 13.5002 18.4461 13.5002L18.4457 13.5013Z" fill="#4C6BD2"/>
<path d="M10.4261 1.86092C10.4261 2.07089 10.4216 2.28124 10.4273 2.49121C10.4348 2.77822 10.4382 3.06523 10.4473 3.35186C10.4533 3.54483 10.4503 3.73781 10.4556 3.93041C10.4628 4.20005 10.4677 4.46968 10.4756 4.73932C10.4817 4.94476 10.4771 5.1502 10.4911 5.35526C10.4953 5.41757 10.4911 5.41757 10.4326 5.39718C10.2774 5.34355 10.1214 5.3462 9.96617 5.39718C9.91142 5.41493 9.91179 5.41606 9.91217 5.35904C9.91255 5.14567 9.92652 4.93268 9.92123 4.71931C9.92048 4.68381 9.93408 4.65737 9.95938 4.63245C10.1214 4.47233 10.1871 4.27709 10.1701 4.05163C10.1576 3.88774 10.0961 3.74536 9.98468 3.62414C9.96013 3.59733 9.94956 3.56674 9.95031 3.52973C9.95787 3.13471 9.96429 2.73932 9.97222 2.3443C9.97713 2.08109 9.98392 1.81749 9.98959 1.55427C9.99185 1.45344 10.0134 1.42474 10.1116 1.40057C10.1901 1.38131 10.2672 1.38471 10.3423 1.41606C10.3854 1.43418 10.4065 1.46402 10.4099 1.51311C10.4175 1.62905 10.4178 1.74498 10.4273 1.8613L10.4261 1.86092Z" fill="#4C6BD2"/>
<path d="M8.35244 1.73039C8.32223 1.73794 8.29844 1.75456 8.27427 1.7708C8.15305 1.85312 8.07978 1.97284 8.01332 2.09859C7.72102 2.65033 7.41702 3.19565 7.11452 3.7421C7.09111 3.7844 7.06128 3.80932 7.01332 3.81536C6.9714 3.82065 6.92986 3.83009 6.88832 3.83764C6.87472 3.84029 6.85961 3.84671 6.84904 3.83274C6.83884 3.81876 6.84904 3.80554 6.85584 3.79346C6.92155 3.67186 6.98726 3.55064 7.05372 3.42941C7.34262 2.90411 7.63152 2.37918 7.92042 1.85426C7.9612 1.77986 8.00652 1.70811 8.0424 1.63145C8.07525 1.56083 8.12774 1.5393 8.20063 1.54006C8.42835 1.54195 8.65607 1.54119 8.88379 1.54119C9.18515 1.54119 9.48688 1.54119 9.78824 1.54195C9.85433 1.54195 9.85169 1.55139 9.8566 1.61596C9.86642 1.74625 9.80297 1.84746 9.74519 1.9532C9.49104 2.42035 9.23839 2.88825 8.98462 3.35577C8.97102 3.3807 8.95705 3.40524 8.9427 3.42941C8.93212 3.44716 8.91815 3.46189 8.89738 3.46831C8.88379 3.47246 8.86944 3.47964 8.85811 3.46642C8.84829 3.45471 8.85697 3.44301 8.86302 3.43205C8.95629 3.25947 9.04957 3.08689 9.14285 2.91468C9.32752 2.57405 9.51181 2.23341 9.69685 1.89278C9.73575 1.82103 9.77691 1.75078 9.81581 1.67903C9.83923 1.6356 9.83583 1.63636 9.789 1.62994C9.71007 1.61899 9.66929 1.64882 9.63039 1.72133C9.31921 2.30403 9.00237 2.88334 8.68703 3.46378C8.67419 3.48757 8.66249 3.51174 8.6319 3.5174C8.61981 3.51967 8.60622 3.52609 8.5964 3.51514C8.58545 3.50305 8.59715 3.49135 8.60244 3.48115C8.67042 3.35199 8.73802 3.22284 8.8075 3.09444C9.04995 2.6458 9.29315 2.19791 9.53636 1.74965C9.55071 1.72359 9.56506 1.69716 9.57978 1.67148C9.59602 1.64278 9.5862 1.62994 9.55524 1.63145C9.52238 1.63296 9.48953 1.63636 9.45667 1.63938C9.4359 1.64127 9.42948 1.65864 9.42155 1.67374C9.25501 1.98152 9.08885 2.2893 8.92193 2.59671C8.75576 2.90298 8.58922 3.20849 8.42268 3.51438C8.41437 3.52949 8.40796 3.5461 8.39247 3.55554C8.37359 3.56725 8.34942 3.58085 8.33167 3.56612C8.31203 3.55026 8.3362 3.53175 8.34413 3.5174C8.5779 3.08387 8.81279 2.65071 9.04693 2.21755C9.14323 2.03968 9.23802 1.86068 9.33545 1.68319C9.35622 1.64504 9.34489 1.63636 9.3075 1.63976C9.30599 1.63976 9.30448 1.63976 9.30297 1.63976C9.22895 1.62654 9.18968 1.65826 9.1538 1.72548C8.82638 2.335 8.49481 2.94225 8.16437 3.54988C8.15002 3.57631 8.13492 3.60275 8.10471 3.6137C8.09224 3.61823 8.07676 3.62805 8.06581 3.6137C8.05675 3.60199 8.06694 3.59029 8.07298 3.57934C8.15984 3.4177 8.24557 3.25532 8.33318 3.09406C8.5356 2.7202 8.73839 2.34671 8.94119 1.97284C8.99142 1.88032 9.04202 1.78817 9.09187 1.69565C9.11566 1.65146 9.11339 1.65222 9.06619 1.64655C8.9933 1.63825 8.95063 1.65939 8.91287 1.73077C8.67646 2.17903 8.43326 2.62352 8.19194 3.06914C8.09564 3.24701 7.99859 3.4245 7.90116 3.60199C7.88718 3.62767 7.87548 3.65751 7.84073 3.66317C7.82865 3.66506 7.81392 3.66997 7.80486 3.65977C7.79428 3.64807 7.80637 3.63598 7.81165 3.62579C7.85206 3.54761 7.89209 3.46944 7.93401 3.3924C8.23877 2.82971 8.54391 2.26702 8.84942 1.70433C8.87623 1.65486 8.87283 1.65411 8.81732 1.64769C8.74595 1.63938 8.70969 1.66846 8.67608 1.73115C8.32865 2.37805 7.97782 3.02307 7.62774 3.66846C7.6217 3.67941 7.61566 3.69187 7.60622 3.69867C7.58696 3.71227 7.56128 3.72662 7.54202 3.71076C7.52465 3.69641 7.54655 3.67677 7.55486 3.66166C7.80108 3.20471 8.04806 2.74776 8.29504 2.29081C8.39965 2.09746 8.50463 1.90486 8.60886 1.71151C8.61755 1.69565 8.63567 1.6779 8.62623 1.66053C8.6149 1.63938 8.59225 1.65751 8.5745 1.65713C8.49897 1.65486 8.45629 1.69074 8.42004 1.75985C8.15909 2.25192 7.89323 2.74134 7.6285 3.23115C7.54428 3.38712 7.45818 3.54195 7.37283 3.69754C7.35848 3.72397 7.34338 3.75003 7.31279 3.76098C7.30108 3.76514 7.28824 3.7708 7.27767 3.75985C7.26596 3.74777 7.27578 3.73719 7.28182 3.72624C7.43023 3.45169 7.57752 3.17639 7.72631 2.90184C7.92986 2.52684 8.13416 2.15222 8.33771 1.77722C8.34489 1.764 8.35697 1.75229 8.3532 1.73039H8.35244Z" fill="#4C6BD2"/>
<path d="M9.78459 4.81934C9.79403 4.88316 9.7895 4.93565 9.76344 4.98474C9.70906 5.08746 9.65354 5.18905 9.59841 5.29139C9.54705 5.38656 9.49607 5.4821 9.44357 5.57689C9.42658 5.60786 9.43338 5.62032 9.46812 5.61843C9.47114 5.61843 9.47454 5.61843 9.47756 5.61843C9.54969 5.62938 9.59652 5.60559 9.62673 5.53308C9.66034 5.45264 9.7083 5.37787 9.75022 5.30083C9.75475 5.2929 9.76117 5.2861 9.77326 5.27062C9.78081 5.33671 9.78232 5.39222 9.75249 5.44471C9.72794 5.48852 9.70528 5.53346 9.67922 5.57613C9.66034 5.60672 9.66638 5.62145 9.70151 5.61768C9.74947 5.61239 9.76722 5.63316 9.76684 5.67848C9.76684 5.71737 9.77817 5.75249 9.81102 5.7778C9.81782 5.78308 9.82575 5.79177 9.82235 5.80197C9.81858 5.8133 9.80687 5.81027 9.7978 5.81027C9.77892 5.81027 9.76004 5.81027 9.74116 5.81027C8.46925 5.81027 7.19735 5.81027 5.92544 5.81027C5.90656 5.81027 5.88768 5.81065 5.8688 5.81027C5.80422 5.80763 5.77703 5.76609 5.80724 5.70869C5.89221 5.54781 5.9734 5.38467 6.0663 5.22832C6.07197 5.21888 6.07839 5.20982 6.08368 5.20038C6.12559 5.12409 6.11502 5.11579 6.21132 5.16601C6.22227 5.17168 6.2336 5.1781 6.24455 5.18376C6.30346 5.21435 6.3046 5.21511 6.27174 5.27628C6.23058 5.35257 6.21736 5.42961 6.25928 5.50967C6.2657 5.52213 6.27136 5.53724 6.28723 5.53875C6.30573 5.54101 6.30837 5.52289 6.31479 5.51118C6.34916 5.44774 6.38239 5.38354 6.41751 5.32047C6.42846 5.30083 6.44093 5.27175 6.46963 5.28535C6.50022 5.30008 6.48775 5.32878 6.47605 5.35106C6.44168 5.41639 6.40543 5.48059 6.37106 5.54592C6.34463 5.59577 6.35143 5.60786 6.40694 5.61692C6.48813 5.62976 6.48738 5.62938 6.52552 5.5565C6.55686 5.49683 6.59047 5.43829 6.62371 5.37976C6.62975 5.36919 6.63768 5.35823 6.64712 5.35068C6.66072 5.34011 6.67733 5.33104 6.69395 5.34577C6.70943 5.35937 6.7015 5.37485 6.69395 5.38882C6.66109 5.45151 6.62786 5.51345 6.59501 5.57576C6.58934 5.58633 6.57537 5.59615 6.58141 5.60899C6.58859 5.62523 6.60633 5.61654 6.61955 5.61881C6.69735 5.63165 6.75022 5.6071 6.77892 5.5278C6.79742 5.47681 6.8299 5.43074 6.85709 5.38316C6.8688 5.36277 6.88088 5.34162 6.90316 5.33104C6.91865 5.32387 6.93753 5.31556 6.9515 5.32991C6.96321 5.342 6.95037 5.35635 6.94395 5.36843C6.90845 5.4349 6.87257 5.50098 6.83745 5.56783C6.81253 5.61465 6.8163 5.61428 6.87031 5.62032C6.94282 5.62825 6.98511 5.60408 7.01381 5.53459C7.04402 5.46095 7.08859 5.39335 7.12673 5.32311C7.13428 5.30914 7.14183 5.29479 7.15581 5.28686C7.17582 5.27553 7.20112 5.26873 7.21736 5.28308C7.23322 5.29706 7.21132 5.31367 7.20415 5.32764C7.15996 5.41073 7.11578 5.49381 7.07008 5.57613C7.0512 5.61012 7.0614 5.61616 7.09652 5.62032C7.17242 5.629 7.22076 5.60786 7.25248 5.53119C7.2876 5.44622 7.33934 5.36805 7.3839 5.28686C7.39297 5.27024 7.4009 5.25287 7.41865 5.24343C7.43791 5.23323 7.46283 5.21888 7.47945 5.23437C7.49493 5.24872 7.47227 5.2676 7.46434 5.28308C7.41072 5.38429 7.35671 5.48512 7.30196 5.58558C7.29025 5.6071 7.29251 5.61768 7.31819 5.61919C7.32461 5.61919 7.33103 5.61843 7.33708 5.61919C7.416 5.63467 7.45981 5.59993 7.49229 5.52817C7.53496 5.43414 7.58859 5.34502 7.63881 5.25438C7.65392 5.22719 7.66827 5.19774 7.69961 5.1849C7.71321 5.17961 7.72945 5.16639 7.74304 5.1815C7.75437 5.19434 7.74229 5.20831 7.73587 5.22039C7.68149 5.32311 7.62673 5.42508 7.57273 5.52817C7.55838 5.55536 7.52477 5.58482 7.53912 5.6105C7.55233 5.63429 7.59425 5.61465 7.62295 5.61919C7.66714 5.62561 7.6898 5.60484 7.70943 5.56594C7.77288 5.44169 7.84085 5.31971 7.90807 5.19698C7.92091 5.17394 7.93262 5.14902 7.95755 5.13542C7.9719 5.12749 7.98889 5.12334 8.00211 5.13354C8.0191 5.146 8.00777 5.16224 8.0006 5.17545C7.9515 5.26684 7.90241 5.35786 7.85294 5.44887C7.82915 5.49305 7.80498 5.53724 7.78005 5.58067C7.76532 5.60672 7.76608 5.62221 7.8012 5.61956C7.80271 5.61956 7.80422 5.61956 7.80573 5.61956C7.88315 5.63203 7.93111 5.60635 7.96661 5.53006C8.02892 5.39675 8.10483 5.26986 8.17507 5.13996C8.18413 5.12334 8.19055 5.10408 8.20906 5.09615C8.22869 5.08784 8.25362 5.07198 8.27023 5.08784C8.28572 5.10219 8.26419 5.12145 8.25588 5.13693C8.17847 5.28233 8.10029 5.42734 8.0225 5.57236C8.00022 5.6139 8.00324 5.61352 8.05158 5.61994C8.12786 5.62976 8.1694 5.60068 8.20339 5.53044C8.27401 5.38542 8.35634 5.2457 8.43413 5.10408C8.44999 5.075 8.46736 5.0463 8.50249 5.03648C8.51306 5.03346 8.52439 5.02742 8.53345 5.03724C8.54252 5.04743 8.53459 5.05838 8.53005 5.06745C8.48625 5.15091 8.44282 5.23437 8.39826 5.31707C8.35143 5.40431 8.3046 5.49116 8.25664 5.57765C8.24002 5.60786 8.24531 5.61579 8.28043 5.61994C8.35785 5.629 8.40505 5.60559 8.44168 5.53044C8.52061 5.36843 8.61087 5.21209 8.69735 5.05348C8.71057 5.02893 8.72265 5.00174 8.7506 4.98965C8.76457 4.98361 8.78194 4.97568 8.79516 4.98701C8.8114 5.00098 8.79705 5.01571 8.79025 5.02893C8.72869 5.14373 8.66714 5.25854 8.6052 5.37296C8.56782 5.44207 8.53043 5.5108 8.49191 5.57916C8.47643 5.60672 8.48134 5.61616 8.51419 5.61919C8.59048 5.62636 8.64108 5.60937 8.6796 5.52931C8.76872 5.34426 8.8722 5.16639 8.97039 4.98588C8.97643 4.97493 8.98247 4.9636 8.99116 4.95491C9.01079 4.93527 9.03912 4.92772 9.05951 4.94245C9.07726 4.95491 9.05649 4.97606 9.04818 4.99154C8.94546 5.18225 8.84237 5.37258 8.73965 5.56292C8.70981 5.61805 8.71095 5.6139 8.77137 5.61956C8.84199 5.62636 8.87937 5.60106 8.91223 5.53648C9.01268 5.33935 9.12182 5.14713 9.22756 4.95264C9.24191 4.92621 9.25702 4.90015 9.2895 4.8926C9.3012 4.88996 9.31518 4.88165 9.32499 4.89335C9.33444 4.90506 9.32499 4.91715 9.31895 4.92772C9.2472 5.06216 9.17583 5.19622 9.1037 5.33029C9.05762 5.41601 9.01117 5.50136 8.96359 5.58633C8.9515 5.60786 8.95188 5.61805 8.97907 5.61843C8.98058 5.61843 8.98209 5.61843 8.9836 5.61843C9.06102 5.62825 9.11389 5.61126 9.1543 5.52931C9.25475 5.32538 9.36842 5.12825 9.47756 4.92848C9.49531 4.896 9.50928 4.85899 9.54705 4.84275C9.56102 4.83671 9.57764 4.82613 9.59048 4.84011C9.60181 4.85295 9.58972 4.86654 9.5833 4.87863C9.50853 5.01835 9.43413 5.15808 9.35898 5.29743C9.30913 5.38996 9.25891 5.48248 9.2083 5.57425C9.1898 5.60748 9.19962 5.61465 9.23512 5.61919C9.31442 5.629 9.35634 5.59879 9.39373 5.52629C9.51193 5.29592 9.63995 5.07122 9.76457 4.84426C9.76797 4.83784 9.77401 4.83293 9.78572 4.81934H9.78459Z" fill="#4C6BD2"/>
<path d="M12.1782 2.30835C11.8958 2.30835 11.6133 2.3076 11.3312 2.30911C11.2851 2.30911 11.267 2.2974 11.2681 2.24869C11.2708 2.12822 11.27 2.00737 11.2681 1.88653C11.2674 1.85027 11.2821 1.84045 11.3153 1.84083C11.8897 1.84159 12.4637 1.84234 13.0381 1.84196C13.0797 1.84196 13.0963 1.85556 13.0952 1.89937C13.0925 2.01681 13.0921 2.13464 13.0952 2.25209C13.0963 2.29929 13.0785 2.30949 13.0351 2.30911C12.7496 2.3076 12.4641 2.30835 12.1786 2.30835H12.1782Z" fill="#4C6BD2"/>
<path d="M6.8542 12.7463C6.8542 12.9249 6.85458 13.1039 6.8542 13.2826C6.85382 13.4291 6.78358 13.5005 6.63781 13.5008C6.49355 13.5012 6.34891 13.5001 6.20465 13.499C6.15254 13.4986 6.14876 13.4918 6.17331 13.4453C6.26847 13.2656 6.30133 13.0745 6.28773 12.8728C6.27905 12.7448 6.27943 12.616 6.27565 12.4876C6.27263 12.3826 6.26998 12.2777 6.26508 12.1727C6.26356 12.136 6.27678 12.1221 6.31341 12.1221C6.47656 12.1232 6.6397 12.1236 6.80322 12.1221C6.84778 12.1221 6.85458 12.1455 6.85458 12.1817C6.85382 12.3698 6.85458 12.5582 6.85458 12.7463H6.8542Z" fill="#4C6BD2"/>
<path d="M10.168 5.79181C10.1287 5.79295 10.0634 5.77822 9.99995 5.75443C9.97011 5.7431 9.94368 5.72648 9.92177 5.70344C9.88401 5.66379 9.88363 5.61847 9.91989 5.57731C9.9467 5.54672 9.98144 5.5286 10.0188 5.51651C10.1518 5.47384 10.2836 5.47459 10.4135 5.53048C10.4191 5.53313 10.4248 5.53577 10.4305 5.53879C10.4724 5.56183 10.5079 5.59317 10.5079 5.64302C10.5079 5.68947 10.4712 5.71742 10.4331 5.73819C10.3598 5.77784 10.2798 5.79106 10.1684 5.79181H10.168ZM10.2073 5.7295C10.2496 5.73101 10.2945 5.72233 10.3342 5.69891C10.3802 5.67172 10.3806 5.63396 10.3334 5.61017C10.2473 5.56636 10.1586 5.56749 10.0717 5.60903C10.0521 5.61847 10.0313 5.63169 10.0336 5.65775C10.0358 5.68192 10.0547 5.69514 10.0751 5.70495C10.1155 5.72421 10.1586 5.72988 10.2069 5.7295H10.2073Z" fill="#4C6BD2"/>
<path d="M9.84986 2.10626C9.84344 2.17273 9.83626 2.22673 9.80794 2.27847C9.61496 2.62854 9.42501 2.97975 9.23316 3.33021C9.21466 3.36382 9.20144 3.40347 9.1599 3.4182C9.14819 3.42235 9.13573 3.4299 9.1244 3.41971C9.11194 3.40838 9.121 3.39705 9.12704 3.3861C9.27357 3.11419 9.41934 2.84229 9.56624 2.57076C9.64593 2.42348 9.7275 2.27696 9.80831 2.13005C9.81285 2.12175 9.81662 2.11306 9.82191 2.10551C9.8272 2.09795 9.83286 2.08738 9.84344 2.09191C9.85363 2.09607 9.84986 2.10815 9.84986 2.10626Z" fill="#4C6BD2"/>
<path d="M9.83701 2.60305C9.84192 2.64081 9.82833 2.67404 9.81096 2.70614C9.69653 2.91876 9.58173 3.13099 9.46654 3.34323C9.46088 3.3538 9.45257 3.36475 9.44275 3.37155C9.42614 3.38288 9.40461 3.39459 9.38686 3.37948C9.36949 3.36475 9.38686 3.34738 9.39441 3.33341C9.51979 3.09134 9.65083 2.85191 9.78377 2.61362C9.78754 2.60682 9.79132 2.59965 9.79585 2.59323C9.8068 2.57812 9.80605 2.54489 9.83097 2.55169C9.85174 2.55735 9.83437 2.58492 9.83739 2.60267L9.83701 2.60305Z" fill="#4C6BD2"/>
<path d="M9.82587 3.00362C9.82511 3.05007 9.83342 3.09841 9.81152 3.14184C9.77073 3.22265 9.72541 3.3012 9.68161 3.38051C9.67783 3.38731 9.67292 3.39373 9.66688 3.39864C9.65064 3.41223 9.63213 3.41336 9.61514 3.40128C9.59664 3.38806 9.6091 3.37296 9.61627 3.36012C9.66612 3.26797 9.71635 3.17658 9.76658 3.08481C9.78206 3.05687 9.79792 3.02892 9.81378 3.00098C9.81794 3.00211 9.82171 3.00286 9.82587 3.004V3.00362Z" fill="#4C6BD2"/>
</svg>
