<svg width="14" height="14" viewBox="0 0 14 14" fill="none" xmlns="http://www.w3.org/2000/svg">
<g id="Group 4170">
<path id="Vector" d="M12.2004 7.25724V6.54009L13.1004 5.75263C13.2663 5.60641 13.3751 5.40625 13.4077 5.18753C13.4403 4.96881 13.3945 4.74561 13.2785 4.55738L12.1723 2.68247C12.0901 2.5401 11.9719 2.42185 11.8296 2.33958C11.6873 2.25731 11.5258 2.21392 11.3614 2.21375C11.2595 2.21297 11.1582 2.2288 11.0614 2.26062L9.92241 2.64498C9.72577 2.5143 9.52064 2.39686 9.30838 2.29343L9.06933 1.11224C9.02647 0.896444 8.90907 0.702595 8.73769 0.564631C8.56631 0.426667 8.35186 0.353379 8.13188 0.357594H5.93825C5.71827 0.353379 5.50382 0.426667 5.33244 0.564631C5.16105 0.702595 5.04366 0.896444 5.00079 1.11224L4.76174 2.29343C4.54797 2.39683 4.34128 2.51427 4.14303 2.64498L3.02746 2.24187C2.92963 2.21638 2.82833 2.20689 2.72747 2.21375C2.56308 2.21392 2.40162 2.25731 2.25929 2.33958C2.11696 2.42185 1.99877 2.5401 1.91658 2.68247L0.810384 4.55738C0.700977 4.74533 0.660322 4.96548 0.695381 5.18011C0.730441 5.39474 0.839034 5.59051 1.00256 5.73388L1.88845 6.54478V7.26193L1.00256 8.04939C0.834415 8.19375 0.722852 8.39302 0.687671 8.61183C0.65249 8.83064 0.695966 9.05484 0.810384 9.24464L1.91658 11.1195C1.99877 11.2619 2.11696 11.3802 2.25929 11.4624C2.40162 11.5447 2.56308 11.5881 2.72747 11.5883C2.82935 11.589 2.93067 11.5732 3.02746 11.5414L4.16646 11.157C4.36311 11.2877 4.56824 11.4052 4.78049 11.5086L5.01954 12.6898C5.06241 12.9056 5.1798 13.0994 5.35119 13.2374C5.52257 13.3753 5.73702 13.4486 5.95699 13.4444H8.16938C8.38935 13.4486 8.6038 13.3753 8.77519 13.2374C8.94657 13.0994 9.06397 12.9056 9.10683 12.6898L9.34588 11.5086C9.55965 11.4052 9.76634 11.2877 9.9646 11.157L11.0989 11.5414C11.1957 11.5732 11.297 11.589 11.3989 11.5883C11.5633 11.5881 11.7248 11.5447 11.8671 11.4624C12.0094 11.3802 12.1276 11.2619 12.2098 11.1195L13.2785 9.24464C13.3879 9.05668 13.4286 8.83654 13.3935 8.6219C13.3584 8.40727 13.2498 8.21151 13.0863 8.06813L12.2004 7.25724ZM11.3614 10.6508L9.75367 10.1071C9.37732 10.4259 8.94718 10.6751 8.48343 10.843L8.15063 12.5257H5.93825L5.60545 10.8617C5.14536 10.6891 4.71755 10.4403 4.33989 10.1258L2.72747 10.6508L1.62128 8.77591L2.89621 7.65097C2.80955 7.16577 2.80955 6.66905 2.89621 6.18386L1.62128 5.0261L2.72747 3.1512L4.3352 3.69492C4.71156 3.37614 5.14169 3.12695 5.60545 2.95902L5.93825 1.2763H8.15063L8.48343 2.94027C8.94352 3.11296 9.37133 3.36173 9.74899 3.67617L11.3614 3.1512L12.4676 5.0261L11.1927 6.15105C11.2793 6.63624 11.2793 7.13296 11.1927 7.61816L12.4676 8.77591L11.3614 10.6508Z" fill="black"/>
<path id="Vector_2" d="M7.04331 9.71456C6.48708 9.71456 5.94334 9.54961 5.48085 9.24059C5.01836 8.93156 4.6579 8.49233 4.44504 7.97844C4.23218 7.46455 4.17648 6.89908 4.285 6.35354C4.39351 5.80799 4.66136 5.30688 5.05468 4.91356C5.44799 4.52025 5.94911 4.2524 6.49465 4.14388C7.04019 4.03537 7.60566 4.09106 8.11955 4.30392C8.63345 4.51678 9.07268 4.87725 9.3817 5.33974C9.69073 5.80223 9.85567 6.34597 9.85567 6.9022C9.85943 7.27257 9.78925 7.63997 9.64925 7.98288C9.50925 8.32578 9.30223 8.63731 9.04033 8.89922C8.77843 9.16112 8.4669 9.36814 8.12399 9.50814C7.78108 9.64814 7.41368 9.71832 7.04331 9.71456ZM7.04331 5.0273C6.79552 5.02152 6.54913 5.06607 6.31905 5.15825C6.08896 5.25043 5.87997 5.38833 5.7047 5.56359C5.52944 5.73885 5.39155 5.94785 5.29937 6.17793C5.20719 6.40802 5.16264 6.65441 5.16841 6.9022C5.16264 7.14999 5.20719 7.39638 5.29937 7.62647C5.39155 7.85655 5.52944 8.06555 5.7047 8.24081C5.87997 8.41607 6.08896 8.55397 6.31905 8.64615C6.54913 8.73833 6.79552 8.78288 7.04331 8.7771C7.29111 8.78288 7.5375 8.73833 7.76758 8.64615C7.99766 8.55397 8.20666 8.41607 8.38192 8.24081C8.55719 8.06555 8.69508 7.85655 8.78726 7.62647C8.87944 7.39638 8.92399 7.14999 8.91822 6.9022C8.92399 6.65441 8.87944 6.40802 8.78726 6.17793C8.69508 5.94785 8.55719 5.73885 8.38192 5.56359C8.20666 5.38833 7.99766 5.25043 7.76758 5.15825C7.5375 5.06607 7.29111 5.02152 7.04331 5.0273Z" fill="black"/>
</g>
</svg>
