<svg width="16" height="16" viewBox="0 0 16 16" xmlns="http://www.w3.org/2000/svg">
<path d="M5.55291 15.652L5.2488 13.2352C5.08408 13.1722 4.92873 13.0967 4.78276 13.0086C4.63679 12.9205 4.49436 12.8261 4.35548 12.7254L2.09368 13.6694L0.00292969 10.082L1.96063 8.60922C1.94796 8.52111 1.94162 8.43602 1.94162 8.35395V7.84491C1.94162 7.76283 1.94796 7.67774 1.96063 7.58963L0.00292969 6.11688L2.09368 2.52942L4.35548 3.47349C4.49487 3.37279 4.64059 3.27838 4.79264 3.19027C4.94469 3.10215 5.09675 3.02663 5.2488 2.96369L5.55291 0.546875H9.73441L10.0385 2.96369C10.2032 3.02663 10.3586 3.10215 10.5046 3.19027C10.6505 3.27838 10.793 3.37279 10.9318 3.47349L13.1936 2.52942L15.2844 6.11688L13.3267 7.58963C13.3394 7.67774 13.3457 7.76283 13.3457 7.84491V8.35395C13.3457 8.43602 13.333 8.52111 13.3077 8.60922L15.2654 10.082L13.1746 13.6694L10.9318 12.7254C10.7925 12.8261 10.6467 12.9205 10.4947 13.0086C10.3426 13.0967 10.1906 13.1722 10.0385 13.2352L9.73441 15.652H5.55291ZM7.68167 10.7428C8.4166 10.7428 9.04383 10.4848 9.56334 9.96868C10.0829 9.45259 10.3426 8.82951 10.3426 8.09943C10.3426 7.36935 10.0829 6.74626 9.56334 6.23017C9.04383 5.71408 8.4166 5.45603 7.68167 5.45603C6.93407 5.45603 6.30355 5.71408 5.79012 6.23017C5.27668 6.74626 5.02022 7.36935 5.02072 8.09943C5.02072 8.82951 5.27719 9.45259 5.79012 9.96868C6.30305 10.4848 6.93357 10.7428 7.68167 10.7428Z"/>
</svg>
