<svg width="18" height="19" viewBox="0 0 18 19" xmlns="http://www.w3.org/2000/svg">
<path d="M9.00163 14.2157C13.179 14.2157 16 10.8483 16 9.80615C16 8.76169 13.1748 5.39844 9.00163 5.39844C4.88493 5.39844 2 8.76169 2 9.80615C2 10.8483 4.88075 14.2157 9.00163 14.2157ZM9.00163 13.2383C5.74211 13.2383 3.15392 10.5163 3.15392 9.80615C3.15392 9.21086 5.74211 6.37586 9.00163 6.37586C12.2486 6.37586 14.8461 9.21086 14.8461 9.80615C14.8461 10.5163 12.2486 13.2383 9.00163 13.2383ZM9.00254 12.553C10.5294 12.553 11.7526 11.3015 11.7526 9.80615C11.7526 8.27378 10.5294 7.06207 9.00254 7.06207C7.46925 7.06207 6.2399 8.27286 6.24408 9.80615C6.25243 11.3015 7.46925 12.553 9.00254 12.553ZM9.00072 10.6961C8.50568 10.6961 8.10612 10.2928 8.10612 9.80615C8.10612 9.31532 8.50568 8.9181 9.00072 8.9181C9.49432 8.9181 9.8948 9.31532 9.8948 9.80615C9.8948 10.2928 9.49432 10.6961 9.00072 10.6961Z"/>
</svg>
