<svg width="9" height="10" viewBox="0 0 9 10" fill="none" xmlns="http://www.w3.org/2000/svg">
<path fill-rule="evenodd" clip-rule="evenodd" d="M6.8385 0.185547H3.27276C2.45907 0.185547 2.03539 0.612355 2.03539 1.43541V2.13903H4.95419C5.77029 2.13903 6.19157 2.56584 6.19157 3.3889V7.92335H6.8385C7.6466 7.92335 8.07006 7.49862 8.07582 6.69026V1.41862C8.07006 0.609611 7.6466 0.185547 6.8385 0.185547ZM3.89617 1.22327V1.30739C3.89617 1.4313 3.98402 1.54934 4.15374 1.54934H5.95821C6.12409 1.54934 6.21578 1.4313 6.21578 1.30739V1.22327C6.21578 1.10584 6.13164 0.981328 5.95821 0.981328H4.15374C3.97716 0.981328 3.89617 1.10584 3.89617 1.22327Z" fill="#0B0E15"/>
<path fill-rule="evenodd" clip-rule="evenodd" d="M0.150391 3.3889V8.62698C0.150391 9.45004 0.571635 9.87684 1.38776 9.87684H4.95419C5.77029 9.87684 6.19157 9.44624 6.19157 8.62698V7.92335H5.83239V3.46035C5.83239 2.8735 5.42923 2.60778 5.00818 2.60778H2.03539V2.13903H1.38776C0.571635 2.13903 0.150391 2.56271 0.150391 3.3889ZM0.896863 3.43218V8.58058C0.896863 8.93484 1.0796 9.13037 1.44735 9.13037H4.89147C5.25854 9.13037 5.44438 8.93484 5.44438 8.58058V3.43218C5.44438 3.08104 5.25854 2.8855 4.89147 2.8855H1.44735C1.0796 2.8855 0.896863 3.08104 0.896863 3.43218Z" fill="#0B0E15"/>
<path d="M2.03539 2.60778H5.00818C5.42923 2.60778 5.83239 2.8735 5.83239 3.46035V7.92335H6.19157V3.3889C6.19157 2.56584 5.77029 2.13903 4.95419 2.13903H2.03539V2.60778Z" fill="#0B0E15"/>
<path d="M1.53201 6.00461C1.53201 6.16548 1.64479 6.2848 1.80291 6.2848H3.32102L3.97902 6.25609L3.61156 6.55886L3.24984 6.90336C3.19795 6.95249 3.16854 7.01787 3.16854 7.09334C3.16854 7.24 3.27514 7.35425 3.42084 7.35425C3.49591 7.35425 3.5558 7.3262 3.6073 7.27674L4.66797 6.22872C4.73716 6.16161 4.77556 6.09522 4.77556 6.00461C4.77556 5.92407 4.74028 5.85771 4.66797 5.78745L3.6073 4.73631C3.5558 4.68686 3.49591 4.66195 3.42084 4.66195C3.27514 4.66195 3.16854 4.77305 3.16854 4.91903C3.16854 4.99381 3.20245 5.06056 3.24984 5.109L3.60883 5.45595L3.97902 5.75627L3.32102 5.73069H1.80291C1.64792 5.73069 1.53201 5.84445 1.53201 6.00461Z" fill="#0B0E15"/>
<path fill-rule="evenodd" clip-rule="evenodd" d="M8.07582 1.41862V6.69026L8.07588 6.67348V1.43541L8.07582 1.41862Z" fill="white"/>
</svg>
