<svg width="17" height="16" viewBox="0 0 17 16" xmlns="http://www.w3.org/2000/svg">
<path fill-rule="evenodd" clip-rule="evenodd" d="M4.64195 7.83632C4.64195 5.63032 6.43522 3.83632 8.64034 3.83632C10.8454 3.83632 12.6387 5.63032 12.6387 7.83632C12.6387 10.0423 10.8454 11.8363 8.64034 11.8363C6.43522 11.8363 4.64195 10.0423 4.64195 7.83632ZM6.64114 7.83632C6.64114 8.93932 7.53778 9.83632 8.64034 9.83632C9.74289 9.83632 10.6395 8.93932 10.6395 7.83632C10.6395 6.73332 9.74289 5.83632 8.64034 5.83632C7.53778 5.83632 6.64114 6.73332 6.64114 7.83632Z"/>
<path fill-rule="evenodd" clip-rule="evenodd" d="M16.4214 9C16.5637 8.71982 16.4807 7.54992 16.4214 7C15.9266 3.06 12.564 0 8.49361 0C4.42324 0 1.06059 3.06 0.565794 7C0.515922 7.38789 0.446303 8.33094 0.566799 9C1.0616 12.94 4.42424 16 8.4946 16C12.565 16 15.9266 12.94 16.4214 9ZM8.49361 14C5.18594 14 2.49602 11.309 2.49602 8C2.49602 4.691 5.18594 2 8.49361 2C11.8013 2 14.4912 4.691 14.4912 8C14.4912 11.309 11.8013 14 8.49361 14Z"/>
</svg>
