<svg width="18" height="19" viewBox="0 0 18 19" fill="none" xmlns="http://www.w3.org/2000/svg">
<path d="M9.00001 1.65527C13.1495 1.65527 16.5132 5.01892 16.5132 9.16845C16.5132 13.318 13.1495 16.6816 9.00001 16.6816C7.67226 16.6838 6.36788 16.3324 5.22088 15.6636L1.48983 16.6816L2.50561 12.9491C1.83626 11.8017 1.48461 10.4968 1.48683 9.16845C1.48683 5.01892 4.85048 1.65527 9.00001 1.65527ZM6.43951 5.63726L6.28925 5.64327C6.19197 5.64919 6.0969 5.67475 6.00976 5.7184C5.92826 5.76455 5.85386 5.82225 5.78887 5.8897C5.69871 5.9746 5.64763 6.04823 5.59278 6.1196C5.31488 6.48092 5.16526 6.9245 5.16753 7.38032C5.16904 7.74846 5.2652 8.10684 5.41547 8.44193C5.72276 9.11962 6.22839 9.83712 6.89556 10.502C7.05635 10.6621 7.21412 10.8229 7.38392 10.9724C8.21292 11.7022 9.2008 12.2286 10.269 12.5096L10.6957 12.5749C10.8347 12.5824 10.9737 12.5719 11.1135 12.5652C11.3323 12.5539 11.5459 12.4946 11.7393 12.3916C11.8377 12.3409 11.9337 12.2858 12.0271 12.2263C12.0271 12.2263 12.0594 12.2053 12.121 12.1587C12.2224 12.0836 12.2848 12.0302 12.3689 11.9423C12.4313 11.8777 12.4854 11.8018 12.5267 11.7154C12.5853 11.593 12.6439 11.3593 12.6679 11.1647C12.686 11.0159 12.6807 10.9348 12.6785 10.8845C12.6755 10.8041 12.6086 10.7207 12.5357 10.6854L12.0984 10.4893C12.0984 10.4893 11.4448 10.2045 11.0451 10.0227C11.0033 10.0044 10.9585 9.994 10.9129 9.9919C10.8615 9.98662 10.8095 9.9924 10.7605 10.0089C10.7115 10.0253 10.6667 10.0521 10.6289 10.0873C10.6251 10.0858 10.5748 10.1286 10.0316 10.7868C10.0004 10.8287 9.95744 10.8603 9.9082 10.8777C9.85896 10.8951 9.80565 10.8975 9.75508 10.8845C9.70614 10.8713 9.65818 10.8548 9.61158 10.8349C9.51841 10.7958 9.48611 10.7808 9.42225 10.7537C8.99104 10.5656 8.5918 10.3113 8.23892 10.0002C8.14425 9.91752 8.05635 9.82736 7.96619 9.7402C7.67061 9.45713 7.41301 9.1369 7.19985 8.78753L7.15552 8.71616C7.12368 8.6682 7.09794 8.61646 7.07889 8.56214C7.05034 8.45169 7.12472 8.36304 7.12472 8.36304C7.12472 8.36304 7.30729 8.16319 7.39219 8.055C7.47483 7.94981 7.5447 7.84764 7.58978 7.77476C7.67844 7.63201 7.70624 7.4855 7.65965 7.37205C7.44929 6.85815 7.2314 6.3465 7.00751 5.83861C6.96318 5.73793 6.8317 5.66581 6.71224 5.65153C6.67167 5.64703 6.6311 5.64252 6.59053 5.63951C6.48963 5.6345 6.38853 5.6355 6.28775 5.64252L6.43876 5.63651L6.43951 5.63726Z" fill="#0B0E15"/>
</svg>
