<svg width="35" height="35" viewBox="0 0 35 35" fill="none" xmlns="http://www.w3.org/2000/svg">
<path d="M17.4249 4.04297C10.1262 4.04297 4.20264 9.96652 4.20264 17.2652C4.20264 24.5639 10.1262 30.4874 17.4249 30.4874C24.7235 30.4874 30.6471 24.5639 30.6471 17.2652C30.6471 9.96652 24.7235 4.04297 17.4249 4.04297ZM22.7137 18.5874H18.7471V22.5541C18.7471 23.2813 18.1521 23.8763 17.4249 23.8763C16.6976 23.8763 16.1026 23.2813 16.1026 22.5541V18.5874H12.136C11.4087 18.5874 10.8137 17.9924 10.8137 17.2652C10.8137 16.538 11.4087 15.943 12.136 15.943H16.1026V11.9763C16.1026 11.2491 16.6976 10.6541 17.4249 10.6541C18.1521 10.6541 18.7471 11.2491 18.7471 11.9763V15.943H22.7137C23.441 15.943 24.036 16.538 24.036 17.2652C24.036 17.9924 23.441 18.5874 22.7137 18.5874Z" fill="#3B82F6"/>
</svg>
