<svg width="19" height="18" viewBox="0 0 19 18" fill="none" xmlns="http://www.w3.org/2000/svg">
<g id="Group">
<g id="Group_2">
<g id="Group_3">
<path id="Vector" d="M18.2177 12.9155H16.1513V6.06777C16.1513 5.74954 15.8936 5.49182 15.5754 5.49182C15.2571 5.49182 14.9991 5.74954 14.9991 6.06777V13.605C14.9991 13.9279 14.6776 14.2008 14.2951 14.2055C14.2918 14.2054 14.2886 14.205 14.2853 14.205C14.279 14.205 14.2729 14.2057 14.2667 14.2059H12.0584C12.0521 14.2057 12.0461 14.205 12.0398 14.205C12.0335 14.205 12.0275 14.2057 12.0212 14.2059H9.81228C9.80606 14.2057 9.80001 14.205 9.79375 14.205C9.78749 14.205 9.78145 14.2057 9.77522 14.2059H7.56654C7.56031 14.2057 7.55427 14.205 7.54801 14.205C7.54175 14.205 7.53571 14.2057 7.52948 14.2059H5.3208C5.31457 14.2057 5.30853 14.205 5.30227 14.205C5.29893 14.205 5.29569 14.2054 5.29239 14.2055C4.90958 14.2008 4.58843 13.9279 4.58843 13.605V4.3958C4.58843 4.07009 4.91542 3.79489 5.30227 3.79489H14.2853C14.6722 3.79489 14.9991 4.07009 14.9991 4.3958V4.50876C14.9991 4.82699 15.2571 5.08471 15.5754 5.08471H18.2177C18.5359 5.08471 18.7939 4.82699 18.7939 4.50876C18.7939 4.19053 18.5359 3.9328 18.2177 3.9328H16.0852C15.9191 3.3642 15.4551 2.91048 14.8615 2.72893V0.900173C14.8615 0.581945 14.6035 0.324219 14.2852 0.324219C13.967 0.324219 13.7093 0.581945 13.7093 0.900173V2.64298H12.6157V0.900173C12.6157 0.581945 12.358 0.324219 12.0398 0.324219C11.7215 0.324219 11.4635 0.581945 11.4635 0.900173V2.64298H10.3696V0.900173C10.3696 0.581945 10.1116 0.324219 9.79368 0.324219C9.47573 0.324219 9.21773 0.581945 9.21773 0.900173V2.64298H8.12386V0.900173C8.12386 0.581945 7.86585 0.324219 7.5479 0.324219C7.22996 0.324219 6.97195 0.581945 6.97195 0.900173V2.64298H5.87808V0.900173C5.87808 0.581945 5.62036 0.324219 5.30213 0.324219C4.9839 0.324219 4.72617 0.581945 4.72617 0.900173V2.72883C4.13261 2.91023 3.66894 3.36391 3.50293 3.93249H1.3699C1.05195 3.93249 0.793945 4.19018 0.793945 4.50844C0.793945 4.82667 1.05195 5.0844 1.3699 5.0844H3.43656V12.9155H1.3699C1.05195 12.9155 0.793945 13.1732 0.793945 13.4914C0.793945 13.8096 1.05195 14.0674 1.3699 14.0674H3.50304C3.66901 14.6359 4.13268 15.0898 4.72631 15.2713V17.0994C4.72631 17.4176 4.98404 17.6753 5.30227 17.6753C5.62018 17.6753 5.87822 17.4176 5.87822 17.0994V15.3572H6.97209V17.0993C6.97209 17.4176 7.22982 17.6753 7.54805 17.6753C7.86596 17.6753 8.124 17.4176 8.124 17.0993V15.3572H9.21787V17.0993C9.21787 17.4176 9.47559 17.6753 9.79382 17.6753C10.1121 17.6753 10.3698 17.4176 10.3698 17.0993V15.3572H11.4636V17.0993C11.4636 17.4176 11.7217 17.6753 12.0399 17.6753C12.3578 17.6753 12.6159 17.4176 12.6159 17.0993V15.3572H13.7094V17.0993C13.7094 17.4176 13.9671 17.6753 14.2854 17.6753C14.6036 17.6753 14.8616 17.4176 14.8616 17.0993V15.2712C15.4553 15.0897 15.9189 14.6359 16.0849 14.0674H18.2178C18.5357 14.0674 18.7941 13.8096 18.7941 13.4914C18.7939 13.1732 18.5359 12.9155 18.2177 12.9155Z" fill="white"/>
<path id="Vector_2" d="M18.2177 10.6699H17.1007C16.7825 10.6699 16.5248 10.9276 16.5248 11.2459C16.5248 11.5641 16.7825 11.8218 17.1007 11.8218H18.2177C18.5356 11.8218 18.7939 11.5641 18.7939 11.2459C18.7939 10.9276 18.5359 10.6699 18.2177 10.6699Z" fill="white"/>
<path id="Vector_3" d="M18.2177 8.42383H17.1007C16.7825 8.42383 16.5248 8.68155 16.5248 8.99978C16.5248 9.31801 16.7825 9.57574 17.1007 9.57574H18.2177C18.5356 9.57574 18.7939 9.31801 18.7939 8.99978C18.7939 8.68155 18.5359 8.42383 18.2177 8.42383Z" fill="white"/>
<path id="Vector_4" d="M18.2177 6.17773H17.1007C16.7825 6.17773 16.5248 6.43546 16.5248 6.75369C16.5248 7.07192 16.7825 7.32964 17.1007 7.32964H18.2177C18.5356 7.32964 18.7939 7.07192 18.7939 6.75369C18.7939 6.43546 18.5359 6.17773 18.2177 6.17773Z" fill="white"/>
<path id="Vector_5" d="M1.3699 11.8218H2.48715C2.80506 11.8218 3.0631 11.5641 3.0631 11.2459C3.0631 10.9276 2.80537 10.6699 2.48715 10.6699H1.3699C1.05195 10.6699 0.793945 10.928 0.793945 11.2459C0.793945 11.5638 1.05195 11.8218 1.3699 11.8218Z" fill="white"/>
<path id="Vector_6" d="M1.3699 9.57542H2.48715C2.80506 9.57542 3.0631 9.31801 3.0631 8.99978C3.0631 8.68155 2.80537 8.42383 2.48715 8.42383H1.3699C1.05195 8.42383 0.793945 8.68184 0.793945 8.99978C0.793945 9.3177 1.05195 9.57542 1.3699 9.57542Z" fill="white"/>
<path id="Vector_7" d="M1.3699 7.32964H2.48715C2.80506 7.32964 3.0631 7.07192 3.0631 6.75369C3.0631 6.43546 2.80537 6.17773 2.48715 6.17773H1.3699C1.05195 6.17773 0.793945 6.43546 0.793945 6.75369C0.793945 7.07192 1.05195 7.32964 1.3699 7.32964Z" fill="white"/>
<path id="Vector_8" d="M7.93281 5.98633C7.69537 5.98633 7.48229 6.13173 7.39616 6.35293L5.49455 11.2291C5.3791 11.5258 5.52546 11.8597 5.82185 11.9751C6.11857 12.0905 6.4524 11.9439 6.56782 11.6478L6.86956 10.8741H8.99606L9.2978 11.6478C9.38639 11.8756 9.60386 12.0147 9.83441 12.0147C9.90398 12.0147 9.97482 12.0019 10.0438 11.9751C10.3398 11.8596 10.4868 11.5255 10.3711 11.2291L8.46946 6.35293C8.38301 6.13173 8.17025 5.98633 7.93281 5.98633ZM7.31874 9.72218L7.93281 8.14752L8.54687 9.72218H7.31874Z" fill="white"/>
<path id="Vector_9" d="M13.0535 7.13726C13.3714 7.13726 13.6298 6.87954 13.6298 6.56131C13.6298 6.24308 13.3718 5.98535 13.0535 5.98535H11.4408C11.1226 5.98535 10.8649 6.24308 10.8649 6.56131C10.8649 6.87954 11.1226 7.13726 11.4408 7.13726H11.6711V10.8619H11.4408C11.1226 10.8619 10.8649 11.1196 10.8649 11.4378C10.8649 11.756 11.1226 12.0138 11.4408 12.0138H13.0535C13.3714 12.0138 13.6298 11.756 13.6298 11.4378C13.6298 11.1196 13.3718 10.8619 13.0535 10.8619H12.8236V7.13726H13.0535Z" fill="white"/>
</g>
</g>
</g>
</svg>
