<svg width="19" height="19" viewBox="0 0 19 19" xmlns="http://www.w3.org/2000/svg">
<g id="alert-triangle">
<path id="Vector" d="M8.14611 3.05514L1.4407 14.2493C1.30245 14.4887 1.2293 14.7602 1.22852 15.0366C1.22775 15.3131 1.29938 15.585 1.43628 15.8251C1.57319 16.0653 1.7706 16.2655 2.00888 16.4057C2.24716 16.5459 2.518 16.6213 2.79445 16.6243H16.2053C16.4817 16.6213 16.7526 16.5459 16.9908 16.4057C17.2291 16.2655 17.4265 16.0653 17.5634 15.8251C17.7003 15.585 17.772 15.3131 17.7712 15.0366C17.7704 14.7602 17.6973 14.4887 17.559 14.2493L10.8536 3.05514C10.7125 2.82248 10.5138 2.63011 10.2766 2.49661C10.0395 2.3631 9.77199 2.29297 9.49986 2.29297C9.22774 2.29297 8.96021 2.3631 8.72308 2.49661C8.48596 2.63011 8.28724 2.82248 8.14611 3.05514Z" stroke="black" stroke-width="2" stroke-linecap="round" stroke-linejoin="round"/>
<path id="Vector_2" d="M9.5 7.125V10.2917" stroke="black" stroke-width="2" stroke-linecap="round" stroke-linejoin="round"/>
<path id="Vector_3" d="M9.5 13.459H9.50875" stroke="black" stroke-width="2" stroke-linecap="round" stroke-linejoin="round"/>
</g>
</svg>
