<svg width="18" height="18" viewBox="0 0 18 18" xmlns="http://www.w3.org/2000/svg">
<path d="M15.0002 9.20605C15.0002 9.49083 14.7886 9.72617 14.5141 9.76342L14.4377 9.76855L3.18774 9.76855C2.87708 9.76855 2.62524 9.51671 2.62524 9.20605C2.62524 8.92128 2.83686 8.68594 3.11142 8.64869L3.18774 8.64355L14.4377 8.64355C14.7484 8.64355 15.0002 8.89539 15.0002 9.20605Z"/>
<path d="M8.12199 13.3256C8.34213 13.5448 8.3429 13.901 8.1237 14.1211C7.92443 14.3213 7.61197 14.3401 7.39141 14.1772L7.32821 14.1229L2.79071 9.60485C2.58998 9.40499 2.57172 9.0914 2.73593 8.87085L2.79067 8.80768L7.32817 4.28893C7.5483 4.06972 7.90445 4.07045 8.12367 4.29058C8.32295 4.49069 8.34046 4.80322 8.17661 5.02309L8.12202 5.08607L3.985 9.20647L8.12199 13.3256Z"/>
</svg>
