<svg width="7" height="11" viewBox="0 0 7 11" fill="none" xmlns="http://www.w3.org/2000/svg">
<path d="M5.33104 9.84711C5.46585 9.9685 5.62533 10.0361 5.81097 10.0361C6.19509 10.0361 6.5 9.7509 6.5 9.38415C6.5 9.19976 6.41812 9.03433 6.28874 8.91046L1.84798 4.75742V5.30973L6.28874 1.16076C6.41918 1.03328 6.5 0.866824 6.5 0.688083C6.5 0.322361 6.19509 0.0361328 5.81097 0.0361328C5.62427 0.0361328 5.46373 0.102716 5.33104 0.226149L0.73577 4.52496C0.578079 4.66766 0.502123 4.84135 0.5 5.03329C0.5 5.22888 0.577017 5.3943 0.73577 5.54628L5.33104 9.84711Z" fill="#1A2233"/>
</svg>
