<svg width="18" height="19" viewBox="0 0 18 19" xmlns="http://www.w3.org/2000/svg">
<path d="M4.06679 6.27302L4.06679 6.27264C4.06466 4.84189 5.15617 3.77734 6.36464 3.77734C7.57661 3.77734 8.66372 4.82189 8.66372 6.26084C8.66372 7.74588 7.56695 8.82207 6.36464 8.82207C5.15769 8.82207 4.06786 7.74558 4.06679 6.27302ZM10.9784 15.2314H1.74642C1.42756 15.2314 1.23786 15.1556 1.13921 15.0783C1.05575 15.0129 1 14.9192 1 14.7555C1 14.0667 1.45638 13.1435 2.39834 12.3727C3.32447 11.6148 4.67732 11.0453 6.35895 11.0453C8.04428 11.0453 9.39855 11.6149 10.3251 12.3728C11.2675 13.1435 11.7236 14.0666 11.7236 14.7555C11.7236 14.9197 11.6678 15.0133 11.5847 15.0785C11.4865 15.1556 11.2973 15.2314 10.9784 15.2314Z" stroke="black"/>
<path d="M12.9981 9.76267C13.2863 9.76267 13.5372 9.64003 13.7093 9.41846L17.3001 4.59953C17.4015 4.45623 17.5001 4.29598 17.5001 4.13505C17.5001 3.79595 17.1441 3.56641 16.7649 3.56641C16.5243 3.56641 16.3113 3.6809 16.1414 3.91363L12.9718 8.28368L11.4777 6.6509C11.2807 6.43292 11.0925 6.35976 10.8502 6.35976C10.4615 6.35976 10.1509 6.62941 10.1509 6.97291C10.1509 7.13371 10.2246 7.28899 10.3573 7.43725L12.2576 9.42346C12.4714 9.65826 12.707 9.76267 12.9981 9.76267Z"/>
</svg>
