<svg width="17" height="18" viewBox="0 0 17 18" xmlns="http://www.w3.org/2000/svg">
<path d="M14.9283 10.5407L6.95957 2.57197C5.63145 1.19072 3.45332 1.19072 2.07207 2.51885C0.69082 3.84697 0.69082 6.07822 2.07207 7.40635L2.1252 7.45947L3.6127 9.0001L4.35645 8.25635L2.81582 6.71572C1.9127 5.8126 1.9127 4.27197 2.81582 3.36885C3.71895 2.46572 5.25957 2.4126 6.1627 3.31572L6.21582 3.36885L14.1314 11.2845C15.0877 12.1876 15.0877 13.7282 14.1846 14.6313C13.2814 15.5876 11.7408 15.5876 10.8377 14.6845L10.7846 14.6313L6.85332 10.7001C6.32207 10.1688 6.3752 9.31885 6.85332 8.84072C7.38457 8.3626 8.18145 8.3626 8.7127 8.84072L10.8908 11.0188L11.6346 10.2751L9.40332 8.04385C8.44707 7.14072 6.95957 7.19385 6.05645 8.1501C5.20645 9.05322 5.20645 10.4876 6.05645 11.4438L10.0408 15.4282C11.3689 16.8095 13.5471 16.8095 14.9283 15.4813C16.3096 14.1532 16.3096 11.922 14.9283 10.5407Z"/>
</svg>
