<svg width="21" height="27" viewBox="0 0 21 27" fill="none" xmlns="http://www.w3.org/2000/svg">
<path d="M16.4141 26.2014H3.93077C1.42062 26.2014 0.125 24.8961 0.125 22.3646V4.68226C0.125 2.16039 1.43023 0.835938 3.93077 0.835938H9.28015V9.69273C9.28015 11.161 9.99288 11.8738 11.4591 11.8738H20.2198V22.3646C20.2198 24.8865 18.9263 26.2014 16.4141 26.2014Z" fill="#E2E5E7"/>
<path d="M11.6673 10.1608H20.0919C20.03 9.63602 19.6416 9.1293 19.0327 8.50867L12.6348 2.0125C12.046 1.41625 11.5276 1.03 10.9932 0.956406V9.49633C10.9932 9.9393 11.2147 10.1608 11.6673 10.1608Z" fill="#E2E5E7"/>
<path d="M11.6673 10.1608H20.0919C20.03 9.63602 19.6416 9.1293 19.0327 8.50867L12.6348 2.0125C12.046 1.41625 11.5276 1.03 10.9932 0.956406V9.49633C10.9932 9.9393 11.2147 10.1608 11.6673 10.1608Z" fill="#B0B7BD"/>
<path d="M13.0851 18.6225L9.83557 21.872C9.00773 22.7042 7.89471 22.6261 7.18342 21.906C6.46692 21.1947 6.38957 20.0897 7.21822 19.2574L11.6656 14.8136C12.1524 14.3277 12.8754 14.2414 13.3496 14.7128C13.8218 15.1922 13.7347 15.91 13.2515 16.3967L8.8896 20.7611C8.69437 20.9627 8.45783 20.9038 8.32313 20.7699C8.19002 20.6324 8.13469 20.403 8.32912 20.2006L11.3742 17.1635C11.527 17.0064 11.535 16.7808 11.3866 16.6333C11.2391 16.4901 11.0127 16.4973 10.86 16.6501L7.8053 19.7048C7.3338 20.1763 7.3538 20.9015 7.77165 21.3185C8.22632 21.7732 8.91312 21.7636 9.38822 21.2885L13.771 16.9058C14.6216 16.0551 14.5911 14.9342 13.8438 14.1869C13.1141 13.458 11.9749 13.4091 11.1242 14.259L6.65237 18.7368C5.53821 19.8509 5.61714 21.4519 6.62876 22.4643C7.64196 23.4723 9.24286 23.552 10.357 22.4414L13.6301 19.1684C13.7777 19.0232 13.7761 18.7525 13.6241 18.6137C13.4789 18.4581 13.2378 18.475 13.0851 18.6225Z" fill="#1A2233" fill-opacity="0.6"/>
</svg>
