<svg width="29" height="29" viewBox="0 0 29 29" fill="none" xmlns="http://www.w3.org/2000/svg">
<path d="M24.7198 1.83594H4.625V27.2089H24.7198V1.83594Z" fill="white"/>
<path d="M20.9141 27.2014H8.43077C5.92062 27.2014 4.625 25.8961 4.625 23.3646V5.68226C4.625 3.16039 5.93023 1.83594 8.43077 1.83594H13.7802V10.6927C13.7802 12.161 14.4929 12.8738 15.9591 12.8738H24.7198V23.3646C24.7198 25.8865 23.4263 27.2014 20.9141 27.2014Z" fill="#E2E5E7"/>
<path d="M16.1673 11.1608H24.5919C24.53 10.636 24.1416 10.1293 23.5327 9.50867L17.1348 3.0125C16.546 2.41625 16.0276 2.03 15.4932 1.95641V10.4963C15.4932 10.9393 15.7147 11.1608 16.1673 11.1608Z" fill="#E2E5E7"/>
<path d="M16.1673 11.1608H24.5919C24.53 10.636 24.1416 10.1293 23.5327 9.50867L17.1348 3.0125C16.546 2.41625 16.0276 2.03 15.4932 1.95641V10.4963C15.4932 10.9393 15.7147 11.1608 16.1673 11.1608Z" fill="#B0B7BD"/>
<path d="M17.5851 19.6225L14.3356 22.872C13.5077 23.7042 12.3947 23.6261 11.6834 22.906C10.9669 22.1947 10.8896 21.0897 11.7182 20.2574L16.1656 15.8136C16.6524 15.3277 17.3754 15.2414 17.8496 15.7128C18.3218 16.1922 18.2347 16.91 17.7515 17.3967L13.3896 21.7611C13.1944 21.9627 12.9578 21.9038 12.8231 21.7699C12.69 21.6324 12.6347 21.403 12.8291 21.2006L15.8742 18.1635C16.027 18.0064 16.035 17.7808 15.8866 17.6333C15.7391 17.4901 15.5127 17.4973 15.36 17.6501L12.3053 20.7048C11.8338 21.1763 11.8538 21.9015 12.2716 22.3185C12.7263 22.7732 13.4131 22.7636 13.8882 22.2885L18.271 17.9058C19.1216 17.0551 19.0911 15.9342 18.3438 15.1869C17.6141 14.458 16.4749 14.4091 15.6242 15.259L11.1524 19.7368C10.0382 20.8509 10.1171 22.4519 11.1288 23.4643C12.142 24.4723 13.7429 24.552 14.857 23.4414L18.1301 20.1684C18.2777 20.0232 18.2761 19.7525 18.1241 19.6137C17.9789 19.4581 17.7378 19.475 17.5851 19.6225Z" fill="#1A2233" fill-opacity="0.6"/>
</svg>
