<svg width="19" height="21" viewBox="0 0 19 21" xmlns="http://www.w3.org/2000/svg">
<path d="M0 15.7051C0 16.4895 0.61788 17.0074 1.63465 17.0074H5.65831C5.73653 18.7881 7.26383 20.405 9.47983 20.405C11.7055 20.405 13.2328 18.7958 13.3111 17.0074H17.3347C18.3435 17.0074 18.9693 16.4895 18.9693 15.7051C18.9693 14.7206 18.0108 13.8771 17.1331 13.0678C16.4438 12.4305 16.2767 11.1537 16.151 9.87867C16.0227 6.36976 14.9498 4.02908 12.3932 3.15667C12.0204 1.92178 10.9408 0.991211 9.47983 0.991211C8.02856 0.991211 6.941 1.92178 6.57614 3.15667C4.01955 4.02908 2.94666 6.36976 2.8184 9.87867C2.69268 11.1537 2.5255 12.4305 1.83625 13.0678C0.950486 13.8771 0 14.7206 0 15.7051ZM2.33307 15.3139V15.2061C2.58296 14.9425 3.15196 14.4461 3.63219 13.9256C4.30619 13.1947 4.62276 11.8617 4.72483 10.1041C4.83471 6.34197 6.05464 5.09133 7.62967 4.68273C7.86704 4.62883 8.00391 4.52269 8.02249 4.26523C8.06766 3.3254 8.62437 2.691 9.47983 2.691C10.3451 2.691 10.8937 3.3254 10.9469 4.26523C10.9654 4.52269 11.0943 4.62883 11.3317 4.68273C12.9147 5.09133 14.1346 6.34197 14.2445 10.1041C14.3466 11.8617 14.6684 13.1947 15.3292 13.9256C15.8156 14.4461 16.3572 14.9425 16.6089 15.2061V15.3139H2.33307ZM7.50198 17.0074H11.4674C11.3927 18.1752 10.5942 18.9191 9.47983 18.9191C8.37525 18.9191 7.56866 18.1752 7.50198 17.0074Z"/>
</svg>
