<svg width="17" height="14" viewBox="0 0 17 14" fill="none" xmlns="http://www.w3.org/2000/svg">
<path d="M3.73888 5.06223C3.67861 5.32558 3.7925 5.44955 4.07934 5.43747C5.06238 5.37522 6.29352 5.31668 8.44764 5.31668C10.6084 5.31668 11.8396 5.37522 12.8214 5.43747C13.104 5.44955 13.2179 5.32558 13.1565 5.06223C13.0115 4.42085 12.7301 3.57545 12.5368 3.23911C12.3559 2.91058 12.142 2.77188 11.7586 2.71945C11.3095 2.65666 10.2258 2.61499 8.44764 2.61499C6.67501 2.61499 5.59253 2.65666 5.13791 2.71945C4.75457 2.77188 4.5418 2.91058 4.35848 3.23911C4.16642 3.57545 3.89165 4.42085 3.73888 5.06223ZM3.64822 9.71566C4.27725 9.71566 4.75855 9.23314 4.75855 8.6053C4.75855 7.97203 4.27725 7.49619 3.64822 7.49619C3.02038 7.49619 2.53909 7.97203 2.53909 8.6053C2.53909 9.23314 3.02038 9.71566 3.64822 9.71566ZM6.65972 9.43584H10.2411C10.7115 9.43584 11.0389 9.10719 11.0389 8.63254C11.0389 8.16333 10.7115 7.83469 10.2411 7.83469H6.65972C6.18507 7.83469 5.8576 8.16333 5.8576 8.63254C5.8576 9.10719 6.18507 9.43584 6.65972 9.43584ZM13.2471 9.71566C13.8804 9.71566 14.3574 9.23314 14.3574 8.6053C14.3574 7.97203 13.8804 7.49619 13.2471 7.49619C12.6193 7.49619 12.1434 7.97203 12.1434 8.6053C12.1434 9.23314 12.6193 9.71566 13.2471 9.71566ZM8.44764 11.6318C10.7146 11.6318 13.6885 11.5178 14.9464 11.373C15.9063 11.265 16.4483 10.7207 16.4483 9.81268V8.64461C16.4483 7.47761 16.2406 6.82508 15.6132 6.02628L15.0252 5.28854C14.7839 4.09392 14.3404 2.84077 14.1124 2.34846C13.7409 1.56864 13.031 1.10008 12.1148 0.977035C11.6391 0.912526 10.2132 0.876953 8.44764 0.876953C6.68877 0.876953 5.26281 0.917968 4.78709 0.977035C3.86976 1.0892 3.15444 1.56744 2.78956 2.34846C2.55727 2.84077 2.11805 4.09392 1.8701 5.28854L1.28753 6.02628C0.655974 6.82508 0.448242 7.47761 0.448242 8.64461V9.81268C0.448242 10.7207 0.995641 11.265 1.95014 11.373C3.21351 11.5178 6.1819 11.6318 8.44764 11.6318ZM8.44764 10.5772C6.17323 10.5772 3.34293 10.4675 2.26365 10.3371C1.69834 10.272 1.48967 9.98473 1.48967 9.47792V8.58848C1.48967 7.69118 1.6548 7.26524 2.12946 6.64323L2.84105 5.70732C3.0083 4.81427 3.43372 3.4402 3.71552 2.84275C3.93506 2.37526 4.35676 2.10302 4.9404 2.03002C5.39024 1.97215 6.69449 1.91481 8.44764 1.91481C10.2063 1.91481 11.5281 1.97453 11.9452 2.03002C12.544 2.10607 12.9579 2.3807 13.1865 2.84753C13.4647 3.43303 13.8901 4.80472 14.0555 5.70732L14.7713 6.64323C15.2417 7.26524 15.4069 7.69118 15.4069 8.58848V9.47792C15.4069 9.98473 15.197 10.272 14.6328 10.3371C13.5578 10.4675 10.7233 10.5772 8.44764 10.5772ZM1.68613 13.4653H2.48055C2.98667 13.4653 3.37997 13.0732 3.37997 12.5713V10.9452L0.786717 10.475V12.5713C0.786717 13.0732 1.18001 13.4653 1.68613 13.4653ZM14.416 13.4653H15.2158C15.722 13.4653 16.1098 13.0732 16.1098 12.5713V10.475L13.522 10.9452V12.5713C13.522 13.0732 13.9099 13.4653 14.416 13.4653Z" fill="#1A2233" fill-opacity="0.6"/>
</svg>
