<svg width="27" height="27" viewBox="0 0 27 27" xmlns="http://www.w3.org/2000/svg">

<path d="M19.9629 16.9209C19.9629 17.9011 19.4518 18.4624 18.4852 18.4624H18.1668C18.1811 18.3771 18.1882 18.2874 18.1882 18.1969C18.1882 16.9529 17.1728 15.9384 15.9288 15.9384C14.6858 15.9384 13.6756 16.9529 13.6756 18.1969C13.6756 18.2884 13.6837 18.3799 13.698 18.4671L10.4498 18.468C10.4641 18.3775 10.4712 18.2851 10.4712 18.1926C10.4712 17.569 10.2274 17.0068 9.80624 16.6241V9.98012C9.80624 8.97342 10.3466 8.42773 11.3577 8.42773H15.4891C15.2667 8.87783 15.1446 9.38423 15.1446 9.91353C15.1446 11.7963 16.7099 13.3635 18.5926 13.3635C19.0777 13.3635 19.5408 13.2603 19.9629 13.0765V16.9209Z" />
<path fill-rule="evenodd" clip-rule="evenodd" d="M9.0659 11.3287V16.1335C8.82044 16.0087 8.53428 15.9341 8.23427 15.9341C6.99127 15.9341 5.95953 16.9486 5.95953 18.1926C5.95953 18.2851 5.9667 18.3775 5.98095 18.4689H5.68991C4.72015 18.4689 4.20296 17.9063 4.20296 16.9209V15.0319C4.20296 14.4823 4.29264 14.2237 4.60044 13.8772L6.41164 11.8311C6.74136 11.4618 7.11164 11.3287 7.66128 11.3287H9.0659ZM8.09377 14.2867C8.09377 14.6002 7.89671 14.792 7.58747 14.792H5.34705C5.3652 14.6712 5.42109 14.579 5.50324 14.4854L7.06633 12.7289C7.2655 12.5088 7.41833 12.463 7.66276 12.463H8.09377V14.2867Z" />
<path d="M8.21706 19.8088C7.32287 19.8088 6.60615 19.0906 6.60615 18.1926C6.60615 17.3027 7.32717 16.5807 8.21706 16.5807C9.10695 16.5807 9.82892 17.3027 9.82892 18.1926C9.82892 19.0815 9.10695 19.8088 8.21706 19.8088Z" />
<path d="M15.9288 19.8088C15.0365 19.8088 14.3179 19.084 14.3179 18.1969C14.3179 17.307 15.0399 16.585 15.9288 16.585C16.8187 16.585 17.5416 17.307 17.5416 18.1969C17.5416 19.0815 16.8187 19.8088 15.9288 19.8088Z" />
<path d="M18.4102 6.76172C16.7585 6.76172 15.418 8.13197 15.418 9.82031C15.418 11.5087 16.7585 12.8789 18.4102 12.8789C20.0618 12.8789 21.4023 11.5087 21.4023 9.82031C21.4023 8.13197 20.0618 6.76172 18.4102 6.76172ZM19.607 10.1262H18.7094V11.0438C18.7094 11.212 18.5747 11.3496 18.4102 11.3496C18.2456 11.3496 18.1109 11.212 18.1109 11.0438V10.1262H17.2133C17.0487 10.1262 16.9141 9.98854 16.9141 9.82031C16.9141 9.65209 17.0487 9.51445 17.2133 9.51445H18.1109V8.59688C18.1109 8.42865 18.2456 8.29102 18.4102 8.29102C18.5747 8.29102 18.7094 8.42865 18.7094 8.59688V9.51445H19.607C19.7716 9.51445 19.9062 9.65209 19.9062 9.82031C19.9062 9.98854 19.7716 10.1262 19.607 10.1262Z" />
</svg>
