<svg width="18" height="14" viewBox="0 0 18 14" xmlns="http://www.w3.org/2000/svg">
<path d="M15.7598 9.70797C15.7598 10.6882 15.2486 11.2495 14.2821 11.2495H13.9637C13.978 11.1642 13.9851 11.0745 13.9851 10.984C13.9851 9.74002 12.9697 8.72553 11.7257 8.72553C10.4826 8.72553 9.47246 9.74002 9.47246 10.984C9.47246 11.0755 9.48057 11.167 9.49487 11.2542L6.24669 11.2551C6.26094 11.1646 6.26811 11.0722 6.26811 10.9797C6.26811 10.3561 6.02431 9.79393 5.60311 9.41124V2.76723C5.60311 1.76053 6.14352 1.21484 7.15455 1.21484H11.286C11.0636 1.66494 10.9415 2.17134 10.9415 2.70064C10.9415 4.58339 12.5068 6.1506 14.3895 6.1506C14.8746 6.1506 15.3377 6.04743 15.7598 5.86364V9.70797ZM4.86278 4.11585V8.92062C4.61731 8.79581 4.33115 8.72123 4.03115 8.72123C2.78814 8.72123 1.7564 9.73571 1.7564 10.9797C1.7564 11.0722 1.76357 11.1646 1.77782 11.2561H1.48678C0.517025 11.2561 -0.000167847 10.6934 -0.000167847 9.70797V7.81906C-0.000167847 7.26937 0.0895119 7.01078 0.397317 6.66434L2.20852 4.61825C2.53824 4.24894 2.90852 4.11585 3.45816 4.11585H4.86278ZM3.38435 7.57915C3.69358 7.57915 3.89065 7.38733 3.89065 7.07379V5.25009H3.45964C3.2152 5.25009 3.06238 5.29589 2.86321 5.51603L1.30012 7.27251C1.21797 7.36614 1.16208 7.45832 1.14393 7.57915H3.38435ZM11.7257 12.5959C10.8334 12.5959 10.1148 11.8711 10.1148 10.984C10.1148 10.0941 10.8367 9.37216 11.7257 9.37216C12.6156 9.37216 13.3385 10.0941 13.3385 10.984C13.3385 11.8687 12.6156 12.5959 11.7257 12.5959ZM4.01394 12.5959C3.11974 12.5959 2.40303 11.8777 2.40303 10.9797C2.40303 10.0898 3.12405 9.36785 4.01394 9.36785C4.90383 9.36785 5.62579 10.0898 5.62579 10.9797C5.62579 11.8687 4.90383 12.5959 4.01394 12.5959Z"/>
<path fill-rule="evenodd" clip-rule="evenodd" d="M11.6824 2.70206C11.6824 4.18008 12.9184 5.40599 14.3854 5.40599C15.8643 5.40599 17.0884 4.1887 17.0884 2.70206C17.0884 1.22309 15.8643 0 14.3854 0C12.9012 0 11.6824 1.21878 11.6824 2.70206ZM16.001 2.78236C16.001 2.98551 15.8412 3.14958 15.6338 3.14958H14.3543C14.1468 3.14958 13.988 2.98981 13.988 2.78236V1.18774C13.988 0.98459 14.1521 0.830078 14.3543 0.830078C14.5565 0.830078 14.7205 0.98459 14.7205 1.18774V2.42039H15.6338C15.8369 2.42039 16.001 2.58446 16.001 2.78236Z"/>
</svg>
