<svg width="27" height="27" viewBox="0 0 27 27" xmlns="http://www.w3.org/2000/svg">

<path d="M20.4375 16.3369C20.4375 17.3171 19.9264 17.8784 18.9598 17.8784H18.6414C18.6557 17.7931 18.6628 17.7034 18.6628 17.6129C18.6628 16.3689 17.6474 15.3544 16.4034 15.3544C15.1604 15.3544 14.1502 16.3689 14.1502 17.6129C14.1502 17.7044 14.1583 17.7959 14.1726 17.8831L10.9244 17.884C10.9387 17.7935 10.9458 17.7011 10.9458 17.6086C10.9458 16.985 10.702 16.4228 10.2808 16.0401V9.39614C10.2808 8.38943 10.8213 7.84375 11.8323 7.84375H15.9637C15.7413 8.29385 15.6192 8.80025 15.6192 9.32955C15.6192 11.2123 17.1845 12.7795 19.0672 12.7795C19.5523 12.7795 20.0154 12.6763 20.4375 12.4925V16.3369ZM9.54051 10.7448V15.5495C9.29505 15.4247 9.00889 15.3501 8.70888 15.3501C7.46587 15.3501 6.43414 16.3646 6.43414 17.6086C6.43414 17.7011 6.44131 17.7935 6.45556 17.885H6.16452C5.19476 17.885 4.67757 17.3223 4.67757 16.3369V14.448C4.67757 13.8983 4.76725 13.6397 5.07505 13.2932L6.88625 11.2472C7.21597 10.8778 7.58625 10.7448 8.13589 10.7448H9.54051ZM8.06208 14.2081C8.37132 14.2081 8.56838 14.0162 8.56838 13.7027V11.879H8.13737C7.89294 11.879 7.74011 11.9248 7.54094 12.1449L5.97785 13.9014C5.8957 13.995 5.83981 14.0872 5.82166 14.2081H8.06208ZM16.4034 19.2248C15.5111 19.2248 14.7925 18.5 14.7925 17.6129C14.7925 16.723 15.5145 16.0011 16.4034 16.0011C17.2933 16.0011 18.0162 16.723 18.0162 17.6129C18.0162 18.4976 17.2933 19.2248 16.4034 19.2248ZM8.69167 19.2248C7.79748 19.2248 7.08076 18.5066 7.08076 17.6086C7.08076 16.7187 7.80178 15.9968 8.69167 15.9968C9.58156 15.9968 10.3035 16.7187 10.3035 17.6086C10.3035 18.4976 9.58156 19.2248 8.69167 19.2248Z" />
<path d="M19.0636 12.0344C17.5966 12.0344 16.3606 10.8085 16.3606 9.33048C16.3606 7.8472 17.5794 6.62842 19.0636 6.62842C20.5426 6.62842 21.7666 7.85151 21.7666 9.33048C21.7666 10.8171 20.5426 12.0344 19.0636 12.0344Z" />
<path d="M18.3059 10.6923C18.1798 10.8571 17.9524 10.8842 17.7911 10.7607C17.634 10.6404 17.6034 10.4104 17.7269 10.2491L18.5666 9.29965L17.7901 8.38597C17.6288 8.26249 17.6058 8.03829 17.7287 7.87772C17.8516 7.71716 18.074 7.68079 18.2353 7.80427L19.2993 8.93796C19.464 9.06406 19.4943 9.28728 19.3682 9.45202L18.3059 10.6923Z" />
<path d="M20.0075 10.6533C20.1336 10.8181 20.361 10.8452 20.5223 10.7217C20.6795 10.6014 20.71 10.3714 20.5866 10.2101L19.6018 9.30021L20.3288 8.3782C20.4901 8.25473 20.5131 8.03052 20.3902 7.86996C20.2673 7.7094 20.0449 7.67303 19.8836 7.79651L18.8692 8.93853C18.7044 9.06462 18.6741 9.28784 18.8002 9.45258L20.0075 10.6533Z" />
</svg>
