<svg width="18" height="17" viewBox="0 0 18 17" fill="none" xmlns="http://www.w3.org/2000/svg">
<path d="M3.60379 16.5665H14.8854C16.6551 16.5665 17.5684 15.5791 17.5684 13.6875V2.89851C17.5684 1.00531 16.6551 0.0195312 14.8854 0.0195312H3.60379C1.83403 0.0195312 0.914062 0.998045 0.914062 2.89851V13.6875C0.914062 15.5865 1.83403 16.5665 3.60379 16.5665ZM3.58116 14.8297C2.89273 14.8297 2.52048 14.4482 2.52048 13.6684V5.47787C2.52048 4.70537 2.89273 4.31815 3.58116 4.31815H14.8946C15.583 4.31815 15.962 4.70537 15.962 5.47787V13.6684C15.962 14.4482 15.583 14.8297 14.8946 14.8297H3.58116ZM7.6671 7.39058H8.15089C8.44224 7.39058 8.53691 7.29714 8.53691 6.98208V6.45904C8.53691 6.14398 8.44224 6.04327 8.15089 6.04327H7.6671C7.37569 6.04327 7.27434 6.14398 7.27434 6.45904V6.98208C7.27434 7.29714 7.37569 7.39058 7.6671 7.39058ZM10.3465 7.39058H10.8303C11.1217 7.39058 11.2245 7.29714 11.2245 6.98208V6.45904C11.2245 6.14398 11.1217 6.04327 10.8303 6.04327H10.3465C10.0551 6.04327 9.95377 6.14398 9.95377 6.45904V6.98208C9.95377 7.29714 10.0551 7.39058 10.3465 7.39058ZM13.0274 7.39058H13.5112C13.8026 7.39058 13.9039 7.29714 13.9039 6.98208V6.45904C13.9039 6.14398 13.8026 6.04327 13.5112 6.04327H13.0274C12.736 6.04327 12.6414 6.14398 12.6414 6.45904V6.98208C12.6414 7.29714 12.736 7.39058 13.0274 7.39058ZM4.98769 10.2431H5.46325C5.76287 10.2431 5.85748 10.1497 5.85748 9.83465V9.31162C5.85748 8.99655 5.76287 8.90312 5.46325 8.90312H4.98769C4.68808 8.90312 4.59346 8.99655 4.59346 9.31162V9.83465C4.59346 10.1497 4.68808 10.2431 4.98769 10.2431ZM7.6671 10.2431H8.15089C8.44224 10.2431 8.53691 10.1497 8.53691 9.83465V9.31162C8.53691 8.99655 8.44224 8.90312 8.15089 8.90312H7.6671C7.37569 8.90312 7.27434 8.99655 7.27434 9.31162V9.83465C7.27434 10.1497 7.37569 10.2431 7.6671 10.2431ZM10.3465 10.2431H10.8303C11.1217 10.2431 11.2245 10.1497 11.2245 9.83465V9.31162C11.2245 8.99655 11.1217 8.90312 10.8303 8.90312H10.3465C10.0551 8.90312 9.95377 8.99655 9.95377 9.31162V9.83465C9.95377 10.1497 10.0551 10.2431 10.3465 10.2431ZM13.0274 10.2431H13.5112C13.8026 10.2431 13.9039 10.1497 13.9039 9.83465V9.31162C13.9039 8.99655 13.8026 8.90312 13.5112 8.90312H13.0274C12.736 8.90312 12.6414 8.99655 12.6414 9.31162V9.83465C12.6414 10.1497 12.736 10.2431 13.0274 10.2431ZM4.98769 13.103H5.46325C5.76287 13.103 5.85748 13.0039 5.85748 12.6873V12.1658C5.85748 11.8491 5.76287 11.7573 5.46325 11.7573H4.98769C4.68808 11.7573 4.59346 11.8491 4.59346 12.1658V12.6873C4.59346 13.0039 4.68808 13.103 4.98769 13.103ZM7.6671 13.103H8.15089C8.44224 13.103 8.53691 13.0039 8.53691 12.6873V12.1658C8.53691 11.8491 8.44224 11.7573 8.15089 11.7573H7.6671C7.37569 11.7573 7.27434 11.8491 7.27434 12.1658V12.6873C7.27434 13.0039 7.37569 13.103 7.6671 13.103ZM10.3465 13.103H10.8303C11.1217 13.103 11.2245 13.0039 11.2245 12.6873V12.1658C11.2245 11.8491 11.1217 11.7573 10.8303 11.7573H10.3465C10.0551 11.7573 9.95377 11.8491 9.95377 12.1658V12.6873C9.95377 13.0039 10.0551 13.103 10.3465 13.103Z" fill="black"/>
</svg>
