<svg width="20" height="20" viewBox="0 0 20 20" fill="none" xmlns="http://www.w3.org/2000/svg">
<path d="M13.3017 17.0137C14.5731 17.0137 15.4307 16.6499 16.2 15.8021C16.2566 15.7455 16.3119 15.6829 16.3627 15.625C16.7868 15.1462 16.9987 14.6474 16.9987 14.1845C16.9987 13.6435 16.7036 13.153 16.0564 12.7027L13.9019 11.2058C13.2214 10.7359 12.4414 10.6957 11.8317 11.302L11.2923 11.8428C11.1036 12.0328 10.9287 12.0426 10.7199 11.8943C10.3274 11.6337 9.58364 10.9822 9.07377 10.4736C8.55318 9.95894 8.03346 9.36476 7.74376 8.92417C7.60528 8.70934 7.61253 8.54175 7.80127 8.3517L8.33606 7.81228C8.94967 7.20261 8.91067 6.41665 8.43948 5.74339L6.91262 3.55759C6.47531 2.93256 5.96529 2.63692 5.42297 2.63098C4.95626 2.62505 4.47044 2.82986 3.9904 3.25138C3.92783 3.30671 3.86989 3.35611 3.81846 3.40159C2.95631 4.19117 2.58984 5.03709 2.58984 6.34611C2.58984 8.48135 3.82803 11.0004 6.23515 13.3945C8.62909 15.7742 11.1267 17.0137 13.3017 17.0137ZM13.2985 15.8046C11.4529 15.8355 9.14589 14.5125 7.14756 12.5331C5.13733 10.5406 3.77254 8.15515 3.80354 6.30961C3.81542 5.52988 4.09527 4.84835 4.64324 4.37281C4.69785 4.32544 4.74188 4.28402 4.79649 4.24519C5.00203 4.06993 5.22076 3.97635 5.42167 3.97635C5.6304 3.97635 5.82001 4.05993 5.96022 4.27721L7.32616 6.3183C7.4939 6.56628 7.50056 6.84714 7.25519 7.08861L6.66999 7.66859C6.12593 8.20353 6.16997 8.82492 6.52166 9.31668C6.91363 9.86654 7.64368 10.6946 8.25741 11.2972C8.90041 11.941 9.79371 12.7375 10.3273 13.1224C10.8204 13.4753 11.4418 13.5194 11.9754 12.9741L12.5554 12.3901C12.7969 12.1434 13.0718 12.1528 13.327 12.3132L15.3368 13.6479C15.558 13.7941 15.6377 13.9777 15.6377 14.1911C15.6377 14.392 15.5454 14.6107 15.3688 14.8176C15.3241 14.8721 15.2886 14.9162 15.2412 14.9708C14.7657 15.5188 14.0841 15.7927 13.2985 15.8046Z" fill="#1A2233" fill-opacity="0.6"/>
</svg>
