<svg width="18" height="18" viewBox="0 0 18 18" xmlns="http://www.w3.org/2000/svg">
<path d="M3.85808 15.0006H14.1409C15.3598 15.0006 16 14.3084 16 12.9822V6.46019C16 5.13398 15.3598 4.44682 14.1409 4.44682H12.5882C12.1438 4.44682 11.9997 4.35856 11.7275 4.04443L11.2795 3.51191C10.984 3.1723 10.688 2.99927 10.1107 2.99927H7.85578C7.27948 2.99927 6.98247 3.1723 6.68803 3.51191L6.23897 4.04443C5.96675 4.35346 5.81903 4.44682 5.37825 4.44682H3.85808C2.63552 4.44682 2 5.13398 2 6.46019V12.9822C2 14.3084 2.63552 15.0006 3.85808 15.0006ZM3.92242 13.783C3.40506 13.783 3.10972 13.4838 3.10972 12.8799V6.56759C3.10972 5.96372 3.40506 5.66451 3.92242 5.66451H5.69963C6.20941 5.66451 6.47471 5.56444 6.75997 5.22086L7.19055 4.69741C7.50728 4.31417 7.68337 4.21696 8.17672 4.21696H9.78974C10.2841 4.21696 10.4591 4.31529 10.7718 4.69405L11.2075 5.22086C11.4928 5.56333 11.7581 5.66451 12.2668 5.66451H14.0719C14.5949 5.66451 14.8902 5.96372 14.8902 6.56759V12.8799C14.8902 13.4838 14.5949 13.783 14.0719 13.783H3.92242ZM8.99947 12.9551C10.6937 12.9551 12.0559 11.4655 12.0559 9.58998C12.0559 7.72067 10.6984 6.23112 8.99947 6.23112C7.30259 6.23112 5.93945 7.72067 5.93945 9.58998C5.93945 11.4655 7.30259 12.9551 8.99947 12.9551ZM8.99947 11.8448C7.87129 11.8448 6.94665 10.8444 6.94665 9.58998C6.94665 8.33957 7.86665 7.33631 8.99947 7.33631C10.1344 7.33631 11.0487 8.33957 11.0487 9.58998C11.0487 10.8444 10.1344 11.8448 8.99947 11.8448ZM12.2514 7.3587C12.2514 7.80941 12.5855 8.1647 12.9916 8.1647C13.3828 8.1647 13.7215 7.80432 13.7215 7.3587C13.7215 6.93058 13.3818 6.55778 12.9916 6.55778C12.5865 6.55778 12.2514 6.93058 12.2514 7.3587Z"/>
</svg>
