<svg width="22" height="15" viewBox="0 0 22 15" fill="none" xmlns="http://www.w3.org/2000/svg">
<path d="M10.4112 0.904297C10.3958 0.925988 10.3946 0.94058 10.4278 0.939791C10.4522 0.939397 10.4771 0.939791 10.5015 0.939791C10.7882 0.944129 11.0753 0.944129 11.362 0.955172C11.5226 0.961482 11.6831 0.952411 11.8436 0.968581C12.2545 1.0096 12.5708 1.20403 12.7913 1.55187C12.8895 1.70686 12.9743 1.86974 13.061 2.03143C13.08 2.06653 13.063 2.09138 13.046 2.11701C12.9652 2.24164 12.9029 2.37454 12.8615 2.51731C12.8445 2.57528 12.8339 2.63523 12.8193 2.69399C12.8165 2.70543 12.8193 2.72396 12.8003 2.72357C12.7877 2.72357 12.7838 2.70937 12.7787 2.69951C12.6367 2.4337 12.484 2.17341 12.3468 1.90484C12.2174 1.65165 12.0005 1.53609 11.7245 1.52781C11.4346 1.51874 11.1439 1.52308 10.8541 1.51519C10.438 1.50375 10.0215 1.50139 9.60508 1.49389C9.27223 1.48837 8.93937 1.48561 8.60691 1.47378C8.33282 1.46432 8.05951 1.47575 7.78621 1.4797C7.56811 1.48285 7.35002 1.48048 7.13233 1.48798C6.76674 1.5002 6.40115 1.49784 6.03595 1.50809C5.66208 1.51835 5.2886 1.52387 4.91473 1.52781C4.64221 1.53097 4.447 1.66466 4.31803 1.90247C4.09284 2.31696 3.86647 2.73106 3.6401 3.14476C3.32933 3.71228 3.01816 4.27979 2.7066 4.84691C2.66874 4.91592 2.6293 4.98375 2.59026 5.05238C2.49245 5.22393 2.5804 5.38129 2.77798 5.38563C2.87303 5.38799 2.96808 5.38681 3.06351 5.38681C6.19922 5.38681 9.33493 5.38681 12.4706 5.38681C12.5886 5.38681 12.7065 5.39075 12.8244 5.39352C12.835 5.39352 12.8492 5.3876 12.854 5.40298C12.8571 5.41284 12.8504 5.42152 12.8445 5.4298C12.7996 5.49645 12.7534 5.56191 12.7112 5.63014C12.6852 5.67195 12.6513 5.69561 12.6032 5.70626C12.3263 5.7666 12.0498 5.82891 11.773 5.89004C11.3076 5.99297 10.8419 6.09551 10.3765 6.19844C10.0318 6.27456 9.81568 6.48082 9.73957 6.82827C9.73089 6.8681 9.7301 6.90951 9.72576 6.95013C9.723 6.97695 9.70801 6.99114 9.68356 7.00455C9.56683 7.06844 9.46508 7.15166 9.39251 7.26327C9.29313 7.4155 9.32389 7.59533 9.46389 7.71365C9.60035 7.8292 9.76244 7.89151 9.93636 7.91833C10.2459 7.96605 10.5544 7.95304 10.8576 7.8714C11.0619 7.81619 11.2536 7.73337 11.4169 7.59415C11.4736 7.54564 11.5198 7.48885 11.5608 7.42733C11.5699 7.41352 11.5766 7.38868 11.5995 7.39814C11.6196 7.40643 11.614 7.4293 11.6125 7.44665C11.601 7.57364 11.5324 7.66908 11.4425 7.75269C11.3187 7.86785 11.1688 7.93765 11.013 7.99563C10.6904 8.11473 10.3568 8.15299 10.0164 8.11276C9.81962 8.08949 9.63072 8.03428 9.47257 7.90492C9.42248 7.86391 9.38462 7.81343 9.34597 7.75072C9.32823 7.85799 9.35426 7.94318 9.41893 8.01732C9.5199 8.13287 9.6528 8.19597 9.79675 8.23541C10.0286 8.29891 10.2649 8.3064 10.5039 8.2855C10.8071 8.25907 11.0872 8.16718 11.3423 8.00115C11.4046 7.96053 11.4606 7.9136 11.5076 7.85523C11.5734 7.77359 11.6168 7.68367 11.6081 7.57601C11.6046 7.53342 11.6168 7.5137 11.6637 7.50344C12.2096 7.38474 12.755 7.26366 13.3004 7.14259C13.5083 7.09644 13.6735 6.98681 13.793 6.80973C13.8932 6.66184 13.9925 6.51355 14.0923 6.36527C14.0994 6.35501 14.1026 6.33726 14.1184 6.33963C14.1345 6.3416 14.1329 6.35935 14.1361 6.37158C14.2773 6.90517 14.4181 7.43837 14.5597 7.97157C14.5672 8.00036 14.562 8.02087 14.5419 8.04256C14.2335 8.38212 13.9247 8.72168 13.6183 9.06282C13.3994 9.30655 13.1797 9.54988 12.9581 9.79124C12.7727 9.99316 12.6781 10.2298 12.6726 10.5086C12.6674 10.7768 12.6619 11.0454 12.6513 11.3139C12.6493 11.3648 12.63 11.3794 12.5795 11.3794C11.7694 11.3774 10.959 11.3766 10.1489 11.3766C7.57403 11.3766 4.99913 11.3766 2.42462 11.3762C2.27239 11.3762 2.11898 11.3924 1.96872 11.3577C1.47259 11.2429 1.12041 10.8505 1.04903 10.3864C1.03325 10.2838 1.03049 10.1813 1.03049 10.078C1.03049 9.23398 1.03443 8.3904 1.02931 7.54643C1.02615 6.99785 1.163 6.4891 1.42171 6.00756C1.60707 5.66248 1.79795 5.32095 1.98489 4.97705C2.01565 4.92026 2.01486 4.91987 1.95215 4.91987C1.70133 4.91987 1.45011 4.91789 1.19928 4.92105C1.10897 4.92223 1.05021 4.88279 1.00998 4.80668C0.952403 4.69862 0.935445 4.58031 0.926374 4.46081C0.912965 4.2857 0.927163 4.11415 1.00131 3.95127C1.04153 3.86332 1.10621 3.82073 1.20638 3.82152C1.65243 3.82389 2.09847 3.82152 2.54451 3.82389C2.59775 3.82389 2.62694 3.80732 2.65218 3.76118C2.86396 3.37114 3.07692 2.98149 3.29147 2.59263C3.48629 2.24006 3.6677 1.8792 3.88343 1.53885C4.10152 1.19456 4.42097 1.00762 4.82836 0.969764C4.99203 0.954777 5.15609 0.959116 5.31976 0.956355C5.66721 0.950439 6.01465 0.935453 6.3625 0.94058C6.38537 0.94058 6.41732 0.948862 6.40588 0.90548H10.4108L10.4112 0.904297ZM8.32019 9.62599C7.69865 9.62599 7.07751 9.62599 6.45596 9.62599C6.41179 9.62599 6.36723 9.6252 6.32306 9.62718C6.26548 9.62954 6.23669 9.65439 6.2217 9.70921C6.21421 9.73642 6.21224 9.76402 6.21263 9.79203C6.2146 9.95412 6.21934 10.1162 6.21776 10.2783C6.21697 10.3552 6.21382 10.4321 6.22091 10.5086C6.22722 10.5733 6.2639 10.6104 6.32819 10.6147C6.36565 10.6175 6.40351 10.6171 6.44137 10.6171C7.58271 10.6171 8.72364 10.6171 9.86498 10.6171C10.0109 10.6171 10.1568 10.6179 10.3027 10.6163C10.4112 10.6151 10.4471 10.578 10.4471 10.47C10.4471 10.244 10.4475 10.018 10.4471 9.79163C10.4471 9.6674 10.4049 9.6256 10.2826 9.6256C9.62835 9.6256 8.97447 9.62599 8.32019 9.62599ZM2.72277 6.18543C2.2929 6.16886 2.00382 6.56246 2.02551 6.88348C2.04444 7.16231 2.2156 7.41155 2.48299 7.50542C2.59696 7.54525 2.71488 7.54328 2.83241 7.54998C3.10216 7.56497 3.37192 7.58114 3.64128 7.59691C3.78838 7.60559 3.93549 7.61505 4.08259 7.62373C4.21155 7.63122 4.34091 7.64187 4.46987 7.64424C4.59883 7.6466 4.71872 7.55944 4.76684 7.43837C4.81771 7.3102 4.78892 7.16625 4.69624 7.07436C4.64498 7.02348 4.58187 6.99272 4.51798 6.96314C4.02738 6.73559 3.53716 6.50842 3.05168 6.27022C2.94638 6.21856 2.83793 6.17833 2.72277 6.18543ZM12.6954 7.98143C12.6686 7.96763 12.6501 7.97354 12.6339 7.97709C12.5704 7.99011 12.5065 7.98814 12.4426 7.98537C12.3717 7.98222 12.3026 7.96723 12.2451 7.92109C12.1985 7.88402 12.1898 7.84379 12.2163 7.79095C12.2514 7.72153 12.3137 7.6821 12.3791 7.6466C12.3906 7.64029 12.4083 7.64069 12.4115 7.61663C12.2715 7.63043 12.1473 7.67263 12.0431 7.7661C12.0159 7.79055 11.9966 7.82092 11.9812 7.85405C11.9445 7.93174 11.9607 7.99721 12.0297 8.04848C12.055 8.06701 12.0834 8.07924 12.1133 8.0891C12.195 8.11631 12.279 8.11315 12.3618 8.10605C12.4809 8.0958 12.5909 8.05557 12.6954 7.98143ZM9.36964 6.68629C9.31797 6.69181 9.26631 6.69773 9.21465 6.70246C9.12828 6.71035 9.04349 6.70167 8.96461 6.66499C8.87233 6.62201 8.85655 6.54274 8.92202 6.46504C8.95081 6.43113 8.98394 6.40194 9.02377 6.38104C9.05256 6.36605 9.08056 6.3491 9.10895 6.33293C9.06873 6.33174 9.03126 6.33648 8.99498 6.34515C8.87785 6.37315 8.77097 6.42245 8.69328 6.5175C8.60218 6.62911 8.63373 6.73677 8.76781 6.78962C8.84945 6.82196 8.93424 6.82432 9.01943 6.8188C9.1476 6.81052 9.2671 6.77424 9.36964 6.68629ZM9.08766 8.28471C9.04704 8.27445 9.01982 8.28313 8.99379 8.29062C8.87114 8.32572 8.75283 8.36911 8.67908 8.48348C8.61795 8.57813 8.64043 8.66292 8.73784 8.71892C8.8183 8.76546 8.90545 8.76979 8.99458 8.76664C9.11171 8.7623 9.21938 8.72641 9.32073 8.67002C9.3302 8.66489 9.34479 8.65937 9.34045 8.64557C9.33611 8.63097 9.32152 8.63689 9.31048 8.63807C9.27459 8.64202 9.2391 8.64833 9.20321 8.64951C9.11211 8.65227 9.02258 8.64399 8.94292 8.59508C8.87509 8.55367 8.86207 8.49491 8.90269 8.42747C8.92438 8.39198 8.95436 8.36437 8.98985 8.34308C9.01903 8.32572 9.04861 8.30798 9.08766 8.28471Z" fill="#0B0E15"/>
<path d="M21.0781 4.01136C21.0355 4.02161 21.0083 4.0575 20.9677 4.07288C20.8443 4.1206 20.7157 4.14387 20.5855 4.16083C20.511 4.17029 20.4361 4.18015 20.3615 4.18844C20.3292 4.19198 20.2984 4.19632 20.274 4.16201C20.0851 3.89738 19.8287 3.81417 19.5152 3.88082C19.2991 3.92696 19.0818 3.96719 18.8649 4.00939C18.7978 4.0224 18.7919 4.01728 18.7919 3.94786C18.7919 3.8118 18.7935 3.67614 18.7911 3.54008C18.7899 3.47579 18.8179 3.43517 18.8739 3.40835C18.9879 3.35393 19.1102 3.33184 19.2332 3.31173C19.5531 3.25928 19.8749 3.25455 20.1983 3.26835C20.41 3.27742 20.6195 3.29911 20.8257 3.34801C20.9168 3.3697 21.0059 3.39731 21.0785 3.46081L21.0781 4.01136ZM19.8993 3.56768C20.1919 3.56847 20.4404 3.56098 20.6877 3.52706C20.7299 3.52115 20.7713 3.51168 20.8107 3.49472C20.8214 3.49038 20.8328 3.48486 20.8344 3.47185C20.8364 3.45568 20.823 3.44937 20.8115 3.44345C20.7819 3.42886 20.7504 3.4194 20.7181 3.41427C20.5319 3.38469 20.3438 3.37286 20.1557 3.36616C19.8689 3.3563 19.5822 3.36734 19.2967 3.39534C19.2237 3.40244 19.1496 3.40914 19.0798 3.43478C19.0624 3.44109 19.0364 3.44385 19.0376 3.46869C19.0384 3.48999 19.0617 3.49275 19.0782 3.49867C19.1169 3.51286 19.1567 3.52115 19.1977 3.52627C19.445 3.55664 19.6935 3.57163 19.8993 3.56768Z" fill="#0B0E15"/>
<path d="M15.907 9.21122C15.84 9.28655 15.7734 9.36187 15.7059 9.43681C15.5667 9.5914 15.4271 9.746 15.2871 9.89941C15.0552 10.1534 14.8217 10.4062 14.5957 10.6657C14.5752 10.689 14.5563 10.715 14.5322 10.7343C14.4715 10.7824 14.4565 10.8428 14.4561 10.9193C14.4553 11.3334 14.4317 11.7475 14.4258 12.1616C14.4226 12.3694 14.4124 12.5772 14.4076 12.7851C14.4005 13.0844 14.4001 13.3849 14.3761 13.6831C14.3473 14.0424 14.0641 14.3673 13.6477 14.3748C13.2781 14.3815 12.9744 14.1378 12.8952 13.8022C12.8755 13.7178 12.8688 13.6318 12.8755 13.5439C12.8841 13.4248 12.8818 13.3049 12.8861 13.1854C12.8975 12.873 12.9003 12.5599 12.9109 12.2475C12.9184 12.0235 12.924 11.7991 12.9291 11.5747C12.9374 11.2344 12.9488 10.894 12.9591 10.5533C12.9658 10.3261 13.0462 10.1317 13.2012 9.96291C13.484 9.65529 13.7604 9.34176 14.0405 9.03217C14.2791 8.76833 14.5192 8.50607 14.7586 8.24341C14.7819 8.21778 14.8012 8.1882 14.828 8.1673C14.8923 8.11682 14.8919 8.05963 14.8718 7.98549C14.6651 7.21369 14.4616 6.4411 14.2574 5.66891C14.2534 5.65353 14.2542 5.63105 14.2372 5.6275C14.2183 5.62355 14.2132 5.64682 14.2053 5.65944C14.0038 5.97219 13.7932 6.27862 13.5857 6.58742C13.4848 6.73807 13.3554 6.82838 13.1776 6.86703C12.3947 7.03701 11.613 7.2129 10.831 7.38525C10.7241 7.40891 10.6188 7.44401 10.508 7.44519C10.2875 7.44756 10.1045 7.31662 10.0422 7.11391C9.97992 6.91238 10.06 6.69153 10.2363 6.56928C10.3116 6.51682 10.3976 6.49868 10.4839 6.47936C11.0278 6.35868 11.5716 6.23918 12.1155 6.1185C12.3442 6.06763 12.5726 6.01557 12.8013 5.96469C12.8388 5.95641 12.8636 5.93748 12.8853 5.90475C13.1594 5.49459 13.4351 5.08562 13.71 4.67626C13.8334 4.49247 13.9592 4.31067 14.0775 4.12373C14.1789 3.96401 14.3189 3.87685 14.5042 3.83859C14.9022 3.75617 15.2973 3.6627 15.6937 3.57239C16.034 3.49509 16.374 3.417 16.7139 3.33773C16.8611 3.30342 16.9944 3.32945 17.1127 3.42213C17.4648 3.6978 17.817 3.97426 18.1672 4.25269C18.2189 4.29371 18.267 4.30909 18.3337 4.29489C18.6492 4.22824 18.9659 4.16514 19.2825 4.10283C19.4044 4.07877 19.5278 4.06024 19.6497 4.03618C19.8974 3.98806 20.216 4.19551 20.1975 4.54335C20.1853 4.76736 20.0255 4.94286 19.7952 4.98703C19.3689 5.06827 18.9434 5.15345 18.517 5.23588C18.3995 5.25836 18.2836 5.28833 18.1649 5.30292C18.0446 5.31791 17.9369 5.28715 17.8419 5.21458C17.7224 5.12269 17.6056 5.02725 17.4857 4.93536C17.4652 4.91959 17.4439 4.88252 17.4183 4.89947C17.3978 4.91328 17.4207 4.94798 17.427 4.97204C17.554 5.45318 17.6806 5.93472 17.8099 6.41507C17.9097 6.78658 17.9984 7.16124 18.1116 7.52919C18.1688 7.71495 18.1313 7.89242 18.0572 8.06516C17.9515 8.31204 17.8427 8.55773 17.7354 8.80383C17.5362 9.2621 17.3375 9.72036 17.1383 10.1782C17.0784 10.3163 17.018 10.4543 16.9553 10.5912C16.9407 10.6231 16.9439 10.6495 16.9577 10.6795C17.1202 11.0265 17.2834 11.3736 17.4443 11.7214C17.6616 12.1911 17.877 12.6616 18.0935 13.1317C18.1286 13.2075 18.1664 13.282 18.2012 13.3581C18.4181 13.8369 18.1341 14.3531 17.6135 14.4261C17.3075 14.4691 17.0105 14.3117 16.8559 14.0238C16.7333 13.7955 16.6323 13.5573 16.5231 13.3226C16.3255 12.8979 16.1291 12.4723 15.9323 12.0476C15.767 11.6907 15.6022 11.3342 15.4366 10.9776C15.3198 10.7268 15.3486 10.4847 15.463 10.2394C15.618 9.90691 15.7611 9.56892 15.9094 9.23331C15.9118 9.22778 15.913 9.22187 15.9145 9.21595L15.907 9.21122Z" fill="#0B0E15"/>
<path d="M13.0863 2.99079C13.0859 2.35781 13.5473 1.80844 14.1689 1.67672C14.8669 1.52882 15.6068 1.99537 15.757 2.74706C15.7961 2.94228 15.7854 3.13355 15.7413 3.32601C15.7314 3.3686 15.7109 3.38911 15.6679 3.39857C15.2507 3.49086 14.8342 3.58788 14.4161 3.6774C14.2154 3.72039 14.0608 3.82214 13.9516 3.99488C13.9157 4.05167 13.8766 4.10649 13.84 4.16249C13.8222 4.19009 13.8041 4.19404 13.7749 4.17629C13.3683 3.93414 13.138 3.57841 13.0867 3.10831C13.0824 3.06966 13.0863 3.03022 13.0863 2.99079Z" fill="#0B0E15"/>
<path d="M2.23128 13.048C1.99663 13.048 1.76237 13.048 1.52771 13.048C1.37509 13.048 1.31514 12.9881 1.31514 12.8382C1.31514 12.3878 1.31514 11.9371 1.31514 11.4867C1.31514 11.4693 1.30686 11.4457 1.32303 11.4358C1.34353 11.424 1.35734 11.448 1.37311 11.4579C1.58371 11.5869 1.80575 11.6831 2.05657 11.6981C2.36458 11.7162 2.67299 11.702 2.981 11.7064C3.02201 11.7072 3.06303 11.7083 3.10404 11.7068C3.14033 11.7056 3.15334 11.7213 3.15255 11.7568C3.15097 11.8468 3.15137 11.9371 3.15137 12.027C3.15137 12.3007 3.15176 12.574 3.15216 12.8477C3.15216 12.9818 3.08866 13.0469 2.95378 13.0473C2.71282 13.048 2.47185 13.0473 2.23049 13.0473L2.23128 13.048Z" fill="#0B0E15"/>
<path d="M15.3535 12.1987C15.3535 12.4133 15.3535 12.6278 15.3535 12.8427C15.3535 12.9796 15.2888 13.0466 15.1531 13.0478C15.0171 13.049 14.881 13.047 14.7449 13.0486C14.702 13.049 14.6874 13.0332 14.6885 12.991C14.7 12.6128 14.7102 12.235 14.7209 11.8568C14.7217 11.8339 14.7268 11.811 14.7272 11.7882C14.7284 11.6706 14.7319 11.686 14.8333 11.6616C14.993 11.6233 15.1397 11.5567 15.2774 11.4679C15.3263 11.4364 15.3424 11.4431 15.3499 11.5007C15.3531 11.5267 15.3527 11.5531 15.3527 11.5791C15.3527 11.7854 15.3535 11.9925 15.3535 12.1987Z" fill="#0B0E15"/>
<path d="M8.33052 2.16547C8.0584 2.16547 7.78628 2.16547 7.51416 2.16547C7.45066 2.16547 7.44869 2.1631 7.44829 2.09842C7.44751 1.99194 7.4475 1.88546 7.44672 1.77898C7.44672 1.7143 7.45027 1.70996 7.51652 1.70996C7.90183 1.70996 8.28714 1.70996 8.67245 1.70996C8.82823 1.70996 8.98401 1.70996 9.13979 1.71036C9.21669 1.71075 9.22142 1.71588 9.22182 1.79041C9.22182 1.89532 9.21984 2.00022 9.22182 2.10473C9.22261 2.15206 9.20407 2.16665 9.15753 2.16626C8.88226 2.16468 8.6058 2.16547 8.33052 2.16547Z" fill="#0B0E15"/>
<path d="M14.7479 11.1959C14.7479 11.1175 14.7479 11.0394 14.7479 10.9609C14.7479 10.9349 14.7585 10.9136 14.7759 10.895C14.8634 10.8 14.9506 10.7049 15.0382 10.6099C15.0445 10.6028 15.0504 10.5921 15.0618 10.5969C15.0729 10.6012 15.0705 10.6134 15.0701 10.6229C15.0658 10.7878 15.1005 10.9439 15.1711 11.0926C15.1825 11.1171 15.1758 11.1317 15.1557 11.1462C15.0417 11.2275 14.9179 11.289 14.785 11.3336C14.7506 11.345 14.7361 11.3363 14.7376 11.2989C14.7392 11.2646 14.7376 11.2302 14.7376 11.1959C14.7412 11.1959 14.7443 11.1959 14.7479 11.1959Z" fill="#0B0E15"/>
</svg>
