<svg width="20" height="15" viewBox="0 0 20 15" fill="none" xmlns="http://www.w3.org/2000/svg">
<path d="M19.65 5.4029C19.6258 5.41763 19.6303 5.44406 19.6254 5.46596C19.6099 5.53658 19.5926 5.60645 19.5533 5.66876C19.5136 5.73183 19.4608 5.76544 19.3826 5.76468C19.122 5.76241 18.8611 5.76393 18.6005 5.76393C18.5208 5.76393 18.5193 5.76506 18.5604 5.83606C18.7719 6.20124 18.9709 6.57359 19.1711 6.9452C19.3497 7.27639 19.46 7.63175 19.5129 8.00562C19.5363 8.17103 19.5408 8.33644 19.5404 8.5026C19.5397 9.39535 19.537 10.2885 19.5412 11.1812C19.5438 11.7292 19.1768 12.2794 18.5333 12.3969C18.4592 12.4105 18.3845 12.4188 18.3086 12.4188C14.2693 12.4188 10.2304 12.4184 6.1911 12.4184C6.18015 12.4184 6.16919 12.4176 6.15824 12.4184C6.11935 12.4214 6.10726 12.4033 6.10613 12.3651C6.10235 12.2148 6.0948 12.0642 6.09027 11.9139C6.08498 11.7383 6.08234 11.5627 6.07743 11.387C6.06836 11.0502 6.06005 10.713 6.04835 10.3761C6.03815 10.0793 5.91164 9.83342 5.70734 9.62269C5.46715 9.37458 5.24661 9.10834 5.01096 8.85608C4.86632 8.70124 4.72962 8.53923 4.58309 8.38629C4.534 8.33493 4.51813 8.2813 4.5238 8.21295C4.55892 7.78281 4.66844 7.37382 4.8667 6.989C5.06685 6.60116 5.2806 6.22125 5.49434 5.84097C5.5233 5.78935 5.50844 5.76355 5.44978 5.76355C5.20016 5.76355 4.95054 5.76355 4.70054 5.76355C4.64276 5.76355 4.64011 5.75939 4.65446 5.70501C4.69676 5.54754 4.73868 5.39006 4.78022 5.2322C4.7991 5.16158 4.79797 5.16309 4.86217 5.19293C5.17712 5.3387 5.47811 5.51204 5.79117 5.66158C5.87048 5.69935 5.87048 5.70048 5.8278 5.77903C5.74359 5.93311 5.65824 6.08681 5.57403 6.24089C5.5559 6.27375 5.53475 6.30547 5.52758 6.34323C5.50605 6.45653 5.57667 6.54716 5.69525 6.55736C5.72962 6.56038 5.76436 6.55924 5.79873 6.55924C7.12275 6.55924 8.44639 6.55924 9.77041 6.55924C9.81044 6.55924 9.85198 6.56793 9.88899 6.54112C9.89692 6.53545 9.91316 6.53961 9.92562 6.54112C10.034 6.55736 10.1416 6.55471 10.2478 6.52828C10.3297 6.50788 10.3969 6.46408 10.4528 6.40139C10.4774 6.3742 10.4883 6.34172 10.4864 6.30622C10.4838 6.2643 10.5057 6.25033 10.5434 6.25033C10.625 6.25033 10.7066 6.24995 10.7885 6.24995C13.0703 6.24995 15.3524 6.24995 17.6341 6.24995C17.6798 6.24995 17.7251 6.24995 17.7708 6.24807C17.9294 6.24165 18.0242 6.08908 17.954 5.94595C17.8988 5.83341 17.8342 5.72541 17.7738 5.61551C17.5148 5.14383 17.2557 4.67216 16.9966 4.20048C16.7111 3.68046 16.4271 3.16007 16.1398 2.64119C16.0083 2.4044 15.8018 2.28545 15.5314 2.28016C15.2614 2.27449 14.9913 2.27525 14.7217 2.26619C14.5491 2.26052 14.3765 2.2643 14.2036 2.2609C13.8301 2.25335 13.4562 2.25221 13.0831 2.23937C12.5604 2.22162 12.0378 2.22049 11.5151 2.22578C11.17 2.22918 10.8248 2.24315 10.4792 2.24353C10.3939 2.24353 10.3939 2.24504 10.3935 2.15894C10.3931 2.02185 10.338 1.94557 10.2047 1.90591C10.0997 1.87495 9.9936 1.87721 9.88937 1.90931C9.83159 1.92706 9.77834 1.95614 9.74586 2.00977C9.72056 2.05131 9.68619 2.06301 9.63937 2.06301C9.12426 2.06188 8.60915 2.06717 8.09405 2.05962C7.93921 2.05735 7.84593 2.10229 7.76965 2.24542C7.43619 2.87117 7.08989 3.49013 6.74775 4.11136C6.73226 4.13968 6.72433 4.168 6.72358 4.20048C6.72206 4.26581 6.70129 4.32661 6.67297 4.38515C6.64729 4.43764 6.64314 4.43877 6.59178 4.41272C6.3482 4.28923 6.10462 4.16611 5.86066 4.043C5.73868 3.98145 5.61632 3.92102 5.49434 3.85909C5.4815 3.85267 5.45771 3.85078 5.46187 3.8319C5.46564 3.81415 5.4883 3.82095 5.50303 3.81793C5.6994 3.77601 5.89616 3.73522 6.09215 3.69217C6.26927 3.65327 6.42939 3.6816 6.56421 3.80924C6.59404 3.83756 6.60424 3.82019 6.61821 3.79451C6.76587 3.52148 6.91391 3.24806 7.0627 2.9754C7.18581 2.74957 7.30704 2.52223 7.44223 2.3032C7.66051 1.9501 7.98566 1.76052 8.39163 1.70236C8.45961 1.69255 8.52947 1.69292 8.5982 1.69179C8.909 1.68764 9.2198 1.68688 9.5306 1.68008C9.88861 1.67253 10.2462 1.668 10.6042 1.66045C10.9275 1.65365 11.2508 1.65025 11.574 1.64119C11.8127 1.63439 12.0514 1.63137 12.2897 1.63628C12.7055 1.64496 13.1216 1.64874 13.5374 1.65629C13.8701 1.66196 14.2028 1.66838 14.5355 1.67442C14.8682 1.68046 15.2013 1.68197 15.5336 1.69406C16.0385 1.71218 16.4196 1.94292 16.6654 2.38665C16.8958 2.80244 17.1235 3.21974 17.3527 3.63628C17.5283 3.95501 17.7055 4.27299 17.8803 4.5921C17.8996 4.62722 17.9226 4.6393 17.9623 4.6393C18.4192 4.63817 18.8762 4.63855 19.3331 4.63855C19.4804 4.63855 19.5306 4.67216 19.5873 4.80849C19.6111 4.86627 19.622 4.92744 19.6341 4.99051C19.6401 4.98182 19.6443 4.97578 19.6488 4.96974V5.4029H19.65ZM12.0382 10.611C11.9626 10.611 11.8875 10.611 11.812 10.611C11.2107 10.611 10.6095 10.611 10.0079 10.611C9.90334 10.611 9.85538 10.648 9.85462 10.7405C9.85236 10.9947 9.85236 11.2488 9.85462 11.503C9.85538 11.5864 9.90598 11.6306 9.99057 11.6333C10.0045 11.6336 10.0189 11.6333 10.0329 11.6333C10.7912 11.6333 11.5495 11.6325 12.3078 11.6325C12.8916 11.6325 13.4759 11.6329 14.0597 11.6325C14.1632 11.6325 14.2028 11.5932 14.2039 11.4909C14.2047 11.4048 14.2039 11.3183 14.2039 11.2322C14.2039 11.066 14.2043 10.8995 14.2028 10.7333C14.2021 10.6476 14.1643 10.6129 14.0774 10.6114C14.0525 10.611 14.0272 10.6114 14.0019 10.6114C13.3471 10.6114 12.693 10.611 12.0382 10.611ZM8.0189 8.57284C8.19374 8.57549 8.33347 8.47805 8.37464 8.32851C8.42033 8.16272 8.35538 8.006 8.20432 7.91914C8.17977 7.90517 8.15485 7.89195 8.12917 7.88024C7.89578 7.77224 7.66089 7.66687 7.42901 7.55547C7.12501 7.4097 6.8229 7.25864 6.51285 7.12609C6.16466 6.97692 5.76889 7.10834 5.59631 7.4958C5.48226 7.75147 5.52267 8.00033 5.70469 8.2171C5.81723 8.35079 5.95771 8.4452 6.13672 8.45917C6.38974 8.47881 6.64351 8.49165 6.89691 8.50675C7.03136 8.51469 7.16617 8.52073 7.30099 8.52904C7.54193 8.54339 7.78325 8.55849 8.0189 8.57284ZM16.0495 8.57322C16.2734 8.56 16.4974 8.54716 16.7213 8.53281C16.8512 8.5245 16.9815 8.52186 17.1114 8.51317C17.3524 8.49694 17.5933 8.48221 17.8346 8.46861C18.0937 8.45426 18.298 8.33833 18.4279 8.11589C18.5359 7.9316 18.5503 7.72616 18.4766 7.52488C18.3373 7.1427 17.9022 6.96257 17.5276 7.12986C17.2953 7.23334 17.0672 7.3455 16.838 7.45539C16.6341 7.5532 16.4309 7.65139 16.2247 7.74391C16.0929 7.80283 15.9581 7.85683 15.8357 7.93349C15.6987 8.01959 15.6447 8.17858 15.6926 8.33191C15.7406 8.48485 15.8724 8.57473 16.0495 8.57322Z" fill="#0B0E15"/>
<path d="M4.0649 0.902344C4.04262 0.929534 4.06566 0.929534 4.08265 0.931422C4.1495 0.938598 4.21672 0.943507 4.28356 0.955214C4.85494 1.05567 5.32812 1.55227 5.39648 2.12893C5.46143 2.67727 5.25788 3.11232 4.82775 3.44918C4.78507 3.48241 4.74844 3.49147 4.69708 3.45899C4.51468 3.34419 4.30924 3.29585 4.10078 3.25167C3.71407 3.16934 3.32925 3.07946 2.94368 2.9926C2.94066 2.99185 2.93764 2.99034 2.93462 2.99034C2.81415 2.99034 2.76694 2.91632 2.72616 2.81285C2.48748 2.20446 2.72918 1.51904 3.24542 1.17085C3.44179 1.0383 3.65667 0.95748 3.89345 0.937087C3.91611 0.935199 3.93688 0.934443 3.92367 0.902344H4.0649Z" fill="#0B0E15"/>
<path d="M2.77742 9.07216C2.84729 9.23303 2.91753 9.39391 2.98739 9.55441C3.0818 9.77155 3.17621 9.9887 3.271 10.2058C3.36239 10.4151 3.3673 10.6247 3.27856 10.8361C3.17433 11.085 3.05575 11.3274 2.94283 11.5725C2.7204 12.0555 2.49759 12.5386 2.27327 13.0204C2.12032 13.349 1.97682 13.6817 1.81103 14.0042C1.69623 14.2274 1.51307 14.3633 1.26798 14.4162C0.906195 14.4944 0.470394 14.2886 0.36843 13.8195C0.330665 13.6454 0.354079 13.4789 0.426965 13.3195C0.654684 12.8233 0.884292 12.3282 1.11352 11.8327C1.3099 11.4086 1.50703 10.9849 1.70453 10.5612C1.71737 10.5333 1.71737 10.5087 1.70491 10.4804C1.44283 9.88296 1.17999 9.28553 0.920923 8.68696C0.793279 8.39202 0.656572 8.10048 0.541391 7.80025C0.472282 7.62012 0.48059 7.44149 0.534971 7.25682C0.623717 6.95622 0.701512 6.65259 0.779307 6.34897C0.881271 5.95131 0.991165 5.55516 1.09653 5.15825C1.25627 4.55667 1.41526 3.95508 1.57349 3.35312C1.61239 3.2047 1.68792 3.0865 1.83142 3.0189C1.86012 3.00531 1.88731 3.00342 1.91753 3.01059C2.47757 3.1371 3.03724 3.2655 3.59804 3.38748C3.82652 3.43695 4.05235 3.49775 4.28271 3.53892C4.34162 3.54949 4.396 3.57593 4.44925 3.60274C4.9485 3.85387 5.44888 4.10274 5.94623 4.35727C6.15847 4.46603 6.37222 4.57177 6.58294 4.68393C6.64525 4.71717 6.70416 4.72396 6.77214 4.71112C7.2948 4.61294 7.81746 4.51664 8.34012 4.41958C8.62977 4.36558 8.91943 4.30893 9.20946 4.25757C9.48665 4.20848 9.75591 4.42827 9.77781 4.70924C9.79518 4.93053 9.65281 5.16845 9.40017 5.2251C9.18755 5.27306 8.97229 5.30893 8.75817 5.34859C8.07954 5.47396 7.40054 5.59745 6.72229 5.72396C6.58332 5.74964 6.45794 5.72699 6.33218 5.66203C5.94699 5.46339 5.55877 5.27155 5.17169 5.07668C5.01043 4.99549 4.8488 4.91543 4.68868 4.83197C4.64789 4.81082 4.6343 4.82253 4.6241 4.86218C4.45114 5.52041 4.2778 6.17827 4.10409 6.83613C4.01421 7.17714 3.92395 7.51815 3.83256 7.85879C3.82312 7.89391 3.83029 7.91808 3.85371 7.94338C4.08936 8.20018 4.32463 8.4566 4.55877 8.71453C4.84238 9.02684 5.12448 9.34104 5.40809 9.65335C5.48173 9.73455 5.55613 9.81574 5.62524 9.90109C5.74155 10.045 5.8016 10.2089 5.81066 10.3939C5.82199 10.6258 5.81972 10.858 5.82841 11.0899C5.84163 11.4407 5.8522 11.792 5.859 12.1432C5.86466 12.4362 5.87524 12.7293 5.8877 13.0219C5.89487 13.1866 5.89034 13.3512 5.90054 13.5155C5.91413 13.7406 5.8522 13.9434 5.70039 14.1152C5.56821 14.2651 5.39865 14.3448 5.20378 14.3671C4.69245 14.4256 4.35522 13.9876 4.35144 13.602C4.34804 13.2538 4.33483 12.906 4.32312 12.5582C4.31557 12.3293 4.30952 12.1005 4.30386 11.8716C4.29631 11.5627 4.28309 11.2542 4.27591 10.9453C4.2744 10.8731 4.26836 10.8014 4.26798 10.7293C4.26798 10.7092 4.26156 10.6934 4.24759 10.6787C4.01912 10.4324 3.79857 10.1794 3.57047 9.93281C3.34464 9.68847 3.12636 9.43772 2.90393 9.18998C2.86541 9.14731 2.825 9.10615 2.78535 9.0646L2.77591 9.07216H2.77742Z" fill="#0B0E15"/>
<path d="M18.2961 14.1326C18.056 14.1326 17.8158 14.1326 17.5756 14.1326C17.4211 14.1326 17.3581 14.0699 17.3577 13.9158C17.3577 13.5442 17.3577 13.1726 17.3558 12.8006C17.3558 12.7602 17.3728 12.7527 17.406 12.7527C17.5427 12.753 17.6791 12.7527 17.8158 12.7527C17.9823 12.7527 18.1485 12.7519 18.315 12.7527C18.6413 12.7542 18.9411 12.6707 19.2093 12.4811C19.218 12.4751 19.2266 12.4645 19.2384 12.4694C19.2527 12.4755 19.2497 12.4898 19.2497 12.5023C19.2599 12.9679 19.2538 13.4335 19.2546 13.8992C19.2546 14.0619 19.184 14.1311 19.0216 14.1314C18.7799 14.1314 18.5382 14.1314 18.2965 14.1314L18.2961 14.1326Z" fill="#0B0E15"/>
<path d="M10.2769 2.49202C10.2769 2.70199 10.2724 2.91234 10.2781 3.12231C10.2856 3.40932 10.289 3.69633 10.2981 3.98296C10.3041 4.17594 10.3011 4.36892 10.3064 4.56151C10.3136 4.83115 10.3185 5.10079 10.3264 5.37043C10.3324 5.57587 10.3279 5.7813 10.3419 5.98636C10.346 6.04868 10.3419 6.04868 10.2833 6.02828C10.1281 5.97466 9.97217 5.9773 9.81696 6.02828C9.7622 6.04603 9.76258 6.04717 9.76295 5.99014C9.76333 5.77677 9.7773 5.56378 9.77202 5.35041C9.77126 5.31491 9.78486 5.28848 9.81016 5.26355C9.97217 5.10343 10.0379 4.90819 10.0209 4.68274C10.0084 4.51884 9.94687 4.37647 9.83546 4.25524C9.81091 4.22843 9.80034 4.19784 9.80109 4.16083C9.80865 3.76582 9.81507 3.37042 9.823 2.97541C9.82791 2.71219 9.8347 2.4486 9.84037 2.18538C9.84264 2.08455 9.86416 2.05585 9.96235 2.03168C10.0409 2.01242 10.1179 2.01582 10.1931 2.04716C10.2361 2.06529 10.2573 2.09512 10.2607 2.14421C10.2682 2.26015 10.2686 2.37609 10.2781 2.4924L10.2769 2.49202Z" fill="#0B0E15"/>
<path d="M8.20305 2.36102C8.17284 2.36857 8.14905 2.38519 8.12488 2.40143C8.00366 2.48375 7.93039 2.60347 7.86393 2.72922C7.57163 3.28096 7.26763 3.82628 6.96514 4.37273C6.94172 4.41503 6.91189 4.43995 6.86393 4.44599C6.82201 4.45128 6.78047 4.46072 6.73893 4.46827C6.72533 4.47092 6.71023 4.47734 6.69965 4.46336C6.68946 4.44939 6.69965 4.43617 6.70645 4.42409C6.77216 4.30249 6.83787 4.18126 6.90434 4.06004C7.19323 3.53474 7.48213 3.00981 7.77103 2.48489C7.81181 2.41049 7.85713 2.33874 7.89301 2.26208C7.92586 2.19146 7.97835 2.16993 8.05124 2.17069C8.27896 2.17258 8.50668 2.17182 8.7344 2.17182C9.03576 2.17182 9.3375 2.17182 9.63886 2.17258C9.70494 2.17258 9.7023 2.18202 9.70721 2.24659C9.71703 2.37688 9.65358 2.47809 9.5958 2.58383C9.34165 3.05098 9.08901 3.51888 8.83523 3.9864C8.82163 4.01132 8.80766 4.03587 8.79331 4.06004C8.78274 4.07779 8.76876 4.09252 8.74799 4.09894C8.7344 4.10309 8.72005 4.11027 8.70872 4.09705C8.6989 4.08534 8.70759 4.07364 8.71363 4.06268C8.80691 3.8901 8.90018 3.71752 8.99346 3.54531C9.17813 3.20468 9.36242 2.86404 9.54747 2.52341C9.58636 2.45165 9.62753 2.38141 9.66642 2.30966C9.68984 2.26623 9.68644 2.26699 9.63961 2.26057C9.56068 2.24961 9.5199 2.27945 9.481 2.35196C9.16982 2.93466 8.85298 3.51397 8.53765 4.09441C8.52481 4.1182 8.5131 4.14237 8.48251 4.14803C8.47042 4.1503 8.45683 4.15672 8.44701 4.14577C8.43606 4.13368 8.44777 4.12197 8.45305 4.11178C8.52103 3.98262 8.58863 3.85347 8.65811 3.72507C8.90056 3.27643 9.14376 2.82854 9.38697 2.38028C9.40132 2.35422 9.41567 2.32779 9.4304 2.30211C9.44664 2.27341 9.43682 2.26057 9.40585 2.26208C9.37299 2.26359 9.34014 2.26699 9.30728 2.27001C9.28651 2.2719 9.28009 2.28927 9.27216 2.30437C9.10562 2.61215 8.93946 2.91993 8.77254 3.22734C8.60638 3.5336 8.43984 3.83912 8.27329 4.14501C8.26499 4.16012 8.25857 4.17673 8.24308 4.18617C8.2242 4.19788 8.20003 4.21148 8.18228 4.19675C8.16265 4.18089 8.18681 4.16238 8.19475 4.14803C8.42851 3.7145 8.6634 3.28134 8.89754 2.84818C8.99384 2.67031 9.08863 2.49131 9.18606 2.31381C9.20683 2.27567 9.1955 2.26699 9.15811 2.27039C9.1566 2.27039 9.15509 2.27039 9.15358 2.27039C9.07957 2.25717 9.04029 2.28889 9.00441 2.35611C8.677 2.96563 8.34542 3.57288 8.01499 4.18051C8.00064 4.20694 7.98553 4.23338 7.95532 4.24433C7.94286 4.24886 7.92737 4.25868 7.91642 4.24433C7.90736 4.23262 7.91755 4.22092 7.9236 4.20997C8.01045 4.04833 8.09618 3.88595 8.18379 3.72469C8.38621 3.35083 8.58901 2.97734 8.7918 2.60347C8.84203 2.51094 8.89263 2.4188 8.94248 2.32628C8.96627 2.28209 8.96401 2.28285 8.9168 2.27718C8.84391 2.26887 8.80124 2.29002 8.76348 2.3614C8.52707 2.80966 8.28387 3.25415 8.04255 3.69977C7.94625 3.87764 7.8492 4.05513 7.75177 4.23262C7.7378 4.2583 7.72609 4.28814 7.69135 4.2938C7.67926 4.29569 7.66453 4.3006 7.65547 4.2904C7.6449 4.2787 7.65698 4.26661 7.66227 4.25642C7.70267 4.17824 7.74271 4.10007 7.78462 4.02303C8.08938 3.46034 8.39452 2.89765 8.70003 2.33496C8.72684 2.28549 8.72345 2.28474 8.66793 2.27832C8.59656 2.27001 8.5603 2.29909 8.52669 2.36178C8.17926 3.00868 7.82843 3.6537 7.47835 4.29909C7.47231 4.31004 7.46627 4.3225 7.45683 4.3293C7.43757 4.3429 7.41189 4.35725 7.39263 4.34139C7.37526 4.32703 7.39716 4.3074 7.40547 4.29229C7.65169 3.83534 7.89867 3.37839 8.14565 2.92144C8.25026 2.72809 8.35524 2.53549 8.45947 2.34214C8.46816 2.32628 8.48629 2.30853 8.47684 2.29116C8.46552 2.27001 8.44286 2.28813 8.42511 2.28776C8.34958 2.28549 8.30691 2.32137 8.27065 2.39048C8.0097 2.88255 7.74384 3.37197 7.47911 3.86178C7.39489 4.01774 7.30879 4.17258 7.22344 4.32817C7.20909 4.3546 7.19399 4.38066 7.1634 4.39161C7.15169 4.39577 7.13885 4.40143 7.12828 4.39048C7.11657 4.37839 7.12639 4.36782 7.13243 4.35687C7.28085 4.08232 7.42813 3.80702 7.57692 3.53247C7.78047 3.15747 7.98477 2.78285 8.18832 2.40785C8.1955 2.39463 8.20683 2.38292 8.20305 2.36102Z" fill="#0B0E15"/>
<path d="M9.63502 5.45065C9.64446 5.51447 9.63993 5.56697 9.61387 5.61606C9.55949 5.71878 9.50398 5.82036 9.44884 5.92271C9.39748 6.01787 9.3465 6.11342 9.29401 6.2082C9.27701 6.23917 9.28381 6.25163 9.31855 6.24975C9.32158 6.24975 9.32497 6.24975 9.328 6.24975C9.40013 6.2607 9.44695 6.23691 9.47716 6.1644C9.51077 6.08396 9.55874 6.00919 9.60065 5.93215C9.60519 5.92422 9.61161 5.91742 9.62369 5.90194C9.63124 5.96802 9.63275 6.02354 9.60292 6.07603C9.57837 6.11984 9.55571 6.16478 9.52966 6.20745C9.51078 6.23804 9.51682 6.25277 9.55194 6.24899C9.5999 6.2437 9.61765 6.26447 9.61727 6.30979C9.61727 6.34869 9.6286 6.38381 9.66146 6.40911C9.66825 6.4144 9.67618 6.42308 9.67278 6.43328C9.66901 6.44461 9.6573 6.44159 9.64824 6.44159C9.62936 6.44159 9.61047 6.44159 9.59159 6.44159C8.31969 6.44159 7.04778 6.44159 5.77588 6.44159C5.75699 6.44159 5.73811 6.44197 5.71923 6.44159C5.65465 6.43894 5.62746 6.3974 5.65767 6.34C5.74264 6.17913 5.82384 6.01598 5.91674 5.85964C5.9224 5.8502 5.92882 5.84113 5.93411 5.83169C5.97603 5.75541 5.96545 5.7471 6.06175 5.79733C6.0727 5.80299 6.08403 5.80941 6.09498 5.81508C6.1539 5.84567 6.15503 5.84642 6.12217 5.9076C6.08101 5.98388 6.06779 6.06092 6.10971 6.14098C6.11613 6.15345 6.1218 6.16855 6.13766 6.17006C6.15616 6.17233 6.15881 6.1542 6.16523 6.14249C6.19959 6.07905 6.23282 6.01485 6.26795 5.95178C6.2789 5.93215 6.29136 5.90307 6.32006 5.91666C6.35065 5.93139 6.33819 5.96009 6.32648 5.98237C6.29211 6.04771 6.25586 6.11191 6.2215 6.17724C6.19506 6.22709 6.20186 6.23917 6.25737 6.24823C6.33856 6.26107 6.33781 6.2607 6.37595 6.18781C6.4073 6.12814 6.44091 6.06961 6.47414 6.01107C6.48018 6.0005 6.48811 5.98955 6.49755 5.982C6.51115 5.97142 6.52776 5.96236 6.54438 5.97709C6.55986 5.99068 6.55193 6.00617 6.54438 6.02014C6.51153 6.08283 6.47829 6.14476 6.44544 6.20707C6.43977 6.21765 6.4258 6.22746 6.43184 6.2403C6.43902 6.25654 6.45677 6.24786 6.46998 6.25012C6.54778 6.26296 6.60065 6.23842 6.62935 6.15911C6.64785 6.10813 6.68033 6.06206 6.70752 6.01447C6.71923 5.99408 6.73131 5.97293 6.7536 5.96236C6.76908 5.95518 6.78796 5.94688 6.80193 5.96123C6.81364 5.97331 6.8008 5.98766 6.79438 5.99974C6.75888 6.06621 6.72301 6.1323 6.68789 6.19914C6.66296 6.24597 6.66674 6.24559 6.72074 6.25163C6.79325 6.25956 6.83554 6.2354 6.86424 6.16591C6.89446 6.09227 6.93902 6.02467 6.97716 5.95443C6.98471 5.94045 6.99227 5.92611 7.00624 5.91817C7.02625 5.90685 7.05156 5.90005 7.0678 5.9144C7.08366 5.92837 7.06175 5.94499 7.05458 5.95896C7.01039 6.04204 6.96621 6.12512 6.92051 6.20745C6.90163 6.24144 6.91183 6.24748 6.94695 6.25163C7.02286 6.26032 7.07119 6.23917 7.10292 6.16251C7.13804 6.07754 7.18977 5.99937 7.23434 5.91817C7.2434 5.90156 7.25133 5.88419 7.26908 5.87474C7.28834 5.86455 7.31326 5.8502 7.32988 5.86568C7.34536 5.88003 7.32271 5.89891 7.31477 5.9144C7.26115 6.01561 7.20715 6.11644 7.15239 6.21689C7.14068 6.23842 7.14295 6.24899 7.16863 6.2505C7.17505 6.2505 7.18147 6.24975 7.18751 6.2505C7.26644 6.26598 7.31024 6.23124 7.34272 6.15949C7.38539 6.06546 7.43902 5.97633 7.48925 5.8857C7.50435 5.85851 7.5187 5.82905 7.55005 5.81621C7.56364 5.81092 7.57988 5.79771 7.59348 5.81281C7.6048 5.82565 7.59272 5.83962 7.5863 5.85171C7.53192 5.95443 7.47716 6.05639 7.42316 6.15949C7.40881 6.18668 7.3752 6.21614 7.38955 6.24182C7.40277 6.26561 7.44468 6.24597 7.47338 6.2505C7.51757 6.25692 7.54023 6.23615 7.55987 6.19725C7.62331 6.07301 7.69129 5.95103 7.75851 5.82829C7.77135 5.80526 7.78305 5.78033 7.80798 5.76674C7.82233 5.75881 7.83932 5.75465 7.85254 5.76485C7.86953 5.77731 7.8582 5.79355 7.85103 5.80677C7.80194 5.89816 7.75284 5.98917 7.70337 6.08018C7.67958 6.12437 7.65541 6.16855 7.63049 6.21198C7.61576 6.23804 7.61651 6.25352 7.65163 6.25088C7.65314 6.25088 7.65465 6.25088 7.65616 6.25088C7.73358 6.26334 7.78154 6.23766 7.81704 6.16138C7.87935 6.02807 7.95526 5.90118 8.0255 5.77127C8.03456 5.75465 8.04098 5.73539 8.05949 5.72746C8.07913 5.71916 8.10405 5.70329 8.12067 5.71916C8.13615 5.73351 8.11462 5.75277 8.10632 5.76825C8.0289 5.91364 7.95073 6.05866 7.87293 6.20367C7.85065 6.24521 7.85367 6.24484 7.90201 6.25126C7.9783 6.26107 8.01984 6.232 8.05382 6.16175C8.12444 6.01674 8.20677 5.87701 8.28456 5.73539C8.30043 5.70632 8.3178 5.67761 8.35292 5.6678C8.36349 5.66477 8.37482 5.65873 8.38389 5.66855C8.39295 5.67875 8.38502 5.6897 8.38049 5.69876C8.33668 5.78222 8.29325 5.86568 8.24869 5.94839C8.20186 6.03562 8.15503 6.12248 8.10707 6.20896C8.09046 6.23917 8.09574 6.2471 8.13086 6.25126C8.20828 6.26032 8.25549 6.23691 8.29212 6.16175C8.37105 5.99975 8.4613 5.8434 8.54778 5.68479C8.561 5.66024 8.57308 5.63305 8.60103 5.62097C8.615 5.61493 8.63237 5.607 8.64559 5.61832C8.66183 5.6323 8.64748 5.64703 8.64068 5.66024C8.57913 5.77505 8.51757 5.88985 8.45564 6.00428C8.41825 6.07339 8.38086 6.14212 8.34234 6.21047C8.32686 6.23804 8.33177 6.24748 8.36462 6.2505C8.44091 6.25768 8.49151 6.24068 8.53003 6.16062C8.61916 5.97558 8.72263 5.79771 8.82082 5.61719C8.82686 5.60624 8.8329 5.59491 8.84159 5.58622C8.86123 5.56659 8.88955 5.55903 8.90994 5.57376C8.92769 5.58622 8.90692 5.60737 8.89861 5.62286C8.79589 5.81357 8.6928 6.0039 8.59008 6.19423C8.56024 6.24937 8.56138 6.24521 8.6218 6.25088C8.69242 6.25768 8.72981 6.23237 8.76266 6.1678C8.86312 5.97067 8.97225 5.77845 9.078 5.58396C9.09235 5.55752 9.10745 5.53147 9.13993 5.52391C9.15164 5.52127 9.16561 5.51296 9.17543 5.52467C9.18487 5.53638 9.17543 5.54846 9.16938 5.55903C9.09763 5.69348 9.02626 5.82754 8.95413 5.9616C8.90805 6.04733 8.8616 6.13268 8.81402 6.21765C8.80194 6.23917 8.80231 6.24937 8.8295 6.24975C8.83102 6.24975 8.83253 6.24975 8.83404 6.24975C8.91145 6.25956 8.96432 6.24257 9.00473 6.16062C9.10519 5.95669 9.21886 5.75956 9.328 5.55979C9.34574 5.52731 9.35972 5.4903 9.39748 5.47406C9.41146 5.46802 9.42807 5.45745 9.44091 5.47142C9.45224 5.48426 9.44016 5.49786 9.43374 5.50994C9.35896 5.64967 9.28457 5.7894 9.20941 5.92875C9.15957 6.02127 9.10934 6.11379 9.05873 6.20556C9.04023 6.23879 9.05005 6.24597 9.08555 6.2505C9.16485 6.26032 9.20677 6.23011 9.24416 6.1576C9.36236 5.92724 9.49038 5.70254 9.615 5.47557C9.6184 5.46915 9.62445 5.46425 9.63615 5.45065H9.63502Z" fill="#0B0E15"/>
<path d="M12.0287 2.93929C11.7462 2.93929 11.4637 2.93853 11.1816 2.94005C11.1355 2.94005 11.1174 2.92834 11.1185 2.87962C11.1212 2.75915 11.1204 2.63831 11.1185 2.51746C11.1178 2.48121 11.1325 2.47139 11.1657 2.47177C11.7401 2.47252 12.3142 2.47328 12.8885 2.4729C12.9301 2.4729 12.9467 2.4865 12.9456 2.5303C12.9429 2.64775 12.9426 2.76557 12.9456 2.88302C12.9467 2.93023 12.929 2.94042 12.8855 2.94005C12.6 2.93853 12.3142 2.93929 12.0287 2.93929Z" fill="#0B0E15"/>
<path d="M6.70488 13.3768C6.70488 13.5554 6.70526 13.7344 6.70488 13.9131C6.7045 14.0596 6.63426 14.131 6.48849 14.1313C6.34423 14.1317 6.19959 14.1306 6.05533 14.1294C6.00322 14.1291 5.99944 14.1223 6.02399 14.0758C6.11915 13.8961 6.15201 13.705 6.13841 13.5033C6.12973 13.3753 6.13011 13.2465 6.12633 13.1181C6.12331 13.0131 6.12067 12.9081 6.11576 12.8032C6.11424 12.7665 6.12746 12.7526 6.16409 12.7526C6.32724 12.7537 6.49038 12.7541 6.6539 12.7526C6.69846 12.7526 6.70526 12.776 6.70526 12.8122C6.7045 13.0003 6.70488 13.1887 6.70488 13.3768Z" fill="#0B0E15"/>
<path d="M10.0187 6.42228C9.97942 6.42342 9.91409 6.40869 9.85065 6.3849C9.82081 6.37357 9.79438 6.35695 9.77248 6.33392C9.73471 6.29426 9.73433 6.24895 9.77059 6.20778C9.7974 6.17719 9.83214 6.15907 9.86953 6.14698C10.0025 6.10431 10.1343 6.10506 10.2642 6.16095C10.2698 6.1636 10.2755 6.16624 10.2812 6.16926C10.3231 6.1923 10.3586 6.22364 10.3586 6.27349C10.3586 6.31994 10.3219 6.34789 10.2838 6.36866C10.2105 6.40831 10.1301 6.42153 10.0187 6.42228ZM10.058 6.35997C10.1003 6.36148 10.1452 6.3528 10.1849 6.32938C10.2309 6.30219 10.2313 6.26443 10.1841 6.24064C10.098 6.19683 10.0093 6.19796 9.9224 6.2395C9.90276 6.24894 9.88199 6.26216 9.88426 6.28822C9.88652 6.31239 9.90541 6.32561 9.9258 6.33543C9.96621 6.35469 10.0096 6.36035 10.058 6.35997Z" fill="#0B0E15"/>
<path d="M9.70049 2.73753C9.69407 2.80399 9.68689 2.85799 9.65857 2.90973C9.46559 3.25981 9.27564 3.61102 9.08379 3.96147C9.06529 3.99508 9.05207 4.03473 9.01053 4.04946C8.99882 4.05361 8.98636 4.06117 8.97503 4.05097C8.96257 4.03964 8.97163 4.02831 8.97768 4.01736C9.1242 3.74546 9.26997 3.47355 9.41688 3.20203C9.49656 3.05475 9.57813 2.90822 9.65895 2.76132C9.66348 2.75301 9.66725 2.74432 9.67254 2.73677C9.67783 2.72922 9.68349 2.71864 9.69407 2.72317C9.70426 2.72733 9.70049 2.73941 9.70049 2.73753Z" fill="#0B0E15"/>
<path d="M9.68752 3.23398C9.69243 3.27174 9.67883 3.30497 9.66146 3.33707C9.54704 3.54969 9.43223 3.76192 9.31705 3.97416C9.31139 3.98473 9.30308 3.99568 9.29326 4.00248C9.27664 4.01381 9.25512 4.02552 9.23737 4.01041C9.22 3.99569 9.23737 3.97831 9.24492 3.96434C9.3703 3.72227 9.50134 3.48284 9.63427 3.24455C9.63805 3.23775 9.64182 3.23058 9.64636 3.22416C9.65731 3.20905 9.65655 3.17582 9.68148 3.18262C9.70225 3.18828 9.6845 3.21623 9.68752 3.23398Z" fill="#0B0E15"/>
<path d="M9.67664 3.63425C9.67588 3.6807 9.68419 3.72904 9.66229 3.77247C9.6215 3.85328 9.57618 3.93183 9.53238 4.01114C9.5286 4.01794 9.52369 4.02436 9.51765 4.02926C9.50141 4.04286 9.4829 4.04399 9.46591 4.03191C9.44741 4.01869 9.45987 4.00359 9.46704 3.99075C9.51689 3.8986 9.56712 3.80721 9.61735 3.71544C9.63283 3.6875 9.64869 3.65955 9.66455 3.63161C9.66871 3.63274 9.67248 3.63312 9.67664 3.63425Z" fill="#0B0E15"/>
</svg>
