<svg width="20" height="16" viewBox="0 0 20 16" fill="none" xmlns="http://www.w3.org/2000/svg">
<path d="M9.3732 0.217528C12.6126 0.217528 15.852 0.21826 19.0918 0.213867C19.217 0.213867 19.2415 0.238394 19.2415 0.363592C19.2375 5.09914 19.2382 9.83506 19.2382 14.5706C19.1086 15.0582 18.8454 15.4422 18.3856 15.6762C18.1008 15.8211 17.794 15.8559 17.4821 15.8563C15.3454 15.8581 13.2082 15.8574 11.0714 15.8574C8.78821 15.8574 6.50537 15.8592 4.22216 15.8563C3.19861 15.8548 2.32552 15.2431 2.03193 14.292C1.54798 12.7234 1.06366 11.154 0.62144 9.57331C0.339196 8.56514 0.550055 7.61262 1.2423 6.82445C2.6279 5.24704 4.04827 3.7 5.44924 2.13613C6.18981 1.30916 7.11342 0.786043 8.16003 0.454379C8.55612 0.328815 8.96137 0.259261 9.3732 0.217528ZM3.03827 7.22128C3.14919 7.22128 3.20337 7.22128 3.25718 7.22128C7.96857 7.22128 12.68 7.22128 17.3913 7.22128C17.6524 7.22128 17.6542 7.21908 17.6542 6.95405C17.6542 5.34148 17.6542 3.72929 17.6542 2.11673C17.6542 1.92783 17.56 1.83314 17.3716 1.83265C14.8028 1.83265 12.2341 1.82204 9.66533 1.83741C8.4873 1.84437 7.48425 2.31477 6.68694 3.17139C5.6839 4.24912 4.71197 5.35613 3.72686 6.45069C3.50831 6.6934 3.29159 6.93794 3.0379 7.22165L3.03827 7.22128ZM16.1028 10.3563C16.553 10.3563 17.0037 10.352 17.4539 10.3585C17.6051 10.3607 17.659 10.3058 17.656 10.1557C17.6491 9.77868 17.6505 9.40126 17.6553 9.0242C17.6571 8.88839 17.5974 8.84263 17.4682 8.84299C16.5673 8.84556 15.6664 8.84592 14.7655 8.84263C14.6238 8.84226 14.5707 8.89644 14.5733 9.03738C14.5792 9.40858 14.5814 9.77978 14.5726 10.1506C14.5685 10.3139 14.6333 10.3611 14.7882 10.3585C15.2264 10.3512 15.6646 10.356 16.1031 10.356L16.1028 10.3563Z" fill="#4C6BD2"/>
</svg>
