<svg width="16" height="16" viewBox="0 0 16 16" fill="none" xmlns="http://www.w3.org/2000/svg">
<g id="carvana" clip-path="url(#clip0_24513_147056)">
<g id="&#240;&#159;&#142;&#168; Icon Color">
<path d="M4.75 0C4.33579 0 4 0.335786 4 0.75C4 1.16421 4.33579 1.5 4.75 1.5H11.25C11.6642 1.5 12 1.16421 12 0.75C12 0.335786 11.6642 0 11.25 0H4.75Z" fill="#6B7280"/>
<path d="M3.50002 9.54841C3.15485 9.54841 2.87503 9.83726 2.87503 10.1936C2.87503 10.5499 3.15485 10.8387 3.50002 10.8387H4.87502C5.2202 10.8387 5.50002 10.5499 5.50002 10.1936C5.50002 9.83726 5.2202 9.54841 4.87502 9.54841H3.50002Z" fill="#6B7280"/>
<path d="M11.25 9.54841C10.9048 9.54841 10.625 9.83726 10.625 10.1936C10.625 10.5499 10.9048 10.8387 11.25 10.8387H12.475C12.8202 10.8387 13.1 10.5499 13.1 10.1936C13.1 9.83726 12.8202 9.54841 12.475 9.54841H11.25Z" fill="#6B7280"/>
<path fill-rule="evenodd" clip-rule="evenodd" d="M11.25 14.0645V13.1613H4.75V14.0645C4.75 15.1335 3.91053 16 2.875 16C1.83947 16 1 15.1335 1 14.0645V9.67744C1 8.70611 1.49511 7.85415 2.23904 7.3758L2.39079 6.41633C2.61027 5.02865 3.58251 3.89454 4.89014 3.50084C4.93034 3.48874 4.97072 3.47738 5.01127 3.46677C5.2951 3.39249 5.58694 3.35486 5.88007 3.35486H10.1199C10.4549 3.35486 10.7883 3.40401 11.1099 3.50084C12.4175 3.89453 13.3897 5.02865 13.6092 6.41633L13.761 7.37581C14.5049 7.85416 15 8.70611 15 9.67744L15 14.0645C15 15.1335 14.1606 16 13.125 16C12.0895 16 11.25 15.1335 11.25 14.0645ZM13.75 13.1613L12.75 13.1613V14.1936C12.75 14.4786 12.9739 14.7097 13.25 14.7097C13.5262 14.7097 13.75 14.4786 13.75 14.1936V13.1613ZM2.25 13.1613L3.25 13.1613V14.1936C3.25 14.4786 3.02614 14.7097 2.75 14.7097C2.47386 14.7097 2.25 14.4786 2.25 14.1936V13.1613ZM12.6974 8.51615L12.9679 8.69007C13.2906 8.89758 13.5 9.26289 13.5 9.67744V11.6129H2.5V9.67744C2.5 9.26289 2.7094 8.89758 3.03212 8.69007L3.3026 8.51615H12.6974ZM12.1766 6.96776L12.1288 6.66583C12.1209 6.61589 12.1113 6.56653 12.1001 6.51781C12.0005 6.08543 11.7722 5.70334 11.4562 5.41937C11.238 5.22335 10.9781 5.07407 10.6899 4.98729C10.5047 4.93154 10.3128 4.90325 10.1199 4.90325H5.88007C5.68719 4.90325 5.4953 4.93154 5.31014 4.98729C5.02189 5.07407 4.76196 5.22335 4.54382 5.41937C4.1922 5.73534 3.94917 6.17278 3.87119 6.66583L3.82344 6.96776H12.1766Z" fill="#6B7280"/>
</g>
</g>
<defs>
<clipPath id="clip0_24513_147056">
<rect width="16" height="16" fill="white"/>
</clipPath>
</defs>
</svg>
