<svg width="19" height="19" viewBox="0 0 19 19" xmlns="http://www.w3.org/2000/svg">
<path d="M9.02455 18.385C13.9688 18.385 18.0507 14.2976 18.0507 9.36049C18.0507 4.41627 13.9616 0.335938 9.01739 0.335938C4.08191 0.335938 0 4.41627 0 9.36049C0 14.2976 4.08907 18.385 9.02455 18.385ZM9.02455 16.6073C5.00309 16.6073 1.78487 13.3819 1.78487 9.36049C1.78487 5.33903 4.99592 2.11365 9.01739 2.11365C13.0388 2.11365 16.273 5.33903 16.273 9.36049C16.273 13.3819 13.046 16.6073 9.02455 16.6073Z"/>
<path d="M8.07835 13.5133C8.39184 13.5133 8.66477 13.3578 8.85048 13.0696L12.7582 6.96574C12.8685 6.77685 12.9742 6.57364 12.9742 6.37672C12.9742 5.93954 12.587 5.64844 12.176 5.64844C11.9199 5.64844 11.6826 5.80081 11.4977 6.08877L8.04815 11.6305L6.42452 9.56C6.21013 9.28356 6.00377 9.19797 5.74028 9.19797C5.319 9.19797 4.97949 9.53987 4.97949 9.96832C4.97949 10.1794 5.06127 10.3692 5.20559 10.5588L7.27128 13.076C7.50541 13.3737 7.76172 13.5133 8.07835 13.5133Z"/>
</svg>
