<svg width="18" height="18" viewBox="0 0 18 18" fill="none" xmlns="http://www.w3.org/2000/svg">
<g clip-path="url(#clip0_2939_17659)">
<path d="M8.5406 17.1664C7.03442 17.1664 5.5288 17.1682 4.02262 17.1664C2.10287 17.1628 0.502794 15.4752 0.501677 13.4499C0.499441 10.2611 0.499441 7.07228 0.501677 3.88349C0.502794 1.85699 2.10175 0.172283 4.02318 0.169332C5.51539 0.166971 7.00759 0.168151 8.49924 0.169332C9.0598 0.169332 9.46555 0.569554 9.47114 1.12384C9.47672 1.66515 9.05533 2.09489 8.50595 2.09607C7.06292 2.09902 5.61934 2.09607 4.17631 2.09725C3.07476 2.09784 2.32698 2.89002 2.32698 4.05645C2.32642 7.13485 2.32586 10.2133 2.32698 13.2911C2.32698 14.4404 3.08091 15.2373 4.16793 15.2373C7.08919 15.2385 10.0105 15.2385 12.9323 15.2373C14.0081 15.2373 14.7665 14.4392 14.7682 13.3076C14.7699 11.8124 14.7671 10.3177 14.7699 8.82252C14.7704 8.41639 14.9515 8.1118 15.2952 7.93825C15.6311 7.76883 15.9631 7.81192 16.2587 8.05336C16.4739 8.22867 16.5929 8.46539 16.5935 8.75817C16.5935 10.3933 16.6281 12.029 16.5823 13.6624C16.5415 15.1263 15.5512 16.5436 14.0271 17.0218C13.7253 17.1162 13.4179 17.1676 13.1011 17.167C11.5809 17.1634 10.0613 17.1652 8.54116 17.1652L8.5406 17.1664Z" fill="#0B0E15"/>
<path d="M4.97761 6.2496C5.27717 6.23189 5.50128 6.37828 5.7008 6.5902C6.58103 7.52464 7.4635 8.45731 8.34486 9.38998C8.47936 9.53244 8.61461 9.53205 8.7506 9.3888C11.1113 6.89361 13.4726 4.39901 15.8311 1.90146C16.106 1.60985 16.414 1.44693 16.808 1.55909C17.4725 1.74857 17.7167 2.56141 17.2808 3.12397C17.2411 3.17532 17.1958 3.22137 17.1517 3.26859C14.5238 6.04417 11.8965 8.81976 9.26813 11.5947C8.90933 11.9737 8.47843 12.057 8.09224 11.822C8.01456 11.7748 7.94191 11.714 7.87819 11.6473C6.6984 10.4041 5.51804 9.16213 4.34328 7.91365C3.89897 7.44141 3.98113 6.71711 4.50312 6.3771C4.65066 6.28088 4.80939 6.23838 4.97705 6.25019L4.97761 6.2496Z" fill="#0B0E15"/>
</g>
<defs>
<clipPath id="clip0_2939_17659">
<rect width="17" height="17" fill="white" transform="translate(0.5 0.167969)"/>
</clipPath>
</defs>
</svg>
