<svg width="18" height="18" viewBox="0 0 18 18" fill="none" xmlns="http://www.w3.org/2000/svg">
<g clip-path="url(#clip0_5393_47227)">
<path d="M17.4237 12.9155H15.3574V6.06777C15.3574 5.74954 15.0997 5.49182 14.7814 5.49182C14.4632 5.49182 14.2052 5.74954 14.2052 6.06777V13.605C14.2052 13.9279 13.8837 14.2008 13.5012 14.2055C13.4979 14.2054 13.4947 14.205 13.4913 14.205C13.4851 14.205 13.479 14.2057 13.4728 14.2059H11.2644C11.2582 14.2057 11.2522 14.205 11.2459 14.205C11.2396 14.205 11.2335 14.2057 11.2273 14.2059H9.01833C9.01211 14.2057 9.00606 14.205 8.99981 14.205C8.99355 14.205 8.9875 14.2057 8.98128 14.2059H6.77259C6.76637 14.2057 6.76032 14.205 6.75407 14.205C6.74781 14.205 6.74176 14.2057 6.73554 14.2059H4.52685C4.52063 14.2057 4.51458 14.205 4.50832 14.205C4.50498 14.205 4.50175 14.2054 4.49844 14.2055C4.11563 14.2008 3.79449 13.9279 3.79449 13.605V4.3958C3.79449 4.07009 4.12147 3.79489 4.50832 3.79489H13.4913C13.8782 3.79489 14.2052 4.07009 14.2052 4.3958V4.50876C14.2052 4.82699 14.4632 5.08471 14.7814 5.08471H17.4237C17.742 5.08471 18 4.82699 18 4.50876C18 4.19053 17.742 3.9328 17.4237 3.9328H15.2912C15.1252 3.3642 14.6612 2.91048 14.0676 2.72893V0.900173C14.0676 0.581945 13.8096 0.324219 13.4913 0.324219C13.1731 0.324219 12.9153 0.581945 12.9153 0.900173V2.64298H11.8218V0.900173C11.8218 0.581945 11.5641 0.324219 11.2458 0.324219C10.9276 0.324219 10.6696 0.581945 10.6696 0.900173V2.64298H9.57569V0.900173C9.57569 0.581945 9.31768 0.324219 8.99974 0.324219C8.68179 0.324219 8.42378 0.581945 8.42378 0.900173V2.64298H7.32991V0.900173C7.32991 0.581945 7.07191 0.324219 6.75396 0.324219C6.43601 0.324219 6.178 0.581945 6.178 0.900173V2.64298H5.08414V0.900173C5.08414 0.581945 4.82641 0.324219 4.50818 0.324219C4.18995 0.324219 3.93223 0.581945 3.93223 0.900173V2.72883C3.33866 2.91023 2.87499 3.36391 2.70899 3.93249H0.575955C0.258007 3.93249 0 4.19018 0 4.50844C0 4.82667 0.258007 5.0844 0.575955 5.0844H2.64261V12.9155H0.575955C0.258007 12.9155 0 13.1732 0 13.4914C0 13.8096 0.258007 14.0674 0.575955 14.0674H2.70909C2.87506 14.6359 3.33873 15.0898 3.93237 15.2713V17.0994C3.93237 17.4176 4.19009 17.6753 4.50832 17.6753C4.82624 17.6753 5.08428 17.4176 5.08428 17.0994V15.3572H6.17815V17.0993C6.17815 17.4176 6.43587 17.6753 6.7541 17.6753C7.07201 17.6753 7.33005 17.4176 7.33005 17.0993V15.3572H8.42392V17.0993C8.42392 17.4176 8.68165 17.6753 8.99988 17.6753C9.31811 17.6753 9.57583 17.4176 9.57583 17.0993V15.3572H10.6697V17.0993C10.6697 17.4176 10.9277 17.6753 11.246 17.6753C11.5639 17.6753 11.8219 17.4176 11.8219 17.0993V15.3572H12.9155V17.0993C12.9155 17.4176 13.1732 17.6753 13.4914 17.6753C13.8097 17.6753 14.0677 17.4176 14.0677 17.0993V15.2712C14.6613 15.0897 15.1249 14.6359 15.2909 14.0674H17.4238C17.7417 14.0674 18.0001 13.8096 18.0001 13.4914C18 13.1732 17.742 12.9155 17.4237 12.9155Z" fill="white"/>
<path d="M17.4234 10.668H16.3064C15.9882 10.668 15.7305 10.9257 15.7305 11.2439C15.7305 11.5622 15.9882 11.8199 16.3064 11.8199H17.4234C17.7413 11.8199 17.9996 11.5622 17.9996 11.2439C17.9996 10.9257 17.7416 10.668 17.4234 10.668Z" fill="white"/>
<path d="M17.4234 8.42188H16.3064C15.9882 8.42188 15.7305 8.6796 15.7305 8.99783C15.7305 9.31606 15.9882 9.57378 16.3064 9.57378H17.4234C17.7413 9.57378 17.9996 9.31606 17.9996 8.99783C17.9996 8.6796 17.7416 8.42188 17.4234 8.42188Z" fill="white"/>
<path d="M17.4234 6.17969H16.3064C15.9882 6.17969 15.7305 6.43741 15.7305 6.75564C15.7305 7.07387 15.9882 7.3316 16.3064 7.3316H17.4234C17.7413 7.3316 17.9996 7.07387 17.9996 6.75564C17.9996 6.43741 17.7416 6.17969 17.4234 6.17969Z" fill="white"/>
<path d="M0.575955 11.8199H1.6932C2.01111 11.8199 2.26916 11.5622 2.26916 11.2439C2.26916 10.9257 2.01143 10.668 1.6932 10.668H0.575955C0.258007 10.668 0 10.926 0 11.2439C0 11.5618 0.258007 11.8199 0.575955 11.8199Z" fill="white"/>
<path d="M0.575955 9.57737H1.6932C2.01111 9.57737 2.26916 9.31997 2.26916 9.00174C2.26916 8.68351 2.01143 8.42578 1.6932 8.42578H0.575955C0.258007 8.42578 0 8.68379 0 9.00174C0 9.31965 0.258007 9.57737 0.575955 9.57737Z" fill="white"/>
<path d="M0.575955 7.3316H1.6932C2.01111 7.3316 2.26916 7.07387 2.26916 6.75564C2.26916 6.43741 2.01143 6.17969 1.6932 6.17969H0.575955C0.258007 6.17969 0 6.43741 0 6.75564C0 7.07387 0.258007 7.3316 0.575955 7.3316Z" fill="white"/>
<path d="M7.13789 5.98438C6.90044 5.98438 6.68737 6.12978 6.60124 6.35098L4.69963 11.2272C4.58418 11.5239 4.73053 11.8577 5.02693 11.9731C5.32364 12.0886 5.65748 11.942 5.7729 11.6458L6.07464 10.8721H8.20113L8.50287 11.6458C8.59147 11.8736 8.80894 12.0128 9.03949 12.0128C9.10906 12.0128 9.1799 12 9.24884 11.9731C9.54492 11.8577 9.69187 11.5236 9.57614 11.2272L7.67454 6.35098C7.58809 6.12978 7.37533 5.98438 7.13789 5.98438ZM6.52382 9.72022L7.13789 8.14557L7.75195 9.72022H6.52382Z" fill="white"/>
<path d="M12.259 7.13628C12.5769 7.13628 12.8352 6.87856 12.8352 6.56033C12.8352 6.2421 12.5772 5.98438 12.259 5.98438H10.6463C10.328 5.98438 10.0703 6.2421 10.0703 6.56033C10.0703 6.87856 10.328 7.13628 10.6463 7.13628H10.8765V10.8609H10.6463C10.328 10.8609 10.0703 11.1186 10.0703 11.4368C10.0703 11.7551 10.328 12.0128 10.6463 12.0128H12.259C12.5769 12.0128 12.8352 11.7551 12.8352 11.4368C12.8352 11.1186 12.5772 10.8609 12.259 10.8609H12.029V7.13628H12.259Z" fill="white"/>
</g>
<defs>
<clipPath id="clip0_5393_47227">
<rect width="18" height="18" fill="white"/>
</clipPath>
</defs>
</svg>
