<svg width="16" height="18" viewBox="0 0 16 18" xmlns="http://www.w3.org/2000/svg">
<g clip-path="url(#clip0_4402_29787)">
<path fill-rule="evenodd" clip-rule="evenodd" d="M4.29797 14.6879C4.29797 13.9583 4.94058 13.365 5.73076 13.365C6.52094 13.365 7.16355 13.9583 7.16355 14.6879C7.16355 15.4175 6.52094 16.0108 5.73076 16.0108C4.94058 16.0108 4.29797 15.4175 4.29797 14.6879ZM5.01437 14.6879C5.01437 15.0527 5.33567 15.3494 5.73076 15.3494C6.12585 15.3494 6.44715 15.0527 6.44715 14.6879C6.44715 14.3231 6.12585 14.0265 5.73076 14.0265C5.33567 14.0265 5.01437 14.3231 5.01437 14.6879Z" />
<path fill-rule="evenodd" clip-rule="evenodd" d="M8.51904 15.0728H10.7557V14.4113H8.51904C8.34173 13.1083 7.13676 12.0963 5.67818 12.0963C4.2196 12.0963 3.01463 13.1083 2.83732 14.4113H1.11699V15.0728H2.83768C3.01499 16.3758 4.21996 17.3878 5.67854 17.3878C7.13711 17.3878 8.34173 16.3758 8.51904 15.0728ZM5.67818 16.7264C4.49291 16.7264 3.529 15.8364 3.529 14.742C3.529 13.6477 4.49291 12.7577 5.67818 12.7577C6.86345 12.7577 7.82736 13.6477 7.82736 14.742C7.82736 15.8364 6.86345 16.7264 5.67818 16.7264Z"/>
<path fill-rule="evenodd" clip-rule="evenodd" d="M3.54548 4.82031H1.11699V5.48176H3.51707C3.55081 5.49314 3.58696 5.49931 3.62455 5.49931H4.52929C4.74055 5.49931 4.96636 5.62695 5.10913 5.88889L7.49241 8.94244C7.55095 9.04987 7.66388 9.11677 7.78665 9.11677L8.99616 9.12008L9.56676 9.18051L9.68137 9.31742C9.68264 9.31859 9.68429 9.32028 9.68631 9.32266C9.69793 9.33642 9.71253 9.36539 9.71253 9.4076C9.71253 9.52608 9.73776 9.64283 9.78621 9.74823C9.8347 9.85411 9.90829 9.95212 10.0066 10.0274L10.2061 10.18C10.2099 10.1829 10.222 10.1947 10.2308 10.2204L10.379 10.66C10.3933 10.7024 10.3875 10.7511 10.3698 10.7828L10.1648 11.1486C10.1419 11.1895 10.385 11.0633 10.3698 11.1074C10.3151 11.2658 10.3105 11.5122 10.3562 11.6734C10.3812 11.7612 10.159 11.9421 10.2139 12.0173L10.4079 12.2835C10.4194 12.2993 10.4311 12.328 10.4311 12.3646V14.4959C10.4311 14.6799 10.5708 15.0728 10.7557 15.0728C10.9406 15.0728 11.1006 14.6799 11.1006 14.4959V12.3646C11.1006 12.1977 11.0503 12.0299 10.9497 11.8921L10.7557 11.6258L10.7553 11.6253C10.7293 11.5897 10.7227 11.5211 10.7495 11.4732L10.9545 11.1074C11.0665 10.9074 11.0864 10.6635 11.0137 10.448L10.8654 10.0081C10.819 9.8712 10.7346 9.74356 10.6138 9.65139L10.4149 9.49922C10.4113 9.49649 10.403 9.48842 10.3954 9.47177L10.3951 9.47109C10.3875 9.45474 10.382 9.43274 10.382 9.4076C10.382 9.04622 10.124 8.65101 9.68966 8.65101L7.9859 8.45036L5.69763 5.57113C5.45729 5.13018 5.0245 4.8329 4.52929 4.8329H3.62455C3.59731 4.8329 3.57083 4.83613 3.54548 4.84225V4.82031Z" />
<path fill-rule="evenodd" clip-rule="evenodd" d="M6.44765 10.0578H1.1697V6.08914H3.38078C3.84786 6.08914 4.28665 6.30015 4.55494 6.65369L6.74137 9.53761C6.81767 9.63881 6.82734 9.77044 6.76537 9.87991C6.70376 9.98938 6.58126 10.0578 6.44765 10.0578ZM5.75956 9.39639L3.9675 7.0327C3.83354 6.85609 3.61432 6.75059 3.38078 6.75059H1.7911V9.39639H5.75956Z" />
<path d="M1.7905 10.7192H1.16973V11.3807H1.7905V10.7192Z"/>
<path d="M4.32677 10.7192H5.75956V11.3807H4.32677V10.7192Z" />
<path d="M7.08092 12.0673C6.99855 12.1586 6.85745 12.1661 6.76576 12.0841C6.67407 12.0021 6.66651 11.8617 6.74888 11.7704L7.07687 11.407C7.18733 11.2846 7.3448 11.2147 7.51009 11.2147H7.78623C7.82232 11.2147 7.85691 11.2004 7.88238 11.175L8.09616 10.9622C8.18331 10.8755 8.32462 10.8755 8.41177 10.9622C8.49892 11.049 8.49892 11.1896 8.41177 11.2764L8.19799 11.4892C8.08878 11.5979 7.94065 11.6589 7.78623 11.6589H7.51009C7.4715 11.6589 7.43473 11.6753 7.40891 11.7039L7.08092 12.0673Z" />
<path d="M6.90836 10.7498C6.90836 10.8725 7.00827 10.972 7.13152 10.972H7.56781C7.72228 10.972 7.87033 10.9109 7.97953 10.8023L8.19337 10.5894C8.28052 10.5027 8.28052 10.362 8.19337 10.2753C8.10621 10.1885 7.96491 10.1885 7.87776 10.2753L7.66403 10.488C7.63848 10.5134 7.60387 10.5277 7.56781 10.5277H7.13152C7.00827 10.5277 6.90836 10.6271 6.90836 10.7498Z"/>
<path d="M8.99616 9.12008C9.53595 9.12115 8.93767 11.1074 9.15229 11.4892C9.25162 11.6659 10.3597 11.4496 10.3562 11.6734C10.3105 11.5122 10.3151 11.2658 10.3698 11.1074L9.56676 11.1177C9.81166 10.4463 9.70485 10.0036 9.56676 9.18051L8.99616 9.12008Z" />
</g>
<path d="M9.35774 7.41167L11.8322 9.17312C11.9422 9.25142 12.0897 9.25142 12.1996 9.17312L14.6741 7.41167C15.1896 7.04656 15.4972 6.45515 15.5002 5.82347V2.07566C15.5004 1.94955 15.4257 1.83533 15.3101 1.78489L12.1426 0.416519C12.0626 0.381994 11.9718 0.381994 11.8917 0.416519L8.72423 1.78489C8.60864 1.83533 8.53399 1.94955 8.53418 2.07566V5.82347C8.53663 6.45467 8.84325 7.04598 9.35774 7.41167ZM9.16515 2.28377L12.0159 1.05256L14.8667 2.28377V5.82347C14.8644 6.251 14.6557 6.65107 14.3063 6.89758L12.0159 8.52631L9.72548 6.89568C9.37659 6.64967 9.16792 6.25037 9.16515 5.82347V2.28377Z"/>
<path d="M11.1921 6.55028C11.3289 6.65298 11.5226 6.62843 11.6295 6.49484L14.1635 3.32733C14.2728 3.1907 14.2507 2.99131 14.1141 2.88197C13.9775 2.77264 13.7781 2.79476 13.6687 2.93139L11.3248 5.85944L10.3051 5.09322C10.2146 5.02532 10.0947 5.01088 9.99067 5.05533C9.8866 5.09978 9.81416 5.19638 9.80062 5.30873C9.78708 5.42108 9.83451 5.53212 9.92505 5.60002L11.1921 6.55028Z" />
<defs>
<clipPath id="clip0_4402_29787">
<rect width="10.712" height="13.7725" transform="translate(0.5 3.83203)"/>
</clipPath>
</defs>
</svg>
