<svg width="21" height="21" viewBox="0 0 21 21" fill="none" xmlns="http://www.w3.org/2000/svg">
<path d="M20.2871 0.886719H0.287109V20.8867H20.2871V0.886719Z" fill="white"/>
<path d="M5.39169 12.0836H10.2774C10.709 12.0836 11.0491 11.7498 11.0491 11.3121V4.97215C11.0491 4.5407 10.709 4.20856 10.2774 4.20856C9.84765 4.20856 9.51369 4.5407 9.51369 4.97215V10.5486H5.39169C4.95396 10.5486 4.62 10.8824 4.62 11.3121C4.62 11.7498 4.95396 12.0836 5.39169 12.0836Z" fill="#1A2233"/>
<path d="M10.2862 20.8805C15.7644 20.8805 20.2871 16.3526 20.2871 10.8836C20.2871 5.40669 15.7565 0.886719 10.2783 0.886719C4.80983 0.886719 0.287109 5.40669 0.287109 10.8836C0.287109 16.3526 4.81777 20.8805 10.2862 20.8805ZM10.2862 18.9113C5.83049 18.9113 2.26473 15.3383 2.26473 10.8836C2.26473 6.42887 5.82256 2.85597 10.2783 2.85597C14.734 2.85597 18.3174 6.42887 18.3174 10.8836C18.3174 15.3383 14.7419 18.9113 10.2862 18.9113Z" fill="#1A2233"/>
</svg>
