<svg width="18" height="19" viewBox="0 0 18 19" fill="none" xmlns="http://www.w3.org/2000/svg">
<path d="M9.62034 3.83235C7.98252 3.83235 6.41138 4.48316 5.25342 5.64105C4.34827 6.54607 3.75321 7.70334 3.5362 8.94742C3.09171 9.1842 2.68421 9.48567 2.32762 9.84227L2.3275 9.84239C2.3275 9.84251 2.32737 9.84263 2.32725 9.84276C1.48337 10.6878 0.962782 11.8024 0.856351 12.992C0.756556 14.1032 1.02476 15.2141 1.61494 16.1557L0.881049 18.0872C0.819431 18.2491 0.858709 18.432 0.981089 18.5545C1.10359 18.677 1.28661 18.7161 1.44851 18.6546L3.44035 17.8976C4.37532 18.4219 5.45378 18.6392 6.52205 18.5153C7.66385 18.3822 8.72747 17.8685 9.54043 17.056H9.5403V17.0557C9.81428 16.7817 10.0554 16.4772 10.2602 16.149C11.1084 16.0609 11.9334 15.7968 12.6809 15.37L15.1774 16.3186C15.3393 16.3801 15.5222 16.3409 15.6445 16.2185C15.767 16.096 15.8062 15.9131 15.7447 15.7512L14.8234 13.3272C15.5568 12.178 15.8908 10.8161 15.769 9.4539C15.6393 8.01382 15.0094 6.66422 13.9877 5.64098C13.9876 5.64086 13.9874 5.64086 13.9874 5.64073C12.8293 4.48284 11.2582 3.83203 9.62052 3.83203L9.62034 3.83235ZM9.62034 4.71208C11.0252 4.71208 12.3718 5.26972 13.3654 6.26311C14.2417 7.14051 14.7821 8.29765 14.8927 9.53271C15.0025 10.7679 14.6771 12.0027 13.9704 13.022V13.0218C13.8878 13.141 13.8691 13.2932 13.9205 13.4288L14.5743 15.1488L12.7951 14.4727C12.6672 14.424 12.5238 14.4375 12.4073 14.5093C11.3924 15.1376 10.195 15.4046 9.0095 15.2671C7.82377 15.1292 6.71939 14.5957 5.87527 13.7519H5.87514C4.88188 12.7586 4.32399 11.412 4.32399 10.0072C4.32399 9.78034 4.34056 9.55522 4.36719 9.33293V9.33305C4.37481 9.30924 4.38033 9.28469 4.38377 9.2599C4.54506 8.13195 5.06638 7.07842 5.88166 6.26314C6.87492 5.27 8.22173 4.71211 9.6267 4.71211L9.62034 4.71208ZM6.78353 7.59163C6.66692 7.59163 6.55497 7.6379 6.47248 7.72051C6.38987 7.803 6.3436 7.91494 6.3436 8.03155C6.3436 8.14829 6.39 8.26011 6.47248 8.3426C6.55497 8.42508 6.66692 8.47136 6.78353 8.47136H12.4555C12.6984 8.47136 12.8953 8.27447 12.8953 8.03156C12.8953 7.91495 12.849 7.803 12.7665 7.72052C12.684 7.63803 12.5722 7.59163 12.4555 7.59163L6.78353 7.59163ZM6.78353 9.65121C6.66692 9.65121 6.55497 9.69749 6.47248 9.77998C6.39 9.86246 6.3436 9.97441 6.3436 10.091C6.3436 10.2077 6.38987 10.3197 6.47248 10.4022C6.55497 10.4847 6.66692 10.5311 6.78353 10.5309H12.4555C12.5722 10.5309 12.684 10.4847 12.7665 10.4021C12.849 10.3196 12.8953 10.2077 12.8953 10.091C12.8953 9.84822 12.6984 9.65134 12.4555 9.65121L6.78353 9.65121ZM3.44478 10.0406C3.46136 11.6664 4.10282 13.2244 5.25336 14.3748C6.23767 15.3586 7.52578 15.9815 8.90822 16.1418C8.99304 16.1583 9.0781 16.16 9.16329 16.1651C9.0851 16.2582 9.00372 16.3475 8.91804 16.4333C8.24527 17.1058 7.36541 17.5314 6.42051 17.6411C5.4756 17.7509 4.52146 17.538 3.71281 17.0371V17.037C3.5962 16.9652 3.45283 16.9515 3.32492 17.0004L2.05117 17.4846L2.51712 16.2584H2.51699C2.56843 16.1229 2.54977 15.9707 2.46704 15.8515C1.90387 15.0391 1.64377 14.0551 1.73189 13.0704C1.82002 12.0859 2.25062 11.1639 2.94904 10.4644C3.10371 10.3098 3.26893 10.1689 3.44434 10.0406L3.44478 10.0406ZM6.78353 11.7108C6.66692 11.7108 6.55497 11.7572 6.47248 11.8397C6.39 11.922 6.3436 12.034 6.3436 12.1506C6.3436 12.2673 6.39 12.3792 6.47248 12.4616C6.55497 12.5441 6.66692 12.5904 6.78353 12.5904H10.3045C10.4211 12.5904 10.5331 12.5441 10.6156 12.4616C10.6981 12.3792 10.7445 12.2673 10.7445 12.1506C10.7445 12.034 10.6981 11.922 10.6156 11.8397C10.5331 11.7572 10.4211 11.7108 10.3045 11.7108H6.78353Z" fill="#0B0E15"/>
<circle cx="14.0586" cy="3.75781" r="3" fill="#FC0000" stroke="white"/>
</svg>
