<svg width="15" height="16" viewBox="0 0 15 16" xmlns="http://www.w3.org/2000/svg">
<path d="M8.80564 0.574533C7.16782 0.574533 5.59668 1.22534 4.43873 2.38323C3.53357 3.28826 2.93851 4.44552 2.7215 5.68961C2.27701 5.92639 1.86951 6.22786 1.51292 6.58445L1.5128 6.58458C1.5128 6.5847 1.51268 6.58482 1.51255 6.58494C0.668676 7.42995 0.148084 8.5446 0.0416532 9.7342C-0.0581413 10.8454 0.210064 11.9563 0.800246 12.8979L0.0663519 14.8294C0.00473371 14.9913 0.0440118 15.1742 0.166392 15.2967C0.288893 15.4192 0.471913 15.4583 0.633816 15.3968L2.62565 14.6398C3.56063 15.1641 4.63908 15.3814 5.70735 15.2575C6.84915 15.1244 7.91277 14.6107 8.72573 13.7981H8.72561V13.7979C8.99958 13.5239 9.24067 13.2194 9.44552 12.8912C10.2937 12.803 11.1187 12.539 11.8662 12.1122L14.3627 13.0608C14.5246 13.1223 14.7075 13.083 14.8298 12.9607C14.9523 12.8382 14.9915 12.6553 14.93 12.4934L14.0087 10.0693C14.7421 8.92018 15.0761 7.55829 14.9543 6.19609C14.8246 4.75601 14.1947 3.40641 13.173 2.38317C13.1729 2.38304 13.1727 2.38304 13.1727 2.38292C12.0146 1.22503 10.4435 0.574219 8.80582 0.574219L8.80564 0.574533ZM8.80564 1.45426C10.2105 1.45426 11.5571 2.0119 12.5507 3.00529C13.427 3.8827 13.9674 5.03983 14.078 6.2749C14.1878 7.51012 13.8624 8.74485 13.1557 9.76416V9.76404C13.0731 9.88323 13.0544 10.0354 13.1058 10.1709L13.7596 11.891L11.9804 11.2149C11.8525 11.1662 11.7091 11.1797 11.5926 11.2515C10.5777 11.8798 9.38035 12.1468 8.19481 12.0093C7.00907 11.8713 5.9047 11.3379 5.06057 10.4941H5.06045C4.06718 9.50084 3.50929 8.15415 3.50929 6.74937C3.50929 6.52253 3.52586 6.29741 3.5525 6.07512V6.07524C3.56011 6.05143 3.56563 6.02688 3.56907 6.00208C3.73036 4.87414 4.25168 3.82061 5.06696 3.00532C6.06022 2.01219 7.40703 1.45429 8.81201 1.45429L8.80564 1.45426ZM5.96883 4.33381C5.85222 4.33381 5.74027 4.38009 5.65779 4.4627C5.57518 4.54519 5.5289 4.65713 5.5289 4.77374C5.5289 4.89047 5.5753 5.0023 5.65779 5.08478C5.74027 5.16727 5.85222 5.21355 5.96883 5.21355H11.6408C11.8837 5.21355 12.0806 5.01666 12.0806 4.77374C12.0806 4.65713 12.0343 4.54519 11.9518 4.4627C11.8693 4.38022 11.7575 4.33382 11.6408 4.33382L5.96883 4.33381ZM5.96883 6.3934C5.85222 6.3934 5.74027 6.43968 5.65779 6.52216C5.5753 6.60465 5.5289 6.7166 5.5289 6.8332C5.5289 6.94994 5.57518 7.06188 5.65779 7.14437C5.74027 7.22686 5.85222 7.27325 5.96883 7.27313H11.6408C11.7575 7.27313 11.8693 7.22686 11.9518 7.14425C12.0343 7.06176 12.0806 6.94994 12.0806 6.8332C12.0806 6.59041 11.8837 6.39353 11.6408 6.3934L5.96883 6.3934ZM2.63009 6.78277C2.64666 8.40855 3.28813 9.96659 4.43866 11.117C5.42297 12.1008 6.71108 12.7236 8.09352 12.8839C8.17834 12.9005 8.26341 12.9022 8.34859 12.9073C8.2704 13.0004 8.18902 13.0897 8.10334 13.1755C7.43057 13.848 6.55071 14.2736 5.60581 14.3833C4.66091 14.4931 3.70676 14.2802 2.89811 13.7793V13.7791C2.7815 13.7073 2.63813 13.6937 2.51022 13.7426L1.23647 14.2268L1.70242 13.0006H1.7023C1.75373 12.8651 1.73507 12.7128 1.65234 12.5937C1.08917 11.7813 0.829078 10.7972 0.917189 9.81256C1.00532 8.82813 1.43593 7.90604 2.13434 7.20662C2.28901 7.05196 2.45424 6.91104 2.62964 6.78278L2.63009 6.78277ZM5.96883 8.45299C5.85222 8.45299 5.74027 8.49938 5.65779 8.58187C5.5753 8.66424 5.5289 8.77618 5.5289 8.89279C5.5289 9.00952 5.5753 9.12135 5.65779 9.20383C5.74027 9.28632 5.85222 9.3326 5.96883 9.3326H9.48983C9.60643 9.3326 9.71838 9.28632 9.80087 9.20383C9.88335 9.12135 9.92975 9.00952 9.92975 8.89279C9.92975 8.77618 9.88335 8.66424 9.80087 8.58187C9.71838 8.49938 9.60643 8.45299 9.48983 8.45299H5.96883Z" />
</svg>
