<svg width="8" height="7" viewBox="0 0 8 7" fill="none" xmlns="http://www.w3.org/2000/svg">
<path d="M2.48222 4.90057C3.46803 5.88759 4.66153 6.64569 5.63646 6.64569C6.07397 6.64569 6.45804 6.49359 6.76623 6.15353C6.94626 5.95343 7.0541 5.72297 7.0541 5.4934C7.0541 5.31616 6.98583 5.14562 6.81859 5.02422L5.7907 4.29422C5.62891 4.18251 5.49562 4.12907 5.37356 4.12907C5.21904 4.12907 5.08028 4.21774 4.92422 4.37044L4.68345 4.60908C4.6467 4.64582 4.59873 4.66253 4.55532 4.66253C4.50401 4.66253 4.4521 4.64249 4.4181 4.62399C4.20799 4.51014 3.8479 4.20075 3.51359 3.86919C3.18203 3.53763 2.87265 3.17753 2.76154 2.96743C2.74304 2.93069 2.723 2.88152 2.723 2.83082C2.723 2.78679 2.73696 2.74156 2.7737 2.70482L3.01508 2.45857C3.16506 2.30251 3.25645 2.16649 3.25645 2.00922C3.25645 1.88717 3.20027 1.75389 3.08583 1.59208L2.36404 0.575141C2.24112 0.405184 2.06662 0.332031 1.87842 0.332031C1.65315 0.332031 1.4254 0.43104 1.22652 0.62204C0.894688 0.9363 0.748047 1.32585 0.748047 1.75729C0.748047 2.73221 1.49522 3.91751 2.48222 4.90057Z" fill="black"/>
</svg>
