<svg width="18" height="21" viewBox="0 0 18 21" xmlns="http://www.w3.org/2000/svg">
<path d="M4.80765 20.6125H13.1998C14.5975 20.6125 15.5053 19.7568 15.5708 18.3575L16.1893 5.20362H17.1995C17.6494 5.20362 18 4.84626 18 4.39633C18 3.94967 17.6494 3.5998 17.1995 3.5998H0.808025C0.365575 3.5998 0 3.94967 0 4.39633C0 4.85375 0.365575 5.20362 0.808025 5.20362H1.81821L2.4367 18.365C2.5039 19.7643 3.39501 20.6125 4.80765 20.6125ZM4.98806 18.9971C4.48242 18.9971 4.12104 18.6243 4.09529 18.0856L3.47425 5.20362H14.4942L13.9047 18.0856C13.8865 18.6334 13.525 18.9971 13.0044 18.9971H4.98806ZM6.31141 17.5213C6.69616 17.5213 6.94414 17.2775 6.93501 16.9185L6.65525 7.34632C6.64448 6.99061 6.39321 6.75431 6.02508 6.75431C5.64362 6.75431 5.39729 6.99809 5.40641 7.35545L5.67868 16.9234C5.68946 17.2867 5.94236 17.5213 6.31141 17.5213ZM9.00086 17.5213C9.37904 17.5213 9.64527 17.2808 9.64527 16.9252V7.35217C9.64527 6.99645 9.37904 6.75431 9.00086 6.75431C8.62104 6.75431 8.36229 6.99645 8.36229 7.35217V16.9252C8.36229 17.2808 8.62104 17.5213 9.00086 17.5213ZM11.6961 17.5213C12.0593 17.5213 12.3106 17.2867 12.3213 16.9234L12.5936 7.35545C12.6027 6.99809 12.3564 6.75431 11.9749 6.75431C11.6068 6.75431 11.3555 6.99061 11.3448 7.35381L11.0725 16.9185C11.0633 17.2775 11.3113 17.5213 11.6961 17.5213ZM4.85294 4.21026H6.53802V2.31389C6.53802 1.84112 6.86872 1.53781 7.3771 1.53781H10.6079C11.1163 1.53781 11.4471 1.84112 11.4471 2.31389V4.21026H13.1321V2.22916C13.1321 0.832952 12.241 0.00976562 10.7281 0.00976562H7.25695C5.74406 0.00976562 4.85294 0.832952 4.85294 2.22916V4.21026Z"/>
</svg>
