<svg width="19" height="18" viewBox="0 0 19 18" fill="none" xmlns="http://www.w3.org/2000/svg">
<path d="M5.89308 14.7794H9.18503C8.84415 14.4647 8.56925 14.0707 8.40101 13.6364H5.9938C5.43222 13.6364 5.14204 13.3526 5.14204 12.8095V4.14157C5.14204 3.60808 5.42639 3.30415 5.9938 3.30415H12.0077C12.5549 3.30415 12.8536 3.60331 12.8536 4.14157V9.17691C13.2878 9.3441 13.6819 9.61425 13.9956 9.95991V4.07536C13.9956 2.81136 13.3522 2.16211 12.1036 2.16211H5.89308C4.64925 2.16211 4 2.81614 4 4.07536V12.8662C4 14.1302 4.64925 14.7794 5.89308 14.7794ZM6.87097 5.67825H11.1363C11.3466 5.67825 11.5082 5.51084 11.5082 5.30053C11.5082 5.09709 11.3466 4.94028 11.1363 4.94028H6.87097C6.65005 4.94028 6.49325 5.09709 6.49325 5.30053C6.49325 5.51084 6.65005 5.67825 6.87097 5.67825ZM6.87097 7.66694H11.1363C11.3466 7.66694 11.5082 7.50428 11.5082 7.29397C11.5082 7.09053 11.3466 6.92896 11.1363 6.92896H6.87097C6.65005 6.92896 6.49325 7.09053 6.49325 7.29397C6.49325 7.50428 6.65005 7.66694 6.87097 7.66694Z" fill="#1A2233"/>
<path d="M11.4291 14.7795C12.8475 14.7795 13.9992 13.6278 13.9992 12.2094C13.9992 10.7846 12.8485 9.63184 11.4291 9.63184C10.0139 9.63184 8.85156 10.7942 8.85156 12.2094C8.85156 13.6278 10.0139 14.7795 11.4291 14.7795ZM11.4291 13.8935C10.4948 13.8935 9.73656 13.1362 9.73656 12.2094C9.73656 11.2857 10.4948 10.5227 11.4291 10.5227C12.3501 10.5227 13.1084 11.2857 13.1084 12.2094C13.1084 13.1362 12.3549 13.8935 11.4291 13.8935ZM14.4789 15.8379C14.7754 15.8379 15.0015 15.6071 15.0015 15.2846C15.0015 15.1438 14.9384 15.0051 14.8288 14.8944L13.2502 13.3121L12.4448 14.0521L14.0293 15.6404C14.1723 15.7823 14.3131 15.8379 14.4789 15.8379Z" fill="#1A2233"/>
</svg>
