<svg width="25" height="25" viewBox="0 0 25 25" xmlns="http://www.w3.org/2000/svg">
<path fill-rule="evenodd" clip-rule="evenodd" d="M24.2116 12.687C24.2116 19.3093 18.7364 24.792 12.1045 24.792C5.48435 24.792 -0.000488281 19.3093 -0.000488281 12.687C-0.000488281 6.05515 5.47474 0.582031 12.0949 0.582031C18.7268 0.582031 24.2116 6.05515 24.2116 12.687ZM11.5449 18.969C11.5449 19.3025 11.7805 19.5306 12.1023 19.5306C12.422 19.5306 12.6596 19.3025 12.6596 18.969V18.1527C14.6263 17.9748 16.1101 16.8491 16.1101 14.9935C16.1101 13.3339 15.0416 12.3505 12.9228 11.9628L12.6596 11.9066V8.85757C13.4446 8.99726 13.9832 9.46015 14.2208 10.178C14.3865 10.5793 14.6589 10.82 15.0856 10.82C15.5717 10.82 15.9165 10.4954 15.9165 10.0271C15.9165 9.90836 15.8873 9.78205 15.8585 9.65783C15.8548 9.64182 15.8511 9.62584 15.8474 9.60992C15.5246 8.35133 14.2888 7.44476 12.6596 7.2732V6.45804C12.6596 6.12453 12.422 5.89648 12.1023 5.89648C11.7805 5.89648 11.5449 6.12453 11.5449 6.45804V7.2732C9.63036 7.45976 8.2588 8.6314 8.2588 10.3407C8.2588 11.9202 9.32076 12.8427 11.3511 13.3168L11.5449 13.3635V16.5843C10.5617 16.4446 9.98801 15.9027 9.79512 15.1923C9.62286 14.7472 9.34513 14.5344 8.927 14.5344C8.42614 14.5344 8.09521 14.8696 8.09521 15.3547C8.09521 15.4942 8.11865 15.6378 8.16857 15.7761C8.51474 17.08 9.81599 17.9917 11.5449 18.1356V18.969ZM11.5449 8.84913V11.6167L11.4608 11.5932C10.4818 11.3148 10.0351 10.8765 10.0351 10.2249C10.0351 9.55742 10.6077 8.9996 11.5449 8.84913ZM12.6596 16.5843V13.6299L12.89 13.6918C13.9628 13.9766 14.3359 14.4235 14.3359 15.1178C14.3359 15.8856 13.7804 16.4542 12.6596 16.5843Z"/>
</svg>
