<svg width="29" height="28" viewBox="0 0 29 28" fill="none" xmlns="http://www.w3.org/2000/svg">
<g id="Commerce">
<g id="dollarsign.circle.fill">
<g id="Group">
<path id="Exclude" fill-rule="evenodd" clip-rule="evenodd" d="M26.4719 13.687C26.4719 20.3093 20.9967 25.792 14.3648 25.792C7.74461 25.792 2.25977 20.3093 2.25977 13.687C2.25977 7.05515 7.735 1.58203 14.3552 1.58203C20.9871 1.58203 26.4719 7.05515 26.4719 13.687ZM13.8052 19.969C13.8052 20.3025 14.0408 20.5306 14.3626 20.5306C14.6823 20.5306 14.9199 20.3025 14.9199 19.969V19.1527C16.8866 18.9748 18.3704 17.8491 18.3704 15.9935C18.3704 14.3339 17.3019 13.3505 15.1831 12.9628L14.9199 12.9066V9.85757C15.7049 9.99726 16.2435 10.4602 16.4811 11.178C16.6468 11.5793 16.9192 11.82 17.3459 11.82C17.832 11.82 18.1768 11.4954 18.1768 11.0271C18.1768 10.9084 18.1475 10.7821 18.1187 10.6578C18.115 10.6418 18.1113 10.6258 18.1077 10.6099C17.7849 9.35133 16.5491 8.44476 14.9199 8.2732V7.45804C14.9199 7.12453 14.6823 6.89648 14.3626 6.89648C14.0408 6.89648 13.8052 7.12453 13.8052 7.45804V8.2732C11.8906 8.45976 10.5191 9.6314 10.5191 11.3407C10.5191 12.9202 11.581 13.8427 13.6114 14.3168L13.8052 14.3635V17.5843C12.822 17.4446 12.2483 16.9027 12.0554 16.1923C11.8831 15.7472 11.6054 15.5344 11.1873 15.5344C10.6864 15.5344 10.3555 15.8696 10.3555 16.3547C10.3555 16.4942 10.3789 16.6378 10.4288 16.7761C10.775 18.08 12.0762 18.9917 13.8052 19.1356V19.969ZM13.8052 9.84913V12.6167L13.7211 12.5932C12.7421 12.3148 12.2954 11.8765 12.2954 11.2249C12.2954 10.5574 12.868 9.9996 13.8052 9.84913ZM14.9199 17.5843V14.6299L15.1503 14.6918C16.2231 14.9766 16.5962 15.4235 16.5962 16.1178C16.5962 16.8856 16.0407 17.4542 14.9199 17.5843Z" fill="#1A2233" fill-opacity="0.4"/>
</g>
</g>
</g>
</svg>
