<svg width="20" height="17" viewBox="0 0 20 17" fill="none" xmlns="http://www.w3.org/2000/svg">
<path d="M9.5026 0.849364C12.742 0.849364 15.9814 0.850096 19.2212 0.845703C19.3464 0.845703 19.3709 0.87023 19.3709 0.995428C19.3669 5.73098 19.3676 10.4669 19.3676 15.2024C19.238 15.6901 18.9748 16.0741 18.515 16.308C18.2302 16.453 17.9234 16.4877 17.6115 16.4881C15.4747 16.4899 13.3376 16.4892 11.2008 16.4892C8.91761 16.4892 6.63476 16.491 4.35155 16.4881C3.328 16.4866 2.45491 15.8749 2.16132 14.9239C1.67737 13.3552 1.19305 11.7859 0.750834 10.2052C0.46859 9.19698 0.67945 8.24445 1.3717 7.45629C2.75729 5.87887 4.17766 4.33184 5.57864 2.76796C6.31921 1.941 7.24281 1.41788 8.28942 1.08621C8.68552 0.960651 9.09076 0.891096 9.5026 0.849364ZM3.16766 7.85312C3.27858 7.85312 3.33276 7.85312 3.38658 7.85312C8.09797 7.85312 12.8094 7.85312 17.5207 7.85312C17.7818 7.85312 17.7836 7.85092 17.7836 7.58588C17.7836 5.97332 17.7836 4.36112 17.7836 2.74856C17.7836 2.55967 17.6894 2.46498 17.501 2.46449C14.9322 2.46449 12.3635 2.45387 9.79472 2.46925C8.61669 2.4762 7.61365 2.94661 6.81634 3.80323C5.81329 4.88095 4.84136 5.98796 3.85625 7.08253C3.6377 7.32524 3.42099 7.56977 3.1673 7.85348L3.16766 7.85312ZM16.2322 10.9882C16.6824 10.9882 17.1331 10.9838 17.5833 10.9904C17.7345 10.9926 17.7883 10.9377 17.7854 10.7876C17.7785 10.4105 17.7799 10.0331 17.7847 9.65604C17.7865 9.52022 17.7268 9.47446 17.5976 9.47483C16.6967 9.47739 15.7958 9.47776 14.8949 9.47446C14.7532 9.4741 14.7001 9.52828 14.7027 9.66922C14.7086 10.0404 14.7108 10.4116 14.702 10.7825C14.6979 10.9457 14.7627 10.9929 14.9176 10.9904C15.3558 10.9831 15.794 10.9878 16.2325 10.9878L16.2322 10.9882Z" fill="#0B0E15"/>
</svg>
