<svg width="10" height="14" viewBox="0 0 10 14" xmlns="http://www.w3.org/2000/svg">
<path d="M-8.24326e-05 6.98546C-8.24484e-05 7.16577 0.06525 7.32854 0.207836 7.47622L4.30064 11.5752C4.43647 11.7162 4.6184 11.7917 4.80604 11.7917C4.99369 11.7917 5.17674 11.7162 5.31148 11.5752L9.40142 7.47622C9.54287 7.32854 9.61328 7.16577 9.61328 6.98546C9.61328 6.6074 9.33834 6.32674 8.96417 6.32674C8.77156 6.32674 8.60018 6.39991 8.48245 6.52385L7.07344 7.91472L4.9963 10.2253L5.40946 10.4289L5.48385 8.40415L5.48385 0.685206C5.48385 0.277372 5.20605 0.000202747 4.80604 0.000202712C4.40605 0.000202677 4.12822 0.277372 4.12822 0.685206L4.12822 8.40415L4.20261 10.4289L4.6107 10.2253L2.53864 7.91472L1.13075 6.52384C1.00904 6.39991 0.841654 6.32674 0.649049 6.32674C0.274862 6.32674 -8.23995e-05 6.6074 -8.24326e-05 6.98546ZM-8.2911e-05 12.4583C-8.29443e-05 12.8393 0.273113 13.1289 0.650162 13.1289L8.95286 13.1289C9.3361 13.1289 9.61328 12.8393 9.61328 12.4583C9.61328 12.0762 9.3361 11.7917 8.95286 11.7917L0.650162 11.7917C0.273113 11.7917 -8.28776e-05 12.0762 -8.2911e-05 12.4583Z"/>
</svg>
