<svg width="18" height="19" viewBox="0 0 18 19" xmlns="http://www.w3.org/2000/svg">
<path fill-rule="evenodd" clip-rule="evenodd" d="M14.4994 15.7562H9.66406C9.38806 15.7562 9.16406 15.5255 9.16406 15.2414C9.16406 14.9572 9.38806 14.7266 9.66406 14.7266H14.4994C14.7754 14.7266 14.9994 14.9572 14.9994 15.2414C14.9994 15.5255 14.7754 15.7562 14.4994 15.7562Z" />
<mask id="mask0_8575_36697" style="mask-type:alpha" maskUnits="userSpaceOnUse" x="2" y="2" width="12" height="14">
<path fill-rule="evenodd" clip-rule="evenodd" d="M2 2.75781H13.4537V15.7578H2V2.75781Z"/>
</mask>
<g mask="url(#mask0_8575_36697)">
<path fill-rule="evenodd" clip-rule="evenodd" d="M9.40685 4.14202L3.13018 12.2243C3.01618 12.3712 2.97418 12.5607 3.01618 12.7425L3.47018 14.7228L5.49618 14.6967C5.68885 14.6947 5.86685 14.6061 5.98485 14.4551C8.12952 11.6924 12.2182 6.42497 12.3342 6.27053C12.4435 6.08795 12.4862 5.82987 12.4288 5.58139C12.3702 5.32674 12.2162 5.11053 11.9942 4.97256C11.9468 4.93893 10.8235 4.04113 10.7888 4.01298C10.3662 3.66429 9.74952 3.7247 9.40685 4.14202ZM3.07552 15.7579C2.84418 15.7579 2.64285 15.5945 2.58885 15.3618L2.04285 12.9794C1.93018 12.4858 2.04218 11.9765 2.34952 11.5812L8.62952 3.49407C8.63218 3.49132 8.63418 3.48789 8.63685 3.48515C9.32552 2.63745 10.5708 2.51252 11.4108 3.20647C11.4442 3.23324 12.5595 4.12555 12.5595 4.12555C12.9648 4.37403 13.2815 4.81812 13.4015 5.3439C13.5208 5.86419 13.4342 6.40095 13.1562 6.85466C13.1355 6.88829 13.1175 6.91712 6.76552 15.0989C6.45952 15.4916 6.00085 15.7201 5.50818 15.7263L3.08218 15.7579H3.07552Z" />
</g>
<path fill-rule="evenodd" clip-rule="evenodd" d="M11.4823 8.72014C11.3756 8.72014 11.2689 8.68514 11.1776 8.61375L7.54295 5.73913C7.32428 5.56616 7.28295 5.24356 7.45095 5.01705C7.61961 4.79191 7.93295 4.75004 8.15228 4.92301L11.7876 7.79694C12.0063 7.96991 12.0476 8.29321 11.8789 8.51903C11.7809 8.65082 11.6323 8.72014 11.4823 8.72014Z" />
</svg>
