<svg width="19" height="18" viewBox="0 0 19 18" xmlns="http://www.w3.org/2000/svg">
<g id="Icons">
<g id="Group">
<path id="Vector" d="M5.73014 13.4266H14.3875C15.4169 13.4266 16.0149 12.8286 16.0149 11.6828V5.74914C16.0149 4.60781 15.4125 4.00977 14.2525 4.00977H5.59515C4.5668 4.00977 3.96875 4.60341 3.96875 5.74914V11.6828C3.96875 12.833 4.5712 13.4266 5.73014 13.4266ZM5.72789 12.4311C5.22767 12.4311 4.95554 12.1736 4.95554 11.649V5.78297C4.95554 5.26374 5.22767 5.00526 5.72789 5.00526H14.2548C14.7472 5.00526 15.0281 5.26374 15.0281 5.78737V11.6534C15.0281 12.1736 14.7472 12.4311 14.2548 12.4311H5.72789ZM10.0001 10.1786C10.3973 10.1786 10.7769 10.0132 11.1624 9.63307L15.4828 5.38498L14.8403 4.73615L10.6151 8.90963C10.3909 9.13277 10.1979 9.22995 10.0001 9.22995C9.79793 9.22995 9.60591 9.12837 9.38524 8.90963L5.1424 4.71853L4.49549 5.36641L8.83692 9.63307C9.2234 10.0132 9.59862 10.1786 10.0001 10.1786ZM14.773 12.6217L15.4165 11.9729L11.986 8.57756L11.3415 9.22102L14.773 12.6217ZM4.57936 11.9773L5.2238 12.6261L8.65873 9.22102L8.01087 8.57756L4.57936 11.9773Z"/>
</g>
</g>
</svg>