<svg width="15" height="16" viewBox="0 0 15 16" fill="none" xmlns="http://www.w3.org/2000/svg">
<path d="M8.7844 0.574533C7.14658 0.574533 5.57544 1.22534 4.41749 2.38323C3.51233 3.28826 2.91727 4.44552 2.70026 5.68961C2.25577 5.92639 1.84827 6.22786 1.49168 6.58445L1.49156 6.58458C1.49156 6.5847 1.49144 6.58482 1.49131 6.58494C0.647436 7.42995 0.126844 8.5446 0.020413 9.7342C-0.0793816 10.8454 0.188823 11.9563 0.779006 12.8979L0.0451117 14.8294C-0.0165065 14.9913 0.0227716 15.1742 0.145151 15.2967C0.267653 15.4192 0.450672 15.4583 0.612575 15.3968L2.60441 14.6398C3.53939 15.1641 4.61784 15.3814 5.68611 15.2575C6.82791 15.1244 7.89153 14.6107 8.70449 13.7981H8.70437V13.7979C8.97834 13.5239 9.21943 13.2194 9.42428 12.8912C10.2725 12.803 11.0974 12.539 11.845 12.1122L14.3414 13.0608C14.5033 13.1223 14.6862 13.083 14.8086 12.9607C14.9311 12.8382 14.9702 12.6553 14.9088 12.4934L13.9874 10.0693C14.7208 8.92018 15.0548 7.55829 14.9331 6.19609C14.8033 4.75601 14.1735 3.40641 13.1517 2.38317C13.1516 2.38304 13.1515 2.38304 13.1515 2.38292C11.9934 1.22503 10.4223 0.574219 8.78458 0.574219L8.7844 0.574533ZM8.7844 1.45426C10.1892 1.45426 11.5359 2.0119 12.5294 3.00529C13.4058 3.8827 13.9462 5.03983 14.0568 6.2749C14.1665 7.51012 13.8411 8.74485 13.1344 9.76416V9.76404C13.0518 9.88323 13.0332 10.0354 13.0846 10.1709L13.7384 11.891L11.9591 11.2149C11.8312 11.1662 11.6879 11.1797 11.5714 11.2515C10.5565 11.8798 9.35911 12.1468 8.17357 12.0093C6.98783 11.8713 5.88346 11.3379 5.03933 10.4941H5.03921C4.04594 9.50084 3.48805 8.15415 3.48805 6.74937C3.48805 6.52253 3.50462 6.29741 3.53126 6.07512V6.07524C3.53887 6.05143 3.54439 6.02688 3.54783 6.00208C3.70912 4.87414 4.23044 3.82061 5.04572 3.00532C6.03898 2.01219 7.38579 1.45429 8.79077 1.45429L8.7844 1.45426ZM5.94759 4.33381C5.83098 4.33381 5.71903 4.38009 5.63655 4.4627C5.55394 4.54519 5.50766 4.65713 5.50766 4.77374C5.50766 4.89047 5.55406 5.0023 5.63655 5.08478C5.71903 5.16727 5.83098 5.21355 5.94759 5.21355H11.6195C11.8624 5.21355 12.0593 5.01666 12.0593 4.77374C12.0593 4.65713 12.013 4.54519 11.9306 4.4627C11.8481 4.38022 11.7362 4.33382 11.6195 4.33382L5.94759 4.33381ZM5.94759 6.3934C5.83098 6.3934 5.71903 6.43968 5.63655 6.52216C5.55406 6.60465 5.50766 6.7166 5.50766 6.8332C5.50766 6.94994 5.55394 7.06188 5.63655 7.14437C5.71903 7.22686 5.83098 7.27325 5.94759 7.27313H11.6195C11.7363 7.27313 11.8481 7.22686 11.9306 7.14425C12.013 7.06176 12.0593 6.94994 12.0593 6.8332C12.0593 6.59041 11.8624 6.39353 11.6195 6.3934L5.94759 6.3934ZM2.60885 6.78277C2.62542 8.40855 3.26689 9.96659 4.41742 11.117C5.40173 12.1008 6.68984 12.7236 8.07228 12.8839C8.1571 12.9005 8.24217 12.9022 8.32735 12.9073C8.24916 13.0004 8.16778 13.0897 8.0821 13.1755C7.40933 13.848 6.52947 14.2736 5.58457 14.3833C4.63967 14.4931 3.68552 14.2802 2.87687 13.7793V13.7791C2.76026 13.7073 2.61689 13.6937 2.48898 13.7426L1.21523 14.2268L1.68118 13.0006H1.68106C1.73249 12.8651 1.71383 12.7128 1.6311 12.5937C1.06793 11.7813 0.807837 10.7972 0.895949 9.81256C0.984082 8.82813 1.41469 7.90604 2.1131 7.20662C2.26777 7.05196 2.433 6.91104 2.6084 6.78278L2.60885 6.78277ZM5.94759 8.45299C5.83098 8.45299 5.71903 8.49938 5.63655 8.58187C5.55406 8.66424 5.50766 8.77618 5.50766 8.89279C5.50766 9.00952 5.55406 9.12135 5.63655 9.20383C5.71903 9.28632 5.83098 9.3326 5.94759 9.3326H9.46859C9.58519 9.3326 9.69714 9.28632 9.77963 9.20383C9.86211 9.12135 9.90851 9.00952 9.90851 8.89279C9.90851 8.77618 9.86211 8.66424 9.77963 8.58187C9.69714 8.49938 9.58519 8.45299 9.46859 8.45299H5.94759Z" fill="#0B0E15"/>
</svg>
