<svg width="12" height="18" viewBox="0 0 12 18" fill="none" xmlns="http://www.w3.org/2000/svg">
<path id="Vector" d="M3.52219 8.09363H9.14649C9.40137 8.09363 9.61607 7.88316 9.61607 7.62828C9.61607 7.37216 9.40137 7.15751 9.14649 7.15751H3.52219C3.26727 7.15751 3.05141 7.37216 3.05141 7.62828C3.05141 7.88316 3.26727 8.09363 3.52219 8.09363ZM3.52219 10.437H9.14649C9.40803 10.437 9.61607 10.229 9.61607 9.96746C9.61607 9.71134 9.40679 9.50872 9.14649 9.50872H3.52219C3.26184 9.50872 3.05141 9.71134 3.05141 9.96746C3.05141 10.229 3.25945 10.437 3.52219 10.437ZM3.52219 12.9074H6.40247C6.65735 12.9074 6.86782 12.6982 6.86782 12.4421C6.86782 12.1872 6.66402 11.9792 6.40247 11.9792H3.52219C3.26184 11.9792 3.05141 12.1872 3.05141 12.4421C3.05141 12.6982 3.26727 12.9074 3.52219 12.9074ZM2.8202 17.093H9.84609C11.2536 17.093 12 16.3401 12 14.9114V4.8938C12 3.49353 11.2766 2.71222 9.907 2.71222H9.75761C9.78213 2.79498 9.79162 2.88913 9.79162 2.98262V3.59642C9.79162 3.73334 9.77665 3.8667 9.74015 3.98204H9.87999C10.4416 3.98204 10.7302 4.34661 10.7302 4.90704V14.8982C10.7302 15.4912 10.4078 15.8232 9.79072 15.8232H2.87674C2.25844 15.8232 1.93731 15.4912 1.93731 14.8982V4.90704C1.93731 4.34661 2.22586 3.98204 2.78749 3.98204H2.92614C2.88959 3.8667 2.87462 3.73334 2.87462 3.59642V2.98262C2.87462 2.88913 2.88416 2.79498 2.90985 2.71222H2.75928C1.39092 2.71222 0.66748 3.49353 0.66748 4.8938V14.9114C0.66748 16.3401 1.41264 17.093 2.8202 17.093ZM4.29251 4.35721H8.37377C8.77211 4.35721 9.01218 4.10269 9.01218 3.67786V2.98262C9.01218 2.55661 8.77211 2.30328 8.37377 2.30328H7.81225C7.76236 1.53362 7.12327 0.910156 6.33371 0.910156C5.54421 0.910156 4.90512 1.53362 4.85519 2.30328H4.29251C3.89536 2.30328 3.65528 2.55661 3.65528 2.98262V3.67786C3.65528 4.10269 3.89536 4.35721 4.29251 4.35721ZM6.33371 2.94184C6.01114 2.94184 5.74933 2.67341 5.74933 2.35863C5.74933 2.0318 6.01114 1.77 6.33371 1.77C6.65634 1.77 6.91692 2.0318 6.91692 2.35863C6.91692 2.67341 6.65634 2.94184 6.33371 2.94184Z" />
</svg>
