<svg width="12" height="13" viewBox="0 0 12 13" fill="none" xmlns="http://www.w3.org/2000/svg">
<path fill-rule="evenodd" clip-rule="evenodd" d="M0.0457397 1.2931C0.0754835 1.22844 0.118691 1.17088 0.172473 1.12426C2.42337 -0.826062 4.44118 0.171907 6.2209 1.05427C7.93876 1.90476 9.42103 2.6384 11.1708 1.12426C11.2429 1.06105 11.3318 1.01995 11.4267 1.00587C11.5216 0.991789 11.6186 1.00532 11.706 1.04486C11.7935 1.08439 11.8677 1.14825 11.9198 1.22882C11.9719 1.30938 11.9998 1.40324 12 1.4992V8.9999C11.9996 9.07108 11.984 9.14134 11.9543 9.206C11.9245 9.27066 11.8813 9.32823 11.8275 9.37485C10.8727 10.2028 9.95969 10.4997 9.0892 10.4997C7.90651 10.4997 6.80369 9.95431 5.77949 9.44783L5.77722 9.44671C4.11623 8.62434 2.67396 7.91132 0.999844 9.23362V11.9976C0.999844 12.1301 0.947173 12.2573 0.85342 12.3511C0.759666 12.4448 0.632509 12.4975 0.499922 12.4975C0.367334 12.4975 0.240177 12.4448 0.146424 12.3511C0.0526703 12.2573 0 12.1301 0 11.9976V1.4992C0.00040161 1.42803 0.0159958 1.35776 0.0457397 1.2931Z" fill="#3B82F6"/>
</svg>
