<svg width="25" height="25" viewBox="0 0 25 25" xmlns="http://www.w3.org/2000/svg">
<path d="M20.2168 6.75H12.2168L10.8068 5.34C10.4268 4.96 9.9168 4.75 9.3868 4.75H4.2168C3.1168 4.75 2.2268 5.65 2.2268 6.75L2.2168 18.75C2.2168 19.85 3.1168 20.75 4.2168 20.75H20.2168C21.3168 20.75 22.2168 19.85 22.2168 18.75V8.75C22.2168 7.65 21.3168 6.75 20.2168 6.75ZM19.2168 18.75H5.2168C4.6668 18.75 4.2168 18.3 4.2168 17.75V9.75C4.2168 9.2 4.6668 8.75 5.2168 8.75H19.2168C19.7668 8.75 20.2168 9.2 20.2168 9.75V17.75C20.2168 18.3 19.7668 18.75 19.2168 18.75Z"/>
</svg>
