<svg width="16" height="11" viewBox="0 0 16 11" xmlns="http://www.w3.org/2000/svg">
<path d="M1.85268 10.7019H11.2322C12.3092 10.7019 12.9429 10.0729 12.9429 8.86776V6.56577C12.6438 6.63073 12.1931 6.63536 11.8364 6.56577V8.77946C11.8364 9.32459 11.5419 9.59544 11.0214 9.59544H1.91684C1.39171 9.59544 1.1065 9.32459 1.1065 8.77484V2.07874C1.1065 1.56028 1.389 1.28546 1.89662 1.28546H2.98562C3.37972 1.28546 3.61681 1.38249 3.93229 1.63957L4.25546 1.90626C4.64797 2.22344 4.94934 2.33277 5.54101 2.33277H8.69493C8.74336 1.93969 8.83161 1.59846 9.02024 1.22526H5.83514C5.43176 1.22526 5.18698 1.13185 4.87815 0.875782L4.55399 0.613727C4.15888 0.288303 3.86678 0.183594 3.27512 0.183594H1.67669C0.624301 0.183594 0 0.79818 0 1.98318V8.86776C0 10.0775 0.633674 10.7019 1.85268 10.7019ZM0.690712 4.46186H9.00655C8.85204 4.16129 8.73796 3.83158 8.68326 3.48605H0.690712V4.46186Z" />
<path d="M12.3441 5.81331C13.9207 5.81331 15.2508 4.49503 15.2508 2.90463C15.2508 1.31524 13.9355 0 12.3441 0C10.7481 0 9.4375 1.31524 9.4375 2.90463C9.4375 4.5043 10.7481 5.81331 12.3441 5.81331Z M11.0411 4.21154C10.8736 4.04393 10.8777 3.82668 11.0406 3.66387L11.7979 2.90688L11.0424 2.15097C10.8796 1.98806 10.8797 1.77337 11.0458 1.60585C11.2095 1.44088 11.4234 1.44022 11.5884 1.60527L12.3439 2.36119L13.0984 1.60708C13.262 1.44354 13.4753 1.4436 13.6443 1.60977C13.8092 1.77339 13.8085 1.98737 13.6434 2.15233L12.8889 2.90644L13.6452 3.66311C13.8087 3.82673 13.8112 4.04398 13.6469 4.20823C13.48 4.37504 13.2627 4.37242 13.0992 4.20881L12.3429 3.45214L11.5855 4.20912C11.4227 4.37194 11.2054 4.37587 11.0411 4.21154Z"/>
</svg>
