<svg width="32" height="32" viewBox="0 0 32 32" fill="none" xmlns="http://www.w3.org/2000/svg">
<rect width="32" height="32" rx="8" fill="#5598EB"/>
<path d="M24.314 17.403C23.9602 17.0822 23.4085 17.1032 23.0367 17.403L20.2662 19.6188C19.9274 19.8917 19.5046 20.0386 19.0668 20.0386H15.5198C15.2559 20.0386 15.04 19.8227 15.04 19.5588C15.04 19.295 15.2559 19.0791 15.5198 19.0791H17.8675C18.3442 19.0791 18.788 18.7523 18.866 18.2815C18.9649 17.6819 18.5032 17.1602 17.9185 17.1602H13.1211C12.3115 17.1602 11.529 17.439 10.8993 17.9487L9.50508 19.0791H7.84399C7.58014 19.0791 7.36426 19.295 7.36426 19.5588V22.4373C7.36426 22.7011 7.58014 22.917 7.84399 22.917H18.5421C18.9769 22.917 19.3997 22.7701 19.7415 22.4972L24.275 18.8692C24.7307 18.5064 24.7667 17.8108 24.314 17.403Z" fill="white"/>
<path d="M17.5769 14.4625C17.2048 14.4625 16.8551 14.3918 16.5277 14.2505C16.2004 14.1091 15.9157 13.9175 15.6736 13.6756C15.4315 13.4335 15.2399 13.1487 15.0987 12.8214C14.9576 12.4941 14.8869 12.1444 14.8867 11.7722C14.8867 11.4001 14.9574 11.0504 15.0987 10.7231C15.24 10.3958 15.4317 10.111 15.6736 9.86892C15.9157 9.6268 16.2004 9.43517 16.5277 9.29402C16.8551 9.15287 17.2048 9.08221 17.5769 9.08203C17.9491 9.08203 18.2988 9.15269 18.6261 9.29402C18.9534 9.43535 19.2381 9.62698 19.4803 9.86892C19.7224 10.111 19.9141 10.3958 20.0554 10.7231C20.1968 11.0504 20.2673 11.4001 20.2671 11.7722C20.2671 12.1444 20.1965 12.4941 20.0552 12.8214C19.9138 13.1487 19.7222 13.4335 19.4803 13.6756C19.2381 13.9177 18.9534 14.1094 18.6261 14.2507C18.2988 14.3921 17.9491 14.4626 17.5769 14.4625Z" fill="white"/>
</svg>
