<svg width="16" height="20" fill="white" viewBox="0 0 16 20" xmlns="http://www.w3.org/2000/svg">
<g id="Group">
<g id="Group_2">
<g id="Group_3">
<path id="Vector" d="M11.6414 16.2852C11.1875 16.5429 10.7337 16.8006 10.2798 17.0583C9.55673 17.468 8.83556 17.8795 8.11247 18.2891C7.94708 18.3834 7.78362 18.4757 7.61823 18.5699C7.81247 18.5699 8.0067 18.5699 8.20094 18.5699C7.43746 18.1257 6.67398 17.6814 5.9105 17.2353C5.46626 16.9776 5.02202 16.7179 4.57778 16.4602C4.48547 16.4064 4.39509 16.3545 4.30278 16.3006C4.17585 16.2256 4.04893 16.1487 3.92777 16.066C3.83161 16.0025 3.7393 15.9352 3.64699 15.866C3.6143 15.841 3.52968 15.7718 3.67199 15.8872C3.64892 15.8698 3.62776 15.8525 3.60469 15.8333C3.55276 15.791 3.50084 15.7487 3.45084 15.7064C3.2566 15.541 3.07006 15.3641 2.89698 15.1775C2.80659 15.0814 2.72005 14.9814 2.63543 14.8814C2.59313 14.8314 2.55274 14.7775 2.51235 14.7275C2.64505 14.8891 2.49697 14.7064 2.4662 14.6641C2.16235 14.2467 1.9085 13.7948 1.70849 13.3198C1.72772 13.3659 1.74695 13.4121 1.76619 13.4583C1.53926 12.9159 1.38541 12.3486 1.30656 11.7659C1.31425 11.8178 1.32002 11.8678 1.32771 11.9198C1.2681 11.4755 1.2681 11.0332 1.2681 10.5851C1.2681 10.0332 1.2681 9.48125 1.2681 8.93124C1.2681 8.20045 1.2681 7.47159 1.2681 6.74081C1.2681 6.09079 1.2681 5.44078 1.2681 4.79076C1.2681 4.4696 1.27771 4.14652 1.2681 3.82344C1.2681 3.81959 1.2681 3.81382 1.2681 3.80998C1.07579 4.00229 0.883475 4.1946 0.691163 4.38691C1.97581 4.38691 3.27391 4.16383 4.48163 3.72151C5.10664 3.49266 5.71627 3.21381 6.2932 2.87919C6.78167 2.59649 7.23745 2.27148 7.67977 1.9234C7.92208 1.73301 8.16632 1.54262 8.40863 1.35223C8.13747 1.35223 7.86439 1.35223 7.59323 1.35223C8.2144 1.83878 8.82595 2.34264 9.50096 2.75611C10.6029 3.4292 11.8337 3.91382 13.0991 4.16575C13.8261 4.30999 14.5703 4.38883 15.3107 4.38883C15.1184 4.19652 14.9261 4.00421 14.7338 3.8119C14.7338 4.07537 14.7338 4.33883 14.7338 4.6023C14.7338 5.22154 14.7338 5.83886 14.7338 6.45811C14.7338 7.18697 14.7338 7.91583 14.7338 8.64277C14.7338 9.2274 14.7338 9.81202 14.7338 10.3967C14.7338 10.7505 14.7415 11.1063 14.7165 11.4582C14.7068 11.5967 14.6915 11.7332 14.6741 11.8698C14.6818 11.8178 14.6876 11.7678 14.6953 11.7159C14.6145 12.3025 14.4588 12.8775 14.2299 13.4236C14.2491 13.3775 14.2684 13.3313 14.2876 13.2852C14.0703 13.7967 13.7934 14.2794 13.4568 14.7217C13.3799 14.8237 13.528 14.6314 13.4703 14.7044C13.4472 14.7333 13.4241 14.7621 13.401 14.791C13.3568 14.8448 13.3107 14.8987 13.2664 14.9525C13.1741 15.0583 13.078 15.1621 12.9799 15.2621C12.7837 15.4602 12.576 15.6448 12.3587 15.8179C12.2895 15.8737 12.4068 15.7814 12.4087 15.7795C12.3914 15.7948 12.3703 15.8083 12.3529 15.8218C12.3222 15.8448 12.2914 15.8679 12.2606 15.8891C12.1952 15.9372 12.1279 15.9833 12.0606 16.0275C11.9222 16.1198 11.7837 16.2045 11.6414 16.2852C11.3798 16.4352 11.2664 16.8141 11.4337 17.0737C11.6049 17.3391 11.9433 17.441 12.2222 17.2814C12.9126 16.8872 13.5472 16.3775 14.0684 15.7775C14.6107 15.1564 15.0338 14.4621 15.3492 13.7025C15.6511 12.9756 15.8184 12.1986 15.8703 11.4121C15.8857 11.1813 15.8838 10.9486 15.8838 10.7159C15.8838 9.9678 15.8838 9.22163 15.8838 8.47353C15.8838 7.4889 15.8838 6.50426 15.8838 5.52155C15.8838 4.96 15.8915 4.39653 15.8838 3.83305C15.8838 3.82536 15.8838 3.81574 15.8838 3.80805C15.8838 3.49651 15.6203 3.23112 15.3069 3.23112C14.8318 3.23112 14.3549 3.19842 13.8837 3.13496C13.9357 3.14265 13.9857 3.14842 14.0376 3.15612C13.1126 3.02919 12.2068 2.78111 11.3452 2.41956C11.3914 2.43879 11.4375 2.45802 11.4837 2.47725C10.8491 2.20802 10.2414 1.88109 9.67212 1.49454C9.52789 1.39839 9.3875 1.29646 9.24903 1.19261C9.21442 1.16569 9.1798 1.14069 9.14519 1.11376C9.16249 1.12723 9.24519 1.19069 9.18365 1.14261C9.17211 1.133 9.16057 1.1253 9.14903 1.11569C9.01634 1.01184 8.88364 0.906068 8.74902 0.802219C8.63364 0.711833 8.52017 0.621446 8.40479 0.53106C8.28555 0.436827 8.15863 0.354133 7.99708 0.361825C7.83362 0.369518 7.71631 0.431058 7.58938 0.53106C7.35092 0.717602 7.11437 0.904145 6.87591 1.09069C6.83937 1.11953 6.71244 1.21184 6.84898 1.11184C6.7086 1.21377 6.57205 1.31954 6.42974 1.41954C6.14705 1.6157 5.85281 1.79839 5.5528 1.96763C5.21433 2.15609 4.86817 2.32533 4.5124 2.47533C4.55855 2.4561 4.60471 2.43687 4.65086 2.41764C3.7893 2.77918 2.88352 3.02727 1.9585 3.15419C2.01042 3.1465 2.06042 3.14073 2.11235 3.13304C1.64118 3.1965 1.16617 3.22919 0.68924 3.22919C0.377695 3.22919 0.112305 3.49266 0.112305 3.80613C0.112305 4.22537 0.112305 4.64653 0.112305 5.06577C0.112305 5.9581 0.112305 6.8485 0.112305 7.74083C0.112305 8.57354 0.112305 9.40625 0.112305 10.2409C0.112305 10.4659 0.112305 10.6909 0.112305 10.9159C0.112305 11.3217 0.143075 11.7236 0.200768 12.1255C0.412311 13.5967 1.12002 14.9929 2.14889 16.0622C2.61043 16.541 3.14698 16.9583 3.722 17.2949C3.90469 17.4026 4.08931 17.5083 4.27201 17.616C5.03933 18.0622 5.80473 18.5084 6.57205 18.9545C6.86245 19.1238 7.15476 19.293 7.44515 19.4622C7.50092 19.4949 7.55669 19.5295 7.61438 19.5603C7.8067 19.6622 8.01247 19.6622 8.2067 19.5603C8.22593 19.5507 8.24324 19.5392 8.26248 19.5295C8.88172 19.1776 9.50288 18.8257 10.1221 18.4737C10.7856 18.0968 11.4491 17.7199 12.1126 17.343C12.1491 17.3218 12.1876 17.3006 12.2241 17.2795C12.4876 17.1295 12.5991 16.7506 12.4318 16.491C12.2587 16.2275 11.9222 16.1256 11.6414 16.2852Z" fill="white"/>
</g>
</g>
<g id="Group_4">
<g id="Group_5">
<path id="Vector_2" d="M9.20313 8.61847C9.20313 8.6954 9.19736 8.7704 9.18967 8.8454C9.19736 8.79348 9.20313 8.74347 9.21082 8.69155C9.18774 8.85694 9.14544 9.01463 9.08005 9.16848C9.09928 9.12233 9.11851 9.07617 9.13774 9.03002C9.09351 9.1281 9.04351 9.22425 8.98389 9.31464C8.96851 9.33772 8.95312 9.35887 8.93774 9.38003C8.88581 9.45503 9.01466 9.28579 8.97043 9.33772C8.93582 9.3781 8.9012 9.41849 8.86274 9.45695C8.82812 9.49157 8.7935 9.52618 8.75504 9.55695C8.73389 9.57426 8.71273 9.59157 8.6935 9.60888C8.83389 9.49157 8.75889 9.55695 8.72427 9.58195C8.63581 9.64349 8.54158 9.69542 8.4435 9.74157C8.33388 9.79157 8.25311 9.91081 8.20695 10.0166C8.15311 10.1454 8.15695 10.2531 8.17811 10.3916C8.30503 11.2493 8.43196 12.107 8.55888 12.9628C8.57619 13.084 8.59542 13.2051 8.61273 13.3263C8.79735 13.082 8.98389 12.8397 9.16851 12.5955C8.48581 12.5955 7.8031 12.5955 7.12039 12.5955C7.02231 12.5955 6.92423 12.5955 6.82616 12.5955C7.01078 12.8397 7.19732 13.082 7.38194 13.3263C7.50886 12.4686 7.63579 11.6108 7.76271 10.7551C7.78002 10.6339 7.79925 10.5127 7.81656 10.3916C7.83579 10.2589 7.84156 10.1454 7.78771 10.0166C7.74348 9.91081 7.66079 9.79157 7.55117 9.74157C7.45309 9.69542 7.35886 9.64349 7.2704 9.58195C7.23193 9.55503 7.16655 9.48964 7.30117 9.60888C7.28386 9.59349 7.26655 9.58003 7.24924 9.56657C7.20886 9.53195 7.16847 9.49541 7.13193 9.45695C7.09732 9.42233 7.06655 9.38387 7.03385 9.34733C6.96462 9.26849 7.11847 9.46464 7.05885 9.38003C7.04347 9.35887 7.02808 9.33579 7.0127 9.31464C6.95308 9.22425 6.90116 9.13002 6.85885 9.03002C6.87808 9.07617 6.89731 9.12233 6.91654 9.16848C6.85116 9.01463 6.80885 8.85694 6.78577 8.69155C6.79346 8.74347 6.79923 8.79348 6.80692 8.8454C6.78769 8.68963 6.78962 8.53385 6.80885 8.37808C6.80116 8.43001 6.79539 8.48001 6.78769 8.53193C6.80885 8.37808 6.84923 8.22808 6.90885 8.08385C6.88962 8.13 6.87039 8.17615 6.85116 8.22231C6.89346 8.12038 6.94539 8.02423 7.00501 7.93192C7.01077 7.9223 7.05308 7.84922 7.0627 7.84922C7.05116 7.84922 6.95693 7.98 7.03385 7.88769C7.06847 7.84538 7.10501 7.80499 7.14347 7.76653C7.18193 7.72807 7.22232 7.69153 7.26463 7.65691C7.30117 7.62614 7.37424 7.5896 7.22616 7.68576C7.25116 7.67037 7.27424 7.65114 7.29732 7.63576C7.39155 7.5723 7.49348 7.51845 7.59733 7.47422C7.55117 7.49345 7.50502 7.51268 7.45886 7.53191C7.60309 7.47229 7.7531 7.43191 7.90695 7.41075C7.85502 7.41845 7.80502 7.42422 7.7531 7.43191C7.91272 7.41075 8.07234 7.41075 8.23195 7.43191C8.18003 7.42422 8.13003 7.41845 8.0781 7.41075C8.23195 7.43191 8.38196 7.47229 8.52619 7.53191C8.48004 7.51268 8.43388 7.49345 8.38773 7.47422C8.48965 7.51653 8.58581 7.56845 8.67812 7.62807C8.68773 7.63384 8.76081 7.67614 8.76081 7.68576C8.76081 7.67422 8.63004 7.57999 8.72235 7.65691C8.76466 7.69153 8.80504 7.72807 8.84351 7.76653C8.88197 7.80499 8.91851 7.84538 8.95312 7.88769C8.98389 7.92423 9.02043 7.9973 8.92428 7.84922C8.93966 7.87423 8.95889 7.8973 8.97428 7.92038C9.03774 8.01461 9.09159 8.11654 9.13582 8.22039C9.11659 8.17423 9.09736 8.12808 9.07813 8.08192C9.13774 8.22616 9.17813 8.37616 9.19928 8.53001C9.19159 8.47808 9.18582 8.42808 9.17813 8.37616C9.19736 8.45885 9.20313 8.5377 9.20313 8.61847C9.20505 8.9204 9.46659 9.20887 9.78006 9.19541C10.0916 9.18194 10.3589 8.94156 10.357 8.61847C10.3532 7.97615 10.0878 7.33768 9.61275 6.8992C9.14159 6.4665 8.49542 6.21458 7.8531 6.2665C7.21655 6.31842 6.59538 6.60304 6.19153 7.11075C5.97998 7.37614 5.81652 7.66461 5.72613 7.99538C5.62998 8.34539 5.62998 8.69732 5.68575 9.0531C5.79921 9.77042 6.31845 10.4339 6.97424 10.7377C6.88577 10.5204 6.79731 10.3031 6.70885 10.0858C6.58192 10.9435 6.45499 11.8012 6.32807 12.657C6.31076 12.7782 6.29153 12.8993 6.27422 13.0205C6.24537 13.2109 6.25691 13.3666 6.37807 13.5243C6.48769 13.6667 6.64731 13.7513 6.83192 13.7513C7.51463 13.7513 8.19734 13.7513 8.88004 13.7513C8.97812 13.7513 9.0762 13.7513 9.17428 13.7513C9.35698 13.7513 9.5166 13.6667 9.62814 13.5243C9.74929 13.3666 9.75891 13.2109 9.73199 13.0205C9.60506 12.1628 9.47813 11.3051 9.35121 10.4493C9.3339 10.3281 9.31467 10.207 9.29736 10.0858C9.2089 10.3031 9.12043 10.5204 9.03197 10.7377C9.84353 10.3608 10.357 9.50311 10.3628 8.61847C10.3647 8.31654 10.0955 8.02807 9.78583 8.04154C9.46467 8.055 9.20505 8.29539 9.20313 8.61847Z" fill="white"/>
</g>
</g>
</g>
</svg>
