<svg width="17" height="14" viewBox="0 0 17 14" xmlns="http://www.w3.org/2000/svg">
<path d="M4.6555 9.80437H5.50124C5.8799 9.80437 6.18385 9.57335 6.26368 9.21101L6.39949 8.59157C6.41369 8.52751 6.43267 8.49724 6.44895 8.48525L7.08634 8.86776C7.39458 9.04947 7.77629 9.01165 8.03414 8.75277L8.62355 8.15759C8.89505 7.88613 8.93386 7.51014 8.73854 7.20194L8.32216 6.54503C8.32689 6.60928 8.33636 6.52017 8.3411 6.56051L9.06552 6.38506C9.41997 6.3 9.65676 5.99649 9.65676 5.61789V4.83305C9.65676 4.45917 9.42574 4.15568 9.06552 4.06588L8.3411 3.89148C8.33636 3.89645 8.32689 3.88224 8.32216 3.90697L8.73854 3.25005C8.93386 2.94183 8.89505 2.56957 8.62355 2.29439L8.03414 1.70289C7.77629 1.44401 7.39458 1.40252 7.08634 1.5879L6.40111 1.99379C6.46951 1.98905 6.3773 1.98431 6.41763 1.97957L6.26368 1.23991C6.18646 0.884412 5.88093 0.652344 5.50124 0.652344H4.6555C4.27689 0.652344 3.97606 0.884412 3.89308 1.23991L3.73336 1.97957C3.73729 1.98431 3.72307 1.98905 3.74988 1.99379L3.07148 1.5879C2.76324 1.40148 2.38047 1.44401 2.12263 1.70289L1.53321 2.29439C1.26381 2.56853 1.22868 2.94656 1.41822 3.25005L1.83462 3.90697C1.82989 3.84167 1.82041 3.93181 1.81567 3.89148L1.08653 4.06588C0.731028 4.15568 0.5 4.45917 0.5 4.83305V5.61789C0.5 5.99649 0.731028 6.3 1.08653 6.38506L1.81567 6.56051C1.82041 6.55553 1.82989 6.56973 1.83462 6.54503L1.41822 7.20194C1.22395 7.51014 1.26174 7.88613 1.53321 8.15759L2.12263 8.75277C2.38151 9.01165 2.75539 9.04947 3.06466 8.86776L3.70886 8.48525C3.72307 8.4858 3.74306 8.49531 3.75728 8.59157L3.89308 9.21101C3.97294 9.57335 4.27689 9.80437 4.6555 9.80437ZM4.76946 8.92047C4.71584 8.92047 4.71399 8.91446 4.69769 8.85982L4.44401 7.80565C4.15208 7.74313 3.88846 7.60876 3.67997 7.49376L2.76082 8.05102C2.70823 8.08258 2.70003 8.08199 2.66269 8.0457L2.22873 7.6165C2.19139 7.58021 2.19186 7.57774 2.22236 7.52518L2.77388 6.61598C2.70765 6.43743 2.54181 6.16489 2.47663 5.84777L1.43775 5.59989C1.38412 5.58933 1.37708 5.58276 1.37708 5.5281V4.92285C1.37708 4.86922 1.38412 4.86633 1.43775 4.85581L2.47663 4.60791C2.54181 4.28604 2.70765 4.0193 2.77388 3.83497L2.22236 2.9268C2.19186 2.87791 2.19139 2.87652 2.22873 2.83446L2.66269 2.411C2.70003 2.37367 2.70823 2.37413 2.76082 2.39991L3.67997 2.95719C3.88846 2.8422 4.15208 2.70779 4.44401 2.64527L4.69769 1.59587C4.71399 1.54224 4.71584 1.53519 4.76946 1.53519H5.38731C5.44094 1.53519 5.44384 1.54224 5.45908 1.59587L5.71274 2.64527C6.0047 2.70779 6.26832 2.8422 6.47784 2.95719L7.39596 2.39991C7.44379 2.37413 7.45676 2.37367 7.49409 2.411L7.92802 2.83446C7.9654 2.87652 7.96594 2.87791 7.93438 2.9268L7.38289 3.83497C7.44911 4.0193 7.61598 4.28604 7.68117 4.60791L8.71901 4.85581C8.77266 4.86633 8.77971 4.86922 8.77971 4.92285V5.5281C8.77971 5.58276 8.77266 5.58933 8.71901 5.59989L7.68117 5.84777C7.61598 6.16489 7.44911 6.43743 7.38289 6.61598L7.93438 7.52518C7.96594 7.57774 7.9654 7.58021 7.92802 7.6165L7.49409 8.0457C7.45676 8.08199 7.44379 8.08258 7.39596 8.05102L6.47784 7.49376C6.26832 7.60876 6.0047 7.74313 5.71274 7.80565L5.45908 8.85982C5.44384 8.91446 5.44094 8.92047 5.38731 8.92047H4.76946ZM5.07838 6.9723C6.02665 6.9723 6.80837 6.18476 6.80837 5.22599C6.80837 4.27772 6.02665 3.49599 5.07838 3.49599C4.11486 3.49599 3.33787 4.27564 3.33787 5.22599C3.33787 6.18003 4.11486 6.9723 5.07838 6.9723ZM5.07838 6.06503C4.62049 6.06503 4.23933 5.69338 4.23933 5.22599C4.23933 4.77387 4.62256 4.39745 5.07838 4.39745C5.53048 4.39745 5.90115 4.77387 5.90115 5.22599C5.90115 5.68756 5.53048 6.06503 5.07838 6.06503ZM12.3088 13.3419H12.9754C13.3214 13.3419 13.6144 13.1377 13.6685 12.8227L13.7773 12.2421C13.778 12.2374 13.7923 12.2327 13.7618 12.2279L14.281 12.5508C14.5604 12.7257 14.9074 12.6889 15.1479 12.4369L15.6181 11.9657C15.8617 11.7163 15.9069 11.3692 15.7215 11.0909L15.3928 10.5931C15.3976 10.6564 15.4023 10.572 15.4118 10.6113L15.9818 10.492C16.2911 10.4274 16.5 10.1439 16.5 9.79998V9.14967C16.5 8.81149 16.2911 8.52327 15.9818 8.45759L15.4118 8.34309C15.4023 8.34699 15.3976 8.33279 15.3928 8.3565L15.7215 7.85975C15.9069 7.58144 15.8617 7.23912 15.6181 6.98971L15.1479 6.51381C14.9074 6.26647 14.5604 6.22396 14.281 6.39985L13.7618 6.72171C13.8328 6.71697 13.7427 6.71224 13.7773 6.7075L13.6685 6.1317C13.6144 5.81296 13.3214 5.60876 12.9754 5.60876H12.3088C11.9628 5.60876 11.6698 5.81296 11.61 6.1317L11.5022 6.7075C11.5062 6.71224 11.492 6.71697 11.5177 6.72171L10.9985 6.39985C10.7191 6.22396 10.3768 6.26647 10.1363 6.51381L9.66612 6.98971C9.42248 7.23912 9.37628 7.58144 9.55794 7.85975L9.88664 8.3565C9.88191 8.29432 9.87718 8.38239 9.87244 8.34309L9.30241 8.45759C8.9884 8.52327 8.77843 8.81149 8.77843 9.14967V9.79998C8.77843 10.1439 8.9884 10.4274 9.30241 10.492L9.87244 10.6113C9.87718 10.6074 9.88191 10.6169 9.88664 10.5931L9.55794 11.0909C9.37628 11.3692 9.42248 11.7163 9.66612 11.9657L10.1363 12.4369C10.3768 12.6889 10.7191 12.7257 10.9985 12.5508L11.5177 12.2279C11.4514 12.2327 11.5415 12.2374 11.5022 12.2421L11.61 12.8227C11.6698 13.1377 11.9628 13.3419 12.3088 13.3419ZM12.4653 12.5016C12.4001 12.5016 12.3883 12.4825 12.372 12.4289L12.1646 11.5833C11.921 11.5312 11.7077 11.4473 11.4798 11.2944L10.7372 11.7583C10.7003 11.7799 10.6633 11.7824 10.6233 11.7461L10.3674 11.4797C10.3217 11.4339 10.3231 11.4064 10.3495 11.3659L10.7928 10.6478C10.7549 10.507 10.5792 10.242 10.5265 9.94421L9.68358 9.74726C9.63102 9.73676 9.614 9.71447 9.614 9.66186V9.28779C9.614 9.23517 9.63102 9.21392 9.68358 9.20342L10.5265 9.00647C10.5792 8.70873 10.7549 8.44837 10.7928 8.30182L10.3495 7.58479C10.3231 7.54796 10.3217 7.51571 10.3674 7.47098L10.6233 7.20825C10.6633 7.16831 10.7003 7.17083 10.7372 7.19716L11.4798 7.65624C11.7077 7.50816 11.921 7.41837 12.1646 7.36639L12.372 6.52076C12.3883 6.46815 12.4001 6.44907 12.4653 6.44907H12.8142C12.8794 6.44907 12.8911 6.46815 12.9064 6.52076L13.1149 7.36639C13.3575 7.41837 13.5718 7.50816 13.7997 7.65624L14.5424 7.19716C14.5829 7.17083 14.6151 7.16831 14.6562 7.20825L14.9168 7.47098C14.9578 7.51571 14.9563 7.54796 14.9347 7.58479L14.4866 8.30182C14.5283 8.44837 14.6993 8.70873 14.7529 9.00647L15.5959 9.20342C15.6475 9.21392 15.6655 9.23517 15.6655 9.28779V9.66186C15.6655 9.71447 15.6475 9.73676 15.5959 9.74726L14.7529 9.94421C14.6993 10.242 14.5283 10.507 14.4866 10.6478L14.9347 11.3659C14.9563 11.4064 14.9578 11.4339 14.9168 11.4797L14.6562 11.7461C14.6151 11.7824 14.5829 11.7799 14.5424 11.7583L13.7997 11.2944C13.5718 11.4473 13.3575 11.5312 13.1149 11.5833L12.9064 12.4289C12.8911 12.4825 12.8794 12.5016 12.8142 12.5016H12.4653ZM12.6392 10.8312C13.3778 10.8312 13.9893 10.2198 13.9893 9.47532C13.9893 8.73674 13.3778 8.12997 12.6392 8.12997C11.8891 8.12997 11.2823 8.73565 11.2823 9.47532C11.2823 10.215 11.8901 10.8312 12.6392 10.8312ZM12.6413 10.0563C12.3195 10.0563 12.064 9.79396 12.064 9.47428C12.064 9.15938 12.3195 8.90859 12.6413 8.90859C12.9447 8.90859 13.205 9.15938 13.205 9.47428C13.205 9.78819 12.9436 10.0563 12.6413 10.0563Z"/>
</svg>
