<svg width="29" height="28" viewBox="0 0 29 28" xmlns="http://www.w3.org/2000/svg">
<path d="M17.3688 23.2449H11.2228V15.638C11.2228 15.0905 11.5903 14.7347 12.1378 14.7347H16.4655C17.013 14.7347 17.3688 15.0905 17.3688 15.638V23.2449ZM3.78914 22.8392C3.78914 24.5229 4.84734 25.5408 6.58194 25.5408H22.0364C23.771 25.5408 24.8175 24.5229 24.8175 22.8392V13.9102L15.0286 5.69884C14.5727 5.3154 14.0306 5.32501 13.5844 5.69884L3.78914 13.9102V22.8392ZM0 12.3101C0 12.915 0.455153 13.4311 1.19765 13.4311C1.56163 13.4311 1.886 13.2427 2.17217 13.0076L13.8119 3.24189C14.1267 2.96322 14.4958 2.96322 14.8127 3.24189L26.4462 13.0076C26.7248 13.2427 27.0492 13.4311 27.4132 13.4311C28.0863 13.4311 28.6012 13.0132 28.6012 12.3389C28.6012 11.9431 28.4482 11.637 28.1515 11.3839L15.9544 1.13207C14.9522 0.284103 13.6821 0.284103 12.6703 1.13207L0.459372 11.386C0.153045 11.6412 0 11.9836 0 12.3101ZM21.547 6.63473L24.8576 9.42073V3.7641C24.8576 3.23582 24.521 2.89926 23.9927 2.89926H22.414C21.8953 2.89926 21.547 3.23582 21.547 3.7641V6.63473Z"/>
</svg>
