<svg width="14" height="16" viewBox="0 0 14 16" fill="none" xmlns="http://www.w3.org/2000/svg">
<path d="M11.7655 6.27197V15.2888C11.7655 15.6276 12.0376 15.8956 12.3686 15.8956C12.7087 15.8956 12.976 15.63 12.976 15.2888V6.27197C12.976 5.93855 12.7063 5.67725 12.3686 5.67725C12.0412 5.67725 11.7655 5.93975 11.7655 6.27197ZM8.26568 6.27197V15.2888C8.26568 15.6276 8.53782 15.8956 8.86759 15.8956C9.20888 15.8956 9.47618 15.63 9.47618 15.2888V6.27197C9.47618 5.93855 9.20528 5.67725 8.86759 5.67725C8.54022 5.67725 8.26568 5.93975 8.26568 6.27197ZM4.76348 6.27197V15.2888C4.76348 15.6276 5.03558 15.8956 5.37207 15.8956C5.70669 15.8956 5.97398 15.63 5.97398 15.2888V6.27197C5.97398 5.93855 5.70428 5.67725 5.37207 5.67725C5.03799 5.67725 4.76348 5.93975 4.76348 6.27197ZM1.26367 6.27197V11.0231C1.26367 11.362 1.53577 11.6288 1.87106 11.6288C2.20567 11.6288 2.47417 11.3632 2.47417 11.0231V6.27197C2.47417 5.93855 2.20327 5.67725 1.87106 5.67725C1.53817 5.67725 1.26367 5.93975 1.26367 6.27197Z" fill="#4C6BD2"/>
<path d="M0.68319 2.50027L2.52366 3.88176C2.90236 4.16455 3.37938 4.01227 3.37938 3.51094V2.58482H10.8604V3.51094C10.8604 4.00131 11.3265 4.1755 11.7161 3.88176L13.5566 2.50027C13.8079 2.30484 13.8 1.94551 13.5566 1.76344L11.7161 0.385025C11.3253 0.0900795 10.8604 0.264268 10.8604 0.752769V1.68503H3.37938V0.752769C3.37938 0.264268 2.91452 0.0900795 2.52366 0.385025L0.68319 1.76344C0.43433 1.95219 0.433128 2.30484 0.68319 2.50027Z" fill="#4C6BD2"/>
</svg>
