<svg width="17" height="16" viewBox="0 0 17 16" xmlns="http://www.w3.org/2000/svg">
<path d="M5.56604 9.4178C5.65013 9.02845 5.82581 8.51 5.9433 8.30061C6.05563 8.09623 6.18349 8.0094 6.4222 7.97789C6.70179 7.94099 7.36838 7.91649 8.56169 7.91649C9.75823 7.91649 10.4255 7.93389 10.7026 7.97789C10.9399 8.0126 11.0646 8.09623 11.1808 8.30061C11.3008 8.5068 11.4683 9.02845 11.5613 9.4178C11.6013 9.58388 11.5291 9.65885 11.3563 9.65175C10.753 9.61516 9.99335 9.57686 8.56169 9.57686C7.13466 9.57686 6.375 9.61516 5.77105 9.65175C5.59506 9.65885 5.52532 9.58388 5.56604 9.4178ZM5.70872 12.3944C5.33973 12.3944 5.05617 12.1115 5.05617 11.7425C5.05617 11.3703 5.33973 11.0899 5.70872 11.0899C6.07771 11.0899 6.36057 11.3703 6.36057 11.7425C6.36057 12.1115 6.07771 12.3944 5.70872 12.3944ZM7.51091 12.2299C7.23195 12.2299 7.03949 12.0374 7.03949 11.7585C7.03949 11.482 7.23195 11.2896 7.51091 11.2896H9.61571C9.89217 11.2896 10.0846 11.482 10.0846 11.7585C10.0846 12.0374 9.89217 12.2299 9.61571 12.2299H7.51091ZM11.4154 12.3944C11.0464 12.3944 10.766 12.1115 10.766 11.7425C10.766 11.3703 11.0464 11.0899 11.4154 11.0899C11.7876 11.0899 12.0679 11.3703 12.0679 11.7425C12.0679 12.1115 11.7876 12.3944 11.4154 12.3944ZM8.56169 13.4798C9.89403 13.4798 11.6418 13.4135 12.3811 13.3277C12.9452 13.2635 13.2638 12.9443 13.2638 12.4107V11.7487C13.2638 11.0629 13.1368 10.6836 12.773 10.2099L12.4274 9.77633C12.2856 9.07425 12.025 8.33775 11.8909 8.04841C11.6733 7.5894 11.2554 7.31473 10.7169 7.24241C10.4374 7.2045 9.59933 7.18359 8.56169 7.18359C7.52798 7.18359 6.68993 7.2077 6.41034 7.24241C5.87122 7.30833 5.45082 7.5894 5.23637 8.04841C5.09915 8.33775 4.84172 9.07425 4.69599 9.77633L4.35361 10.2099C3.98735 10.6836 3.86035 11.0629 3.86035 11.7487V12.4107C3.86035 12.9443 4.18206 13.2642 4.74303 13.3277C5.48553 13.4128 7.23009 13.4798 8.56169 13.4798ZM4.38895 14.5819H4.85584C5.15329 14.5819 5.38443 14.3515 5.38443 14.0565V13.0656L3.86035 12.3101V14.0565C3.86035 14.3515 4.0915 14.5819 4.38895 14.5819ZM12.2683 14.5819H12.7384C13.0358 14.5819 13.2638 14.3515 13.2638 14.0565V12.3101L11.7429 13.0656V14.0565C11.7429 14.3515 11.9708 14.5819 12.2683 14.5819Z"/>
<path d="M2.37748 14.2959C2.62162 14.2959 2.81887 14.1258 2.81887 13.9178V6.9538C2.81887 6.82571 2.9148 6.743 3.05519 6.743H14.2862C14.4275 6.743 14.5234 6.82571 14.5234 6.9538V13.9178C14.5234 14.1258 14.7206 14.2959 14.9648 14.2959C15.206 14.2959 15.4033 14.1258 15.4033 13.9178V6.88372C15.4033 6.33883 14.9893 5.98438 14.341 5.98438H3.0013C2.35664 5.98438 1.93896 6.33883 1.93896 6.88372V13.9178C1.93896 14.1258 2.13622 14.2959 2.37748 14.2959Z"/>
<path fill-rule="evenodd" clip-rule="evenodd" d="M2.61971 5.755L8.09935 2.23212C8.34896 2.07173 8.65222 2.06761 8.90726 2.23212L14.3833 5.755H2.61971ZM1.16999 5.54945C0.75462 5.54945 0.5 5.32803 0.5 5.06852C0.5 4.92844 0.585616 4.78154 0.756981 4.67205L7.58798 0.272849C8.154 -0.0909497 8.86452 -0.0909497 9.42516 0.272849L12.5538 2.28955V1.40206C12.5538 1.17542 12.7486 1.03102 13.0388 1.03102H13.9219C14.2175 1.03102 14.4058 1.17542 14.4058 1.40206V3.48336L16.2484 4.67115C16.4144 4.77974 16.5 4.91106 16.5 5.08087C16.5 5.37016 16.212 5.54945 15.8354 5.54945C15.6318 5.54945 15.4503 5.46863 15.2945 5.36776L8.78648 1.17802C8.6092 1.05846 8.40272 1.05846 8.22661 1.17802L1.71515 5.36776C1.55506 5.46863 1.3736 5.54945 1.16999 5.54945Z"/>
</svg>
