<svg width="3" height="11" viewBox="0 1 3 10" fill="none" xmlns="http://www.w3.org/2000/svg">
<path d="M2.29918 0L2.29918 7.63636H1.12589L1.12589 0H2.29918ZM1.70259 8.90909C1.93129 8.90909 2.12849 8.98698 2.29421 9.14276C2.45662 9.29853 2.53782 9.4858 2.53782 9.70455C2.53782 9.9233 2.45662 10.1106 2.29421 10.2663C2.12849 10.4221 1.93129 10.5 1.70259 10.5C1.4739 10.5 1.27835 10.4221 1.11594 10.2663C0.950225 10.1106 0.867365 9.9233 0.867365 9.70455C0.867365 9.4858 0.950225 9.29853 1.11594 9.14276C1.27835 8.98698 1.4739 8.90909 1.70259 8.90909Z" fill="white"/>
</svg>
