<svg width="43" height="43" viewBox="0 0 43 43" fill="none" xmlns="http://www.w3.org/2000/svg">
<rect x="0.892578" width="42.0996" height="42.0996" rx="21.0498" fill="#D4CFFC"/>
<path d="M27.8498 14.6094L23.7814 16.1371L25.2415 17.0576C22.6332 20.3422 18.8601 22.3653 15.6722 23.1354C14.9007 23.6819 15.7605 25.1639 16.5753 24.7805C20.1574 23.6129 23.9498 21.5069 26.3925 17.7863L27.5048 18.4874L27.8498 14.6094ZM28.0624 17.8304L27.9299 19.343L26.5139 18.4487C26.4643 18.5232 26.4118 18.595 26.3594 18.6695V27.4909H28.5123V17.8304H28.0624ZM23.9056 21.3634C23.5551 21.667 23.1935 21.9541 22.8264 22.2246V27.4909H24.9793C24.9793 27.4909 24.9793 21.8345 24.9793 21.3634C24.9793 20.8924 24.3598 20.9796 23.9056 21.3634ZM20.4913 23.6819C20.0939 23.8917 19.6964 24.0849 19.2934 24.2671V27.4909H21.4463V23.6819C21.4463 23.3355 21.0205 23.2154 20.4913 23.6819ZM15.7605 24.8964V27.4909H17.9134V24.8964H17.7566C17.3476 25.0482 16.9388 25.189 16.5325 25.3187L16.3376 25.3794L16.0727 24.8964H15.7605Z" fill="#7D70E8"/>
</svg>
