<svg width="16" height="14" viewBox="0 0 16 14" fill="none" xmlns="http://www.w3.org/2000/svg">
<path d="M14.1501 2.30645H14.7106C14.9199 2.30645 15.1207 2.38451 15.2688 2.52344C15.4168 2.66238 15.5 2.85082 15.5 3.0473V8.23326C15.5 8.42975 15.4168 8.61819 15.2688 8.75712C15.1207 8.89606 14.9199 8.97411 14.7106 8.97411H13.1317L9.83977 4.65051C9.64831 4.39909 9.37787 4.21015 9.06632 4.11012C8.75476 4.01009 8.41767 4.00398 8.10223 4.09265L6.1397 4.64532C5.8667 4.72202 5.57666 4.72794 5.30036 4.66246C5.02406 4.59699 4.77179 4.46255 4.57031 4.27341L4.33901 4.05634C4.25643 3.97886 4.19319 3.88514 4.15386 3.78196C4.11453 3.67877 4.10008 3.56868 4.11156 3.45962C4.12304 3.35056 4.16015 3.24524 4.22023 3.15127C4.28032 3.0573 4.36186 2.977 4.459 2.91617L8.72273 0.24911C8.97725 0.0897598 9.27563 0.00324618 9.58158 8.95721e-05C9.88753 -0.00306703 10.1879 0.0772693 10.4461 0.231329L13.7269 2.19088C13.8532 2.26618 14.0005 2.30626 14.1501 2.30645ZM2.88961 8.45181L1.61389 9.49938C1.5267 9.5711 1.45742 9.65998 1.41097 9.75967C1.36452 9.85937 1.34204 9.96745 1.34513 10.0762C1.34822 10.185 1.3768 10.2918 1.42884 10.389C1.48089 10.4863 1.55512 10.5715 1.64626 10.6388L5.70394 13.6318C5.79314 13.6977 5.89643 13.7448 6.00678 13.7698C6.11712 13.7949 6.23192 13.7973 6.34334 13.7769C6.45476 13.7565 6.56019 13.7138 6.65243 13.6517C6.74466 13.5896 6.82154 13.5095 6.87782 13.417L7.43358 12.5043C7.59908 12.2325 7.66859 11.9184 7.63214 11.6073C7.59569 11.2961 7.45516 11.0037 7.2307 10.7722L5.09765 8.57035C4.81949 8.28313 4.43234 8.10981 4.01944 8.08765C3.60654 8.06548 3.20086 8.19624 2.88961 8.45181ZM4.48347 1.5656H1.28943C1.08006 1.5656 0.879267 1.64366 0.731219 1.78259C0.583172 1.92153 0.5 2.10997 0.5 2.30645V7.87469C0.500042 8.17351 0.596357 8.46533 0.776301 8.71185C0.795442 8.69521 0.814918 8.6789 0.834719 8.66296L2.10965 7.61539C2.65435 7.16808 3.36434 6.93922 4.08696 6.97801C4.80958 7.0168 5.48712 7.32015 5.97392 7.82283L8.10697 10.0246C8.49954 10.4298 8.74535 10.9412 8.80917 11.4855C8.87298 12.0298 8.75153 12.5792 8.46221 13.0547L7.94513 13.9037C8.16821 13.9831 8.40756 14.014 8.6452 13.9941C8.88284 13.9743 9.11258 13.9041 9.31717 13.7889L12.7986 11.8286C12.8919 11.776 12.9726 11.7058 13.0357 11.6225C13.0987 11.5391 13.1427 11.4444 13.1649 11.3444C13.1871 11.2443 13.1869 11.1411 13.1645 11.041C13.1421 10.941 13.0979 10.8465 13.0346 10.7633L8.87667 5.29653C8.82878 5.23374 8.7612 5.18657 8.68335 5.1616C8.6055 5.13663 8.52129 5.1351 8.44248 5.15725L6.47995 5.70918C6.00218 5.84368 5.49453 5.8543 5.01085 5.73991C4.52717 5.62552 4.08551 5.39038 3.73272 5.05946L3.50142 4.84239C3.29489 4.64867 3.13674 4.41436 3.03837 4.15636C2.94 3.89835 2.90386 3.62307 2.93255 3.35037C2.96125 3.07767 3.05407 2.81434 3.20431 2.57937C3.35456 2.34441 3.55849 2.14365 3.80141 1.99159L4.48347 1.5656Z" fill="#03A31B"/>
</svg>
