<svg width="18" height="19" viewBox="0 0 18 19" fill="none" xmlns="http://www.w3.org/2000/svg">
<path d="M5.35414 16.4859H12.6467C14.1143 16.4859 14.87 15.804 14.87 14.4962V8.98271C14.87 8.13859 14.7476 7.75124 14.1518 7.21246L10.5559 3.9706C9.9839 3.45175 9.50826 3.33203 8.65402 3.33203H5.35414C3.89336 3.33203 3.13086 4.01885 3.13086 5.32663V14.4962C3.13086 15.809 3.88774 16.4859 5.35414 16.4859ZM5.46121 15.2952C4.80044 15.2952 4.47211 14.9883 4.47211 14.4222V5.40064C4.47211 4.83949 4.80044 4.52263 5.46683 4.52263H8.38512V7.8554C8.38512 8.72503 8.86324 9.14554 9.8385 9.14554H13.5288V14.4222C13.5288 14.9883 13.2004 15.2952 12.5353 15.2952H5.46121ZM9.96544 8.09556C9.68176 8.09556 9.56796 7.98848 9.56796 7.73775V4.68805L13.3424 8.09556H9.96544Z" fill="white"/>
<path d="M9.09289 10.6231L10.9716 12.2528C11.4527 12.668 11.4214 13.2363 11.0218 13.6051C10.6272 13.9765 10.0021 14.0253 9.52098 13.6097L6.95173 11.3792C6.67077 11.1351 6.61343 10.7671 6.87495 10.5212C7.14103 10.2764 7.54869 10.3148 7.83005 10.557L10.3533 12.7446C10.4698 12.8425 10.4392 12.9636 10.3649 13.0335C10.2885 13.1025 10.1593 13.1327 10.0423 13.0352L8.28633 11.508C8.19552 11.4314 8.06767 11.4292 7.9858 11.5061C7.90643 11.5825 7.91316 11.6979 8.00148 11.7745L9.76756 13.3065C10.0401 13.543 10.4507 13.5267 10.6821 13.3101C10.9344 13.0744 10.9209 12.7242 10.6463 12.4859L8.11235 10.2878C7.62054 9.86122 6.98594 9.88623 6.5713 10.2737C6.16688 10.6519 6.15247 11.2333 6.64384 11.66L9.23264 13.9027C9.87679 14.4614 10.7828 14.4077 11.3445 13.8832C11.9037 13.358 11.9302 12.5409 11.2881 11.9821L9.39575 10.3406C9.31177 10.2666 9.15844 10.2696 9.0816 10.3483C8.99516 10.4237 9.00751 10.5465 9.09289 10.6231Z" fill="white"/>
</svg>
