<svg width="11" height="11" viewBox="0 0 11 11" fill="none" xmlns="http://www.w3.org/2000/svg">
<g clip-path="url(#clip0_4061_26351)">
<path d="M4.84305 10.0352C3.95706 10.0352 3.0714 10.0362 2.18541 10.0352C1.05614 10.0331 0.114925 9.04037 0.114268 7.84901C0.112952 5.97325 0.112952 4.09749 0.114268 2.22173C0.114925 1.02968 1.05549 0.0386709 2.18574 0.0369347C3.06351 0.0355458 3.94128 0.0362402 4.81872 0.0369347C5.14846 0.0369347 5.38713 0.27236 5.39042 0.598413C5.39371 0.916826 5.14583 1.16961 4.82266 1.17031C3.97382 1.17204 3.12466 1.17031 2.27582 1.171C1.62784 1.17135 1.18797 1.63734 1.18797 2.32347C1.18765 4.1343 1.18732 5.94513 1.18797 7.75561C1.18797 8.43167 1.63146 8.90044 2.27089 8.90044C3.98928 8.90113 5.70767 8.90113 7.42638 8.90044C8.05923 8.90044 8.50535 8.43098 8.50634 7.76533C8.50732 6.88578 8.50568 6.00659 8.50732 5.12704C8.50765 4.88815 8.61417 4.70897 8.81635 4.60689C9.01393 4.50723 9.20921 4.53258 9.38312 4.6746C9.50969 4.77772 9.57971 4.91697 9.58004 5.08919C9.58004 6.05103 9.60043 7.01322 9.57347 7.97402C9.54947 8.83516 8.96692 9.66887 8.07041 9.95013C7.89288 10.0057 7.71207 10.0359 7.52567 10.0355C6.63146 10.0335 5.73758 10.0345 4.84338 10.0345L4.84305 10.0352Z" fill="#0B0E15"/>
<path d="M2.7472 3.6131C2.92341 3.60269 3.05524 3.6888 3.1726 3.81346C3.69039 4.36313 4.20949 4.91176 4.72793 5.46039C4.80705 5.54419 4.88661 5.54396 4.96661 5.45969C6.35526 3.99194 7.74424 2.52452 9.13158 1.05537C9.29332 0.883841 9.47446 0.788004 9.70623 0.853979C10.0971 0.965441 10.2408 1.44358 9.98436 1.7745C9.96102 1.80471 9.93439 1.83179 9.90842 1.85957C8.36262 3.49227 6.81716 5.12496 5.27103 6.75731C5.05997 6.98023 4.8065 7.02919 4.57934 6.89099C4.53364 6.86322 4.4909 6.82745 4.45342 6.78821C3.75943 6.05694 3.0651 5.32636 2.37406 4.59196C2.1127 4.31417 2.16103 3.88811 2.46809 3.68811C2.55488 3.63151 2.64824 3.60651 2.74687 3.61345L2.7472 3.6131Z" fill="#0B0E15"/>
</g>
<defs>
<clipPath id="clip0_4061_26351">
<rect width="10" height="10" fill="white" transform="translate(0.113281 0.0361328)"/>
</clipPath>
</defs>
</svg>
