<svg width="12" height="9" viewBox="0 0 12 9" xmlns="http://www.w3.org/2000/svg">
<path d="M1.37464 1.50175C1.78907 1.50175 2.12329 1.16752 2.12329 0.757456C2.12329 0.343987 1.78907 0.00976562 1.37464 0.00976562C0.961175 0.00976562 0.626953 0.343987 0.626953 0.757456C0.626953 1.16752 0.961175 1.50175 1.37464 1.50175ZM1.37464 4.76931C1.78907 4.76931 2.12329 4.43508 2.12329 4.02065C2.12329 3.60623 1.78907 3.27296 1.37464 3.27296C0.961175 3.27296 0.626953 3.60623 0.626953 4.02065C0.626953 4.43508 0.961175 4.76931 1.37464 4.76931ZM1.37464 8.0359C1.37846 8.0359 1.38227 8.03587 1.38608 8.03582C1.79521 8.02967 2.12329 7.6945 2.12329 7.28822C2.12329 6.8738 1.78907 6.54053 1.37464 6.54053C0.961175 6.54053 0.626953 6.8738 0.626953 7.28822C0.626953 7.69828 0.961175 8.0359 1.37464 8.0359Z"/>
<path fill-rule="evenodd" clip-rule="evenodd" d="M0.626953 7.28822V8.03582H1.38608C1.79521 8.02967 2.12329 7.6945 2.12329 7.28822C2.12329 6.8738 1.78907 6.54053 1.37464 6.54053C0.961175 6.54053 0.626953 6.8738 0.626953 7.28822ZM1.37464 4.76931C0.961175 4.76931 0.626953 4.43508 0.626953 4.02065C0.626953 3.60623 0.961175 3.27296 1.37464 3.27296C1.78907 3.27296 2.12329 3.60623 2.12329 4.02065C2.12329 4.43508 1.78907 4.76931 1.37464 4.76931ZM1.37464 0.00976562C0.961175 0.00976562 0.626953 0.343987 0.626953 0.757456C0.626953 1.16752 0.961175 1.50175 1.37464 1.50175C1.78907 1.50175 2.12329 1.16752 2.12329 0.757456C2.12329 0.343987 1.78907 0.00976562 1.37464 0.00976562ZM11.5938 0.757413C11.5938 1.03983 11.3688 1.25949 11.0873 1.25949H3.86227C3.57549 1.25949 3.35583 1.03888 3.35583 0.757413C3.35583 0.470634 3.57645 0.250977 3.86227 0.250977H11.0873C11.3697 0.250977 11.5938 0.472549 11.5938 0.757413ZM11.5938 7.28817C11.5938 7.57056 11.3688 7.79023 11.0873 7.79023H3.86227C3.57549 7.79023 3.35583 7.56961 3.35583 7.28817C3.35583 7.00138 3.57645 6.78171 3.86227 6.78171H11.0873C11.3697 6.78171 11.5938 7.00234 11.5938 7.28817Z"/>
<path d="M3.86227 4.52705H11.0873C11.3688 4.52705 11.5938 4.30303 11.5938 4.02061C11.5938 3.73915 11.3697 3.51854 11.0873 3.51854H3.86227C3.57645 3.51854 3.35583 3.73819 3.35583 4.02061C3.35583 4.30207 3.57549 4.52705 3.86227 4.52705Z"/>
</svg>
