<?xml version="1.0" encoding="utf-8"?>
<svg viewBox="0 0 11 9" xmlns="http://www.w3.org/2000/svg">
  <path fill-rule="evenodd" clip-rule="evenodd" d="M 8.913 4.295 L 3.7 4.295 C 3.521 4.295 3.376 4.429 3.376 4.595 C 3.376 4.76 3.521 4.895 3.7 4.895 L 8.913 4.895 C 9.093 4.895 9.238 4.76 9.238 4.595 C 9.238 4.429 9.093 4.295 8.913 4.295 Z" style="transform-origin: 6.307px 4.595px;" transform="matrix(-1, 0, 0, -1, 9.53674e-7, -9.53674e-7)"/>
  <path fill-rule="evenodd" clip-rule="evenodd" d="M 3.699 3.13 C 3.616 3.13 3.533 3.159 3.47 3.218 C 3.343 3.336 3.344 3.525 3.47 3.642 L 4.507 4.596 L 3.47 5.55 C 3.344 5.666 3.343 5.856 3.47 5.974 C 3.596 6.091 3.802 6.091 3.928 5.974 L 5.197 4.808 C 5.258 4.752 5.292 4.675 5.292 4.596 C 5.292 4.516 5.258 4.439 5.197 4.383 L 3.928 3.217 C 3.865 3.159 3.782 3.13 3.699 3.13 Z" style="transform-origin: 4.33356px 4.59588px;" transform="matrix(-1, 0, 0, -1, -9.53674e-7, 0)"/>
  <path fill-rule="evenodd" clip-rule="evenodd" d="M 2.603 0.523 L 4.718 0.523 C 5.774 0.523 6.633 1.317 6.633 2.293 L 6.633 2.67 C 6.633 2.836 6.488 2.97 6.309 2.97 C 6.129 2.97 5.984 2.836 5.984 2.67 L 5.984 2.293 C 5.984 1.649 5.416 1.123 4.718 1.123 L 2.603 1.123 C 1.902 1.123 1.332 1.65 1.332 2.298 L 1.332 6.753 C 1.332 7.398 1.9 7.923 2.598 7.923 L 4.713 7.923 C 5.414 7.923 5.984 7.397 5.984 6.75 L 5.984 6.377 C 5.984 6.211 6.129 6.077 6.309 6.077 C 6.488 6.077 6.633 6.211 6.633 6.377 L 6.633 6.75 C 6.633 7.728 5.772 8.523 4.713 8.523 L 2.598 8.523 C 1.542 8.523 0.683 7.729 0.683 6.753 L 0.683 2.298 C 0.683 1.319 1.545 0.523 2.603 0.523 Z" transform="matrix(0.9999999999999999, 0, 0, 0.9999999999999999, 0, -1.1102230246251565e-16)"/>
</svg>