<svg width="16" height="13" viewBox="0 0 16 13" xmlns="http://www.w3.org/2000/svg">
<path fill-rule="evenodd" clip-rule="evenodd" d="M15.4714 6.87026L7.00005 6.87026C6.70878 6.87026 6.47239 6.65186 6.47239 6.38276C6.47239 6.11366 6.70878 5.89526 7.00005 5.89526L15.4714 5.89526C15.7626 5.89526 15.999 6.11366 15.999 6.38276C15.999 6.65186 15.7626 6.87026 15.4714 6.87026Z"/>
<path fill-rule="evenodd" clip-rule="evenodd" d="M13.412 8.76499C13.2769 8.76499 13.1411 8.71754 13.0384 8.62134C12.8323 8.43024 12.8337 8.12214 13.0398 7.93234L14.7241 6.38274L13.0398 4.83249C12.8337 4.64269 12.8323 4.33459 13.0384 4.14349C13.2445 3.95239 13.578 3.95239 13.7842 4.14219L15.8448 6.03759C15.9447 6.12859 16.0003 6.25339 16.0003 6.38274C16.0003 6.51209 15.9447 6.63689 15.8448 6.72789L13.7842 8.62264C13.6814 8.71754 13.5464 8.76499 13.412 8.76499Z"/>
<path fill-rule="evenodd" clip-rule="evenodd" d="M3.59307 13L7.02986 13C8.74579 13 10.1423 11.7097 10.1423 10.1237V9.51145C10.1423 9.24235 9.90593 9.02395 9.61466 9.02395C9.3234 9.02395 9.08701 9.24235 9.08701 9.51145V10.1237C9.08701 11.1715 8.16396 12.025 7.02986 12.025L3.59307 12.025C2.45404 12.025 1.52748 11.1696 1.52748 10.1166L1.52748 2.87625C1.52748 1.82845 2.45122 0.975 3.58533 0.975L7.02212 0.975C8.16045 0.975 9.08701 1.8304 9.08701 2.8821V3.48855C9.08701 3.75765 9.3234 3.97605 9.61466 3.97605C9.90593 3.97605 10.1423 3.75765 10.1423 3.48855V2.8821C10.1423 1.29285 8.74227 0 7.02212 0L3.58533 0C1.8694 0 0.472168 1.29025 0.472168 2.87625L0.472168 10.1166C0.472168 11.7065 1.87292 13 3.59307 13Z"/>
</svg>
