<?xml version="1.0" encoding="utf-8"?>
<svg viewBox="0 0 11 9" xmlns="http://www.w3.org/2000/svg">
  <path fill-rule="evenodd" clip-rule="evenodd" d="M 9.912 4.296 L 4.699 4.296 C 4.52 4.296 4.375 4.43 4.375 4.596 C 4.375 4.761 4.52 4.896 4.699 4.896 L 9.912 4.896 C 10.092 4.896 10.237 4.761 10.237 4.596 C 10.237 4.43 10.092 4.296 9.912 4.296 Z" transform="matrix(0.9999999999999999, 0, 0, 0.9999999999999999, 0, -1.1102230246251565e-16)"/>
  <path fill-rule="evenodd" clip-rule="evenodd" d="M 8.645 3.13 C 8.562 3.13 8.479 3.159 8.416 3.218 C 8.289 3.336 8.29 3.525 8.416 3.642 L 9.453 4.596 L 8.416 5.55 C 8.29 5.666 8.289 5.856 8.416 5.974 C 8.542 6.091 8.748 6.091 8.874 5.974 L 10.143 4.808 C 10.204 4.752 10.238 4.675 10.238 4.596 C 10.238 4.516 10.204 4.439 10.143 4.383 L 8.874 3.217 C 8.811 3.159 8.728 3.13 8.645 3.13 Z" transform="matrix(0.9999999999999999, 0, 0, 0.9999999999999999, 0, -1.1102230246251565e-16)"/>
  <path fill-rule="evenodd" clip-rule="evenodd" d="M 2.603 0.523 L 4.718 0.523 C 5.774 0.523 6.633 1.317 6.633 2.293 L 6.633 2.67 C 6.633 2.836 6.488 2.97 6.309 2.97 C 6.129 2.97 5.984 2.836 5.984 2.67 L 5.984 2.293 C 5.984 1.649 5.416 1.123 4.718 1.123 L 2.603 1.123 C 1.902 1.123 1.332 1.65 1.332 2.298 L 1.332 6.753 C 1.332 7.398 1.9 7.923 2.598 7.923 L 4.713 7.923 C 5.414 7.923 5.984 7.397 5.984 6.75 L 5.984 6.377 C 5.984 6.211 6.129 6.077 6.309 6.077 C 6.488 6.077 6.633 6.211 6.633 6.377 L 6.633 6.75 C 6.633 7.728 5.772 8.523 4.713 8.523 L 2.598 8.523 C 1.542 8.523 0.683 7.729 0.683 6.753 L 0.683 2.298 C 0.683 1.319 1.545 0.523 2.603 0.523 Z" transform="matrix(0.9999999999999999, 0, 0, 0.9999999999999999, 0, -1.1102230246251565e-16)"/>
</svg>