<svg width="20" height="20" viewBox="0 0 20 20" xmlns="http://www.w3.org/2000/svg">
<path d="M3.90918 16.3834H15.7697C17.1799 16.3834 17.9992 15.5641 17.9992 13.9944V5.86535C17.9992 4.30174 17.1738 3.48242 15.5848 3.48242H3.72425C2.31541 3.48242 1.49609 4.29571 1.49609 5.86535V13.9944C1.49609 15.5701 2.32145 16.3834 3.90918 16.3834ZM3.90609 15.0196C3.2208 15.0196 2.84799 14.6667 2.84799 13.9481V5.91169C2.84799 5.20036 3.2208 4.84623 3.90609 4.84623H15.5878C16.2624 4.84623 16.6473 5.20036 16.6473 5.91773V13.9541C16.6473 14.6667 16.2624 15.0196 15.5878 15.0196H3.90609ZM9.75903 11.9337C10.3031 11.9337 10.8232 11.7071 11.3514 11.1863L17.2702 5.36646L16.39 4.47755L10.6015 10.1952C10.2944 10.5009 10.03 10.634 9.75903 10.634C9.48201 10.634 9.21894 10.4949 8.91663 10.1952L3.10398 4.45342L2.21772 5.34101L8.16543 11.1863C8.69492 11.7071 9.20896 11.9337 9.75903 11.9337ZM16.2979 15.2807L17.1794 14.3918L12.4796 9.74025L11.5967 10.6218L16.2979 15.2807ZM2.33263 14.3978L3.21549 15.2867L7.92131 10.6218L7.03376 9.74025L2.33263 14.3978Z"/>
</svg>
