<svg width="17" height="16" viewBox="0 0 17 16" xmlns="http://www.w3.org/2000/svg">
<path d="M15.5739 15.8671C16.0011 15.8671 16.4286 15.8652 16.8559 15.869C16.9299 15.8696 16.9556 15.8581 16.954 15.7755C16.9478 15.4795 16.9515 15.183 16.9515 14.8867V5.00247C16.8599 4.78474 16.7172 4.61675 16.5089 4.49537C14.1403 3.11391 11.773 1.73025 9.40695 0.344407C9.08794 0.157646 8.78053 0.156395 8.46372 0.346284C8.05688 0.58998 7.64533 0.825855 7.23567 1.06548C5.28271 2.20732 3.33007 3.3501 1.37585 4.48974C1.05904 4.67431 0.906277 4.92958 0.906904 5.30529C0.913177 8.63007 0.910669 11.9552 0.910669 15.2802C0.910669 15.6253 1.00728 15.7601 1.32943 15.8677H2.29995C2.61833 15.7511 2.71745 15.6119 2.71745 15.2734C2.71777 12.4957 2.71745 9.7181 2.71745 6.94015C2.71745 6.63858 2.74694 6.60824 3.04525 6.60824C6.97281 6.60824 10.9004 6.60824 14.8279 6.60824C15.1262 6.60824 15.1557 6.63858 15.1557 6.94015C15.1557 9.71779 15.1557 12.4954 15.1557 15.2734C15.1557 15.6119 15.2548 15.7511 15.5732 15.8677L15.5739 15.8671Z" />
<path d="M8.95221 14.0991C9.86501 14.0991 10.7778 14.0991 11.6906 14.0991C11.8958 14.0991 11.8986 14.1029 11.8992 14.3109C11.8992 14.3682 11.9008 14.4254 11.8992 14.4827C11.8939 14.6801 11.9651 14.8496 12.0931 14.9957C12.3826 15.3267 12.7653 15.3201 13.1483 15.2588C13.4751 15.2066 13.6859 14.9973 13.7788 14.6794C13.8183 14.544 13.8186 14.4016 13.8177 14.2615C13.8136 13.5595 13.8402 12.8569 13.7976 12.1555C13.7709 11.7188 13.6872 11.2896 13.5507 10.8735C13.5056 10.7362 13.5065 10.6583 13.663 10.5838C13.934 10.4553 14.0764 10.2159 14.0642 9.91407C14.0476 9.50739 13.717 9.26838 13.302 9.34315C13.0857 9.38215 12.9365 9.30165 12.8544 9.10164C12.7772 8.91394 12.7063 8.72343 12.6207 8.5398C12.3079 7.8694 11.7819 7.49807 11.0369 7.49181C9.64418 7.47992 8.25145 7.48149 6.85904 7.49118C6.11468 7.49619 5.58174 7.85532 5.26837 8.5276C5.152 8.77724 5.05225 9.03501 4.95313 9.29184C4.91517 9.39039 4.86091 9.42011 4.76304 9.38913C4.70375 9.37037 4.64227 9.3566 4.58111 9.34503C4.2944 9.29028 4.04534 9.38382 3.90607 9.59623C3.7668 9.80864 3.77997 10.1224 3.93713 10.347C4.01962 10.4653 4.12596 10.5582 4.25896 10.6114C4.35589 10.6502 4.38349 10.7021 4.35087 10.8016C4.12376 11.4964 4.05099 12.2106 4.07107 12.9392C4.08487 13.4381 4.07232 13.9377 4.0742 14.4373C4.07609 14.9259 4.41643 15.2704 4.90827 15.2823C5.0281 15.2851 5.14949 15.2895 5.26743 15.2732C5.71129 15.2119 5.98105 14.895 5.99422 14.4007C6.00332 14.0616 6.00583 14.0998 6.30822 14.0994C7.18965 14.0985 8.0714 14.0991 8.95283 14.0991H8.95221ZM8.94405 10.7062C7.95816 10.7062 6.97259 10.7062 5.9867 10.7062C5.92929 10.7062 5.87189 10.7065 5.81449 10.7055C5.46536 10.6999 5.29817 10.4787 5.42333 10.1593C5.63193 9.62689 5.84366 9.09445 6.07986 8.5739C6.24611 8.20788 6.55822 8.01361 6.96537 8.01174C8.17523 8.00642 9.38571 8.02957 10.5953 8.00298C11.4463 7.98421 11.7214 8.28546 11.9507 8.90894C12.105 9.32845 12.2935 9.73513 12.456 10.1518C12.5673 10.4381 12.4409 10.6664 12.1668 10.7008C12.105 10.7087 12.0419 10.7058 11.9792 10.7058C10.9673 10.7058 9.95566 10.7058 8.94374 10.7058L8.94405 10.7062ZM6.14887 11.8808C6.35746 11.8808 6.56606 11.878 6.77466 11.8818C6.97729 11.8852 7.09806 11.9978 7.10747 12.1977C7.115 12.3535 7.11437 12.5099 7.10747 12.6657C7.09837 12.8731 6.98733 12.9833 6.78156 12.9854C6.36436 12.9895 5.94717 12.9892 5.52998 12.9858C5.32327 12.9842 5.20846 12.8781 5.19529 12.6726C5.18525 12.5171 5.18588 12.3604 5.19529 12.2049C5.20815 11.9931 5.32703 11.8849 5.53845 11.8818C5.74171 11.879 5.94529 11.8812 6.14855 11.8812L6.14887 11.8808ZM11.7449 12.9861C11.5313 12.9861 11.3173 12.9895 11.1037 12.9851C10.9033 12.9808 10.7988 12.8738 10.7941 12.6723C10.7904 12.5112 10.79 12.3498 10.7944 12.189C10.7998 12.0016 10.9092 11.8855 11.0974 11.8833C11.53 11.8783 11.9629 11.8783 12.3954 11.884C12.5711 11.8862 12.6768 11.9919 12.6862 12.1668C12.6953 12.3379 12.6953 12.5099 12.6884 12.6811C12.6803 12.8841 12.5758 12.9817 12.3707 12.9854C12.1621 12.9892 11.9538 12.9864 11.7452 12.9861H11.7449Z" />
</svg>
