<svg width="17" height="14" viewBox="0 0 17 14" fill="none" xmlns="http://www.w3.org/2000/svg">
<path d="M4.60375 9.78288H5.44948C5.82814 9.78288 6.13209 9.55186 6.21193 9.18953L6.34773 8.57009C6.36193 8.50603 6.38091 8.47575 6.39719 8.46377L7.03458 8.84627C7.34282 9.02798 7.72453 8.99016 7.98238 8.73128L8.57179 8.1361C8.8433 7.86465 8.8821 7.48865 8.68678 7.18046L8.2704 6.52354C8.27514 6.58779 8.2846 6.49869 8.28934 6.53902L9.01376 6.36358C9.36821 6.27852 9.605 5.97501 9.605 5.5964V4.81156C9.605 4.43769 9.37398 4.13419 9.01376 4.04439L8.28934 3.87C8.2846 3.87496 8.27514 3.86075 8.2704 3.88548L8.68678 3.22857C8.8821 2.92034 8.8433 2.54809 8.57179 2.27291L7.98238 1.68141C7.72453 1.42253 7.34282 1.38104 7.03458 1.56642L6.34936 1.9723C6.41775 1.96756 6.32554 1.96283 6.36587 1.95809L6.21193 1.21843C6.13471 0.862928 5.82918 0.630859 5.44948 0.630859H4.60375C4.22513 0.630859 3.9243 0.862928 3.84132 1.21843L3.6816 1.95809C3.68553 1.96283 3.67131 1.96756 3.69812 1.9723L3.01972 1.56642C2.71149 1.38 2.32871 1.42253 2.07087 1.68141L1.48145 2.27291C1.21206 2.54704 1.17692 2.92508 1.36646 3.22857L1.78287 3.88548C1.77813 3.82018 1.76865 3.91033 1.76391 3.87L1.03477 4.04439C0.67927 4.13419 0.448242 4.43769 0.448242 4.81156V5.5964C0.448242 5.97501 0.67927 6.27852 1.03477 6.36358L1.76391 6.53902C1.76865 6.53404 1.77813 6.54825 1.78287 6.52354L1.36646 7.18046C1.17219 7.48865 1.20998 7.86465 1.48145 8.1361L2.07087 8.73128C2.32975 8.99016 2.70363 9.02798 3.0129 8.84627L3.6571 8.46377C3.67131 8.46431 3.69131 8.47383 3.70552 8.57009L3.84132 9.18953C3.92118 9.55186 4.22513 9.78288 4.60375 9.78288ZM4.7177 8.89899C4.66408 8.89899 4.66223 8.89297 4.64593 8.83834L4.39225 7.78417C4.10032 7.72164 3.8367 7.58727 3.62821 7.47228L2.70906 8.02954C2.65648 8.0611 2.64827 8.06051 2.61094 8.02421L2.17697 7.59501C2.13963 7.55872 2.1401 7.55626 2.17061 7.50369L2.72212 6.5945C2.65589 6.41595 2.49005 6.1434 2.42487 5.82629L1.38599 5.5784C1.33236 5.56785 1.32532 5.56128 1.32532 5.50661V4.90136C1.32532 4.84774 1.33236 4.84485 1.38599 4.83433L2.42487 4.58642C2.49005 4.26456 2.65589 3.99782 2.72212 3.81348L2.17061 2.90532C2.1401 2.85643 2.13963 2.85504 2.17697 2.81297L2.61094 2.38952C2.64827 2.35219 2.65648 2.35265 2.70906 2.37842L3.62821 2.93571C3.8367 2.82071 4.10032 2.6863 4.39225 2.62378L4.64593 1.57439C4.66223 1.52076 4.66408 1.51371 4.7177 1.51371H5.33555C5.38918 1.51371 5.39209 1.52076 5.40732 1.57439L5.66098 2.62378C5.95295 2.6863 6.21656 2.82071 6.42608 2.93571L7.3442 2.37842C7.39203 2.35265 7.405 2.35219 7.44233 2.38952L7.87626 2.81297C7.91364 2.85504 7.91418 2.85643 7.88262 2.90532L7.33113 3.81348C7.39736 3.99782 7.56422 4.26456 7.62941 4.58642L8.66726 4.83433C8.72091 4.84485 8.72796 4.84774 8.72796 4.90136V5.50661C8.72796 5.56128 8.72091 5.56785 8.66726 5.5784L7.62941 5.82629C7.56422 6.1434 7.39736 6.41595 7.33113 6.5945L7.88262 7.50369C7.91418 7.55626 7.91364 7.55872 7.87626 7.59501L7.44233 8.02421C7.405 8.06051 7.39203 8.0611 7.3442 8.02954L6.42608 7.47228C6.21656 7.58727 5.95295 7.72164 5.66098 7.78417L5.40732 8.83834C5.39209 8.89297 5.38918 8.89899 5.33555 8.89899H4.7177ZM5.02663 6.95082C5.97489 6.95082 6.75661 6.16328 6.75661 5.2045C6.75661 4.25624 5.97489 3.47451 5.02663 3.47451C4.0631 3.47451 3.28611 4.25416 3.28611 5.2045C3.28611 6.15854 4.0631 6.95082 5.02663 6.95082ZM5.02663 6.04355C4.56873 6.04355 4.18757 5.6719 4.18757 5.2045C4.18757 4.75239 4.57081 4.37597 5.02663 4.37597C5.47873 4.37597 5.84939 4.75239 5.84939 5.2045C5.84939 5.66608 5.47873 6.04355 5.02663 6.04355ZM12.257 13.3204H12.9237C13.2697 13.3204 13.5627 13.1162 13.6167 12.8012L13.7255 12.2207C13.7263 12.2159 13.7405 12.2112 13.71 12.2065L14.2293 12.5293C14.5086 12.7042 14.8557 12.6675 15.0962 12.4154L15.5663 11.9442C15.81 11.6948 15.8551 11.3478 15.6698 11.0694L15.3411 10.5717C15.3458 10.6349 15.3505 10.5505 15.3601 10.5898L15.93 10.4705C16.2393 10.4059 16.4482 10.1224 16.4482 9.77849V9.12818C16.4482 8.79001 16.2393 8.50179 15.93 8.43611L15.3601 8.32161C15.3505 8.3255 15.3458 8.3113 15.3411 8.33502L15.6698 7.83826C15.8551 7.55995 15.81 7.21764 15.5663 6.96823L15.0962 6.49233C14.8557 6.24498 14.5086 6.20248 14.2293 6.37837L13.71 6.70022C13.7811 6.69549 13.6909 6.69075 13.7255 6.68602L13.6167 6.11022C13.5627 5.79147 13.2697 5.58728 12.9237 5.58728H12.257C11.911 5.58728 11.6181 5.79147 11.5582 6.11022L11.4505 6.68602C11.4544 6.69075 11.4402 6.69549 11.4659 6.70022L10.9467 6.37837C10.6673 6.20248 10.325 6.24498 10.0845 6.49233L9.61437 6.96823C9.37072 7.21764 9.32452 7.55995 9.50618 7.83826L9.83488 8.33502C9.83015 8.27284 9.82542 8.36091 9.82068 8.32161L9.25065 8.43611C8.93664 8.50179 8.72668 8.79001 8.72668 9.12818V9.77849C8.72668 10.1224 8.93664 10.4059 9.25065 10.4705L9.82068 10.5898C9.82542 10.5859 9.83015 10.5954 9.83488 10.5717L9.50618 11.0694C9.32452 11.3478 9.37072 11.6948 9.61437 11.9442L10.0845 12.4154C10.325 12.6675 10.6673 12.7042 10.9467 12.5293L11.4659 12.2065C11.3996 12.2112 11.4898 12.2159 11.4505 12.2207L11.5582 12.8012C11.6181 13.1162 11.911 13.3204 12.257 13.3204ZM12.4135 12.4801C12.3484 12.4801 12.3366 12.461 12.3202 12.4074L12.1128 11.5618C11.8692 11.5097 11.6559 11.4258 11.4281 11.273L10.6854 11.7368C10.6485 11.7584 10.6115 11.7609 10.5715 11.7246L10.3157 11.4582C10.2699 11.4125 10.2714 11.3849 10.2978 11.3444L10.7411 10.6263C10.7031 10.4856 10.5274 10.2205 10.4748 9.92273L9.63182 9.72578C9.57926 9.71528 9.56225 9.69299 9.56225 9.64037V9.2663C9.56225 9.21369 9.57926 9.19244 9.63182 9.18193L10.4748 8.98498C10.5274 8.68725 10.7031 8.42689 10.7411 8.28033L10.2978 7.56331C10.2714 7.52647 10.2699 7.49422 10.3157 7.4495L10.5715 7.18677C10.6115 7.14683 10.6485 7.14934 10.6854 7.17568L11.4281 7.63476C11.6559 7.48668 11.8692 7.39688 12.1128 7.34491L12.3202 6.49928C12.3366 6.44667 12.3484 6.42758 12.4135 6.42758H12.7624C12.8276 6.42758 12.8394 6.44667 12.8547 6.49928L13.0632 7.34491C13.3057 7.39688 13.52 7.48668 13.7479 7.63476L14.4906 7.17568C14.5311 7.14934 14.5634 7.14683 14.6044 7.18677L14.865 7.4495C14.906 7.49422 14.9046 7.52647 14.883 7.56331L14.4349 8.28033C14.4765 8.42689 14.6475 8.68725 14.7012 8.98498L15.5441 9.18193C15.5957 9.19244 15.6137 9.21369 15.6137 9.2663V9.64037C15.6137 9.69299 15.5957 9.71528 15.5441 9.72578L14.7012 9.92273C14.6475 10.2205 14.4765 10.4856 14.4349 10.6263L14.883 11.3444C14.9046 11.3849 14.906 11.4125 14.865 11.4582L14.6044 11.7246C14.5634 11.7609 14.5311 11.7584 14.4906 11.7368L13.7479 11.273C13.52 11.4258 13.3057 11.5097 13.0632 11.5618L12.8547 12.4074C12.8394 12.461 12.8276 12.4801 12.7624 12.4801H12.4135ZM12.5875 10.8097C13.3261 10.8097 13.9376 10.1983 13.9376 9.45383C13.9376 8.71525 13.3261 8.10849 12.5875 8.10849C11.8373 8.10849 11.2305 8.71417 11.2305 9.45383C11.2305 10.1935 11.8383 10.8097 12.5875 10.8097ZM12.5895 10.0349C12.2678 10.0349 12.0122 9.77248 12.0122 9.4528C12.0122 9.1379 12.2678 8.8871 12.5895 8.8871C12.8929 8.8871 13.1532 9.1379 13.1532 9.4528C13.1532 9.76671 12.8919 10.0349 12.5895 10.0349Z" fill="#1A2233" fill-opacity="0.6"/>
</svg>
