<svg width="17" height="16" viewBox="0 0 17 16" xmlns="http://www.w3.org/2000/svg">
<path d="M16.3158 15.8536C16.2549 15.8569 16.1942 15.8637 16.1333 15.8637C12.634 15.8643 9.13451 15.8566 5.63528 15.8686C4.54126 15.8723 3.56208 15.0904 3.33421 14.0424C3.2996 13.8828 3.27296 13.7217 3.2846 13.5582C3.29286 13.4424 3.24141 13.4075 3.13207 13.4087C2.78567 13.4127 2.43927 13.4102 2.09287 13.4099C1.83284 13.4099 1.83192 13.4093 1.91982 13.1582C2.34493 11.9426 2.77066 10.7274 3.19577 9.51215C3.26316 9.31982 3.26162 9.3189 3.06285 9.3186C2.8846 9.31829 2.70604 9.31308 2.52809 9.32013C2.40006 9.32503 2.35412 9.27205 2.363 9.14862C2.36974 9.05246 2.35872 8.95476 2.36545 8.85859C2.37372 8.74405 2.32656 8.70853 2.21446 8.70975C1.76117 8.71434 1.30757 8.70669 0.854583 8.71435C0.70757 8.7168 0.649377 8.68249 0.650908 8.52079C0.658872 7.73125 0.65734 6.94171 0.651827 6.15248C0.650908 6.01344 0.693175 5.96658 0.834063 5.96872C1.29226 5.97607 1.75106 5.9678 2.20925 5.97362C2.33115 5.97515 2.37434 5.93289 2.36545 5.81406C2.3581 5.71269 2.36882 5.61009 2.363 5.50872C2.35627 5.39479 2.40588 5.35773 2.51584 5.35865C2.92839 5.36233 3.34095 5.35988 3.75351 5.35988C4.3241 5.35988 4.89439 5.3562 5.46499 5.36263C5.59761 5.36416 5.65795 5.32588 5.63743 5.19021C5.63681 5.18531 5.63743 5.1801 5.63743 5.1749C5.63926 4.86282 5.6362 4.86955 5.3581 4.74276C4.65305 4.42149 4.26622 3.87421 4.19884 3.09845C4.16331 2.69082 4.20098 2.76432 4.51859 2.7634C5.62916 2.76064 6.73941 2.76463 7.84998 2.75973C7.99822 2.75911 8.04508 2.80812 8.04048 2.95359C8.01323 3.82704 7.52563 4.52164 6.72931 4.79299C6.63038 4.82668 6.59271 4.87752 6.59454 4.98042C6.60251 5.4343 6.54615 5.35651 6.95932 5.35896C7.69286 5.36325 8.42639 5.36416 9.15963 5.35712C9.31491 5.35559 9.35901 5.40398 9.3584 5.55741C9.35289 6.74417 9.35319 7.93093 9.3584 9.11769C9.35901 9.26806 9.3192 9.3238 9.16146 9.32227C8.70266 9.31798 8.70327 9.32442 8.55473 9.75961C8.38995 10.2411 8.21996 10.721 8.0607 11.2042C8.01996 11.328 7.95442 11.3684 7.82793 11.3675C7.2218 11.3623 6.61568 11.3684 6.00955 11.3626C5.88704 11.3614 5.82854 11.4018 5.78934 11.5182C5.59332 12.0967 5.38597 12.6712 5.18995 13.2494C5.1483 13.372 5.08245 13.4182 4.95596 13.4124C4.78322 13.4041 4.60956 13.4102 4.43651 13.4105C4.21721 13.4108 4.2264 13.4105 4.24263 13.6295C4.27387 14.0528 4.46469 14.3841 4.79577 14.6402C5.08827 14.8665 5.4313 14.9256 5.78842 14.9256C8.763 14.9268 11.7379 14.9256 14.7125 14.9268C15.2469 14.9268 15.7817 14.9333 16.3161 14.9369V15.8539L16.3158 15.8536ZM6.75626 10.4031C6.90389 10.4031 7.05121 10.4006 7.19883 10.404C7.2803 10.4058 7.33084 10.3807 7.3584 10.2974C7.45274 10.0129 7.55166 9.7299 7.65151 9.44723C7.68275 9.3581 7.66897 9.31584 7.56269 9.31737C7.26774 9.32135 6.9728 9.31982 6.67785 9.31829C6.60251 9.31798 6.55473 9.3431 6.529 9.41844C6.42854 9.71153 6.32533 10.004 6.21997 10.2956C6.18995 10.3783 6.21323 10.4061 6.29899 10.4043C6.45151 10.4006 6.60404 10.4034 6.75657 10.4031H6.75626Z"/>
<path d="M8.03163 0.203125C8.03377 0.717336 8.03346 1.23155 8.03959 1.74576C8.04143 1.89429 7.94832 1.89001 7.84633 1.89001C6.80222 1.88939 5.75812 1.89001 4.71402 1.89001C4.62734 1.89001 4.54097 1.89001 4.45429 1.89001C4.27277 1.89001 4.18191 1.8014 4.18171 1.62417C4.18171 1.21685 4.18171 0.809214 4.18171 0.401888C4.18171 0.335736 4.18079 0.269583 4.18018 0.203431H8.03163V0.203125Z"/>
<path d="M16.3154 7.81388C15.9136 7.81542 15.5115 7.81572 15.1096 7.81909C15.0119 7.8197 14.9571 7.79061 14.9596 7.67974C14.9641 7.45097 14.9623 7.22188 14.9605 6.9928C14.9599 6.90889 14.9831 6.85651 15.0796 6.85743C15.4916 6.86172 15.9035 6.86356 16.3154 6.86632V7.81388Z"/>
<path d="M10.2281 7.33285C10.2281 6.74238 10.2318 6.15191 10.2256 5.56144C10.2241 5.41413 10.2621 5.35349 10.4223 5.35656C10.9362 5.36544 11.4507 5.3636 11.9647 5.35747C12.0973 5.35594 12.1432 5.39668 12.1405 5.53174C12.1328 5.90323 12.1377 6.27503 12.138 6.64652C12.138 6.78883 12.2116 6.86009 12.3589 6.86029C12.6339 6.86029 12.9089 6.86489 13.1837 6.85846C13.312 6.85539 13.3696 6.89214 13.3635 7.03088C13.354 7.24434 13.357 7.45842 13.3625 7.67219C13.3656 7.78428 13.3227 7.82593 13.2112 7.8244C12.9059 7.82011 12.6002 7.82746 12.2948 7.82103C12.176 7.81858 12.1344 7.85717 12.1362 7.97845C12.1423 8.36526 12.1328 8.75237 12.1414 9.13918C12.1448 9.28404 12.0896 9.32232 11.9549 9.32079C11.4406 9.31558 10.9264 9.31497 10.4125 9.3211C10.2722 9.32263 10.2253 9.27424 10.2265 9.1355C10.2318 8.53492 10.2287 7.93404 10.2287 7.33347L10.2281 7.33285Z"/>
<path d="M16.1897 8.99331C16.114 9.22454 16.0307 9.48608 15.9422 9.74579C15.9226 9.80337 15.865 9.78775 15.8225 9.77397C15.454 9.65698 15.0868 9.53692 14.7183 9.42024C14.6421 9.39604 14.6277 9.35501 14.6519 9.28212C14.7269 9.05518 14.8001 8.82763 14.869 8.59885C14.8957 8.51095 14.9422 8.48706 15.0274 8.51493C15.3851 8.63162 15.7437 8.74616 16.1015 8.86223C16.1496 8.87785 16.2038 8.89133 16.1897 8.99301V8.99331Z"/>
<path d="M14.9662 6.1643C14.8997 6.16858 14.8847 6.11713 14.8691 6.06874C14.7959 5.8415 14.7257 5.61333 14.6501 5.38701C14.625 5.31197 14.6473 5.27032 14.7181 5.24766C15.0856 5.13006 15.4538 5.01368 15.8207 4.89423C15.8954 4.87004 15.9358 4.89178 15.9585 4.96437C16.0329 5.20172 16.1086 5.43877 16.1855 5.67551C16.2051 5.73553 16.1876 5.77688 16.1294 5.79556C15.7524 5.91684 15.3747 6.03689 14.9974 6.15725C14.9879 6.16032 14.9775 6.16154 14.9662 6.16399V6.1643Z"/>
<path d="M14.5896 8.46568C14.51 8.71253 14.4307 8.95937 14.351 9.20622C14.3314 9.26686 14.2913 9.28217 14.2322 9.26288C14.0144 9.19213 13.797 9.12138 13.5786 9.05278C13.5124 9.03195 13.5078 8.98847 13.5253 8.93334C13.6006 8.69568 13.6775 8.45864 13.7519 8.22067C13.7752 8.14564 13.819 8.12879 13.891 8.15268C14.0938 8.22006 14.2974 8.28468 14.5008 8.34961C14.5581 8.36798 14.6098 8.38758 14.5893 8.46568H14.5896Z"/>
<path d="M14.2285 5.40238C14.3146 5.39166 14.3372 5.42596 14.3501 5.46608C14.4288 5.70772 14.5057 5.94997 14.5838 6.19161C14.6031 6.25072 14.5865 6.29084 14.5265 6.31013C14.3088 6.37965 14.0904 6.44795 13.8729 6.519C13.8095 6.53983 13.7752 6.51471 13.7568 6.45775C13.6787 6.2158 13.6013 5.97386 13.5244 5.73161C13.5118 5.6921 13.5017 5.64371 13.5522 5.62625C13.7875 5.54571 14.0245 5.46914 14.2285 5.40207V5.40238Z"/>
<path d="M14.6448 7.34103C14.6448 7.44792 14.6405 7.5548 14.646 7.66138C14.6515 7.76919 14.6148 7.82217 14.4996 7.81941C14.3063 7.81482 14.1131 7.81604 13.9201 7.81941C13.8184 7.82094 13.771 7.78144 13.7725 7.67578C13.7759 7.45221 13.7756 7.22833 13.7725 7.00476C13.7713 6.90492 13.8056 6.85408 13.9137 6.85653C14.1119 6.86112 14.3103 6.86021 14.5085 6.85684C14.6043 6.85531 14.6488 6.89114 14.6454 6.99067C14.6411 7.10736 14.6445 7.22465 14.6448 7.34134V7.34103Z"/>
</svg>
