<svg width="19" height="14" viewBox="0 0 19 14" fill="none" xmlns="http://www.w3.org/2000/svg">
<path d="M16.6909 9.87399C16.6909 10.8542 16.1798 11.4155 15.2132 11.4155H14.8948C14.9091 11.3302 14.9163 11.2406 14.9163 11.15C14.9163 9.90603 13.9008 8.89155 12.6568 8.89155C11.4138 8.89155 10.4036 9.90603 10.4036 11.15C10.4036 11.2415 10.4117 11.333 10.426 11.4202L7.17784 11.4211C7.19209 11.3306 7.19926 11.2382 7.19926 11.1457C7.19926 10.5221 6.95546 9.95995 6.53427 9.57725V2.93325C6.53427 1.92654 7.07467 1.38086 8.08571 1.38086H12.2171C11.9948 1.83096 11.8726 2.33736 11.8726 2.86666C11.8726 4.7494 13.4379 6.31662 15.3207 6.31662C15.8057 6.31662 16.2689 6.21345 16.6909 6.02965V9.87399ZM5.79393 4.28187V9.08664C5.54846 8.96182 5.26231 8.88725 4.9623 8.88725C3.71929 8.88725 2.68755 9.90173 2.68755 11.1457C2.68755 11.2382 2.69472 11.3306 2.70898 11.4221H2.41793C1.44818 11.4221 0.930984 10.8594 0.930984 9.87399V7.98507C0.930984 7.43539 1.02066 7.1768 1.32847 6.83036L3.13967 4.78427C3.46939 4.41495 3.83967 4.28187 4.38931 4.28187H5.79393ZM4.3155 7.74517C4.62474 7.74517 4.8218 7.55335 4.8218 7.23981V5.4161H4.39079C4.14636 5.4161 3.99353 5.46191 3.79436 5.68205L2.23127 7.43853C2.14912 7.53215 2.09323 7.62434 2.07508 7.74517H4.3155ZM12.6568 12.7619C11.7645 12.7619 11.0459 12.0371 11.0459 11.15C11.0459 10.2601 11.7679 9.53817 12.6568 9.53817C13.5467 9.53817 14.2696 10.2601 14.2696 11.15C14.2696 12.0347 13.5467 12.7619 12.6568 12.7619ZM4.94509 12.7619C4.0509 12.7619 3.33418 12.0437 3.33418 11.1457C3.33418 10.2558 4.0552 9.53387 4.94509 9.53387C5.83498 9.53387 6.55694 10.2558 6.55694 11.1457C6.55694 12.0347 5.83498 12.7619 4.94509 12.7619Z" fill="#1A2233" fill-opacity="0.1"/>
<path d="M15.3165 5.57201C13.8495 5.57201 12.6135 4.3461 12.6135 2.86808C12.6135 1.3848 13.8323 0.166016 15.3165 0.166016C16.7955 0.166016 18.0195 1.38911 18.0195 2.86808C18.0195 4.35471 16.7955 5.57201 15.3165 5.57201Z" fill="#1A2233" fill-opacity="0.1"/>
<path d="M14.5589 4.22992C14.4328 4.39465 14.2054 4.42179 14.0441 4.29831C13.8869 4.17803 13.8564 3.94802 13.9798 3.7867L14.8195 2.83725L14.043 1.92356C13.8817 1.80009 13.8587 1.57588 13.9816 1.41532C14.1045 1.25476 14.3269 1.21839 14.4883 1.34186L15.5522 2.47556C15.7169 2.60166 15.7473 2.82488 15.6212 2.98961L14.5589 4.22992Z" fill="white"/>
<path d="M16.261 4.19092C16.3871 4.35566 16.6144 4.3828 16.7758 4.25932C16.9329 4.13903 16.9635 3.90902 16.84 3.74771L15.8553 2.83781L16.5822 1.9158C16.7435 1.79232 16.7665 1.56812 16.6436 1.40756C16.5207 1.247 16.2983 1.21063 16.137 1.3341L15.1226 2.47612C14.9578 2.60222 14.9275 2.82544 15.0536 2.99018L16.261 4.19092Z" fill="white"/>
</svg>
