<svg width="19" height="16" viewBox="0 0 19 16" fill="none" xmlns="http://www.w3.org/2000/svg">
<path d="M16.2153 11.458C16.2153 12.4382 15.7042 12.9995 14.7376 12.9995H14.4192C14.4335 12.9142 14.4407 12.8245 14.4407 12.734C14.4407 11.49 13.4253 10.4755 12.1813 10.4755C10.9382 10.4755 9.92802 11.49 9.92802 12.734C9.92802 12.8255 9.93614 12.917 9.95043 13.0042L6.70226 13.0051C6.71651 12.9146 6.72368 12.8222 6.72368 12.7297C6.72368 12.1061 6.47987 11.5439 6.05868 11.1612V4.51723C6.05868 3.51053 6.59909 2.96484 7.61012 2.96484H11.7416C11.5192 3.41494 11.397 3.92134 11.397 4.45064C11.397 6.33339 12.9623 7.9006 14.8451 7.9006C15.3302 7.9006 15.7933 7.79743 16.2153 7.61364V11.458Z" fill="#1A2233" fill-opacity="0.1"/>
<path fill-rule="evenodd" clip-rule="evenodd" d="M5.31834 5.86585V10.6706C5.07288 10.5458 4.78672 10.4712 4.48671 10.4712C3.24371 10.4712 2.21197 11.4857 2.21197 12.7297C2.21197 12.8222 2.21914 12.9146 2.23339 13.0061H1.94235C0.972591 13.0061 0.455399 12.4434 0.455399 11.458V9.56906C0.455399 9.01938 0.545078 8.76078 0.852883 8.41434L2.66408 6.36825C2.99381 5.99894 3.36409 5.86585 3.91372 5.86585H5.31834ZM4.34621 8.82379C4.34621 9.13733 4.14915 9.32915 3.83991 9.32915H1.59949C1.61765 9.20832 1.67353 9.11614 1.75568 9.02251L3.31878 7.26603C3.51794 7.04589 3.67077 7.00009 3.9152 7.00009H4.34621V8.82379Z" fill="#1A2233" fill-opacity="0.1"/>
<path d="M4.4695 14.3459C3.57531 14.3459 2.85859 13.6277 2.85859 12.7297C2.85859 11.8398 3.57961 11.1179 4.4695 11.1179C5.3594 11.1179 6.08136 11.8398 6.08136 12.7297C6.08136 13.6187 5.3594 14.3459 4.4695 14.3459Z" fill="#1A2233" fill-opacity="0.1"/>
<path d="M12.1813 14.3459C11.2889 14.3459 10.5703 13.6211 10.5703 12.734C10.5703 11.8441 11.2923 11.1222 12.1813 11.1222C13.0712 11.1222 13.794 11.8441 13.794 12.734C13.794 13.6187 13.0712 14.3459 12.1813 14.3459Z" fill="#1A2233" fill-opacity="0.1"/>
<path d="M14.6631 1.47266C13.0114 1.47266 11.6709 2.84291 11.6709 4.53125C11.6709 6.21959 13.0114 7.58984 14.6631 7.58984C16.3148 7.58984 17.6553 6.21959 17.6553 4.53125C17.6553 2.84291 16.3148 1.47266 14.6631 1.47266ZM15.86 4.83711H14.9623V5.75469C14.9623 5.92291 14.8277 6.06055 14.6631 6.06055C14.4985 6.06055 14.3639 5.92291 14.3639 5.75469V4.83711H13.4662C13.3016 4.83711 13.167 4.69947 13.167 4.53125C13.167 4.36303 13.3016 4.22539 13.4662 4.22539H14.3639V3.30781C14.3639 3.13959 14.4985 3.00195 14.6631 3.00195C14.8277 3.00195 14.9623 3.13959 14.9623 3.30781V4.22539H15.86C16.0245 4.22539 16.1592 4.36303 16.1592 4.53125C16.1592 4.69947 16.0245 4.83711 15.86 4.83711Z" fill="#D2A120"/>
</svg>
