<svg width="17" height="17" viewBox="0 0 17 17" xmlns="http://www.w3.org/2000/svg">
<path d="M8.53062 5.24219C6.28075 5.24219 4.45557 7.04631 4.45557 9.27021C4.45557 11.4949 6.28075 13.2982 8.53062 13.2982C10.7816 13.2982 12.6057 11.4945 12.6057 9.27021C12.6057 7.04631 10.7815 5.24219 8.53062 5.24219ZM8.53119 5.87915C8.73784 5.87915 8.90555 6.04465 8.90555 6.24891C8.90555 6.45317 8.73784 6.61909 8.53119 6.61909C8.32439 6.61909 8.15712 6.45317 8.15712 6.24891C8.15712 6.04478 8.32455 5.87915 8.53119 5.87915ZM5.98002 8.45033C5.91621 8.64462 5.70458 8.75083 5.50859 8.68775C5.31203 8.62467 5.20458 8.41605 5.26811 8.2219C5.33193 8.02775 5.54313 7.92126 5.73954 7.9842C5.93596 8.04728 6.04384 8.25632 5.98002 8.45033ZM7.03601 11.9313C6.91463 12.0967 6.68069 12.1333 6.51356 12.0132C6.34642 11.8932 6.30919 11.6617 6.43071 11.4966C6.55237 11.3314 6.78659 11.2946 6.95358 11.4147C7.12087 11.5347 7.15753 11.7665 7.03601 11.9313ZM6.49366 9.27021C6.49366 8.15826 7.40567 7.25606 8.53119 7.25606C9.65612 7.25606 10.5687 8.15841 10.5687 9.27021C10.5687 10.3823 9.65612 11.2842 8.53119 11.2842C7.40567 11.2842 6.49366 10.3826 6.49366 9.27021ZM10.5465 12.0141C10.3792 12.134 10.1452 12.0975 10.0236 11.9323C9.90226 11.7671 9.9395 11.5353 10.1064 11.4154C10.2736 11.2952 10.508 11.3324 10.6289 11.4976C10.7505 11.6627 10.7134 11.8938 10.5465 12.0141ZM11.7935 8.22303C11.8571 8.41732 11.7497 8.62609 11.553 8.68931C11.3566 8.75239 11.1451 8.64576 11.0816 8.45161C11.0177 8.25703 11.1258 8.04856 11.3221 7.98576C11.5182 7.92282 11.7293 8.02888 11.7935 8.22303Z"/>
<path d="M7.32614 2.78517L7.049 1.28337C7.02412 1.15005 6.94482 1.03204 6.82912 0.95814C6.74783 0.905739 6.6536 0.878906 6.55866 0.878906C6.51872 0.878906 6.47864 0.883542 6.43927 0.892955C3.3041 1.65648 0.793142 4.15591 0.0418037 7.26011C0.0102515 7.39203 0.0344133 7.53195 0.110734 7.64561C0.186344 7.75884 0.305591 7.83696 0.441461 7.86013L1.96251 8.12355C1.99179 8.1286 2.02078 8.13099 2.04935 8.13099C2.27348 8.13099 2.47545 7.98081 2.53228 7.75883C3.08685 5.60279 4.78415 3.91315 6.96172 3.34994C7.21385 3.28476 7.3729 3.03863 7.326 2.7849L7.32614 2.78517ZM1.53957 7.13364C1.33277 7.13364 1.1655 6.96829 1.1655 6.76389C1.1655 6.55962 1.33293 6.39385 1.53957 6.39385C1.74594 6.39385 1.91349 6.55963 1.91349 6.76389C1.91335 6.96816 1.74592 7.13364 1.53957 7.13364ZM5.97883 2.7377C5.77203 2.7377 5.60476 2.57235 5.60476 2.36795C5.60476 2.16368 5.77219 1.9982 5.97883 1.9982C6.18547 1.9982 6.35319 2.16369 6.35319 2.36795C6.35304 2.57236 6.18533 2.7377 5.97883 2.7377Z"/>
<path d="M8.5319 1.55088C8.19037 1.55088 7.85483 1.57491 7.52493 1.61677L7.72732 2.71383C7.81202 3.1718 7.52095 3.62334 7.06487 3.74134C5.03061 4.26717 3.4452 5.8454 2.92687 7.85927C2.82482 8.25726 2.46395 8.53501 2.04895 8.53501C1.99594 8.53501 0.781025 8.32934 0.781025 8.32934C0.742934 8.63812 0.721191 8.9521 0.721191 9.27128C0.721334 13.5352 4.2178 16.9921 8.53183 16.9921C12.8452 16.9921 16.3425 13.5353 16.3425 9.27128C16.3425 5.00733 12.8452 1.55078 8.53183 1.55078L8.5319 1.55088ZM8.53105 13.9036C5.94703 13.9036 3.8451 11.8258 3.8451 9.27138C3.8451 6.71707 5.94743 4.63915 8.53141 4.63915C11.1155 4.63929 13.2177 6.71736 13.2177 9.27138C13.2177 11.8257 11.1154 13.9036 8.53105 13.9036Z"/>
</svg>
