<svg width="38" height="44" viewBox="0 0 38 44" fill="none" xmlns="http://www.w3.org/2000/svg">
<path d="M14.6926 43.1116C13.8863 42.6338 13.6232 41.925 13.6566 40.9985C13.7536 38.3004 13.7893 35.599 13.8585 32.8998C13.9187 30.5623 13.9889 28.2259 14.0637 25.8884C14.0704 25.6774 13.9689 25.587 13.8049 25.5144C13.4871 25.3749 13.1637 25.251 12.8704 25.0556C12.1288 24.5611 11.7475 23.8668 11.7452 22.9849C11.7363 20.0189 11.7307 17.0529 11.7452 14.0858C11.7586 11.5574 13.9354 9.25006 16.4568 9.07815C18.0258 8.97099 19.5982 8.96652 21.1661 9.07815C23.6552 9.25564 25.8063 11.5507 25.8186 14.0434C25.8331 17.0094 25.8253 19.9754 25.8208 22.9425C25.8197 24.0197 25.2766 24.7609 24.3265 25.2041C23.5336 25.5736 23.5258 25.5557 23.5437 26.4108C23.6072 29.417 23.6675 32.4231 23.7377 35.4293C23.7812 37.2522 23.8113 39.0762 23.9061 40.8958C23.9585 41.915 23.6396 42.6629 22.704 43.1105H21.7025C20.9576 42.8538 20.5584 42.3324 20.4469 41.551C20.0298 38.6219 19.6005 35.6939 19.1733 32.767C19.0574 31.9666 18.9369 31.1673 18.8087 30.3033C18.754 30.3971 18.7329 30.4183 18.7295 30.4417C18.2221 33.9335 17.708 37.4241 17.2173 40.9181C17.0913 41.8111 16.9441 42.6629 16.0264 43.1116H14.6904H14.6926Z" fill="#C7C8CA"/>
<path d="M27.7139 43.1115C26.9021 42.7755 26.5843 42.1582 26.6066 41.2942C26.7058 37.5803 26.7426 33.863 26.8876 30.1513C27.0939 24.8367 27.1173 19.5209 27.0905 14.204C27.0883 13.7709 27.2389 13.5454 27.6147 13.3791C28.247 13.1 28.8926 12.918 29.5885 12.9203C30.6736 12.9247 31.7586 12.9158 32.8437 12.9225C35.4688 12.9381 37.5006 14.9653 37.5084 17.5864C37.5162 20.1204 37.5118 22.6543 37.5084 25.1883C37.5084 26.2622 36.9542 27.028 35.9204 27.3148C35.5591 27.4153 35.4732 27.5883 35.481 27.9322C35.5535 31.0901 35.5792 34.2504 35.6907 37.4072C35.7386 38.7836 35.7041 40.1622 35.8 41.5386C35.8546 42.3111 35.4175 42.8157 34.725 43.1126H33.8072C33.1392 42.7855 32.8147 42.2475 32.6998 41.5107C32.3586 39.3273 31.9772 37.1494 31.6092 34.9704C31.4676 34.1309 31.3215 33.2926 31.1575 32.3404C31.1029 32.4978 31.0839 32.5335 31.0784 32.5715C30.6067 35.5933 30.1249 38.6128 29.6733 41.638C29.5651 42.3624 29.2038 42.8358 28.5481 43.1137H27.7128L27.7139 43.1115Z" fill="#B3BBBF"/>
<path d="M2.75448 43.1113C1.94153 42.7329 1.68616 42.0865 1.71515 41.2102C1.83224 37.6225 1.89581 34.0336 2.01178 30.447C2.03966 29.5852 2.04078 28.7223 2.07981 27.8605C2.09319 27.5658 2.00509 27.4118 1.69619 27.3303C0.623405 27.0456 0.0557858 26.2821 0.0557858 25.1635C0.0535554 22.6441 0.0502099 20.1246 0.0557858 17.6051C0.0624768 14.954 2.0865 12.9301 4.73279 12.9212C5.80335 12.9178 6.8739 12.9223 7.94446 12.9212C8.63921 12.9201 9.28489 13.1154 9.91719 13.3878C10.2975 13.5519 10.4435 13.7941 10.4435 14.2217C10.4391 18.6612 10.4246 23.1018 10.4725 27.5412C10.5116 31.1301 10.6164 34.7179 10.7279 38.3056C10.7603 39.3349 10.7413 40.3663 10.806 41.3922C10.8584 42.235 10.5004 42.773 9.76553 43.1102H8.84774C8.28905 42.8266 7.87867 42.4337 7.77496 41.7728C7.43595 39.6195 7.08467 37.4673 6.73674 35.3151C6.57727 34.3272 6.41334 33.3393 6.25164 32.3513C6.16131 32.6315 6.11894 32.905 6.07656 33.1796C5.64276 35.9793 5.19893 38.7767 4.78297 41.5786C4.6748 42.3042 4.36144 42.83 3.67338 43.1102H2.7556L2.75448 43.1113Z" fill="#797E83"/>
<path d="M15.0801 4.01468C15.0801 1.95512 16.7305 0.300781 18.7858 0.300781C20.8511 0.300781 22.4825 1.96517 22.4825 4.07049C22.4825 6.14679 20.8477 7.79109 18.7858 7.78997C16.7316 7.78774 15.0812 6.10661 15.0801 4.01468Z" fill="#C7C8CA"/>
<path d="M2.90433 8.53504C2.91213 6.65744 4.44102 5.1471 6.32119 5.15826C8.1746 5.16943 9.68341 6.68758 9.69122 8.54844C9.69903 10.4138 8.15229 11.9621 6.28997 11.9531C4.41538 11.9442 2.89652 10.4115 2.90433 8.53616V8.53504Z" fill="#797E83"/>
<path d="M31.2821 5.15823C33.1589 5.16492 34.6689 6.69313 34.66 8.57519C34.651 10.4327 33.14 11.9408 31.2777 11.9531C29.4176 11.9642 27.8675 10.416 27.8731 8.55063C27.8786 6.67526 29.4086 5.15153 31.2821 5.15823Z" fill="#B3BBBF"/>
</svg>
