<svg width="18" height="18" viewBox="0 0 18 18" fill="none" xmlns="http://www.w3.org/2000/svg">
<path d="M5.39308 14.7794H8.68503C8.34415 14.4647 8.06925 14.0707 7.90101 13.6364H5.4938C4.93222 13.6364 4.64204 13.3526 4.64204 12.8095V4.14157C4.64204 3.60808 4.92639 3.30415 5.4938 3.30415H11.5077C12.0549 3.30415 12.3536 3.60331 12.3536 4.14157V9.17691C12.7878 9.3441 13.1819 9.61425 13.4956 9.95991V4.07536C13.4956 2.81136 12.8522 2.16211 11.6036 2.16211H5.39308C4.14925 2.16211 3.5 2.81614 3.5 4.07536V12.8662C3.5 14.1302 4.14925 14.7794 5.39308 14.7794ZM6.37097 5.67825H10.6363C10.8466 5.67825 11.0082 5.51084 11.0082 5.30053C11.0082 5.09709 10.8466 4.94028 10.6363 4.94028H6.37097C6.15005 4.94028 5.99325 5.09709 5.99325 5.30053C5.99325 5.51084 6.15005 5.67825 6.37097 5.67825ZM6.37097 7.66694H10.6363C10.8466 7.66694 11.0082 7.50428 11.0082 7.29397C11.0082 7.09053 10.8466 6.92896 10.6363 6.92896H6.37097C6.15005 6.92896 5.99325 7.09053 5.99325 7.29397C5.99325 7.50428 6.15005 7.66694 6.37097 7.66694Z" fill="#1A2233"/>
<path d="M10.9291 14.7795C12.3475 14.7795 13.4992 13.6278 13.4992 12.2094C13.4992 10.7846 12.3485 9.63184 10.9291 9.63184C9.51392 9.63184 8.35156 10.7942 8.35156 12.2094C8.35156 13.6278 9.51392 14.7795 10.9291 14.7795ZM10.9291 13.8935C9.99483 13.8935 9.23656 13.1362 9.23656 12.2094C9.23656 11.2857 9.99483 10.5227 10.9291 10.5227C11.8501 10.5227 12.6084 11.2857 12.6084 12.2094C12.6084 13.1362 11.8549 13.8935 10.9291 13.8935ZM13.9789 15.8379C14.2754 15.8379 14.5015 15.6071 14.5015 15.2846C14.5015 15.1438 14.4384 15.0051 14.3288 14.8944L12.7502 13.3121L11.9448 14.0521L13.5293 15.6404C13.6723 15.7823 13.8131 15.8379 13.9789 15.8379Z" fill="#1A2233"/>
</svg>
