<svg width="18" height="18" viewBox="0 0 18 18"  xmlns="http://www.w3.org/2000/svg">
<path d="M5.62118 15.9959H12.5789C13.9791 15.9959 14.7 15.2703 14.7 13.8788V8.01239C14.7 7.11424 14.5832 6.7021 14.0148 6.12882L10.5841 2.67945C10.0383 2.12738 9.58451 2 8.76951 2H5.62118C4.22748 2 3.5 2.73079 3.5 4.12227V13.8788C3.5 15.2756 4.22212 15.9959 5.62118 15.9959ZM5.72333 14.729C5.0929 14.729 4.77965 14.4025 4.77965 13.8001V4.20103C4.77965 3.60396 5.0929 3.26681 5.72869 3.26681H8.51296V6.81292C8.51296 7.73822 8.96912 8.18565 9.89959 8.18565H13.4204V13.8001C13.4204 14.4025 13.1071 14.729 12.4725 14.729H5.72333ZM10.0207 7.06846C9.75005 7.06846 9.64147 6.95453 9.64147 6.68774V3.44282L13.2426 7.06846H10.0207Z" />
<path d="M9.78669 11.6695C9.5942 11.4292 9.40412 11.1607 9.23291 10.9192C9.15218 10.805 9.07496 10.6961 9.00265 10.5973L8.9973 10.5901C9.10307 10.2526 9.1636 9.97641 9.17709 9.76897C9.21134 9.2406 9.15867 8.90022 9.01614 8.72868C8.91986 8.61261 8.77526 8.57216 8.6393 8.6234C8.54188 8.65993 8.40998 8.75793 8.33461 9.01669C8.22227 9.40239 8.27673 10.0855 8.59611 10.6505C8.45358 11.0686 8.25488 11.5489 8.0354 12.0063C7.61745 12.1704 7.28429 12.3861 7.0452 12.6479C6.7328 12.9894 6.60583 13.3284 6.6967 13.5778C6.75265 13.7322 6.88211 13.8244 7.04284 13.8244C7.15475 13.8244 7.2758 13.7791 7.39299 13.6936C7.68882 13.477 8.07501 12.7554 8.28221 12.3372C8.7108 12.1874 9.13403 12.1261 9.34908 12.1028C9.44636 12.0922 9.54299 12.0839 9.63599 12.078C10.0124 12.5233 10.3203 12.758 10.6039 12.8166C10.661 12.8285 10.7181 12.8345 10.7739 12.8345C11.005 12.8345 11.196 12.7313 11.2852 12.5584C11.3524 12.4277 11.3511 12.2753 11.2814 12.1401C11.124 11.8349 10.649 11.6669 9.94396 11.6669C9.89329 11.6669 9.8409 11.6677 9.78666 11.6696L9.78669 11.6695ZM7.19675 13.3578C7.1408 13.3987 7.08327 13.4231 7.04273 13.4231C7.03503 13.4231 7.02982 13.4222 7.02689 13.4213C7.01982 13.3813 7.04523 13.2084 7.29538 12.9347C7.41286 12.8061 7.56139 12.6887 7.73733 12.5849C7.51537 12.9849 7.31566 13.2708 7.19676 13.3578L7.19675 13.3578ZM8.67492 9.14124C8.70105 9.05171 8.73338 9.01126 8.7535 9.00374C8.754 9.00366 8.75443 9.00342 8.75486 9.00327C8.77427 9.0278 8.85699 9.16793 8.81995 9.7402C8.81353 9.84004 8.79183 9.96618 8.75529 10.1161C8.63574 9.77145 8.60291 9.38847 8.67492 9.14123L8.67492 9.14124ZM9.31456 11.7037C9.12407 11.7242 8.83387 11.7665 8.51014 11.8523C8.63568 11.5715 8.75194 11.287 8.84901 11.0233C8.8827 11.0705 8.91717 11.119 8.95214 11.1686C9.06926 11.334 9.20087 11.5198 9.33726 11.7014L9.31456 11.7037ZM10.9709 12.3406C10.9763 12.3509 10.9762 12.3551 10.9748 12.3578C10.9597 12.3871 10.8917 12.4334 10.7733 12.4334C10.7403 12.4334 10.7051 12.4297 10.6688 12.4221C10.521 12.3915 10.3487 12.2771 10.1433 12.0731C10.7007 12.103 10.9258 12.2534 10.971 12.3406L10.9709 12.3406Z"  stroke="#1A2233" stroke-width="0.1"/>
</svg>
