<svg width="38" height="44" viewBox="0 0 38 44" fill="none" xmlns="http://www.w3.org/2000/svg">
<g clip-path="url(#clip0_24239_189811)">
<path d="M15.0774 43.1097C14.2711 42.6319 14.0079 41.923 14.0414 40.9965C14.1384 38.2985 14.1741 35.597 14.2432 32.8978C14.3035 30.5603 14.3737 28.2239 14.4484 25.8864C14.4551 25.6754 14.3536 25.585 14.1897 25.5125C13.8719 25.3729 13.5485 25.249 13.2552 25.0537C12.5136 24.5591 12.1322 23.8648 12.13 22.9829C12.1211 20.017 12.1155 17.051 12.13 14.0839C12.1434 11.5555 14.3202 9.24811 16.8416 9.0762C18.4106 8.96903 19.983 8.96457 21.5509 9.0762C24.04 9.25369 26.1911 11.5488 26.2034 14.0415C26.2179 17.0074 26.2101 19.9734 26.2056 22.9405C26.2045 24.0177 25.6614 24.759 24.7113 25.2021C23.9184 25.5716 23.9106 25.5538 23.9284 26.4088C23.992 29.415 24.0522 32.4212 24.1225 35.4274C24.166 37.2503 24.1961 39.0743 24.2909 40.8938C24.3433 41.913 24.0243 42.6609 23.0887 43.1085H22.0873C21.3424 42.8518 20.9431 42.3305 20.8316 41.5491C20.4146 38.6199 19.9852 35.6919 19.5581 32.765C19.4421 31.9646 19.3217 31.1654 19.1935 30.3013C19.1388 30.3951 19.1176 30.4163 19.1143 30.4398C18.6069 33.9315 18.0928 37.4222 17.6021 40.9162C17.4761 41.8092 17.3289 42.6609 16.4111 43.1097H15.0751H15.0774Z" fill="#D51820"/>
<path d="M28.0987 43.1095C27.2868 42.7735 26.969 42.1562 26.9913 41.2922C27.0906 37.5783 27.1274 33.8611 27.2723 30.1494C27.4787 24.8347 27.5021 19.519 27.4753 14.2021C27.4731 13.7689 27.6236 13.5435 27.9994 13.3771C28.6317 13.0981 29.2774 12.9161 29.9733 12.9183C31.0583 12.9228 32.1434 12.9139 33.2284 12.9206C35.8535 12.9362 37.8854 14.9634 37.8932 17.5844C37.901 20.1184 37.8965 22.6524 37.8932 25.1864C37.8932 26.2602 37.3389 27.026 36.3052 27.3129C35.9439 27.4134 35.858 27.5864 35.8658 27.9302C35.9383 31.0882 35.9639 34.2484 36.0755 37.4053C36.1234 38.7817 36.0888 40.1603 36.1847 41.5367C36.2394 42.3091 35.8022 42.8137 35.1097 43.1106H34.1919C33.524 42.7836 33.1995 42.2455 33.0846 41.5088C32.7433 39.3253 32.362 37.1474 31.994 34.9684C31.8523 34.129 31.7062 33.2906 31.5423 32.3384C31.4877 32.4958 31.4687 32.5316 31.4631 32.5695C30.9914 35.5913 30.5097 38.6109 30.058 41.636C29.9499 42.3605 29.5885 42.8338 28.9328 43.1118H28.0976L28.0987 43.1095Z" fill="#FCAF19"/>
<path d="M3.1373 43.1093C2.32434 42.7309 2.06897 42.0846 2.09796 41.2083C2.21506 37.6205 2.27862 34.0316 2.3946 30.445C2.42248 29.5832 2.42359 28.7203 2.46262 27.8586C2.476 27.5639 2.38791 27.4098 2.07901 27.3283C1.00622 27.0437 0.438598 26.2801 0.438598 25.1616C0.436368 22.6421 0.433022 20.1227 0.438598 17.6032C0.445289 14.952 2.46931 12.9282 5.1156 12.9192C6.18616 12.9159 7.25672 12.9204 8.32727 12.9192C9.02202 12.9181 9.6677 13.1135 10.3 13.3858C10.6803 13.5499 10.8264 13.7922 10.8264 14.2197C10.8219 18.6592 10.8074 23.0998 10.8554 27.5393C10.8944 31.1282 10.9992 34.7159 11.1107 38.3037C11.1431 39.3329 11.1241 40.3644 11.1888 41.3902C11.2412 42.233 10.8832 42.7711 10.1483 43.1082H9.23056C8.67186 42.8247 8.26148 42.4317 8.15777 41.7709C7.81876 39.6176 7.46748 37.4654 7.11955 35.3131C6.96008 34.3252 6.79615 33.3373 6.63445 32.3494C6.54413 32.6296 6.50175 32.9031 6.45937 33.1777C6.02557 35.9773 5.58174 38.7748 5.16578 41.5767C5.05761 42.3022 4.74425 42.828 4.05619 43.1082H3.13841L3.1373 43.1093Z" fill="#F26724"/>
<path d="M15.4648 4.01273C15.4648 1.95317 17.1153 0.298828 19.1705 0.298828C21.2358 0.298828 22.8673 1.96322 22.8673 4.06854C22.8673 6.14484 21.2325 7.78914 19.1705 7.78802C17.1164 7.78579 15.466 6.10466 15.4648 4.01273Z" fill="#D51820"/>
<path d="M3.28519 8.53309C3.29299 6.65549 4.82188 5.14515 6.70205 5.15631C8.55546 5.16747 10.0643 6.68563 10.0721 8.54649C10.0799 10.4118 8.53315 11.9601 6.67083 11.9512C4.79623 11.9422 3.27738 10.4096 3.28519 8.53421V8.53309Z" fill="#F36825"/>
<path d="M31.6669 5.15627C33.5437 5.16297 35.0536 6.69117 35.0447 8.57324C35.0358 10.4307 33.5248 11.9389 31.6624 11.9511C29.8023 11.9623 28.2523 10.414 28.2578 8.54868C28.2634 6.67331 29.7934 5.14957 31.6669 5.15627Z" fill="#FCAF19"/>
</g>
<defs>
<clipPath id="clip0_24239_189811">
<rect width="37.4595" height="42.8109" fill="white" transform="translate(-0.00195312 0.300781)"/>
</clipPath>
</defs>
</svg>
