<svg width="18" height="18" viewBox="0 0 18 18" xmlns="http://www.w3.org/2000/svg">
<path d="M9.15566 15.3136H15.9537C17.3339 15.3136 18.0005 14.8698 18.0005 13.9073C18.0005 11.6631 15.2621 8.65002 10.9555 8.65002C9.55322 8.65002 8.31656 8.97229 7.30029 9.49439C7.68758 9.80778 8.02985 10.1784 8.3132 10.6041C9.04995 10.2764 9.93921 10.0667 10.9555 10.0667C14.5004 10.0667 16.4801 12.4289 16.4801 13.6851C16.4801 13.8381 16.41 13.897 16.2203 13.897H9.38352C9.37552 14.403 9.31058 14.8404 9.15566 15.3136ZM10.9555 7.69384C12.8928 7.69384 14.4629 5.94226 14.4629 3.7973C14.4629 1.68055 12.9002 0 10.9555 0C9.02915 0 7.44529 1.70744 7.44672 3.81222C7.45473 5.94897 9.02333 7.69384 10.9555 7.69384ZM10.9555 6.27712C9.8454 6.27712 8.89941 5.19416 8.89941 3.80927C8.89797 2.46227 9.83657 1.41669 10.9555 1.41669C12.0876 1.41669 13.0102 2.44883 13.0102 3.7973C13.0102 5.17925 12.0788 6.27712 10.9555 6.27712Z" />
<path d="M4.12689 18.0003C6.36666 18.0003 8.25375 16.0812 8.25375 13.7789C8.25375 11.4647 6.38639 9.56055 4.12689 9.56055C1.86225 9.56055 0 11.4647 0 13.7789C0 16.0946 1.86225 18.0003 4.12689 18.0003ZM4.12665 16.4535C3.79163 16.4535 3.57609 16.2264 3.57609 15.8988V14.3374H2.05864C1.73163 14.3374 1.5161 14.117 1.51466 13.7797C1.51321 13.4439 1.72875 13.2235 2.05864 13.2235H3.57609V11.6666C3.57609 11.3389 3.79163 11.1118 4.12665 11.1104C4.45654 11.1089 4.67208 11.336 4.67208 11.6666V13.2235H6.19098C6.51798 13.2235 6.7401 13.4439 6.7401 13.7797C6.7401 14.117 6.51798 14.3374 6.19098 14.3374H4.67208V15.8988C4.67208 16.2264 4.45654 16.4535 4.12665 16.4535Z" />
</svg>
