<svg width="38" height="44" viewBox="0 0 38 44" fill="none" xmlns="http://www.w3.org/2000/svg">
<path d="M14.7473 43.1116C13.941 42.6338 13.6779 41.925 13.7113 40.9985C13.8083 38.3004 13.844 35.599 13.9132 32.8998C13.9734 30.5623 14.0436 28.2259 14.1183 25.8884C14.125 25.6774 14.0236 25.587 13.8596 25.5144C13.5418 25.3749 13.2184 25.251 12.9251 25.0556C12.1835 24.5611 11.8021 23.8668 11.7999 22.9849C11.791 20.0189 11.7854 17.0529 11.7999 14.0858C11.8133 11.5574 13.9901 9.25006 16.5115 9.07815C18.0805 8.97099 19.6529 8.96652 21.2208 9.07815C23.7099 9.25564 25.861 11.5507 25.8733 14.0434C25.8878 17.0094 25.88 19.9754 25.8755 22.9425C25.8744 24.0197 25.3313 24.7609 24.3812 25.2041C23.5883 25.5736 23.5805 25.5557 23.5984 26.4108C23.6619 29.417 23.7221 32.4231 23.7924 35.4293C23.8359 37.2522 23.866 39.0762 23.9608 40.8958C24.0132 41.915 23.6943 42.6629 22.7586 43.1105H21.7572C21.0123 42.8538 20.6131 42.3324 20.5016 41.551C20.0845 38.6219 19.6551 35.6939 19.228 32.767C19.1121 31.9666 18.9916 31.1673 18.8634 30.3033C18.8087 30.3971 18.7875 30.4183 18.7842 30.4417C18.2768 33.9335 17.7627 37.4241 17.272 40.9181C17.146 41.8111 16.9988 42.6629 16.081 43.1116H14.7451H14.7473Z" fill="#44A33E"/>
<path d="M27.7686 43.1115C26.9568 42.7755 26.6389 42.1582 26.6612 41.2942C26.7605 37.5803 26.7973 33.863 26.9423 30.1513C27.1486 24.8367 27.172 19.5209 27.1452 14.204C27.143 13.7709 27.2935 13.5454 27.6694 13.3791C28.3017 13.1 28.9473 12.918 29.6432 12.9203C30.7283 12.9247 31.8133 12.9158 32.8984 12.9225C35.5235 12.9381 37.5553 14.9653 37.5631 17.5864C37.5709 20.1204 37.5664 22.6543 37.5631 25.1883C37.5631 26.2622 37.0089 27.028 35.9751 27.3148C35.6138 27.4153 35.5279 27.5883 35.5357 27.9322C35.6082 31.0901 35.6339 34.2504 35.7454 37.4072C35.7933 38.7836 35.7588 40.1622 35.8547 41.5386C35.9093 42.3111 35.4722 42.8157 34.7797 43.1126H33.8619C33.1939 42.7855 32.8694 42.2475 32.7545 41.5107C32.4133 39.3273 32.0319 37.1494 31.6639 34.9704C31.5223 34.1309 31.3762 33.2926 31.2122 32.3404C31.1576 32.4978 31.1386 32.5335 31.1331 32.5715C30.6613 35.5933 30.1796 38.6128 29.728 41.638C29.6198 42.3624 29.2585 42.8358 28.6028 43.1137H27.7675L27.7686 43.1115Z" fill="#D3E158"/>
<path d="M2.80917 43.1113C1.99622 42.7329 1.74084 42.0865 1.76984 41.2102C1.88693 37.6225 1.9505 34.0336 2.06647 30.447C2.09435 29.5852 2.09547 28.7223 2.1345 27.8605C2.14788 27.5658 2.05978 27.4118 1.75088 27.3303C0.678092 27.0456 0.110473 26.2821 0.110473 25.1635C0.108243 22.6441 0.104897 20.1246 0.110473 17.6051C0.117164 14.954 2.14119 12.9301 4.78747 12.9212C5.85803 12.9178 6.92859 12.9223 7.99915 12.9212C8.6939 12.9201 9.33958 13.1154 9.97188 13.3878C10.3521 13.5519 10.4982 13.7941 10.4982 14.2217C10.4938 18.6612 10.4793 23.1018 10.5272 27.5412C10.5663 31.1301 10.6711 34.7179 10.7826 38.3056C10.8149 39.3349 10.796 40.3663 10.8607 41.3922C10.9131 42.235 10.5551 42.773 9.82021 43.1102H8.90243C8.34374 42.8266 7.93335 42.4337 7.82964 41.7728C7.49063 39.6195 7.13936 37.4673 6.79143 35.3151C6.63196 34.3272 6.46803 33.3393 6.30633 32.3513C6.216 32.6315 6.17362 32.905 6.13125 33.1796C5.69745 35.9793 5.25361 38.7767 4.83766 41.5786C4.72949 42.3042 4.41612 42.83 3.72807 43.1102H2.81029L2.80917 43.1113Z" fill="#87C546"/>
<path d="M15.1348 4.01468C15.1348 1.95512 16.7852 0.300781 18.8405 0.300781C20.9057 0.300781 22.5372 1.96517 22.5372 4.07049C22.5372 6.14679 20.9024 7.79109 18.8405 7.78997C16.7863 7.78774 15.1359 6.10661 15.1348 4.01468Z" fill="#44A33E"/>
<path d="M2.95901 8.53504C2.96682 6.65744 4.49571 5.1471 6.37588 5.15826C8.22928 5.16943 9.7381 6.68758 9.74591 8.54844C9.75371 10.4138 8.20698 11.9621 6.34466 11.9531C4.47006 11.9442 2.95121 10.4115 2.95901 8.53616V8.53504Z" fill="#87C546"/>
<path d="M31.3368 5.15823C33.2136 5.16492 34.7236 6.69313 34.7146 8.57519C34.7057 10.4327 33.1947 11.9408 31.3323 11.9531C29.4723 11.9642 27.9222 10.416 27.9277 8.55063C27.9333 6.67526 29.4633 5.15153 31.3368 5.15823Z" fill="#D3E158"/>
</svg>
