<svg width="14" height="17" viewBox="0 0 14 17" xmlns="http://www.w3.org/2000/svg">
<path fill-rule="evenodd" clip-rule="evenodd" d="M9.19119 0.226617C9.19119 0.171695 9.16912 0.119022 9.12983 0.0801854C9.09054 0.0413492 9.03725 0.0195312 8.98169 0.0195312H3.11558C2.50437 0.0195313 1.91821 0.259529 1.48602 0.686726C1.05383 1.11392 0.811035 1.69333 0.811035 2.29748V13.8943C0.811035 14.4984 1.05383 15.0779 1.48602 15.505C1.91821 15.9322 2.50437 16.1722 3.11558 16.1722H11.4957C12.1069 16.1722 12.6931 15.9322 13.1253 15.505C13.5575 15.0779 13.8003 14.4984 13.8003 13.8943V5.73262C13.8003 5.6777 13.7782 5.62503 13.7389 5.58619C13.6996 5.54735 13.6463 5.52554 13.5908 5.52554H9.8197C9.65301 5.52554 9.49314 5.46008 9.37528 5.34357C9.25741 5.22706 9.19119 5.06905 9.19119 4.90428V0.226617ZM9.8197 8.30297C9.98639 8.30297 10.1463 8.36843 10.2641 8.48494C10.382 8.60145 10.4482 8.75946 10.4482 8.92423C10.4482 9.089 10.382 9.24702 10.2641 9.36353C10.1463 9.48004 9.98639 9.54549 9.8197 9.54549H4.79161C4.62492 9.54549 4.46505 9.48004 4.34718 9.36353C4.22932 9.24702 4.1631 9.089 4.1631 8.92423C4.1631 8.75946 4.22932 8.60145 4.34718 8.48494C4.46505 8.36843 4.62492 8.30297 4.79161 8.30297H9.8197ZM9.8197 11.6164C9.98639 11.6164 10.1463 11.6818 10.2641 11.7983C10.382 11.9148 10.4482 12.0728 10.4482 12.2376C10.4482 12.4024 10.382 12.5604 10.2641 12.6769C10.1463 12.7934 9.98639 12.8589 9.8197 12.8589H4.79161C4.62492 12.8589 4.46505 12.7934 4.34718 12.6769C4.22932 12.5604 4.1631 12.4024 4.1631 12.2376C4.1631 12.0728 4.22932 11.9148 4.34718 11.7983C4.46505 11.6818 4.62492 11.6164 4.79161 11.6164H9.8197Z"/>
<path d="M10.4482 0.492685C10.4482 0.34027 10.61 0.243353 10.7298 0.338613C10.8312 0.419791 10.9226 0.514222 11.0005 0.621907L13.5254 4.09847C13.5824 4.17799 13.5204 4.2807 13.4215 4.2807H10.6577C10.6022 4.2807 10.5489 4.25889 10.5096 4.22005C10.4703 4.18121 10.4482 4.12854 10.4482 4.07362V0.492685Z"/>
</svg>
