<svg width="17" height="17" viewBox="0 0 17 17" xmlns="http://www.w3.org/2000/svg">
<path d="M7.76556 0.492188L7.26178 1.64241C7.001 1.65832 6.74154 1.69116 6.48502 1.74071L5.7144 0.7456L4.88379 1.02801L4.87965 2.29407C4.5278 2.47493 4.19061 2.69359 3.87209 2.94879L2.69821 2.42025L2.09722 3.05951L2.69818 4.19936C2.50644 4.47269 2.33795 4.76161 2.19446 5.06307L0.905624 5.09822L0.643937 5.93499L1.68453 6.70151C1.63471 7.01199 1.61038 7.32571 1.60899 7.63969L0.453613 8.22513L0.574626 9.094L1.84278 9.34225C1.91859 9.60768 2.01259 9.86758 2.12413 10.1201L1.28839 11.1576L1.75487 11.9002L3.05403 11.5961C3.13624 11.6929 3.22144 11.787 3.3095 11.8785C3.49342 12.0687 3.68933 12.247 3.89603 12.4122L3.64364 13.7135L4.40288 14.152L5.39482 13.2883C5.67865 13.4024 5.97088 13.4944 6.26888 13.5635L6.59267 14.8347L7.46667 14.9061L7.99213 13.7072C8.35523 13.6854 8.71714 13.6311 9.07303 13.5438L9.90781 14.5109L10.7218 14.1851L10.698 13.6948L8.79787 12.254C8.24471 12.3938 7.67109 12.4313 7.1077 12.3677C6.05665 12.2492 5.04657 11.7746 4.2539 10.9548C2.44208 9.08089 2.49388 6.10005 4.3677 4.2883C5.27529 3.41073 6.44272 2.96554 7.61148 2.95293C8.8557 2.93949 10.101 3.41619 11.0353 4.38241C12.5557 5.95504 12.7629 8.32079 11.6828 10.1118L12.741 10.9145C12.8725 10.7082 12.9913 10.494 13.0968 10.2732L14.3762 10.238L14.6379 9.40123L13.6047 8.63993C13.6545 8.3269 13.6797 8.01045 13.6801 7.69348L14.8283 7.11009L14.7073 6.24123L13.4403 5.99298C13.3336 5.62594 13.1923 5.26989 13.0182 4.92965L13.7732 3.88389L13.2685 3.16705L12.0252 3.52803C12.0096 3.51148 11.9945 3.4947 11.9786 3.47839C11.7829 3.27591 11.5735 3.08719 11.3518 2.91357L11.5897 1.68474L10.8304 1.2462L9.88706 2.06754C9.58168 1.94464 9.26802 1.84898 8.9499 1.77792L8.64065 0.563551L7.76556 0.492188ZM5.84061 5.57301C5.49822 5.57691 5.15885 5.66099 4.84761 5.81397L6.34438 6.94976C6.79706 7.2932 6.92545 7.9459 6.57807 8.40407C6.23059 8.8625 5.56336 8.93141 5.10413 8.58307L3.60842 7.44834C3.45527 8.26898 3.74529 9.13852 4.45558 9.67741C5.09258 10.1606 5.91012 10.251 6.61435 9.99808L6.77256 9.94115L6.90596 10.0425L11.3807 13.4374L11.5141 13.5387L11.5027 13.7063C11.4485 14.4527 11.754 15.216 12.3913 15.6995C13.1016 16.2384 14.0179 16.283 14.7672 15.9146L13.2715 14.78C12.8123 14.4316 12.6995 13.7702 13.0471 13.3122C13.3946 12.8541 14.0579 12.8023 14.5107 13.1456L16.0064 14.2804C16.1592 13.4601 15.8703 12.5901 15.1603 12.0513C14.521 11.5662 13.7099 11.47 13.0098 11.7192L12.8526 11.7751L12.7192 11.6737L8.24444 8.27895L8.11105 8.17756L8.12244 8.01107C8.17374 7.27007 7.86261 6.51516 7.22355 6.03021C6.80834 5.71524 6.32251 5.56755 5.84064 5.57304L5.84061 5.57301ZM7.28253 8.56026L12.7068 12.676L12.3333 13.1694L6.90807 9.05262L7.28253 8.56026Z"/>
</svg>
