<svg width="11" height="13" viewBox="0 0 11 13" xmlns="http://www.w3.org/2000/svg">
<path d="M0.492188 7.41617C0.492188 10.0932 2.64438 12.2473 5.31797 12.2473C7.99056 12.2473 10.1383 10.0932 10.1383 7.41617C10.1383 4.74163 8.00416 2.60358 5.3335 2.60358C5.04922 2.60358 4.77821 2.63459 4.53819 2.67984L5.84451 1.39068C5.93917 1.29163 5.98862 1.17196 5.98862 1.03132C5.98862 0.734282 5.76418 0.5 5.47794 0.5C5.32249 0.5 5.197 0.550982 5.10386 0.65392L2.88655 2.90657C2.77973 3.01145 2.72237 3.15262 2.72237 3.29477C2.72237 3.44426 2.7753 3.57366 2.88655 3.68394L5.10386 5.91887C5.20045 6.01542 5.32249 6.06547 5.47351 6.06547C5.76418 6.06547 5.98862 5.84195 5.98862 5.54589C5.98862 5.40528 5.93917 5.2856 5.84008 5.18656L4.37358 3.73082C4.64599 3.66882 4.97598 3.64128 5.3335 3.64128C7.42047 3.64128 9.08023 5.3127 9.08023 7.41617C9.08023 9.50853 7.40688 11.1892 5.31797 11.1892C3.22809 11.1892 1.54835 9.50853 1.54835 7.41617C1.54835 7.09863 1.34453 6.87267 1.0328 6.87267C0.715668 6.87267 0.492188 7.09863 0.492188 7.41617Z" />
</svg>
