<svg width="11" height="14" viewBox="0 0 11 14" xmlns="http://www.w3.org/2000/svg">
<path d="M2.0833 14H8.91674C10.2919 14 11 13.2743 11 11.8824V6.01417C11 5.11575 10.8853 4.70349 10.3271 4.13004L6.95758 0.679648C6.42156 0.127418 5.97586 0 5.17541 0H2.0833C0.71449 0 0 0.731005 0 2.1229V11.8824C0 13.2796 0.709229 14 2.0833 14ZM2.18363 12.7328C1.56446 12.7328 1.2568 12.4061 1.2568 11.8036V2.20168C1.2568 1.60443 1.56446 1.26719 2.18889 1.26719H4.92344V4.81434C4.92344 5.73991 5.37145 6.18748 6.28531 6.18748H9.74321V11.8036C9.74321 12.4061 9.43557 12.7328 8.81229 12.7328H2.18363ZM6.40426 5.06996C6.13844 5.06996 6.0318 4.95599 6.0318 4.68913V1.44325L9.56859 5.06996H6.40426Z"/>
<path d="M7.36607 8.00195L4.66518 11.0028L3.4375 9.6388" stroke="#1A2233" stroke-linecap="round" stroke-linejoin="round" fill="none"/>
</svg>
