<svg width="12" height="15" viewBox="0 0 12 15" fill="none" xmlns="http://www.w3.org/2000/svg">
<path d="M2.25908 14.332H9.09252C10.4677 14.332 11.1758 13.6063 11.1758 12.2144V6.3462C11.1758 5.44778 11.0611 5.03552 10.5029 4.46207L7.13336 1.01168C6.59734 0.459449 6.15164 0.332031 5.35119 0.332031H2.25908C0.890271 0.332031 0.175781 1.06304 0.175781 2.45493V12.2144C0.175781 13.6116 0.88501 14.332 2.25908 14.332ZM2.35941 13.0648C1.74024 13.0648 1.43258 12.7382 1.43258 12.1356V2.53371C1.43258 1.93646 1.74024 1.59922 2.36467 1.59922H5.09922V5.14637C5.09922 6.07195 5.54723 6.51951 6.46109 6.51951H9.91899V12.1356C9.91899 12.7382 9.61135 13.0648 8.98808 13.0648H2.35941ZM6.58004 5.40199C6.31422 5.40199 6.20759 5.28802 6.20759 5.02116V1.77528L9.74437 5.40199H6.58004Z" fill="#0B0E15"/>
<path d="M7.54185 8.33398L4.84096 11.3349L3.61328 9.97083" stroke="#1A2233" stroke-linecap="round" stroke-linejoin="round"/>
</svg>
