<svg width="18" height="18" viewBox="0 0 18 18" fill="none" xmlns="http://www.w3.org/2000/svg">
<path d="M4 9.50266C4 12.0197 6.02351 14.045 8.53726 14.045C11.0501 14.045 13.0694 12.0197 13.0694 9.50266C13.0694 6.98803 11.0628 4.97781 8.55186 4.97781C8.28457 4.97781 8.02976 5.00696 7.8041 5.04951L9.03231 3.83743C9.12131 3.7443 9.16781 3.63178 9.16781 3.49955C9.16781 3.22027 8.95679 3 8.68766 3C8.5415 3 8.42351 3.04793 8.33594 3.14472L6.25121 5.26268C6.15077 5.36129 6.09684 5.49403 6.09684 5.62767C6.09684 5.76822 6.1466 5.88989 6.25121 5.99358L8.33594 8.09488C8.42676 8.18566 8.5415 8.23272 8.6835 8.23272C8.95679 8.23272 9.16781 8.02256 9.16781 7.74421C9.16781 7.612 9.12131 7.49947 9.02815 7.40635L7.64933 6.03766C7.90545 5.97936 8.21571 5.95346 8.55186 5.95346C10.5141 5.95346 12.0746 7.52495 12.0746 9.50266C12.0746 11.4699 10.5013 13.0502 8.53726 13.0502C6.57232 13.0502 4.99301 11.4699 4.99301 9.50266C4.99301 9.20411 4.80138 8.99166 4.50829 8.99166C4.21012 8.99166 4 9.20411 4 9.50266Z" fill="white"/>
</svg>
