<svg width="18" height="18" viewBox="0 0 18 18" fill="none" xmlns="http://www.w3.org/2000/svg">
<path d="M5.5833 16H12.4167C13.7919 16 14.5 15.2743 14.5 13.8824V8.01417C14.5 7.11575 14.3853 6.70349 13.8271 6.13004L10.4576 2.67965C9.92156 2.12742 9.47586 2 8.67541 2H5.5833C4.21449 2 3.5 2.731 3.5 4.1229V13.8824C3.5 15.2796 4.20923 16 5.5833 16ZM5.68363 14.7328C5.06446 14.7328 4.7568 14.4061 4.7568 13.8036V4.20168C4.7568 3.60443 5.06446 3.26719 5.68889 3.26719H8.42344V6.81434C8.42344 7.73991 8.87145 8.18748 9.78531 8.18748H13.2432V13.8036C13.2432 14.4061 12.9356 14.7328 12.3123 14.7328H5.68363ZM9.90426 7.06996C9.63844 7.06996 9.5318 6.95599 9.5318 6.68913V3.44325L13.0686 7.06996H9.90426Z" fill="#0B0E15"/>
<path d="M10.8661 10L8.16518 13.0009L6.9375 11.6368" stroke="#1A2233" stroke-linecap="round" stroke-linejoin="round"/>
</svg>
