<svg width="18" height="20" viewBox="0 0 18 20" xmlns="http://www.w3.org/2000/svg">
<path d="M0.03125 8.22123C0.03125 12.5992 3.35345 16.1552 7.44 16.1552C8.95977 16.1552 10.3545 15.655 11.5173 14.8107L15.6987 19.2965C15.9604 19.5768 16.3072 19.7103 16.6721 19.7103C17.4467 19.7103 18.0006 19.0835 18.0006 18.2637C18.0006 17.8781 17.8684 17.5183 17.6183 17.2505L13.4691 12.7815C14.3378 11.5018 14.8488 9.92841 14.8488 8.22123C14.8488 3.84501 11.5265 0.289062 7.44 0.289062C3.35345 0.289062 0.03125 3.84501 0.03125 8.22123ZM1.9611 8.22123C1.9611 4.98399 4.41704 2.35571 7.44 2.35571C10.463 2.35571 12.9172 4.98399 12.9172 8.22123C12.9172 11.4603 10.463 14.0885 7.44 14.0885C4.41704 14.0885 1.9611 11.4603 1.9611 8.22123Z"/>
</svg>
