<svg width="19" height="18" viewBox="0 0 19 18" fill="none" xmlns="http://www.w3.org/2000/svg">
<path d="M11.2373 17.949C11.8908 17.949 12.3474 17.4434 12.662 16.6679L18.2711 2.76585C18.4196 2.40659 18.5 2.08329 18.5 1.81352C18.5 1.24013 18.1216 0.882812 17.5169 0.882812C17.2309 0.882812 16.89 0.959083 16.5126 1.0984L1.78834 6.44486C1.05421 6.71011 0.5 7.14158 0.5 7.76786C0.5 8.53717 1.10438 8.82633 1.94054 9.06299L8.07342 10.7693L9.85593 16.5207C10.1126 17.3481 10.419 17.949 11.2373 17.949ZM8.55701 9.3073L3.2166 7.7585C3.09434 7.72403 3.05488 7.69032 3.05488 7.63535C3.05488 7.58183 3.08737 7.54151 3.1996 7.49892L13.422 3.802C14.1497 3.53836 14.8534 3.20716 15.6111 2.87935C15.0025 3.34955 14.2578 3.91197 13.7427 4.39748L8.55701 9.3073ZM11.3856 15.5397C11.3206 15.5397 11.2866 15.4876 11.2487 15.3731L9.61373 10.3107L14.7934 5.39367C15.2892 4.91911 15.917 4.18673 16.4014 3.60077C16.0541 4.33249 15.6979 4.99974 15.4198 5.69632L11.521 15.3878C11.4776 15.4942 11.442 15.5397 11.3856 15.5397Z" fill="black"/>
</svg>
