<svg width="21" height="14" viewBox="0 0 21 14" fill="none" xmlns="http://www.w3.org/2000/svg">
<path d="M9.98932 0.271484C9.97394 0.293175 9.97275 0.307767 10.0059 0.306978C10.0303 0.306584 10.0552 0.306978 10.0796 0.306978C10.3663 0.311317 10.6535 0.311317 10.9402 0.322359C11.1007 0.328669 11.2612 0.319599 11.4217 0.335768C11.8326 0.376784 12.1489 0.571213 12.3694 0.919055C12.4676 1.07405 12.5524 1.23692 12.6392 1.39862C12.6581 1.43372 12.6411 1.45857 12.6242 1.4842C12.5433 1.60882 12.481 1.74173 12.4396 1.8845C12.4226 1.94247 12.412 2.00241 12.3974 2.06118C12.3946 2.07261 12.3974 2.09115 12.3785 2.09076C12.3658 2.09076 12.3619 2.07656 12.3568 2.0667C12.2148 1.80089 12.0622 1.5406 11.9249 1.27202C11.7956 1.01883 11.5787 0.90328 11.3026 0.894998C11.0127 0.885927 10.7221 0.890265 10.4322 0.882378C10.0161 0.870941 9.59967 0.868574 9.18321 0.861081C8.85035 0.85556 8.5175 0.852799 8.18503 0.840968C7.91094 0.831503 7.63763 0.84294 7.36433 0.846884C7.14624 0.850039 6.92815 0.847672 6.71045 0.855166C6.34486 0.867391 5.97927 0.865025 5.61408 0.875279C5.2402 0.885533 4.86673 0.891054 4.49286 0.894998C4.22034 0.898153 4.02512 1.03185 3.89616 1.26966C3.67097 1.68415 3.4446 2.09825 3.21822 2.51195C2.90745 3.07946 2.59629 3.64698 2.28473 4.21409C2.24687 4.28311 2.20743 4.35094 2.16838 4.41956C2.07058 4.59112 2.15853 4.74848 2.35611 4.75281C2.45115 4.75518 2.5462 4.754 2.64164 4.754C5.77735 4.754 8.91306 4.754 12.0488 4.754C12.1667 4.754 12.2846 4.75794 12.4025 4.7607C12.4132 4.7607 12.4274 4.75479 12.4321 4.77017C12.4353 4.78003 12.4286 4.7887 12.4226 4.79699C12.3777 4.86364 12.3315 4.9291 12.2893 4.99733C12.2633 5.03913 12.2294 5.0628 12.1813 5.07345C11.9044 5.13379 11.628 5.1961 11.3511 5.25723C10.8857 5.36016 10.42 5.4627 9.95461 5.56563C9.60993 5.64175 9.39381 5.84801 9.31769 6.19545C9.30901 6.23529 9.30823 6.2767 9.30389 6.31732C9.30113 6.34413 9.28614 6.35833 9.26169 6.37174C9.14495 6.43563 9.0432 6.51884 8.97064 6.63045C8.87125 6.78268 8.90201 6.96252 9.04202 7.08084C9.17847 7.19639 9.34056 7.2587 9.51449 7.28552C9.82407 7.33324 10.1325 7.32022 10.4358 7.23859C10.64 7.18337 10.8317 7.10055 10.995 6.96134C11.0518 6.91283 11.0979 6.85604 11.1389 6.79452C11.148 6.78071 11.1547 6.75587 11.1776 6.76533C11.1977 6.77361 11.1922 6.79649 11.1906 6.81384C11.1792 6.94083 11.1105 7.03627 11.0206 7.11988C10.8968 7.23504 10.7469 7.30484 10.5911 7.36282C10.2685 7.48192 9.93489 7.52017 9.59454 7.47995C9.39775 7.45668 9.20884 7.40147 9.0507 7.27211C9.00061 7.23109 8.96275 7.18061 8.9241 7.11791C8.90635 7.22518 8.93238 7.31036 8.99706 7.38451C9.09802 7.50006 9.23093 7.56316 9.37488 7.6026C9.60677 7.66609 9.843 7.67359 10.082 7.65268C10.3853 7.62626 10.6653 7.53437 10.9204 7.36834C10.9828 7.32772 11.0388 7.28079 11.0857 7.22242C11.1516 7.14078 11.1949 7.05086 11.1863 6.9432C11.1827 6.9006 11.1949 6.88088 11.2419 6.87063C11.7877 6.75192 12.3331 6.63085 12.8785 6.50977C13.0864 6.46363 13.2516 6.35399 13.3711 6.17692C13.4713 6.02903 13.5707 5.88074 13.6705 5.73245C13.6776 5.7222 13.6807 5.70445 13.6965 5.70682C13.7127 5.70879 13.7111 5.72654 13.7142 5.73876C13.8554 6.27236 13.9962 6.80556 14.1378 7.33876C14.1453 7.36755 14.1402 7.38806 14.12 7.40975C13.8116 7.74931 13.5028 8.08887 13.1964 8.43001C12.9775 8.67373 12.7579 8.91706 12.5362 9.15842C12.3509 9.36035 12.2562 9.59697 12.2507 9.8758C12.2456 10.144 12.24 10.4126 12.2294 10.6811C12.2274 10.732 12.2081 10.7466 12.1576 10.7466C11.3476 10.7446 10.5371 10.7438 9.72706 10.7438C7.15215 10.7438 4.57725 10.7438 2.00275 10.7434C1.85052 10.7434 1.6971 10.7596 1.54684 10.7249C1.05071 10.6101 0.698534 10.2177 0.627151 9.75354C0.611376 9.651 0.608615 9.54847 0.608615 9.44514C0.608615 8.60117 0.612559 7.75759 0.607432 6.91362C0.604277 6.36504 0.741127 5.85629 0.999839 5.37475C1.1852 5.02967 1.37608 4.68814 1.56301 4.34424C1.59377 4.28745 1.59299 4.28705 1.53028 4.28705C1.27945 4.28705 1.02823 4.28508 0.777409 4.28824C0.687097 4.28942 0.628334 4.24998 0.588107 4.17387C0.530528 4.06581 0.51357 3.94749 0.504499 3.828C0.49109 3.65289 0.505288 3.48134 0.579431 3.31846C0.619658 3.23051 0.684336 3.18792 0.784508 3.18871C1.23055 3.19107 1.67659 3.18871 2.12264 3.19107C2.17588 3.19107 2.20506 3.17451 2.2303 3.12837C2.44208 2.73833 2.65505 2.34868 2.86959 1.95982C3.06441 1.60725 3.24583 1.24639 3.46155 0.90604C3.67965 0.561747 3.99909 0.374812 4.40649 0.336951C4.57015 0.321965 4.73422 0.326303 4.89788 0.323542C5.24533 0.317627 5.59278 0.30264 5.94062 0.307767C5.9635 0.307767 5.99544 0.316049 5.984 0.272668H9.98892L9.98932 0.271484ZM7.89832 8.99318C7.27678 8.99318 6.65563 8.99318 6.03409 8.99318C5.98992 8.99318 5.94535 8.99239 5.90118 8.99436C5.8436 8.99673 5.81481 9.02157 5.79983 9.07639C5.79233 9.10361 5.79036 9.13121 5.79076 9.15921C5.79273 9.3213 5.79746 9.48339 5.79588 9.64548C5.7951 9.72239 5.79194 9.79929 5.79904 9.8758C5.80535 9.94048 5.84203 9.97755 5.90631 9.98189C5.94378 9.98465 5.98164 9.98425 6.0195 9.98425C7.16083 9.98425 8.30177 9.98425 9.4431 9.98425C9.58902 9.98425 9.73494 9.98504 9.88086 9.98347C9.98932 9.98228 10.0252 9.94521 10.0252 9.83715C10.0252 9.61117 10.0256 9.38519 10.0252 9.15882C10.0252 9.03459 9.98301 8.99279 9.86075 8.99279C9.20648 8.99279 8.5522 8.99279 7.89793 8.99279L7.89832 8.99318ZM2.3009 5.55262C1.87102 5.53605 1.58194 5.92964 1.60363 6.25067C1.62256 6.52949 1.79372 6.77874 2.06111 6.8726C2.17509 6.91244 2.29301 6.91046 2.41053 6.91717C2.68029 6.93215 2.95004 6.94832 3.21941 6.9641C3.36651 6.97277 3.51361 6.98224 3.66072 6.99092C3.78968 6.99841 3.91903 7.00906 4.048 7.01142C4.17696 7.01379 4.29685 6.92663 4.34496 6.80556C4.39584 6.67738 4.36705 6.53344 4.27437 6.44155C4.2231 6.39067 4.16 6.35991 4.09611 6.33033C3.6055 6.10277 3.11529 5.87561 2.62981 5.63741C2.52451 5.58574 2.41605 5.54512 2.3009 5.55222V5.55262ZM12.2736 7.34862C12.2467 7.33482 12.2282 7.34073 12.212 7.34428C12.1485 7.35729 12.0847 7.35532 12.0208 7.35256C11.9498 7.34941 11.8808 7.33442 11.8232 7.28828C11.7766 7.25121 11.768 7.21098 11.7944 7.15813C11.8295 7.08872 11.8918 7.04928 11.9573 7.01379C11.9687 7.00748 11.9865 7.00787 11.9896 6.98382C11.8496 6.99762 11.7254 7.03982 11.6213 7.13329C11.594 7.15774 11.5747 7.18811 11.5593 7.22123C11.5227 7.29893 11.5388 7.36439 11.6079 7.41566C11.6331 7.4342 11.6615 7.44642 11.6915 7.45628C11.7731 7.4835 11.8571 7.48034 11.9399 7.47324C12.059 7.46299 12.1687 7.42276 12.2732 7.34862H12.2736ZM8.94776 6.05348C8.8961 6.059 8.84444 6.06491 8.79277 6.06965C8.7064 6.07753 8.62161 6.06886 8.54274 6.03218C8.45045 5.98919 8.43468 5.90992 8.50014 5.83223C8.52893 5.79831 8.56206 5.76913 8.60189 5.74823C8.63068 5.73324 8.65868 5.71628 8.68708 5.70011C8.64685 5.69893 8.60939 5.70366 8.5731 5.71234C8.45597 5.74034 8.34909 5.78964 8.2714 5.88468C8.1803 5.99629 8.21185 6.10396 8.34594 6.1568C8.42758 6.18914 8.51237 6.19151 8.59755 6.18599C8.72573 6.17771 8.84483 6.14103 8.94737 6.05308L8.94776 6.05348ZM8.66578 7.6519C8.62516 7.64164 8.59795 7.65032 8.57192 7.65781C8.44927 7.69291 8.33095 7.73629 8.2572 7.85066C8.19608 7.94531 8.21856 8.03011 8.31597 8.08611C8.39642 8.13264 8.48358 8.13698 8.57271 8.13383C8.68984 8.12949 8.7975 8.0936 8.89886 8.0372C8.90832 8.03208 8.92292 8.02656 8.91858 8.01275C8.91424 7.99816 8.89965 8.00408 8.88861 8.00526C8.85272 8.0092 8.81722 8.01551 8.78133 8.0167C8.69023 8.01946 8.60071 8.01118 8.52104 7.96227C8.45321 7.92086 8.4402 7.8621 8.48082 7.79466C8.50251 7.75917 8.53248 7.73156 8.56798 7.71026C8.59716 7.69291 8.62634 7.67556 8.66539 7.65229L8.66578 7.6519Z" fill="#4C6BD2"/>
<path d="M20.6562 3.37855C20.6136 3.3888 20.5864 3.42469 20.5458 3.44007C20.4223 3.48779 20.2937 3.51106 20.1636 3.52802C20.0891 3.53748 20.0141 3.54734 19.9396 3.55562C19.9073 3.55917 19.8765 3.56351 19.852 3.5292C19.6631 3.26457 19.4068 3.18136 19.0933 3.24801C18.8771 3.29415 18.6598 3.33438 18.4429 3.37658C18.3759 3.38959 18.37 3.38446 18.37 3.31505C18.37 3.17899 18.3715 3.04332 18.3692 2.90726C18.368 2.84298 18.396 2.80236 18.452 2.77554C18.566 2.72112 18.6882 2.69903 18.8113 2.67892C19.1311 2.62647 19.4529 2.62173 19.7763 2.63554C19.9881 2.64461 20.1975 2.6663 20.4038 2.7152C20.4949 2.73689 20.584 2.7645 20.6566 2.82799V3.37855H20.6562ZM19.4774 2.93487C19.77 2.93566 20.0185 2.92817 20.2657 2.89425C20.3079 2.88833 20.3494 2.87887 20.3888 2.86191C20.3994 2.85757 20.4109 2.85205 20.4125 2.83904C20.4144 2.82287 20.401 2.81656 20.3896 2.81064C20.36 2.79605 20.3285 2.78658 20.2961 2.78146C20.11 2.75188 19.9218 2.74005 19.7337 2.73334C19.447 2.72348 19.1603 2.73453 18.8748 2.76253C18.8018 2.76963 18.7277 2.77633 18.6579 2.80196C18.6405 2.80827 18.6145 2.81104 18.6157 2.83588C18.6165 2.85718 18.6397 2.85994 18.6563 2.86585C18.6949 2.88005 18.7348 2.88833 18.7758 2.89346C19.0231 2.92383 19.2715 2.93803 19.4774 2.93408V2.93487Z" fill="#4C6BD2"/>
<path d="M15.4854 8.57841C15.4183 8.65373 15.3517 8.72906 15.2843 8.80399C15.145 8.95859 15.0054 9.11319 14.8654 9.2666C14.6335 9.52058 14.4001 9.77338 14.1741 10.0329C14.1536 10.0561 14.1346 10.0822 14.1106 10.1015C14.0498 10.1496 14.0349 10.21 14.0345 10.2865C14.0337 10.7006 14.01 11.1147 14.0041 11.5288C14.0009 11.7366 13.9907 11.9444 13.986 12.1523C13.9789 12.4516 13.9785 12.7521 13.9544 13.0503C13.9256 13.4096 13.6425 13.7345 13.226 13.742C12.8565 13.7487 12.5528 13.505 12.4735 13.1694C12.4538 13.085 12.4471 12.999 12.4538 12.9111C12.4625 12.792 12.4601 12.6721 12.4644 12.5526C12.4759 12.2402 12.4786 11.9271 12.4893 11.6147C12.4968 11.3907 12.5023 11.1663 12.5074 10.9419C12.5157 10.6016 12.5271 10.2612 12.5374 9.92048C12.5441 9.69332 12.6246 9.49889 12.7796 9.33009C13.0623 9.02248 13.3388 8.70895 13.6188 8.39936C13.8574 8.13552 14.0976 7.87326 14.337 7.6106C14.3602 7.58497 14.3795 7.55539 14.4064 7.53449C14.4706 7.48401 14.4703 7.42682 14.4501 7.35268C14.2435 6.58088 14.04 5.80829 13.8357 5.0361C13.8318 5.02071 13.8325 4.99823 13.8156 4.99469C13.7967 4.99074 13.7915 5.01401 13.7836 5.02663C13.5821 5.33937 13.3715 5.64581 13.1641 5.9546C13.0631 6.10526 12.9338 6.19557 12.7559 6.23422C11.973 6.4042 11.1914 6.58009 10.4093 6.75243C10.3025 6.7761 10.1972 6.8112 10.0863 6.81238C9.86588 6.81475 9.68289 6.68381 9.62057 6.4811C9.55826 6.27957 9.63832 6.05872 9.81461 5.93646C9.88994 5.88401 9.97591 5.86587 10.0623 5.84654C10.6061 5.72586 11.15 5.60637 11.6938 5.48569C11.9226 5.43481 12.1509 5.38275 12.3797 5.33188C12.4171 5.3236 12.442 5.30467 12.4637 5.27193C12.7377 4.86178 13.0134 4.45281 13.2883 4.04344C13.4117 3.85966 13.5375 3.67785 13.6559 3.49092C13.7572 3.33119 13.8972 3.24404 14.0826 3.20578C14.4805 3.12336 14.8757 3.02989 15.272 2.93958C15.6124 2.86228 15.9523 2.78419 16.2923 2.70492C16.4394 2.67061 16.5727 2.69664 16.691 2.78932C17.0432 3.06499 17.3954 3.34145 17.7456 3.61988C17.7972 3.6609 17.8454 3.67628 17.912 3.66208C18.2275 3.59543 18.5442 3.53233 18.8609 3.47002C18.9827 3.44596 19.1062 3.42742 19.228 3.40337C19.4757 3.35525 19.7944 3.56269 19.7758 3.91054C19.7636 4.13454 19.6039 4.31004 19.3736 4.35421C18.9472 4.43546 18.5217 4.52064 18.0954 4.60307C17.9779 4.62555 17.8619 4.65552 17.7432 4.67011C17.6229 4.6851 17.5153 4.65434 17.4202 4.58177C17.3007 4.48988 17.184 4.39444 17.0641 4.30255C17.0436 4.28677 17.0223 4.2497 16.9966 4.26666C16.9761 4.28046 16.999 4.31517 17.0053 4.33923C17.1323 4.82037 17.2589 5.30191 17.3883 5.78226C17.488 6.15377 17.5768 6.52843 17.69 6.89638C17.7472 7.08213 17.7097 7.2596 17.6355 7.43234C17.5298 7.67922 17.421 7.92492 17.3137 8.17101C17.1146 8.62928 16.9158 9.08755 16.7166 9.54543C16.6567 9.68346 16.5964 9.82149 16.5336 9.95834C16.5191 9.99029 16.5222 10.0167 16.536 10.0467C16.6985 10.3937 16.8618 10.7408 17.0227 11.0886C17.24 11.5583 17.4553 12.0288 17.6718 12.4989C17.7069 12.5747 17.7448 12.6492 17.7795 12.7253C17.9964 13.2041 17.7124 13.7203 17.1919 13.7933C16.8858 13.8363 16.5889 13.6789 16.4343 13.391C16.3116 13.1627 16.2106 12.9245 16.1014 12.6898C15.9038 12.2651 15.7074 11.8395 15.5106 11.4148C15.3454 11.0579 15.1805 10.7014 15.0149 10.3448C14.8982 10.094 14.9269 9.85186 15.0413 9.60655C15.1963 9.27409 15.3395 8.93611 15.4878 8.60049C15.4901 8.59497 15.4913 8.58906 15.4929 8.58314L15.4854 8.57801V8.57841Z" fill="#4C6BD2"/>
<path d="M12.6642 2.35797C12.6638 1.725 13.1253 1.17563 13.7468 1.0439C14.4449 0.896011 15.1847 1.36256 15.335 2.11425C15.374 2.30947 15.3634 2.50074 15.3192 2.6932C15.3093 2.73579 15.2888 2.7563 15.2458 2.76576C14.8286 2.85805 14.4121 2.95506 13.9941 3.04459C13.7933 3.08758 13.6387 3.18933 13.5295 3.36206C13.4936 3.41885 13.4546 3.47367 13.4179 3.52967C13.4002 3.55728 13.382 3.56122 13.3528 3.54348C12.9462 3.30133 12.7159 2.9456 12.6646 2.4755C12.6603 2.43685 12.6642 2.39702 12.6642 2.35758V2.35797Z" fill="#4C6BD2"/>
<path d="M1.80938 12.4152C1.57472 12.4152 1.34046 12.4152 1.1058 12.4152C0.95318 12.4152 0.893234 12.3553 0.893234 12.2054C0.893234 11.755 0.893234 11.3043 0.893234 10.8539C0.893234 10.8365 0.884952 10.8129 0.901122 10.803C0.921629 10.7912 0.935433 10.8152 0.951208 10.8251C1.16181 10.9541 1.38384 11.0503 1.63467 11.0653C1.94268 11.0834 2.25108 11.0692 2.55909 11.0735C2.60011 11.0743 2.64112 11.0755 2.68214 11.0739C2.71842 11.0728 2.73144 11.0885 2.73065 11.124C2.72907 11.2139 2.72946 11.3043 2.72946 11.3942C2.72946 11.6679 2.72986 11.9412 2.73025 12.2149C2.73025 12.349 2.66676 12.414 2.53188 12.4144C2.29091 12.4152 2.04995 12.4144 1.80859 12.4144L1.80938 12.4152Z" fill="#4C6BD2"/>
<path d="M14.9316 11.5659C14.9316 11.7804 14.9316 11.995 14.9316 12.2099C14.9316 12.3468 14.8669 12.4138 14.7312 12.415C14.5952 12.4162 14.4591 12.4142 14.3231 12.4158C14.2801 12.4162 14.2655 12.4004 14.2667 12.3582C14.2781 11.98 14.2884 11.6022 14.299 11.224C14.2998 11.2011 14.3049 11.1782 14.3053 11.1554C14.3065 11.0378 14.31 11.0532 14.4114 11.0288C14.5711 10.9905 14.7178 10.9239 14.8555 10.8351C14.9044 10.8036 14.9205 10.8103 14.928 10.8679C14.9312 10.8939 14.9308 10.9203 14.9308 10.9463C14.9308 11.1526 14.9308 11.3592 14.9308 11.5655H14.9316V11.5659Z" fill="#4C6BD2"/>
<path d="M7.90871 1.53266C7.63658 1.53266 7.36446 1.53266 7.09234 1.53266C7.02885 1.53266 7.02687 1.53029 7.02648 1.46561C7.02569 1.35913 7.02569 1.25265 7.0249 1.14616C7.0249 1.08149 7.02845 1.07715 7.09471 1.07715C7.48002 1.07715 7.86532 1.07715 8.25063 1.07715C8.40641 1.07715 8.56219 1.07715 8.71797 1.07754C8.79488 1.07794 8.79961 1.08306 8.8 1.1576C8.8 1.26251 8.79803 1.36741 8.8 1.47192C8.80079 1.51925 8.78226 1.53384 8.73572 1.53344C8.46044 1.53187 8.18477 1.53266 7.9095 1.53266H7.90871Z" fill="#4C6BD2"/>
<path d="M14.3258 10.5631C14.3258 10.4846 14.3258 10.4066 14.3258 10.3281C14.3258 10.302 14.3364 10.2808 14.3538 10.2622C14.4414 10.1672 14.5285 10.0721 14.6161 9.97708C14.6224 9.96998 14.6283 9.95933 14.6397 9.96406C14.6508 9.9684 14.6484 9.98063 14.648 9.99009C14.6437 10.1549 14.6784 10.3111 14.749 10.4598C14.7604 10.4843 14.7537 10.4988 14.7336 10.5134C14.6196 10.5947 14.4958 10.6562 14.3629 10.7008C14.3286 10.7122 14.314 10.7035 14.3155 10.6661C14.3171 10.6317 14.3155 10.5974 14.3155 10.5631C14.3191 10.5631 14.3222 10.5631 14.3258 10.5631Z" fill="#4C6BD2"/>
</svg>
