<svg width="20" height="21" viewBox="0 0 20 21" fill="none" xmlns="http://www.w3.org/2000/svg">
<path d="M17.6692 11.0316V9.96418L19.0088 8.7921C19.2557 8.57447 19.4177 8.27655 19.4662 7.951C19.5147 7.62545 19.4466 7.29323 19.2739 7.01306L17.6274 4.2224C17.505 4.01049 17.3291 3.83448 17.1173 3.71203C16.9054 3.58957 16.6651 3.52498 16.4204 3.52473C16.2688 3.52357 16.118 3.54713 15.9739 3.5945L14.2786 4.16658C13.9859 3.97208 13.6806 3.79728 13.3646 3.64333L13.0088 1.88522C12.945 1.56401 12.7703 1.27549 12.5152 1.07014C12.2601 0.864786 11.9409 0.755701 11.6135 0.761975H8.34843C8.02101 0.755701 7.70182 0.864786 7.44673 1.07014C7.19164 1.27549 7.0169 1.56401 6.9531 1.88522L6.59729 3.64333C6.27911 3.79724 5.97146 3.97204 5.67637 4.16658L4.01593 3.56659C3.87032 3.52865 3.71954 3.51452 3.56942 3.52473C3.32473 3.52498 3.08441 3.58957 2.87257 3.71203C2.66072 3.83448 2.48481 4.01049 2.36246 4.2224L0.715971 7.01306C0.553127 7.29281 0.492615 7.62048 0.544798 7.93995C0.596982 8.25942 0.758615 8.5508 1.00201 8.7642L2.3206 9.97116V11.0386L1.00201 12.2107C0.75174 12.4255 0.585686 12.7221 0.533321 13.0478C0.480957 13.3735 0.545668 13.7072 0.715971 13.9897L2.36246 16.7804C2.48481 16.9923 2.66072 17.1683 2.87257 17.2907C3.08441 17.4132 3.32473 17.4778 3.56942 17.478C3.72106 17.4792 3.87187 17.4556 4.01593 17.4083L5.71126 16.8362C6.00395 17.0307 6.30928 17.2055 6.6252 17.3594L6.98101 19.1175C7.0448 19.4388 7.21954 19.7273 7.47464 19.9326C7.72973 20.138 8.04892 20.2471 8.37634 20.2408H11.6693C11.9967 20.2471 12.3159 20.138 12.571 19.9326C12.8261 19.7273 13.0008 19.4388 13.0646 19.1175L13.4205 17.3594C13.7386 17.2055 14.0463 17.0307 14.3414 16.8362L16.0297 17.4083C16.1738 17.4556 16.3246 17.4792 16.4762 17.478C16.7209 17.4778 16.9612 17.4132 17.1731 17.2907C17.3849 17.1683 17.5608 16.9923 17.6832 16.7804L19.2739 13.9897C19.4367 13.71 19.4972 13.3823 19.445 13.0628C19.3929 12.7434 19.2312 12.452 18.9878 12.2386L17.6692 11.0316ZM16.4204 16.0827L14.0274 15.2734C13.4672 15.7479 12.827 16.1188 12.1368 16.3687L11.6414 18.8734H8.34843L7.85309 16.3967C7.16828 16.1396 6.53151 15.7694 5.96939 15.3013L3.56942 16.0827L1.92293 13.292L3.82058 11.6176C3.69158 10.8955 3.69158 10.1561 3.82058 9.43396L1.92293 7.71072L3.56942 4.92006L5.96242 5.72935C6.5226 5.25486 7.16282 4.88396 7.85309 4.63402L8.34843 2.1294H11.6414L12.1368 4.60611C12.8216 4.86315 13.4583 5.23341 14.0204 5.70145L16.4204 4.92006L18.0669 7.71072L16.1693 9.38512C16.2983 10.1073 16.2983 10.8466 16.1693 11.5688L18.0669 13.292L16.4204 16.0827Z" fill="black"/>
<path d="M9.99459 14.6884C9.16668 14.6884 8.35736 14.4429 7.66897 13.9829C6.98059 13.523 6.44406 12.8692 6.12724 12.1043C5.81041 11.3394 5.72751 10.4978 5.88903 9.68575C6.05055 8.87375 6.44922 8.12788 7.03464 7.54246C7.62007 6.95704 8.36594 6.55836 9.17794 6.39684C9.98994 6.23532 10.8316 6.31822 11.5965 6.63505C12.3614 6.95188 13.0151 7.4884 13.4751 8.17679C13.9351 8.86517 14.1806 9.67449 14.1806 10.5024C14.1862 11.0537 14.0817 11.6005 13.8733 12.1109C13.665 12.6213 13.3568 13.085 12.967 13.4748C12.5772 13.8646 12.1135 14.1728 11.6031 14.3812C11.0927 14.5895 10.5459 14.694 9.99459 14.6884ZM9.99459 7.71174C9.62576 7.70315 9.25903 7.76946 8.91657 7.90666C8.5741 8.04386 8.26303 8.2491 8.00216 8.50997C7.74129 8.77084 7.53605 9.08192 7.39885 9.42438C7.26164 9.76684 7.19533 10.1336 7.20393 10.5024C7.19533 10.8712 7.26164 11.238 7.39885 11.5804C7.53605 11.9229 7.74129 12.234 8.00216 12.4948C8.26303 12.7557 8.5741 12.9609 8.91657 13.0981C9.25903 13.2353 9.62576 13.3017 9.99459 13.2931C10.3634 13.3017 10.7301 13.2353 11.0726 13.0981C11.4151 12.9609 11.7261 12.7557 11.987 12.4948C12.2479 12.234 12.4531 11.9229 12.5903 11.5804C12.7275 11.238 12.7938 10.8712 12.7852 10.5024C12.7938 10.1336 12.7275 9.76684 12.5903 9.42438C12.4531 9.08192 12.2479 8.77084 11.987 8.50997C11.7261 8.2491 11.4151 8.04386 11.0726 7.90666C10.7301 7.76946 10.3634 7.70315 9.99459 7.71174Z" fill="black"/>
</svg>
