<svg width="21" height="21" viewBox="0 0 21 21" fill="none" xmlns="http://www.w3.org/2000/svg">
<path id="Vector" d="M11.8084 0.515625V2.53563C16.1984 3.07563 19.3084 7.06563 18.7684 11.4556C18.3084 15.0956 15.4484 17.9856 11.8084 18.4156V20.4156C17.3084 19.8656 21.3084 14.9856 20.7584 9.48563C20.3084 4.73563 16.5384 0.985625 11.8084 0.515625ZM9.8084 0.545625C7.8584 0.735625 5.9984 1.48563 4.4784 2.74563L5.9084 4.22562C7.0284 3.32562 8.3784 2.74563 9.8084 2.54562V0.545625ZM3.0684 4.15563C1.81805 5.67297 1.0486 7.52871 0.858398 9.48563H2.8584C3.0484 8.06563 3.6084 6.71562 4.4984 5.58562L3.0684 4.15563ZM0.868398 11.4856C1.0684 13.4456 1.8384 15.2956 3.0784 16.8156L4.4984 15.3856C3.61533 14.2552 3.05235 12.9082 2.8684 11.4856H0.868398ZM5.9084 16.8556L4.4784 18.2256C5.99318 19.4883 7.84767 20.2747 9.8084 20.4856V18.4856C8.3858 18.3017 7.0388 17.7387 5.9084 16.8556ZM15.6284 13.6756L11.5184 9.56563C11.9284 8.52563 11.6984 7.30562 10.8384 6.45562C9.9384 5.54562 8.5884 5.36563 7.4984 5.86563L9.4384 7.80562L8.0884 9.16563L6.0984 7.21562C5.5584 8.30562 5.8084 9.65563 6.6884 10.5656C7.5484 11.4256 8.7684 11.6456 9.8084 11.2456L13.9184 15.3456C14.0984 15.5356 14.3684 15.5356 14.5484 15.3456L15.5884 14.3156C15.8084 14.1356 15.8084 13.8156 15.6284 13.6756Z" fill="#4C6BD2"/>
</svg>
