<svg width="28" height="28" viewBox="0 0 28 28" fill="none" xmlns="http://www.w3.org/2000/svg">
<circle cx="14.0004" cy="14.0026" r="12.6667" fill="white"/>
<path d="M15.2958 19C15.4614 19.0012 15.6231 18.9499 15.7578 18.8536C15.8924 18.7573 15.9932 18.6208 16.0456 18.4637L18.9551 10.0578C19.0047 9.91657 19.0134 9.76416 18.9802 9.61817C18.947 9.47218 18.8732 9.33855 18.7673 9.23268C18.6615 9.12681 18.5278 9.05301 18.3818 9.0198C18.2358 8.98658 18.0834 8.9953 17.9422 9.04494L9.5364 11.9545C9.37731 12.0083 9.23954 12.1115 9.1431 12.249C9.04667 12.3865 8.9966 12.5512 9.00018 12.7191C9.00173 12.8869 9.05706 13.0499 9.15805 13.1839C9.25903 13.318 9.40034 13.4161 9.56123 13.4639L13.3644 14.6357L14.5362 18.4389C14.5835 18.5997 14.6816 18.7408 14.8159 18.8411C14.9502 18.9414 15.1134 18.9954 15.2809 18.995L15.2958 19ZM18.2004 9.79467L15.2909 18.2056L14.1241 14.4023C14.0856 14.2785 14.0176 14.1658 13.9259 14.0741C13.8342 13.9825 13.7216 13.9145 13.5978 13.876L9.79458 12.7092L18.2004 9.79467Z" fill="#0B0E15"/>
<circle cx="14" cy="14" r="13.5" stroke="#CFCFCF"/>
</svg>
