<svg width="21" height="21" viewBox="0 0 21 21" fill="none" xmlns="http://www.w3.org/2000/svg">
<g id="Vector">
<path d="M11.4749 0.515625V2.53563C15.8649 3.07563 18.9749 7.06563 18.4349 11.4556C17.9749 15.0956 15.1149 17.9856 11.4749 18.4156V20.4156C16.9749 19.8656 20.9749 14.9856 20.4249 9.48563C19.9749 4.73563 16.2049 0.985625 11.4749 0.515625ZM9.4749 0.545625C7.5249 0.735625 5.6649 1.48563 4.1449 2.74563L5.5749 4.22562C6.6949 3.32562 8.0449 2.74563 9.4749 2.54562V0.545625ZM2.7349 4.15563C1.48456 5.67297 0.715104 7.52871 0.524902 9.48563H2.5249C2.7149 8.06563 3.2749 6.71562 4.1649 5.58562L2.7349 4.15563ZM0.534902 11.4856C0.734902 13.4456 1.5049 15.2956 2.7449 16.8156L4.1649 15.3856C3.28183 14.2552 2.71886 12.9082 2.5349 11.4856H0.534902ZM5.5749 16.8556L4.1449 18.2256C5.65968 19.4883 7.51417 20.2747 9.4749 20.4856V18.4856C8.0523 18.3017 6.70531 17.7387 5.5749 16.8556Z" fill="#7D70E8"/>
<path d="M13.8478 14.8121C14.4662 14.8121 14.9675 14.3108 14.9675 13.6924C14.9675 13.074 14.4662 12.5727 13.8478 12.5727C13.2294 12.5727 12.7281 13.074 12.7281 13.6924C12.7281 14.3108 13.2294 14.8121 13.8478 14.8121Z" fill="#7D70E8"/>
<path d="M8.0257 14.8121C8.6441 14.8121 9.14542 14.3108 9.14542 13.6924C9.14542 13.074 8.6441 12.5727 8.0257 12.5727C7.4073 12.5727 6.90598 13.074 6.90598 13.6924C6.90598 14.3108 7.4073 14.8121 8.0257 14.8121Z" fill="#7D70E8"/>
<path d="M12.7281 8.98783H14.5196L15.8633 10.3315V12.5709H12.7281V8.98783Z" fill="#7D70E8"/>
<path d="M12.7281 6.74927H6.00977V12.5718L12.7281 12.5709V6.74927Z" fill="#7D70E8"/>
</g>
</svg>
