<svg width="17" height="18" viewBox="0 0 17 18" fill="none" xmlns="http://www.w3.org/2000/svg">
<path d="M4.84486 18C5.27208 18 5.58969 17.7671 6.12146 17.2471L8.7488 14.657H13.3948C15.7055 14.657 17 13.1791 17 10.6426V4.01438C17 1.4779 15.7055 0 13.3948 0H3.60386C1.29442 0 0 1.47089 0 4.01438V10.6426C0 13.1861 1.32619 14.657 3.55551 14.657H3.87143V16.7638C3.87143 17.5188 4.22743 18 4.84486 18ZM5.21758 16.1176V13.6775C5.21758 13.1759 5.02462 12.9826 4.59355 12.9826H3.64669C2.19568 12.9826 1.5038 12.1607 1.5038 10.5895V4.06053C1.5038 2.4893 2.19568 1.67446 3.64669 1.67446H13.3533C14.798 1.67446 15.4962 2.4893 15.4962 4.06053V10.5895C15.4962 12.1607 14.798 12.9826 13.3533 12.9826H8.66686C8.2011 12.9826 7.97925 13.0664 7.65444 13.432L5.21758 16.1176Z" fill="#1A2233"/>
<path d="M4.59476 5.07973H12.3298C12.5934 5.07973 12.8019 4.84299 12.8019 4.54556C12.8019 4.26062 12.5934 4.02148 12.3298 4.02148H4.59476C4.33395 4.02148 4.12195 4.26062 4.12195 4.54556C4.12195 4.84299 4.33533 5.07973 4.59476 5.07973ZM4.59476 7.80599H12.3298C12.5934 7.80599 12.8019 7.56218 12.8019 7.26476C12.8019 6.97982 12.5934 6.73914 12.3298 6.73914H4.59476C4.33395 6.73914 4.12195 6.98135 4.12195 7.26476C4.12195 7.56218 4.33533 7.80599 4.59476 7.80599ZM4.59476 10.5252H9.63456C9.8982 10.5252 10.1039 10.2884 10.1039 9.99803C10.1039 9.69908 9.8982 9.4584 9.63456 9.4584H4.59476C4.33395 9.4584 4.12195 9.70061 4.12195 9.99803C4.12195 10.2884 4.33533 10.5252 4.59476 10.5252Z" fill="#1A2233"/>
</svg>
