<svg width="17" height="18" viewBox="0 0 17 18" fill="none" xmlns="http://www.w3.org/2000/svg">
<path d="M6.40829 0.98469C7.35611 1.40731 8.08162 2.06957 8.54986 2.99889C9.55877 5.00175 8.84145 7.44045 6.90865 8.58075C6.77923 8.65696 6.72979 8.7379 6.73011 8.88906C6.73483 11.4292 6.73357 13.9696 6.73325 16.5097C6.73325 16.9213 6.56573 17.0879 6.15197 17.0879C5.19879 17.0879 4.24562 17.0882 3.29245 17.0879C2.93347 17.0879 2.7521 16.9068 2.7521 16.5478C2.75178 14.0023 2.75052 11.4569 2.75493 8.91142C2.75493 8.75301 2.71179 8.66074 2.57009 8.57446C1.40814 7.86779 0.72861 6.83518 0.520153 5.49175C0.516059 5.46624 0.506613 5.44137 0.5 5.41649C0.5 5.0811 0.5 4.74603 0.5 4.41065C0.578408 3.95087 0.689249 3.50086 0.894873 3.07887C1.36563 2.11303 2.09933 1.42179 3.07706 0.98469H3.39132C3.63316 1.09743 3.72353 1.28449 3.72038 1.55217C3.70999 2.41535 3.71849 3.27885 3.7144 4.14203C3.71377 4.25855 3.74463 4.32279 3.86303 4.35806C4.12313 4.43616 4.37976 4.52622 4.63671 4.61535C4.71544 4.64274 4.78723 4.6377 4.8647 4.61094C5.10685 4.52717 5.34868 4.44214 5.59398 4.3694C5.72435 4.33066 5.77378 4.26768 5.77284 4.12597C5.76623 3.26782 5.77599 2.40968 5.7656 1.55185C5.76245 1.28417 5.85282 1.09711 6.09466 0.984375H6.40892L6.40829 0.98469Z" fill="#4C6BD2"/>
<path d="M11.074 10.3617C10.0009 10.3617 8.92774 10.3586 7.8546 10.3652C7.69526 10.3662 7.64457 10.3192 7.65149 10.1608C7.66314 9.88906 7.65874 9.61634 7.65275 9.34425C7.65023 9.23435 7.68361 9.16129 7.77462 9.09421C8.83768 8.30976 9.51596 7.27337 9.79369 5.9797C9.82046 5.85531 9.87336 5.81059 10.0044 5.81154C10.9308 5.81721 11.8575 5.81248 12.7839 5.81532C13.4486 5.81721 14.0614 6.34311 14.142 7.00633C14.2708 8.06948 14.3772 9.13515 14.5007 10.1989C14.5177 10.3454 14.4632 10.3639 14.3407 10.3636C13.2518 10.3605 12.1629 10.3617 11.0744 10.3617H11.074Z" fill="#4C6BD2"/>
<path d="M11.7391 11.2828C13.0277 11.2828 14.3159 11.2828 15.6044 11.2828C15.8148 11.2828 15.8157 11.2837 15.816 11.4878C15.8163 12.0902 15.8132 12.6924 15.8179 13.2948C15.8192 13.4636 15.7647 13.5996 15.646 13.7165C15.4517 13.9073 15.2584 14.0994 15.0688 14.2946C15.0055 14.3598 14.9369 14.3857 14.8465 14.3857C12.5053 14.3841 10.1644 14.3834 7.82317 14.3866C7.69249 14.3866 7.6525 14.3428 7.65281 14.2143C7.65691 13.2976 7.65785 12.3812 7.65187 11.4645C7.65092 11.3159 7.70382 11.28 7.84269 11.2803C9.14161 11.2844 10.4405 11.2828 11.7391 11.2828ZM13.0875 13.325C13.3281 13.325 13.569 13.331 13.8095 13.3234C14.1021 13.3143 14.3105 13.1169 14.3096 12.864C14.3087 12.6158 14.1077 12.4143 13.8231 12.4083C13.3419 12.3985 12.8605 12.3998 12.3793 12.4083C12.1724 12.4121 12.0037 12.505 11.9274 12.7131C11.8147 13.0205 12.0355 13.3105 12.3973 13.3234C12.6271 13.3316 12.8576 13.325 13.0878 13.325H13.0875Z" fill="#4C6BD2"/>
<path d="M13.0874 15.3056C13.6007 15.3056 14.1139 15.3104 14.6269 15.3028C14.7724 15.3006 14.8165 15.3494 14.8133 15.4918C14.8051 15.8583 14.8124 16.2249 14.8098 16.5914C14.8079 16.8893 14.6152 17.0859 14.3199 17.0865C13.4873 17.0884 12.6544 17.0884 11.8218 17.0865C11.5331 17.0859 11.3353 16.8912 11.3328 16.6069C11.3297 16.2299 11.336 15.8526 11.3297 15.4757C11.3275 15.3469 11.37 15.3022 11.5003 15.3038C12.0294 15.3094 12.5581 15.306 13.0871 15.306L13.0874 15.3056Z" fill="#4C6BD2"/>
<path d="M16.6016 9.50632C16.6016 9.73653 16.5972 9.96673 16.6035 10.1966C16.6066 10.3147 16.5717 10.3664 16.4441 10.3632C16.1566 10.356 15.8691 10.3579 15.5816 10.3626C15.473 10.3645 15.4255 10.3323 15.4135 10.2152C15.3537 9.62851 15.2869 9.04277 15.217 8.45734C15.2047 8.35342 15.245 8.3276 15.336 8.32791C15.6078 8.3298 15.8798 8.32382 16.1516 8.33012C16.3997 8.33579 16.5943 8.53481 16.6 8.78485C16.6053 9.02513 16.6013 9.26573 16.6016 9.50632Z" fill="#4C6BD2"/>
</svg>
