<svg width="41" height="41" viewBox="0 0 41 41" fill="none" xmlns="http://www.w3.org/2000/svg">
<rect x="0.492188" width="40.5" height="40.5" rx="20.25" fill="#DDECFF"/>
<path d="M27.3429 21.3647C27.0619 21.11 26.6238 21.1266 26.3285 21.3647L24.1285 23.1243C23.8594 23.341 23.5237 23.4577 23.176 23.4577H20.3593C20.1497 23.4577 19.9783 23.2862 19.9783 23.0767C19.9783 22.8672 20.1497 22.6957 20.3593 22.6957H22.2236C22.6022 22.6957 22.9546 22.4362 23.0165 22.0624C23.0951 21.5862 22.7284 21.1719 22.2641 21.1719H18.4544C17.8115 21.1719 17.1901 21.3933 16.6901 21.7981L15.5829 22.6957H14.2638C14.0542 22.6957 13.8828 22.8672 13.8828 23.0767V25.3625C13.8828 25.5721 14.0542 25.7435 14.2638 25.7435H22.7594C23.1046 25.7435 23.4403 25.6268 23.7118 25.4101L27.3119 22.5291C27.6738 22.241 27.7024 21.6886 27.3429 21.3647Z" fill="#4C6BD2"/>
<path d="M21.9918 19.0286C21.6963 19.0286 21.4186 18.9724 21.1586 18.8602C20.8987 18.748 20.6726 18.5958 20.4803 18.4037C20.2881 18.2114 20.1359 17.9853 20.0238 17.7254C19.9117 17.4655 19.8556 17.1877 19.8555 16.8922C19.8555 16.5967 19.9116 16.319 20.0238 16.059C20.136 15.7991 20.2882 15.573 20.4803 15.3807C20.6726 15.1885 20.8987 15.0363 21.1586 14.9242C21.4186 14.8121 21.6963 14.756 21.9918 14.7559C22.2873 14.7559 22.5651 14.812 22.825 14.9242C23.0849 15.0364 23.311 15.1886 23.5033 15.3807C23.6956 15.573 23.8478 15.7991 23.96 16.059C24.0723 16.319 24.1283 16.5967 24.1282 16.8922C24.1282 17.1877 24.072 17.4655 23.9598 17.7254C23.8476 17.9853 23.6954 18.2114 23.5033 18.4037C23.311 18.5959 23.0849 18.7482 22.825 18.8604C22.5651 18.9726 22.2873 19.0287 21.9918 19.0286Z" fill="#4C6BD2"/>
</svg>
