<svg width="34" height="31" viewBox="0 0 34 31" fill="none" xmlns="http://www.w3.org/2000/svg">
<rect x="0.4375" y="0.212891" width="33.2715" height="29.836" rx="8" fill="#5598EB"/>
<path d="M25.3872 16.5358C25.0334 16.215 24.4817 16.236 24.1099 16.5358L21.3394 18.7516C21.0006 19.0245 20.5778 19.1714 20.1401 19.1714H16.593C16.3292 19.1714 16.1133 18.9555 16.1133 18.6917C16.1133 18.4278 16.3292 18.2119 16.593 18.2119H18.9407C19.4175 18.2119 19.8612 17.8851 19.9392 17.4144C20.0381 16.8147 19.5764 16.293 18.9917 16.293H14.1943C13.3848 16.293 12.6022 16.5718 11.9726 17.0815L10.5783 18.2119H8.91724C8.65338 18.2119 8.4375 18.4278 8.4375 18.6917V21.5701C8.4375 21.8339 8.65338 22.0498 8.91724 22.0498H19.6154C20.0501 22.0498 20.4729 21.9029 20.8147 21.63L25.3482 18.002C25.804 17.6392 25.84 16.9436 25.3872 16.5358Z" fill="white"/>
<path d="M18.6502 13.5933C18.278 13.5933 17.9283 13.5227 17.601 13.3813C17.2737 13.24 16.989 13.0484 16.7468 12.8064C16.5047 12.5643 16.3131 12.2796 16.1719 11.9523C16.0308 11.625 15.9601 11.2753 15.96 10.9031C15.96 10.531 16.0306 10.1812 16.1719 9.85392C16.3133 9.52661 16.5049 9.2419 16.7468 8.99978C16.989 8.75766 17.2737 8.56603 17.601 8.42488C17.9283 8.28373 18.278 8.21307 18.6502 8.21289C19.0223 8.21289 19.372 8.28355 19.6994 8.42488C20.0267 8.56621 20.3114 8.75784 20.5535 8.99978C20.7956 9.2419 20.9873 9.52661 21.1287 9.85392C21.27 10.1812 21.3406 10.531 21.3404 10.9031C21.3404 11.2753 21.2697 11.625 21.1284 11.9523C20.9871 12.2796 20.7954 12.5643 20.5535 12.8064C20.3114 13.0485 20.0267 13.2403 19.6994 13.3816C19.372 13.5229 19.0223 13.5935 18.6502 13.5933Z" fill="white"/>
</svg>
