<svg width="27" height="26" viewBox="0 0 27 26" xmlns="http://www.w3.org/2000/svg">
<path d="M9.59277 8.92787H10.4292V10.4515H8.64049L9.12298 9.24688C9.19916 9.05484 9.38485 8.92787 9.59277 8.92787ZM11.191 10.4515V8.92787H12.4797C12.6337 8.92787 12.7797 8.9977 12.8765 9.11832L13.9431 10.4515H11.191ZM15.2572 10.4674L13.6701 8.48347C13.3812 8.12161 12.9432 7.91211 12.4797 7.91211H9.59277C8.96903 7.91211 8.40877 8.29143 8.17864 8.86914L7.5184 10.5213C7.14066 10.6705 6.87402 11.0372 6.87402 11.4673V13.2448C6.87402 13.5258 7.10098 13.7527 7.3819 13.7527H7.91042C8.03104 14.4733 8.65795 15.0224 9.41342 15.0224C10.1689 15.0224 10.7958 14.4733 10.9164 13.7527H12.9892C13.1098 14.4733 13.7367 15.0224 14.4922 15.0224C15.2477 15.0224 15.8746 14.4733 15.9952 13.7527H16.5237C16.8047 13.7527 17.0316 13.5258 17.0316 13.2448V12.483C17.0316 11.4482 16.2571 10.5943 15.2572 10.4674ZM13.7732 13.2448C13.8056 13.1492 13.8566 13.061 13.9233 12.9853C13.99 12.9095 14.0711 12.8478 14.1619 12.8037C14.2527 12.7596 14.3513 12.734 14.4521 12.7283C14.5528 12.7226 14.6537 12.737 14.7489 12.7706C14.844 12.8043 14.9316 12.8565 15.0064 12.9243C15.0812 12.992 15.1418 13.074 15.1846 13.1653C15.2275 13.2567 15.2518 13.3557 15.2561 13.4565C15.2603 13.5574 15.2445 13.658 15.2096 13.7527C15.1773 13.8483 15.1263 13.9366 15.0595 14.0123C14.9928 14.088 14.9117 14.1497 14.8209 14.1939C14.7302 14.238 14.6315 14.2636 14.5308 14.2693C14.43 14.275 14.3291 14.2606 14.234 14.2269C14.1388 14.1933 14.0513 14.1411 13.9765 14.0733C13.9017 14.0055 13.8411 13.9236 13.7982 13.8322C13.7554 13.7409 13.7311 13.6419 13.7268 13.541C13.7225 13.4402 13.7383 13.3395 13.7732 13.2448ZM9.41342 12.737C9.61547 12.737 9.80924 12.8172 9.95211 12.9601C10.095 13.103 10.1752 13.2967 10.1752 13.4988C10.1752 13.7008 10.095 13.8946 9.95211 14.0375C9.80924 14.1803 9.61547 14.2606 9.41342 14.2606C9.21137 14.2606 9.0176 14.1803 8.87473 14.0375C8.73186 13.8946 8.6516 13.7008 8.6516 13.4988C8.6516 13.2967 8.73186 13.103 8.87473 12.9601C9.0176 12.8172 9.21137 12.737 9.41342 12.737Z"/>
<path d="M18.3145 14.6386C18.4945 14.4285 18.7156 14.2544 18.9653 14.1286V9.70527H18.356L18.3145 14.6386Z" />
<path d="M18.356 9.70527V8.57153C18.138 8.51327 17.7242 8.65845 17.8132 9.70527L17.8315 15.3206H17.9245C17.9296 15.3056 17.9349 15.2907 17.9404 15.2759C18.0268 15.0409 18.1544 14.8255 18.3145 14.6386L18.356 9.70527Z" />
<path fill-rule="evenodd" clip-rule="evenodd" d="M3.45627 16.4533C3.66706 17.3886 4.50624 18.0885 5.50442 18.0885C6.49848 18.0885 7.332 17.3886 7.54131 16.4533H17.864C18.0738 17.3886 18.9094 18.0885 19.9076 18.0885C20.9058 18.0885 21.7371 17.3886 21.9457 16.4533H22.6155C23.7267 16.4533 24.3291 15.8557 24.3291 14.7444V12.6593C24.3291 12.0526 24.2301 11.7671 23.8903 11.3847L21.891 9.12611C21.5271 8.71843 21.1183 8.57153 20.5116 8.57153H18.9653H18.356V9.70527H18.9653H20.414C20.7117 9.70527 20.9267 9.76579 21.155 10.0183L22.9524 12.0377C23.1131 12.2179 23.1954 12.4582 23.1954 12.693V14.6895C23.1954 15.1149 22.9797 15.3206 22.5595 15.3206H21.8855C21.606 14.4983 20.8277 13.9055 19.9076 13.9055C19.5687 13.9055 19.2486 13.986 18.9653 14.1286C18.7156 14.2544 18.4945 14.4285 18.3145 14.6386C18.1544 14.8255 18.0268 15.0409 17.9404 15.2759C17.9349 15.2907 17.9296 15.3056 17.9245 15.3206H17.8315H7.48093C7.20056 14.4983 6.42069 13.9055 5.50442 13.9055C4.58435 13.9055 3.79937 14.4983 3.51708 15.3206C3.44461 15.5317 3.40527 15.7579 3.40527 15.9931C3.40527 16.1512 3.4229 16.3052 3.45627 16.4533ZM20.065 12.7146H22.5155C22.5155 12.5776 22.4644 12.5043 22.3785 12.4078L20.7051 10.5251C20.5713 10.3814 20.4237 10.2975 20.2436 10.2975H19.5404V12.1937C19.5404 12.5155 19.7432 12.7146 20.065 12.7146ZM5.50442 17.1425C4.86959 17.1425 4.3513 16.6279 4.3513 15.9931C4.3513 15.363 4.86959 14.8447 5.50442 14.8447C6.13451 14.8447 6.64595 15.363 6.64595 15.9931C6.64595 16.6279 6.13451 17.1425 5.50442 17.1425ZM19.9076 17.1425C19.2775 17.1425 18.7592 16.6279 18.7592 15.9931C18.7592 15.363 19.2775 14.8447 19.9076 14.8447C20.534 14.8447 21.0502 15.363 21.0502 15.9931C21.0502 16.6279 20.5435 17.1425 19.9076 17.1425Z"/>
</svg>
