<svg width="18" height="18" viewBox="0 0 18 18" fill="none" xmlns="http://www.w3.org/2000/svg">
<path d="M6.2051 15.7352H11.7999C12.7317 15.7352 13.3368 15.1647 13.3805 14.2318L13.7929 5.46257H14.4663C14.7663 5.46257 15 5.22433 15 4.92437C15 4.6266 14.7663 4.39336 14.4663 4.39336H3.53868C3.24372 4.39336 3 4.6266 3 4.92437C3 5.22932 3.24372 5.46257 3.53868 5.46257H4.21214L4.62446 14.2368C4.66926 15.1697 5.26334 15.7352 6.2051 15.7352ZM6.32538 14.6583C5.98828 14.6583 5.74736 14.4097 5.7302 14.0505L5.31617 5.46257H12.6628L12.2698 14.0505C12.2577 14.4157 12.0167 14.6583 11.6696 14.6583H6.32538ZM7.2076 13.6744C7.46411 13.6744 7.62942 13.5119 7.62334 13.2725L7.43684 6.89104C7.42965 6.65389 7.26214 6.49637 7.01672 6.49637C6.76242 6.49637 6.59819 6.65889 6.60427 6.89713L6.78579 13.2758C6.79297 13.5179 6.96157 13.6744 7.2076 13.6744ZM9.00057 13.6744C9.25269 13.6744 9.43018 13.514 9.43018 13.2769V6.89493C9.43018 6.65779 9.25269 6.49637 9.00057 6.49637C8.74736 6.49637 8.57486 6.65779 8.57486 6.89493V13.2769C8.57486 13.514 8.74736 13.6744 9.00057 13.6744ZM10.7974 13.6744C11.0395 13.6744 11.207 13.5179 11.2142 13.2758L11.3957 6.89713C11.4018 6.65889 11.2376 6.49637 10.9833 6.49637C10.7379 6.49637 10.5703 6.65389 10.5632 6.89603L10.3817 13.2725C10.3756 13.5119 10.5409 13.6744 10.7974 13.6744ZM6.23529 4.80033H7.35868V3.53608C7.35868 3.2209 7.57915 3.01869 7.91807 3.01869H10.072C10.4109 3.01869 10.6314 3.2209 10.6314 3.53608V4.80033H11.7548V3.47959C11.7548 2.54879 11.1607 2 10.1521 2H7.83796C6.82937 2 6.23529 2.54879 6.23529 3.47959V4.80033Z" fill="white"/>
</svg>
