<svg width="17" height="17" viewBox="0 0 17 17" xmlns="http://www.w3.org/2000/svg">
<path fill-rule="evenodd" clip-rule="evenodd" d="M4.59019 7.93789C4.59019 5.73188 6.38347 3.93788 8.58858 3.93788C10.7937 3.93788 12.587 5.73188 12.587 7.93789C12.587 10.1439 10.7937 11.9379 8.58858 11.9379C6.38347 11.9379 4.59019 10.1439 4.59019 7.93789ZM6.58938 7.93789C6.58938 9.04089 7.48602 9.93788 8.58858 9.93788C9.69114 9.93788 10.5878 9.04089 10.5878 7.93789C10.5878 6.83488 9.69114 5.93788 8.58858 5.93788C7.48602 5.93788 6.58938 6.83488 6.58938 7.93789Z" />
<path fill-rule="evenodd" clip-rule="evenodd" d="M16.3697 9.10156C16.512 8.82138 16.429 7.65149 16.3697 7.10156C15.8749 3.16156 12.5122 0.101563 8.44185 0.101563C4.37149 0.101563 1.00884 3.16156 0.514036 7.10156C0.464164 7.48946 0.394545 8.4325 0.515041 9.10156C1.00984 13.0416 4.37248 16.1016 8.44285 16.1016C12.5132 16.1016 15.8749 13.0416 16.3697 9.10156ZM8.44185 14.1016C5.13418 14.1016 2.44426 11.4106 2.44426 8.10156C2.44426 4.79256 5.13418 2.10156 8.44185 2.10156C11.7495 2.10156 14.4394 4.79256 14.4394 8.10156C14.4394 11.4106 11.7495 14.1016 8.44185 14.1016Z" />
</svg>
