<svg width="16" height="16" viewBox="0 0 16 16" fill="none" xmlns="http://www.w3.org/2000/svg">
<path d="M8 0.5C7.01509 0.5 6.03982 0.693993 5.12987 1.0709C4.21993 1.44781 3.39314 2.00026 2.6967 2.6967C1.29018 4.10322 0.5 6.01088 0.5 8C0.5 9.98912 1.29018 11.8968 2.6967 13.3033C3.39314 13.9997 4.21993 14.5522 5.12987 14.9291C6.03982 15.306 7.01509 15.5 8 15.5C9.98912 15.5 11.8968 14.7098 13.3033 13.3033C14.7098 11.8968 15.5 9.98912 15.5 8C15.5 7.01509 15.306 6.03982 14.9291 5.12987C14.5522 4.21993 13.9997 3.39314 13.3033 2.6967C12.6069 2.00026 11.7801 1.44781 10.8701 1.0709C9.96018 0.693993 8.98491 0.5 8 0.5ZM8 14C4.6925 14 2 11.3075 2 8C2 4.6925 4.6925 2 8 2C11.3075 2 14 4.6925 14 8C14 11.3075 11.3075 14 8 14ZM8.1875 8.9525H7.1075V11.375H5.75V4.7825H8.195C8.9675 4.7825 9.5675 4.955 9.995 5.3C10.415 5.6525 10.625 6.125 10.625 6.77C10.625 7.22 10.5275 7.595 10.3325 7.895C10.1375 8.195 9.845 8.435 9.4475 8.6075L10.8725 11.3V11.375H9.4175L8.1875 8.9525ZM7.1075 7.8575H8.2025C8.54 7.8575 8.8025 7.7675 8.99 7.595C9.1775 7.4225 9.2675 7.1825 9.2675 6.875C9.2675 6.5675 9.185 6.3275 9.005 6.1475C8.8325 5.9675 8.5625 5.885 8.195 5.885H7.1075V7.8575Z" fill="#D2A120"/>
</svg>
