<svg width="18" height="18" viewBox="0 0 18 18" fill="none" xmlns="http://www.w3.org/2000/svg">
<path d="M13.6134 8.16371C13.6134 7.9834 13.548 7.82063 13.4054 7.67295L9.31265 3.57394C9.17681 3.43299 8.99488 3.35749 8.80724 3.35749C8.61959 3.35749 8.43654 3.43299 8.3018 3.57394L4.21186 7.67295C4.07041 7.82063 4 7.9834 4 8.16371C4 8.54177 4.27495 8.82243 4.64912 8.82243C4.84173 8.82243 5.0131 8.74926 5.13083 8.62532L6.53984 7.23445L8.61699 4.92384L8.20382 4.7203L8.12944 6.74502V14.464C8.12944 14.8718 8.40724 15.149 8.80724 15.149C9.20724 15.149 9.48506 14.8718 9.48506 14.464V6.74502L9.41067 4.7203L9.00258 4.92384L11.0746 7.23445L12.4825 8.62532C12.6042 8.74926 12.7716 8.82243 12.9642 8.82243C13.3384 8.82243 13.6134 8.54177 13.6134 8.16371ZM13.6134 2.69086C13.6134 2.30986 13.3402 2.02026 12.9631 2.02026H4.66042C4.27718 2.02026 4 2.30986 4 2.69086C4 3.07298 4.27718 3.35749 4.66042 3.35749H12.9631C13.3402 3.35749 13.6134 3.07298 13.6134 2.69086Z" fill="white"/>
</svg>
