<svg width="19" height="18" viewBox="0 0 19 18" fill="none" xmlns="http://www.w3.org/2000/svg">
<path d="M14.1134 8.16298C14.1134 7.98267 14.048 7.81989 13.9054 7.67222L9.81265 3.57321C9.67681 3.43226 9.49488 3.35676 9.30724 3.35676C9.11959 3.35676 8.93654 3.43226 8.8018 3.57321L4.71186 7.67222C4.57041 7.81989 4.5 7.98267 4.5 8.16298C4.5 8.54103 4.77495 8.8217 5.14912 8.8217C5.34173 8.8217 5.5131 8.74853 5.63083 8.62459L7.03984 7.23371L9.11699 4.9231L8.70382 4.71957L8.62944 6.74429V14.4632C8.62944 14.8711 8.90724 15.1482 9.30724 15.1482C9.70724 15.1482 9.98506 14.8711 9.98506 14.4632V6.74429L9.91067 4.71957L9.50258 4.9231L11.5746 7.23371L12.9825 8.62459C13.1042 8.74853 13.2716 8.8217 13.4642 8.8217C13.8384 8.8217 14.1134 8.54103 14.1134 8.16298ZM14.1134 2.69013C14.1134 2.30913 13.8402 2.01953 13.4631 2.01953H5.16042C4.77718 2.01953 4.5 2.30913 4.5 2.69013C4.5 3.07225 4.77718 3.35676 5.16042 3.35676H13.4631C13.8402 3.35676 14.1134 3.07225 14.1134 2.69013Z" fill="#1A2233"/>
</svg>
