<svg width="18" height="14" viewBox="0 0 18 14" xmlns="http://www.w3.org/2000/svg">
<path d="M16.1582 9.87594C16.1582 10.8562 15.6471 11.4174 14.6805 11.4174H14.3621C14.3764 11.3321 14.3835 11.2425 14.3835 11.152C14.3835 9.90799 13.3681 8.8935 12.1241 8.8935C10.8811 8.8935 9.87089 9.90799 9.87089 11.152C9.87089 11.2435 9.87901 11.335 9.8933 11.4221L6.64513 11.4231C6.65938 11.3325 6.66655 11.2401 6.66655 11.1477C6.66655 10.524 6.42274 9.9619 6.00155 9.57921V2.9352C6.00155 1.92849 6.54196 1.38281 7.55299 1.38281H11.6844C11.462 1.83291 11.3399 2.33931 11.3399 2.86861C11.3399 4.75136 12.9052 6.31857 14.788 6.31857C15.273 6.31857 15.7361 6.2154 16.1582 6.03161V9.87594ZM5.26121 4.28382V9.08859C5.01575 8.96378 4.72959 8.8892 4.42958 8.8892C3.18658 8.8892 2.15484 9.90368 2.15484 11.1477C2.15484 11.2401 2.16201 11.3325 2.17626 11.424H1.88522C0.915462 11.424 0.39827 10.8613 0.39827 9.87594V7.98703C0.39827 7.43734 0.487949 7.17875 0.795754 6.83231L2.60696 4.78622C2.93668 4.41691 3.30696 4.28382 3.8566 4.28382H5.26121ZM3.78278 7.74712C4.09202 7.74712 4.28908 7.5553 4.28908 7.24176V5.41806H3.85808C3.61364 5.41806 3.46081 5.46386 3.26165 5.684L1.69856 7.44048C1.61641 7.5341 1.56052 7.62629 1.54237 7.74712H3.78278ZM12.1241 12.7638C11.2318 12.7638 10.5132 12.039 10.5132 11.152C10.5132 10.2621 11.2352 9.54013 12.1241 9.54013C13.014 9.54013 13.7369 10.2621 13.7369 11.152C13.7369 12.0366 13.014 12.7638 12.1241 12.7638ZM4.41238 12.7638C3.51818 12.7638 2.80146 12.0457 2.80146 11.1477C2.80146 10.2578 3.52248 9.53582 4.41238 9.53582C5.30227 9.53582 6.02423 10.2578 6.02423 11.1477C6.02423 12.0366 5.30227 12.7638 4.41238 12.7638Z"/>
<path fill-rule="evenodd" clip-rule="evenodd" d="M12.0808 2.87003C12.0808 4.34805 13.3168 5.57396 14.7838 5.57396C16.2628 5.57396 17.4868 4.35667 17.4868 2.87003C17.4868 1.39106 16.2628 0.167969 14.7838 0.167969C13.2996 0.167969 12.0808 1.38675 12.0808 2.87003ZM16.3994 2.95033C16.3994 3.15348 16.2396 3.31755 16.0322 3.31755H14.7527C14.5452 3.31755 14.3864 3.15778 14.3864 2.95033V1.35571C14.3864 1.15256 14.5505 0.998047 14.7527 0.998047C14.9549 0.998047 15.119 1.15256 15.119 1.35571V2.58836H16.0322C16.2353 2.58836 16.3994 2.75243 16.3994 2.95033Z" />
</svg>
