<svg width="16" height="12" viewBox="0 0 16 12" xmlns="http://www.w3.org/2000/svg">
<path fill-rule="evenodd" clip-rule="evenodd" d="M3.35557 10.8958V11.4804C3.35557 11.7618 3.13048 12 2.8645 12H0.736631C0.470641 12 0.266 11.7618 0.266 11.4804C0.266 9.96483 0.266 8.44928 0.286447 6.93373C0.306893 5.1151 1.02307 4.59545 1.16627 4.42217H0.306881C0.143219 4.42217 0 4.27063 0 4.09744V3.68607C0 3.51289 0.204643 3.33972 0.368299 3.31797L1.86188 3.10143L2.84394 1.15289C2.92582 1.02298 3.45777 0.416787 4.11252 0.308527C6.6291 -0.102842 9.35049 -0.102842 11.8874 0.308527C12.5217 0.416802 13.0537 1.02298 13.1355 1.15289L14.1381 3.10143L15.6317 3.31797C15.7954 3.33961 16 3.51279 16 3.68607V4.09744C16 4.27063 15.8568 4.42217 15.6931 4.42217H14.8133C14.977 4.59536 15.6931 5.11501 15.7136 6.93373C15.7136 8.44928 15.734 9.96483 15.734 11.4804C15.734 11.7618 15.5089 12 15.2634 12H13.1151C12.8491 12 12.6445 11.7618 12.6445 11.4804V10.8958C9.5345 11.0906 6.44489 11.0906 3.3555 10.8958H3.35557ZM4.19441 1.23972C3.94887 1.30463 3.72378 1.4129 3.51923 1.73773C3.2328 2.32228 2.94638 2.92854 2.65984 3.51309H13.3401C13.0537 2.92854 12.7673 2.32228 12.4807 1.73773C12.2761 1.413 12.0511 1.30474 11.8055 1.23972C9.26839 0.91499 6.73124 0.91499 4.19431 1.23972H4.19441ZM14.7316 7.21532C13.7495 7.41013 12.7878 7.54005 11.8468 7.75659C11.6217 7.8865 11.458 8.10295 11.3148 8.36276C11.2739 8.47104 11.2739 8.64423 11.2944 8.8174C12.2151 8.66586 13.1358 8.51432 14.0361 8.34114C14.343 8.23287 14.5681 7.99479 14.7317 7.66996C14.7726 7.45341 14.7726 7.30186 14.7317 7.21532H14.7316ZM1.26868 7.21532C2.23028 7.41013 3.192 7.54005 4.13315 7.75659C4.35824 7.8865 4.54234 8.10295 4.68556 8.36276C4.70601 8.47104 4.70601 8.64423 4.68556 8.8174C3.76485 8.66586 2.86457 8.51432 1.94384 8.34114C1.63696 8.23287 1.41188 7.99479 1.2482 7.66996C1.22775 7.45341 1.22775 7.30186 1.26865 7.21532H1.26868Z"/>
</svg>
