<svg width="16" height="17" viewBox="0 0 16 17" fill="none" xmlns="http://www.w3.org/2000/svg">
<path d="M5.96129 4.12163H15.4733C15.7653 4.12163 16 3.88437 16 3.58967C16 3.2966 15.7663 3.0625 15.4733 3.0625H5.96129C5.66449 3.0625 5.43457 3.29871 5.43457 3.58967C5.43457 3.88121 5.66554 4.12163 5.96129 4.12163ZM5.96129 7.1879H15.4733C15.7653 7.1879 16 6.94959 16 6.65488C16 6.36182 15.7663 6.12772 15.4733 6.12772H5.96129C5.66449 6.12772 5.43457 6.36498 5.43457 6.65488C5.43457 6.94748 5.66554 7.1879 5.96129 7.1879ZM5.96129 10.2552H15.4733C15.7653 10.2552 16 10.0121 16 9.7222C16 9.42914 15.7663 9.19503 15.4733 9.19503H5.96129C5.66449 9.19503 5.43457 9.43124 5.43457 9.7222C5.43457 10.009 5.66554 10.2552 5.96129 10.2552ZM5.96129 13.3156H11.7363C12.0283 13.3156 12.263 13.0773 12.263 12.7885C12.263 12.4943 12.0294 12.2554 11.7363 12.2554H5.96129C5.66449 12.2554 5.43457 12.4975 5.43457 12.7885C5.43457 13.0752 5.66554 13.3156 5.96129 13.3156Z" fill="#4C6BD2"/>
<path d="M2.21494 13.5794L3.42593 11.9675C3.6736 11.6358 3.53918 11.217 3.10596 11.217H2.28899V5.14237H3.10596C3.52959 5.14237 3.6832 4.73419 3.42593 4.39292L2.21494 2.78579C2.04963 2.56198 1.73492 2.56783 1.5744 2.78579L0.363408 4.39292C0.108832 4.73629 0.262444 5.14237 0.685489 5.14237H1.50198V11.217H0.685489C0.262444 11.217 0.108832 11.6242 0.363408 11.9675L1.5744 13.5794C1.73971 13.7974 2.04963 13.7984 2.21494 13.5794Z" fill="#4C6BD2"/>
</svg>
