<svg width="12" height="15" viewBox="0 0 12 15" fill="none" xmlns="http://www.w3.org/2000/svg">
<path d="M3.05498 14.4453H9.88842C11.2636 14.4453 11.9717 13.7196 11.9717 12.3277V6.45948C11.9717 5.56107 11.857 5.1488 11.2988 4.57536L7.92926 1.12496C7.39324 0.57273 6.94754 0.445312 6.14709 0.445312H3.05498C1.68617 0.445312 0.97168 1.17632 0.97168 2.56821V12.3277C0.97168 13.7249 1.68091 14.4453 3.05498 14.4453ZM3.15531 13.1781C2.53614 13.1781 2.22848 12.8514 2.22848 12.2489V2.64699C2.22848 2.04974 2.53614 1.7125 3.16057 1.7125H5.89512V5.25966C5.89512 6.18523 6.34313 6.63279 7.25699 6.63279H10.7149V12.2489C10.7149 12.8514 10.4073 13.1781 9.78397 13.1781H3.15531ZM7.37594 5.51527C7.11012 5.51527 7.00348 5.4013 7.00348 5.13444V1.88856L10.5403 5.51527H7.37594Z" fill="#0B0E15"/>
<path d="M8.33775 8.44531L5.63686 11.4462L4.40918 10.0822" stroke="#1A2233" stroke-linecap="round" stroke-linejoin="round"/>
</svg>
