<svg width="28" height="28" viewBox="0 0 28 28" fill="none" xmlns="http://www.w3.org/2000/svg">
<circle cx="14.0004" cy="14.0026" r="12.6667" fill="white"/>
<circle cx="14" cy="14" r="13.5" stroke="#CFCFCF"/>
<path d="M14.5013 17.0009C17.7835 17.0009 20 14.3302 20 13.5036C20 12.6752 17.7802 10.0078 14.5013 10.0078C11.2667 10.0078 9 12.6752 9 13.5036C9 14.3302 11.2634 17.0009 14.5013 17.0009ZM14.5013 16.2257C11.9402 16.2257 9.90665 14.0668 9.90665 13.5036C9.90665 13.0315 11.9402 10.783 14.5013 10.783C17.0525 10.783 19.0934 13.0315 19.0934 13.5036C19.0934 14.0668 17.0525 16.2257 14.5013 16.2257ZM14.502 15.6822C15.7016 15.6822 16.6628 14.6896 16.6628 13.5036C16.6628 12.2883 15.7016 11.3273 14.502 11.3273C13.2973 11.3273 12.3313 12.2875 12.3346 13.5036C12.3412 14.6896 13.2973 15.6822 14.502 15.6822ZM14.5006 14.2094C14.1116 14.2094 13.7977 13.8896 13.7977 13.5036C13.7977 13.1143 14.1116 12.7993 14.5006 12.7993C14.8884 12.7993 15.2031 13.1143 15.2031 13.5036C15.2031 13.8896 14.8884 14.2094 14.5006 14.2094Z" fill="#1A2233"/>
</svg>
