<svg width="14" height="9" viewBox="0 0 14 9" fill="none" xmlns="http://www.w3.org/2000/svg">
<path d="M7.00163 8.8251C11.179 8.8251 14 5.45769 14 4.41553C14 3.37106 11.1748 0.0078125 7.00163 0.0078125C2.88493 0.0078125 0 3.37106 0 4.41553C0 5.45769 2.88075 8.8251 7.00163 8.8251ZM7.00163 7.84767C3.74211 7.84767 1.15392 5.1257 1.15392 4.41553C1.15392 3.82024 3.74211 0.98524 7.00163 0.98524C10.2486 0.98524 12.8461 3.82024 12.8461 4.41553C12.8461 5.1257 10.2486 7.84767 7.00163 7.84767ZM7.00254 7.16242C8.52936 7.16242 9.75265 5.91086 9.75265 4.41553C9.75265 2.88316 8.52936 1.67145 7.00254 1.67145C5.46925 1.67145 4.2399 2.88224 4.24408 4.41553C4.25243 5.91086 5.46925 7.16242 7.00254 7.16242ZM7.00072 5.30543C6.50568 5.30543 6.10612 4.90222 6.10612 4.41553C6.10612 3.92469 6.50568 3.52748 7.00072 3.52748C7.49432 3.52748 7.8948 3.92469 7.8948 4.41553C7.8948 4.90222 7.49432 5.30543 7.00072 5.30543Z" fill="#1A2233"/>
</svg>
