<svg width="21" height="20" viewBox="0 0 21 20" fill="none" xmlns="http://www.w3.org/2000/svg">
<rect x="0.5" width="20" height="20" rx="10" fill="#FC0000"/>
<path d="M5.69881 14.7988C5.96865 15.0623 6.42378 15.0589 6.68071 14.8022L10.5004 10.9856L14.3177 14.8011C14.5792 15.0623 15.0338 15.0663 15.2985 14.7977C15.5633 14.5281 15.5644 14.084 15.303 13.8217L11.4856 10.0012L15.303 6.18686C15.5644 5.92567 15.5684 5.47649 15.2985 5.21195C15.0287 4.94232 14.5792 4.9412 14.3177 5.20748L10.5004 9.0218L6.68071 5.20636C6.42378 4.94567 5.96356 4.93611 5.69881 5.21083C5.43517 5.48046 5.43852 5.92901 5.69545 6.18574L9.51509 10.0012L5.69545 13.8239C5.43852 14.0795 5.43007 14.5343 5.69881 14.7988Z" fill="#FAFBFC"/>
</svg>
